<?xml version="1.0" encoding="utf-8" standalone="no"?>
<!DOCTYPE svg PUBLIC "-//W3C//DTD SVG 1.1//EN"
  "http://www.w3.org/Graphics/SVG/1.1/DTD/svg11.dtd">
<svg xmlns:xlink="http://www.w3.org/1999/xlink" width="403.2pt" height="518.4pt" viewBox="0 0 403.2 518.4" xmlns="http://www.w3.org/2000/svg" version="1.1">
 <metadata>
  <rdf:RDF xmlns:dc="http://purl.org/dc/elements/1.1/" xmlns:cc="http://creativecommons.org/ns#" xmlns:rdf="http://www.w3.org/1999/02/22-rdf-syntax-ns#">
   <cc:Work>
    <dc:type rdf:resource="http://purl.org/dc/dcmitype/StillImage"/>
    <dc:date>2022-10-24T18:11:59.317822</dc:date>
    <dc:format>image/svg+xml</dc:format>
    <dc:creator>
     <cc:Agent>
      <dc:title>Matplotlib v3.5.3, https://matplotlib.org/</dc:title>
     </cc:Agent>
    </dc:creator>
   </cc:Work>
  </rdf:RDF>
 </metadata>
 <defs>
  <style type="text/css">*{stroke-linejoin: round; stroke-linecap: butt}</style>
 </defs>
 <g id="figure_1">
  <g id="patch_1">
   <path d="M 0 518.4 
L 403.2 518.4 
L 403.2 0 
L 0 0 
L 0 518.4 
z
" style="fill: none"/>
  </g>
  <g id="axes_1">
   <g id="patch_2">
    <path d="M 50.4 453.6 
L 362.88 453.6 
L 362.88 62.208 
L 50.4 62.208 
z
" style="fill: #ffffff"/>
   </g>
   <g id="PolyCollection_1">
    <path d="M 64.603636 402.2298 
L 64.603636 404.676 
L 76.44 404.43138 
L 88.276364 403.94214 
L 100.112727 403.69752 
L 111.949091 398.5605 
L 123.785455 388.89801 
L 135.621818 379.11321 
L 147.458182 369.32841 
L 159.294545 364.43601 
L 171.130909 360.15516 
L 182.967273 350.12574 
L 194.803636 346.45644 
L 206.64 344.25486 
L 218.476364 341.80866 
L 230.312727 339.36246 
L 242.149091 336.818412 
L 253.985455 334.47006 
L 265.821818 332.14617 
L 277.658182 329.94459 
L 289.494545 327.74301 
L 301.330909 325.54143 
L 313.167273 323.33985 
L 325.003636 321.01596 
L 336.84 318.81438 
L 336.84 307.80648 
L 336.84 307.80648 
L 325.003636 310.4973 
L 313.167273 313.31043 
L 301.330909 316.00125 
L 289.494545 318.69207 
L 277.658182 321.38289 
L 265.821818 324.07371 
L 253.985455 326.64222 
L 242.149091 329.33304 
L 230.312727 331.77924 
L 218.476364 334.47006 
L 206.64 337.16088 
L 194.803636 339.8517 
L 182.967273 343.27638 
L 171.130909 355.01814 
L 159.294545 359.54361 
L 147.458182 364.92525 
L 135.621818 374.95467 
L 123.785455 385.22871 
L 111.949091 394.64658 
L 100.112727 401.0067 
L 88.276364 399.04974 
L 76.44 401.98518 
L 64.603636 402.2298 
z
" clip-path="url(#pc621c467b0)" style="fill: #0000ff; fill-opacity: 0.6"/>
   </g>
   <g id="matplotlib.axis_1">
    <g id="xtick_1">
     <g id="line2d_1">
      <defs>
       <path id="md7d878b8d2" d="M 0 0 
L 0 3.5 
" style="stroke: #000000; stroke-width: 0.8"/>
      </defs>
      <g>
       <use xlink:href="#md7d878b8d2" x="64.603636" y="453.6" style="stroke: #000000; stroke-width: 0.8"/>
      </g>
     </g>
     <g id="text_1">
      <!-- 1997 -->
      <g transform="translate(67.416136 480.6)rotate(-90)scale(0.1 -0.1)">
       <defs>
        <path id="SimHei-31" d="M 1400 3600 
Q 1075 3275 575 2975 
L 575 3450 
Q 1200 3875 1600 4450 
L 1900 4450 
L 1900 150 
L 1400 150 
L 1400 3600 
z
" transform="scale(0.015625)"/>
        <path id="SimHei-39" d="M 800 75 
Q 1350 1000 1700 1750 
Q 1075 1650 662 1912 
Q 250 2175 162 2625 
Q 75 3075 175 3437 
Q 275 3800 487 4037 
Q 700 4275 1000 4375 
Q 1300 4475 1537 4475 
Q 1775 4475 2025 4375 
Q 2275 4275 2475 4075 
Q 2675 3875 2750 3662 
Q 2825 3450 2825 3112 
Q 2825 2775 2575 2250 
Q 2325 1725 1350 75 
L 800 75 
z
M 662 2875 
Q 700 2550 937 2337 
Q 1175 2125 1450 2150 
Q 1725 2175 1887 2300 
Q 2050 2425 2200 2725 
Q 2300 3100 2250 3362 
Q 2200 3625 1987 3800 
Q 1775 3975 1525 3975 
Q 1375 4000 1137 3900 
Q 900 3800 762 3500 
Q 625 3200 662 2875 
z
" transform="scale(0.015625)"/>
        <path id="SimHei-37" d="M 850 150 
Q 1300 2050 2425 3925 
L 275 3925 
L 275 4375 
L 2950 4375 
L 2950 3950 
Q 1775 2050 1400 150 
L 850 150 
z
" transform="scale(0.015625)"/>
       </defs>
       <use xlink:href="#SimHei-31"/>
       <use xlink:href="#SimHei-39" x="50"/>
       <use xlink:href="#SimHei-39" x="100"/>
       <use xlink:href="#SimHei-37" x="150"/>
      </g>
     </g>
    </g>
    <g id="xtick_2">
     <g id="line2d_2">
      <g>
       <use xlink:href="#md7d878b8d2" x="76.44" y="453.6" style="stroke: #000000; stroke-width: 0.8"/>
      </g>
     </g>
     <g id="text_2">
      <!-- 1998 -->
      <g transform="translate(79.2525 480.6)rotate(-90)scale(0.1 -0.1)">
       <defs>
        <path id="SimHei-38" d="M 175 1375 
Q 175 1675 325 1962 
Q 475 2250 825 2425 
Q 525 2600 425 2812 
Q 325 3025 312 3300 
Q 300 3575 387 3775 
Q 475 3975 650 4150 
Q 825 4325 1037 4387 
Q 1250 4450 1500 4450 
Q 1750 4450 1950 4400 
Q 2150 4350 2375 4187 
Q 2600 4025 2700 3725 
Q 2800 3425 2687 3025 
Q 2575 2625 2100 2400 
Q 2525 2275 2700 2012 
Q 2875 1750 2875 1375 
Q 2875 1000 2762 775 
Q 2650 550 2512 400 
Q 2375 250 2137 162 
Q 1900 75 1537 75 
Q 1175 75 912 162 
Q 650 250 475 425 
Q 300 600 237 837 
Q 175 1075 175 1375 
z
M 687 1400 
Q 675 1100 787 875 
Q 900 650 1200 587 
Q 1500 525 1825 600 
Q 2150 675 2275 950 
Q 2400 1225 2362 1500 
Q 2325 1775 2050 1962 
Q 1775 2150 1450 2125 
Q 1125 2100 912 1900 
Q 700 1700 687 1400 
z
M 775 3350 
Q 775 3100 950 2875 
Q 1125 2650 1500 2650 
Q 1875 2650 2062 2875 
Q 2250 3100 2237 3412 
Q 2225 3725 2012 3875 
Q 1800 4025 1437 4000 
Q 1075 3975 925 3787 
Q 775 3600 775 3350 
z
" transform="scale(0.015625)"/>
       </defs>
       <use xlink:href="#SimHei-31"/>
       <use xlink:href="#SimHei-39" x="50"/>
       <use xlink:href="#SimHei-39" x="100"/>
       <use xlink:href="#SimHei-38" x="150"/>
      </g>
     </g>
    </g>
    <g id="xtick_3">
     <g id="line2d_3">
      <g>
       <use xlink:href="#md7d878b8d2" x="88.276364" y="453.6" style="stroke: #000000; stroke-width: 0.8"/>
      </g>
     </g>
     <g id="text_3">
      <!-- 1999 -->
      <g transform="translate(91.088864 480.6)rotate(-90)scale(0.1 -0.1)">
       <use xlink:href="#SimHei-31"/>
       <use xlink:href="#SimHei-39" x="50"/>
       <use xlink:href="#SimHei-39" x="100"/>
       <use xlink:href="#SimHei-39" x="150"/>
      </g>
     </g>
    </g>
    <g id="xtick_4">
     <g id="line2d_4">
      <g>
       <use xlink:href="#md7d878b8d2" x="100.112727" y="453.6" style="stroke: #000000; stroke-width: 0.8"/>
      </g>
     </g>
     <g id="text_4">
      <!-- 2000 -->
      <g transform="translate(102.925227 480.6)rotate(-90)scale(0.1 -0.1)">
       <defs>
        <path id="SimHei-32" d="M 300 250 
Q 325 625 650 925 
Q 975 1225 1475 1862 
Q 1975 2500 2125 2850 
Q 2275 3200 2237 3450 
Q 2200 3700 2000 3862 
Q 1800 4025 1537 4000 
Q 1275 3975 1037 3800 
Q 800 3625 675 3275 
L 200 3350 
Q 400 3925 712 4187 
Q 1025 4450 1450 4475 
Q 1700 4500 1900 4462 
Q 2100 4425 2312 4287 
Q 2525 4150 2662 3875 
Q 2800 3600 2762 3212 
Q 2725 2825 2375 2287 
Q 2025 1750 1025 600 
L 2825 600 
L 2825 150 
L 300 150 
L 300 250 
z
" transform="scale(0.015625)"/>
        <path id="SimHei-30" d="M 225 2537 
Q 250 3200 412 3587 
Q 575 3975 875 4225 
Q 1175 4475 1612 4475 
Q 2050 4475 2375 4112 
Q 2700 3750 2800 3200 
Q 2900 2650 2862 1937 
Q 2825 1225 2612 775 
Q 2400 325 1975 150 
Q 1550 -25 1125 187 
Q 700 400 525 750 
Q 350 1100 275 1487 
Q 200 1875 225 2537 
z
M 750 2687 
Q 675 2000 800 1462 
Q 925 925 1212 700 
Q 1500 475 1800 612 
Q 2100 750 2237 1162 
Q 2375 1575 2375 2062 
Q 2375 2550 2337 2950 
Q 2300 3350 2112 3675 
Q 1925 4000 1612 4012 
Q 1300 4025 1062 3700 
Q 825 3375 750 2687 
z
" transform="scale(0.015625)"/>
       </defs>
       <use xlink:href="#SimHei-32"/>
       <use xlink:href="#SimHei-30" x="50"/>
       <use xlink:href="#SimHei-30" x="100"/>
       <use xlink:href="#SimHei-30" x="150"/>
      </g>
     </g>
    </g>
    <g id="xtick_5">
     <g id="line2d_5">
      <g>
       <use xlink:href="#md7d878b8d2" x="111.949091" y="453.6" style="stroke: #000000; stroke-width: 0.8"/>
      </g>
     </g>
     <g id="text_5">
      <!-- 2001 -->
      <g transform="translate(114.761591 480.6)rotate(-90)scale(0.1 -0.1)">
       <use xlink:href="#SimHei-32"/>
       <use xlink:href="#SimHei-30" x="50"/>
       <use xlink:href="#SimHei-30" x="100"/>
       <use xlink:href="#SimHei-31" x="150"/>
      </g>
     </g>
    </g>
    <g id="xtick_6">
     <g id="line2d_6">
      <g>
       <use xlink:href="#md7d878b8d2" x="123.785455" y="453.6" style="stroke: #000000; stroke-width: 0.8"/>
      </g>
     </g>
     <g id="text_6">
      <!-- 2002 -->
      <g transform="translate(126.597955 480.6)rotate(-90)scale(0.1 -0.1)">
       <use xlink:href="#SimHei-32"/>
       <use xlink:href="#SimHei-30" x="50"/>
       <use xlink:href="#SimHei-30" x="100"/>
       <use xlink:href="#SimHei-32" x="150"/>
      </g>
     </g>
    </g>
    <g id="xtick_7">
     <g id="line2d_7">
      <g>
       <use xlink:href="#md7d878b8d2" x="135.621818" y="453.6" style="stroke: #000000; stroke-width: 0.8"/>
      </g>
     </g>
     <g id="text_7">
      <!-- 2003 -->
      <g transform="translate(138.434318 480.6)rotate(-90)scale(0.1 -0.1)">
       <defs>
        <path id="SimHei-33" d="M 250 1225 
L 700 1300 
Q 800 975 1025 762 
Q 1250 550 1587 562 
Q 1925 575 2125 837 
Q 2325 1100 2300 1437 
Q 2275 1775 2037 1962 
Q 1800 2150 1275 2225 
L 1275 2550 
Q 1800 2600 2037 2825 
Q 2275 3050 2250 3412 
Q 2225 3775 1925 3937 
Q 1625 4100 1287 3975 
Q 950 3850 750 3275 
L 300 3350 
Q 450 3800 712 4100 
Q 975 4400 1425 4450 
Q 1875 4500 2212 4337 
Q 2550 4175 2687 3837 
Q 2825 3500 2725 3100 
Q 2625 2700 2150 2400 
Q 2500 2250 2687 1950 
Q 2875 1650 2812 1162 
Q 2750 675 2375 375 
Q 2000 75 1525 87 
Q 1050 100 700 387 
Q 350 675 250 1225 
z
" transform="scale(0.015625)"/>
       </defs>
       <use xlink:href="#SimHei-32"/>
       <use xlink:href="#SimHei-30" x="50"/>
       <use xlink:href="#SimHei-30" x="100"/>
       <use xlink:href="#SimHei-33" x="150"/>
      </g>
     </g>
    </g>
    <g id="xtick_8">
     <g id="line2d_8">
      <g>
       <use xlink:href="#md7d878b8d2" x="147.458182" y="453.6" style="stroke: #000000; stroke-width: 0.8"/>
      </g>
     </g>
     <g id="text_8">
      <!-- 2004 -->
      <g transform="translate(150.270682 480.6)rotate(-90)scale(0.1 -0.1)">
       <defs>
        <path id="SimHei-34" d="M 2000 1100 
L 75 1100 
L 75 1525 
L 2100 4450 
L 2475 4450 
L 2475 1525 
L 3075 1525 
L 3075 1100 
L 2475 1100 
L 2475 150 
L 2000 150 
L 2000 1100 
z
M 2000 1525 
L 2000 3500 
L 600 1525 
L 2000 1525 
z
" transform="scale(0.015625)"/>
       </defs>
       <use xlink:href="#SimHei-32"/>
       <use xlink:href="#SimHei-30" x="50"/>
       <use xlink:href="#SimHei-30" x="100"/>
       <use xlink:href="#SimHei-34" x="150"/>
      </g>
     </g>
    </g>
    <g id="xtick_9">
     <g id="line2d_9">
      <g>
       <use xlink:href="#md7d878b8d2" x="159.294545" y="453.6" style="stroke: #000000; stroke-width: 0.8"/>
      </g>
     </g>
     <g id="text_9">
      <!-- 2005 -->
      <g transform="translate(162.107045 480.6)rotate(-90)scale(0.1 -0.1)">
       <defs>
        <path id="SimHei-35" d="M 550 1325 
Q 725 650 1150 575 
Q 1575 500 1837 662 
Q 2100 825 2212 1087 
Q 2325 1350 2312 1675 
Q 2300 2000 2137 2225 
Q 1975 2450 1725 2525 
Q 1475 2600 1162 2525 
Q 850 2450 650 2175 
L 225 2225 
Q 275 2375 700 4375 
L 2675 4375 
L 2675 3925 
L 1075 3925 
Q 950 3250 825 2850 
Q 1200 3025 1525 3012 
Q 1850 3000 2150 2862 
Q 2450 2725 2587 2487 
Q 2725 2250 2787 2012 
Q 2850 1775 2837 1500 
Q 2825 1225 2725 937 
Q 2625 650 2425 462 
Q 2225 275 1937 162 
Q 1650 50 1275 75 
Q 900 100 562 350 
Q 225 600 100 1200 
L 550 1325 
z
" transform="scale(0.015625)"/>
       </defs>
       <use xlink:href="#SimHei-32"/>
       <use xlink:href="#SimHei-30" x="50"/>
       <use xlink:href="#SimHei-30" x="100"/>
       <use xlink:href="#SimHei-35" x="150"/>
      </g>
     </g>
    </g>
    <g id="xtick_10">
     <g id="line2d_10">
      <g>
       <use xlink:href="#md7d878b8d2" x="171.130909" y="453.6" style="stroke: #000000; stroke-width: 0.8"/>
      </g>
     </g>
     <g id="text_10">
      <!-- 2006 -->
      <g transform="translate(173.943409 480.6)rotate(-90)scale(0.1 -0.1)">
       <defs>
        <path id="SimHei-36" d="M 250 1612 
Q 275 1975 387 2225 
Q 500 2475 725 2850 
L 1750 4450 
L 2325 4450 
L 1275 2800 
Q 1950 2975 2350 2750 
Q 2750 2525 2887 2237 
Q 3025 1950 3037 1612 
Q 3050 1275 2937 950 
Q 2825 625 2537 362 
Q 2250 100 1737 75 
Q 1225 50 862 262 
Q 500 475 362 862 
Q 225 1250 250 1612 
z
M 1025 787 
Q 1250 550 1625 525 
Q 2000 500 2250 775 
Q 2500 1050 2500 1575 
Q 2500 2100 2187 2300 
Q 1875 2500 1487 2450 
Q 1100 2400 925 2075 
Q 750 1750 775 1387 
Q 800 1025 1025 787 
z
" transform="scale(0.015625)"/>
       </defs>
       <use xlink:href="#SimHei-32"/>
       <use xlink:href="#SimHei-30" x="50"/>
       <use xlink:href="#SimHei-30" x="100"/>
       <use xlink:href="#SimHei-36" x="150"/>
      </g>
     </g>
    </g>
    <g id="xtick_11">
     <g id="line2d_11">
      <g>
       <use xlink:href="#md7d878b8d2" x="182.967273" y="453.6" style="stroke: #000000; stroke-width: 0.8"/>
      </g>
     </g>
     <g id="text_11">
      <!-- 2007 -->
      <g transform="translate(185.779773 480.6)rotate(-90)scale(0.1 -0.1)">
       <use xlink:href="#SimHei-32"/>
       <use xlink:href="#SimHei-30" x="50"/>
       <use xlink:href="#SimHei-30" x="100"/>
       <use xlink:href="#SimHei-37" x="150"/>
      </g>
     </g>
    </g>
    <g id="xtick_12">
     <g id="line2d_12">
      <g>
       <use xlink:href="#md7d878b8d2" x="194.803636" y="453.6" style="stroke: #000000; stroke-width: 0.8"/>
      </g>
     </g>
     <g id="text_12">
      <!-- 2008 -->
      <g transform="translate(197.616136 480.6)rotate(-90)scale(0.1 -0.1)">
       <use xlink:href="#SimHei-32"/>
       <use xlink:href="#SimHei-30" x="50"/>
       <use xlink:href="#SimHei-30" x="100"/>
       <use xlink:href="#SimHei-38" x="150"/>
      </g>
     </g>
    </g>
    <g id="xtick_13">
     <g id="line2d_13">
      <g>
       <use xlink:href="#md7d878b8d2" x="206.64" y="453.6" style="stroke: #000000; stroke-width: 0.8"/>
      </g>
     </g>
     <g id="text_13">
      <!-- 2009 -->
      <g transform="translate(209.4525 480.6)rotate(-90)scale(0.1 -0.1)">
       <use xlink:href="#SimHei-32"/>
       <use xlink:href="#SimHei-30" x="50"/>
       <use xlink:href="#SimHei-30" x="100"/>
       <use xlink:href="#SimHei-39" x="150"/>
      </g>
     </g>
    </g>
    <g id="xtick_14">
     <g id="line2d_14">
      <g>
       <use xlink:href="#md7d878b8d2" x="218.476364" y="453.6" style="stroke: #000000; stroke-width: 0.8"/>
      </g>
     </g>
     <g id="text_14">
      <!-- 2010 -->
      <g transform="translate(221.288864 480.6)rotate(-90)scale(0.1 -0.1)">
       <use xlink:href="#SimHei-32"/>
       <use xlink:href="#SimHei-30" x="50"/>
       <use xlink:href="#SimHei-31" x="100"/>
       <use xlink:href="#SimHei-30" x="150"/>
      </g>
     </g>
    </g>
    <g id="xtick_15">
     <g id="line2d_15">
      <g>
       <use xlink:href="#md7d878b8d2" x="230.312727" y="453.6" style="stroke: #000000; stroke-width: 0.8"/>
      </g>
     </g>
     <g id="text_15">
      <!-- 2011 -->
      <g transform="translate(233.125227 480.6)rotate(-90)scale(0.1 -0.1)">
       <use xlink:href="#SimHei-32"/>
       <use xlink:href="#SimHei-30" x="50"/>
       <use xlink:href="#SimHei-31" x="100"/>
       <use xlink:href="#SimHei-31" x="150"/>
      </g>
     </g>
    </g>
    <g id="xtick_16">
     <g id="line2d_16">
      <g>
       <use xlink:href="#md7d878b8d2" x="242.149091" y="453.6" style="stroke: #000000; stroke-width: 0.8"/>
      </g>
     </g>
     <g id="text_16">
      <!-- 2012 -->
      <g transform="translate(244.961591 480.6)rotate(-90)scale(0.1 -0.1)">
       <use xlink:href="#SimHei-32"/>
       <use xlink:href="#SimHei-30" x="50"/>
       <use xlink:href="#SimHei-31" x="100"/>
       <use xlink:href="#SimHei-32" x="150"/>
      </g>
     </g>
    </g>
    <g id="xtick_17">
     <g id="line2d_17">
      <g>
       <use xlink:href="#md7d878b8d2" x="253.985455" y="453.6" style="stroke: #000000; stroke-width: 0.8"/>
      </g>
     </g>
     <g id="text_17">
      <!-- 2013 -->
      <g transform="translate(256.797955 480.6)rotate(-90)scale(0.1 -0.1)">
       <use xlink:href="#SimHei-32"/>
       <use xlink:href="#SimHei-30" x="50"/>
       <use xlink:href="#SimHei-31" x="100"/>
       <use xlink:href="#SimHei-33" x="150"/>
      </g>
     </g>
    </g>
    <g id="xtick_18">
     <g id="line2d_18">
      <g>
       <use xlink:href="#md7d878b8d2" x="265.821818" y="453.6" style="stroke: #000000; stroke-width: 0.8"/>
      </g>
     </g>
     <g id="text_18">
      <!-- 2014 -->
      <g transform="translate(268.634318 480.6)rotate(-90)scale(0.1 -0.1)">
       <use xlink:href="#SimHei-32"/>
       <use xlink:href="#SimHei-30" x="50"/>
       <use xlink:href="#SimHei-31" x="100"/>
       <use xlink:href="#SimHei-34" x="150"/>
      </g>
     </g>
    </g>
    <g id="xtick_19">
     <g id="line2d_19">
      <g>
       <use xlink:href="#md7d878b8d2" x="277.658182" y="453.6" style="stroke: #000000; stroke-width: 0.8"/>
      </g>
     </g>
     <g id="text_19">
      <!-- 2015 -->
      <g transform="translate(280.470682 480.6)rotate(-90)scale(0.1 -0.1)">
       <use xlink:href="#SimHei-32"/>
       <use xlink:href="#SimHei-30" x="50"/>
       <use xlink:href="#SimHei-31" x="100"/>
       <use xlink:href="#SimHei-35" x="150"/>
      </g>
     </g>
    </g>
    <g id="xtick_20">
     <g id="line2d_20">
      <g>
       <use xlink:href="#md7d878b8d2" x="289.494545" y="453.6" style="stroke: #000000; stroke-width: 0.8"/>
      </g>
     </g>
     <g id="text_20">
      <!-- 2016 -->
      <g transform="translate(292.307045 480.6)rotate(-90)scale(0.1 -0.1)">
       <use xlink:href="#SimHei-32"/>
       <use xlink:href="#SimHei-30" x="50"/>
       <use xlink:href="#SimHei-31" x="100"/>
       <use xlink:href="#SimHei-36" x="150"/>
      </g>
     </g>
    </g>
    <g id="xtick_21">
     <g id="line2d_21">
      <g>
       <use xlink:href="#md7d878b8d2" x="301.330909" y="453.6" style="stroke: #000000; stroke-width: 0.8"/>
      </g>
     </g>
     <g id="text_21">
      <!-- 2017 -->
      <g transform="translate(304.143409 480.6)rotate(-90)scale(0.1 -0.1)">
       <use xlink:href="#SimHei-32"/>
       <use xlink:href="#SimHei-30" x="50"/>
       <use xlink:href="#SimHei-31" x="100"/>
       <use xlink:href="#SimHei-37" x="150"/>
      </g>
     </g>
    </g>
    <g id="xtick_22">
     <g id="line2d_22">
      <g>
       <use xlink:href="#md7d878b8d2" x="313.167273" y="453.6" style="stroke: #000000; stroke-width: 0.8"/>
      </g>
     </g>
     <g id="text_22">
      <!-- 2018 -->
      <g transform="translate(315.979773 480.6)rotate(-90)scale(0.1 -0.1)">
       <use xlink:href="#SimHei-32"/>
       <use xlink:href="#SimHei-30" x="50"/>
       <use xlink:href="#SimHei-31" x="100"/>
       <use xlink:href="#SimHei-38" x="150"/>
      </g>
     </g>
    </g>
    <g id="xtick_23">
     <g id="line2d_23">
      <g>
       <use xlink:href="#md7d878b8d2" x="325.003636" y="453.6" style="stroke: #000000; stroke-width: 0.8"/>
      </g>
     </g>
     <g id="text_23">
      <!-- 2019 -->
      <g transform="translate(327.816136 480.6)rotate(-90)scale(0.1 -0.1)">
       <use xlink:href="#SimHei-32"/>
       <use xlink:href="#SimHei-30" x="50"/>
       <use xlink:href="#SimHei-31" x="100"/>
       <use xlink:href="#SimHei-39" x="150"/>
      </g>
     </g>
    </g>
    <g id="xtick_24">
     <g id="line2d_24">
      <g>
       <use xlink:href="#md7d878b8d2" x="336.84" y="453.6" style="stroke: #000000; stroke-width: 0.8"/>
      </g>
     </g>
     <g id="text_24">
      <!-- 2020 -->
      <g transform="translate(339.6525 480.6)rotate(-90)scale(0.1 -0.1)">
       <use xlink:href="#SimHei-32"/>
       <use xlink:href="#SimHei-30" x="50"/>
       <use xlink:href="#SimHei-32" x="100"/>
       <use xlink:href="#SimHei-30" x="150"/>
      </g>
     </g>
    </g>
   </g>
   <g id="matplotlib.axis_2">
    <g id="ytick_1">
     <g id="line2d_25">
      <defs>
       <path id="m3797629357" d="M 0 0 
L -3.5 0 
" style="stroke: #000000; stroke-width: 0.8"/>
      </defs>
      <g>
       <use xlink:href="#m3797629357" x="50.4" y="453.6" style="stroke: #000000; stroke-width: 0.8"/>
      </g>
     </g>
     <g id="text_25">
      <!-- 0 K -->
      <g transform="translate(28.4 457.0375)scale(0.1 -0.1)">
       <defs>
        <path id="SimHei-20" transform="scale(0.015625)"/>
        <path id="SimHei-4b" d="M 3050 125 
L 2400 125 
L 1250 2250 
L 850 1725 
L 850 125 
L 275 125 
L 275 4400 
L 850 4400 
L 850 2550 
L 2275 4400 
L 2950 4400 
L 1625 2725 
L 3050 125 
z
" transform="scale(0.015625)"/>
       </defs>
       <use xlink:href="#SimHei-30"/>
       <use xlink:href="#SimHei-20" x="50"/>
       <use xlink:href="#SimHei-4b" x="100"/>
      </g>
     </g>
    </g>
    <g id="ytick_2">
     <g id="line2d_26">
      <g>
       <use xlink:href="#m3797629357" x="50.4" y="404.676" style="stroke: #000000; stroke-width: 0.8"/>
      </g>
     </g>
     <g id="text_26">
      <!-- 2 K -->
      <g transform="translate(28.4 408.1135)scale(0.1 -0.1)">
       <use xlink:href="#SimHei-32"/>
       <use xlink:href="#SimHei-20" x="50"/>
       <use xlink:href="#SimHei-4b" x="100"/>
      </g>
     </g>
    </g>
    <g id="ytick_3">
     <g id="line2d_27">
      <g>
       <use xlink:href="#m3797629357" x="50.4" y="355.752" style="stroke: #000000; stroke-width: 0.8"/>
      </g>
     </g>
     <g id="text_27">
      <!-- 4 K -->
      <g transform="translate(28.4 359.1895)scale(0.1 -0.1)">
       <use xlink:href="#SimHei-34"/>
       <use xlink:href="#SimHei-20" x="50"/>
       <use xlink:href="#SimHei-4b" x="100"/>
      </g>
     </g>
    </g>
    <g id="ytick_4">
     <g id="line2d_28">
      <g>
       <use xlink:href="#m3797629357" x="50.4" y="306.828" style="stroke: #000000; stroke-width: 0.8"/>
      </g>
     </g>
     <g id="text_28">
      <!-- 6 K -->
      <g transform="translate(28.4 310.2655)scale(0.1 -0.1)">
       <use xlink:href="#SimHei-36"/>
       <use xlink:href="#SimHei-20" x="50"/>
       <use xlink:href="#SimHei-4b" x="100"/>
      </g>
     </g>
    </g>
    <g id="ytick_5">
     <g id="line2d_29">
      <g>
       <use xlink:href="#m3797629357" x="50.4" y="257.904" style="stroke: #000000; stroke-width: 0.8"/>
      </g>
     </g>
     <g id="text_29">
      <!-- 8 K -->
      <g transform="translate(28.4 261.3415)scale(0.1 -0.1)">
       <use xlink:href="#SimHei-38"/>
       <use xlink:href="#SimHei-20" x="50"/>
       <use xlink:href="#SimHei-4b" x="100"/>
      </g>
     </g>
    </g>
    <g id="ytick_6">
     <g id="line2d_30">
      <g>
       <use xlink:href="#m3797629357" x="50.4" y="208.98" style="stroke: #000000; stroke-width: 0.8"/>
      </g>
     </g>
     <g id="text_30">
      <!-- 10 K -->
      <g transform="translate(23.4 212.4175)scale(0.1 -0.1)">
       <use xlink:href="#SimHei-31"/>
       <use xlink:href="#SimHei-30" x="50"/>
       <use xlink:href="#SimHei-20" x="100"/>
       <use xlink:href="#SimHei-4b" x="150"/>
      </g>
     </g>
    </g>
    <g id="ytick_7">
     <g id="line2d_31">
      <g>
       <use xlink:href="#m3797629357" x="50.4" y="160.056" style="stroke: #000000; stroke-width: 0.8"/>
      </g>
     </g>
     <g id="text_31">
      <!-- 12 K -->
      <g transform="translate(23.4 163.4935)scale(0.1 -0.1)">
       <use xlink:href="#SimHei-31"/>
       <use xlink:href="#SimHei-32" x="50"/>
       <use xlink:href="#SimHei-20" x="100"/>
       <use xlink:href="#SimHei-4b" x="150"/>
      </g>
     </g>
    </g>
    <g id="ytick_8">
     <g id="line2d_32">
      <g>
       <use xlink:href="#m3797629357" x="50.4" y="111.132" style="stroke: #000000; stroke-width: 0.8"/>
      </g>
     </g>
     <g id="text_32">
      <!-- 14 K -->
      <g transform="translate(23.4 114.5695)scale(0.1 -0.1)">
       <use xlink:href="#SimHei-31"/>
       <use xlink:href="#SimHei-34" x="50"/>
       <use xlink:href="#SimHei-20" x="100"/>
       <use xlink:href="#SimHei-4b" x="150"/>
      </g>
     </g>
    </g>
    <g id="ytick_9">
     <g id="line2d_33">
      <g>
       <use xlink:href="#m3797629357" x="50.4" y="62.208" style="stroke: #000000; stroke-width: 0.8"/>
      </g>
     </g>
    </g>
   </g>
   <g id="LineCollection_1">
    <path d="M 64.603636 404.676 
L 348.676364 404.676 
" clip-path="url(#pc621c467b0)" style="fill: none; stroke-dasharray: 5.55,2.4; stroke-dashoffset: 0; stroke: #808080; stroke-width: 1.5"/>
   </g>
   <g id="LineCollection_2">
    <path d="M 64.603636 355.752 
L 348.676364 355.752 
" clip-path="url(#pc621c467b0)" style="fill: none; stroke-dasharray: 5.55,2.4; stroke-dashoffset: 0; stroke: #808080; stroke-width: 1.5"/>
   </g>
   <g id="LineCollection_3">
    <path d="M 64.603636 306.828 
L 348.676364 306.828 
" clip-path="url(#pc621c467b0)" style="fill: none; stroke-dasharray: 5.55,2.4; stroke-dashoffset: 0; stroke: #808080; stroke-width: 1.5"/>
   </g>
   <g id="LineCollection_4">
    <path d="M 64.603636 257.904 
L 348.676364 257.904 
" clip-path="url(#pc621c467b0)" style="fill: none; stroke-dasharray: 5.55,2.4; stroke-dashoffset: 0; stroke: #808080; stroke-width: 1.5"/>
   </g>
   <g id="LineCollection_5">
    <path d="M 64.603636 208.98 
L 348.676364 208.98 
" clip-path="url(#pc621c467b0)" style="fill: none; stroke-dasharray: 5.55,2.4; stroke-dashoffset: 0; stroke: #808080; stroke-width: 1.5"/>
   </g>
   <g id="LineCollection_6">
    <path d="M 64.603636 160.056 
L 348.676364 160.056 
" clip-path="url(#pc621c467b0)" style="fill: none; stroke-dasharray: 5.55,2.4; stroke-dashoffset: 0; stroke: #808080; stroke-width: 1.5"/>
   </g>
   <g id="patch_3">
    <path d="M 50.4 453.6 
L 50.4 62.208 
" style="fill: none"/>
   </g>
   <g id="patch_4">
    <path d="M 362.88 453.6 
L 362.88 62.208 
" style="fill: none"/>
   </g>
   <g id="patch_5">
    <path d="M 50.4 453.6 
L 362.88 453.6 
" style="fill: none"/>
   </g>
   <g id="patch_6">
    <path d="M 50.4 62.208 
L 362.88 62.208 
" style="fill: none"/>
   </g>
   <g id="text_33">
    <!-- The development of Chinese education -->
    <g transform="translate(98.64 44.18925)scale(0.12 -0.12)">
     <defs>
      <path id="SimHei-54" d="M 2850 3925 
L 1850 3925 
L 1850 125 
L 1275 125 
L 1275 3925 
L 275 3925 
L 275 4400 
L 2850 4400 
L 2850 3925 
z
" transform="scale(0.015625)"/>
      <path id="SimHei-68" d="M 2800 125 
L 2300 125 
L 2300 1925 
Q 2300 2225 2150 2400 
Q 2000 2575 1750 2575 
Q 1425 2575 1137 2237 
Q 850 1900 850 1400 
L 850 125 
L 350 125 
L 350 4400 
L 850 4400 
L 850 2400 
Q 1050 2675 1287 2825 
Q 1525 2975 1900 2975 
Q 2350 2975 2575 2725 
Q 2800 2475 2800 2100 
L 2800 125 
z
" transform="scale(0.015625)"/>
      <path id="SimHei-65" d="M 2850 1075 
Q 2800 625 2450 350 
Q 2100 75 1625 75 
Q 1025 75 637 462 
Q 250 850 250 1525 
Q 250 2200 637 2587 
Q 1025 2975 1625 2975 
Q 2150 2975 2487 2637 
Q 2825 2300 2825 1525 
L 800 1525 
Q 800 975 1037 750 
Q 1275 525 1625 525 
Q 1900 525 2075 662 
Q 2250 800 2300 1075 
L 2850 1075 
z
M 2250 1925 
Q 2200 2275 2025 2412 
Q 1850 2550 1575 2550 
Q 1325 2550 1125 2412 
Q 925 2275 825 1925 
L 2250 1925 
z
" transform="scale(0.015625)"/>
      <path id="SimHei-64" d="M 2750 125 
L 2250 125 
L 2250 500 
Q 2100 275 1900 175 
Q 1700 75 1425 75 
Q 925 75 575 437 
Q 225 800 225 1525 
Q 225 2250 575 2625 
Q 925 3000 1425 3000 
Q 1700 3000 1900 2887 
Q 2100 2775 2250 2550 
L 2250 4400 
L 2750 4400 
L 2750 125 
z
M 2250 1525 
Q 2250 2000 2037 2275 
Q 1825 2550 1525 2550 
Q 1150 2550 962 2275 
Q 775 2000 775 1525 
Q 775 1050 962 787 
Q 1150 525 1525 525 
Q 1825 525 2037 787 
Q 2250 1050 2250 1525 
z
" transform="scale(0.015625)"/>
      <path id="SimHei-76" d="M 2875 2925 
L 1825 75 
L 1275 75 
L 225 2925 
L 750 2925 
L 1525 750 
L 1575 750 
L 2350 2925 
L 2875 2925 
z
" transform="scale(0.015625)"/>
      <path id="SimHei-6c" d="M 1825 125 
L 1325 125 
L 1325 4400 
L 1825 4400 
L 1825 125 
z
" transform="scale(0.015625)"/>
      <path id="SimHei-6f" d="M 2925 1525 
Q 2925 875 2525 475 
Q 2125 75 1575 75 
Q 1025 75 625 475 
Q 225 875 225 1525 
Q 225 2175 625 2575 
Q 1025 2975 1575 2975 
Q 2125 2975 2525 2575 
Q 2925 2175 2925 1525 
z
M 2375 1525 
Q 2375 2025 2125 2275 
Q 1875 2525 1575 2525 
Q 1275 2525 1025 2275 
Q 775 2025 775 1525 
Q 775 1025 1025 775 
Q 1275 525 1575 525 
Q 1875 525 2125 775 
Q 2375 1025 2375 1525 
z
" transform="scale(0.015625)"/>
      <path id="SimHei-70" d="M 2825 1525 
Q 2825 800 2475 425 
Q 2125 50 1625 50 
Q 1350 50 1150 162 
Q 950 275 800 500 
L 800 -800 
L 300 -800 
L 300 2925 
L 800 2925 
L 800 2550 
Q 950 2775 1150 2875 
Q 1350 2975 1625 2975 
Q 2125 2975 2475 2612 
Q 2825 2250 2825 1525 
z
M 2275 1525 
Q 2275 2000 2087 2262 
Q 1900 2525 1525 2525 
Q 1225 2525 1012 2262 
Q 800 2000 800 1525 
Q 800 1050 1012 775 
Q 1225 500 1525 500 
Q 1900 500 2087 775 
Q 2275 1050 2275 1525 
z
" transform="scale(0.015625)"/>
      <path id="SimHei-6d" d="M 3050 125 
L 2550 125 
L 2550 2150 
Q 2550 2300 2500 2400 
Q 2450 2500 2300 2500 
Q 2125 2500 1975 2312 
Q 1825 2125 1825 1825 
L 1825 125 
L 1325 125 
L 1325 2150 
Q 1325 2300 1275 2400 
Q 1225 2500 1075 2500 
Q 900 2500 750 2312 
Q 600 2125 600 1825 
L 600 125 
L 100 125 
L 100 2925 
L 600 2925 
L 600 2550 
Q 725 2750 900 2862 
Q 1075 2975 1275 2975 
Q 1475 2975 1612 2862 
Q 1750 2750 1800 2550 
Q 1925 2750 2087 2862 
Q 2250 2975 2450 2975 
Q 2750 2975 2900 2812 
Q 3050 2650 3050 2350 
L 3050 125 
z
" transform="scale(0.015625)"/>
      <path id="SimHei-6e" d="M 2800 125 
L 2300 125 
L 2300 1925 
Q 2300 2225 2150 2400 
Q 2000 2575 1750 2575 
Q 1425 2575 1137 2237 
Q 850 1900 850 1400 
L 850 125 
L 350 125 
L 350 2925 
L 850 2925 
L 850 2400 
Q 1050 2675 1287 2825 
Q 1525 2975 1900 2975 
Q 2350 2975 2575 2725 
Q 2800 2475 2800 2100 
L 2800 125 
z
" transform="scale(0.015625)"/>
      <path id="SimHei-74" d="M 2750 200 
Q 2625 150 2462 112 
Q 2300 75 2025 75 
Q 1575 75 1300 325 
Q 1025 575 1025 1025 
L 1025 2525 
L 175 2525 
L 175 2925 
L 1025 2925 
L 1025 3900 
L 1525 3900 
L 1525 2925 
L 2550 2925 
L 2550 2525 
L 1525 2525 
L 1525 1000 
Q 1525 800 1625 662 
Q 1725 525 2000 525 
Q 2275 525 2450 575 
Q 2625 625 2750 700 
L 2750 200 
z
" transform="scale(0.015625)"/>
      <path id="SimHei-66" d="M 2850 3825 
Q 2725 3900 2550 3950 
Q 2375 4000 2100 4000 
Q 1825 4000 1725 3862 
Q 1625 3725 1625 3525 
L 1625 2925 
L 2650 2925 
L 2650 2525 
L 1625 2525 
L 1625 125 
L 1125 125 
L 1125 2525 
L 275 2525 
L 275 2925 
L 1125 2925 
L 1125 3500 
Q 1125 3950 1400 4200 
Q 1675 4450 2125 4450 
Q 2400 4450 2562 4412 
Q 2725 4375 2850 4325 
L 2850 3825 
z
" transform="scale(0.015625)"/>
      <path id="SimHei-43" d="M 2975 1825 
Q 2950 875 2575 475 
Q 2200 75 1675 75 
Q 1075 75 650 562 
Q 225 1050 225 2125 
Q 225 3300 637 3875 
Q 1050 4450 1700 4450 
Q 2250 4450 2612 4037 
Q 2975 3625 2950 2875 
L 2400 2875 
Q 2400 3425 2225 3700 
Q 2050 3975 1700 3975 
Q 1300 3975 1062 3562 
Q 825 3150 825 2175 
Q 825 1275 1062 912 
Q 1300 550 1675 550 
Q 1950 550 2175 812 
Q 2400 1075 2400 1825 
L 2975 1825 
z
" transform="scale(0.015625)"/>
      <path id="SimHei-69" d="M 1800 3725 
L 1300 3725 
L 1300 4375 
L 1800 4375 
L 1800 3725 
z
M 1800 125 
L 1300 125 
L 1300 2925 
L 1800 2925 
L 1800 125 
z
" transform="scale(0.015625)"/>
      <path id="SimHei-73" d="M 2750 900 
Q 2750 500 2437 287 
Q 2125 75 1650 75 
Q 1050 75 725 312 
Q 400 550 400 1000 
L 900 1000 
Q 900 700 1112 600 
Q 1325 500 1625 500 
Q 1925 500 2075 612 
Q 2225 725 2225 900 
Q 2225 1025 2100 1150 
Q 1975 1275 1475 1350 
Q 900 1425 687 1637 
Q 475 1850 475 2200 
Q 475 2500 762 2737 
Q 1050 2975 1600 2975 
Q 2100 2975 2387 2750 
Q 2675 2525 2675 2150 
L 2175 2150 
Q 2175 2375 2012 2462 
Q 1850 2550 1600 2550 
Q 1275 2550 1137 2437 
Q 1000 2325 1000 2175 
Q 1000 2000 1125 1900 
Q 1250 1800 1650 1750 
Q 2300 1650 2525 1437 
Q 2750 1225 2750 900 
z
" transform="scale(0.015625)"/>
      <path id="SimHei-75" d="M 2800 125 
L 2300 125 
L 2300 650 
Q 2100 375 1862 225 
Q 1625 75 1250 75 
Q 800 75 575 325 
Q 350 575 350 950 
L 350 2925 
L 850 2925 
L 850 1125 
Q 850 825 1000 650 
Q 1150 475 1400 475 
Q 1725 475 2012 812 
Q 2300 1150 2300 1650 
L 2300 2925 
L 2800 2925 
L 2800 125 
z
" transform="scale(0.015625)"/>
      <path id="SimHei-63" d="M 2850 1250 
Q 2850 725 2487 400 
Q 2125 75 1575 75 
Q 1025 75 625 462 
Q 225 850 225 1525 
Q 225 2200 625 2587 
Q 1025 2975 1575 2975 
Q 2125 2975 2450 2687 
Q 2775 2400 2775 2000 
L 2225 2000 
Q 2200 2300 2012 2412 
Q 1825 2525 1575 2525 
Q 1275 2525 1025 2287 
Q 775 2050 775 1525 
Q 775 1000 1025 762 
Q 1275 525 1575 525 
Q 1900 525 2100 700 
Q 2300 875 2300 1250 
L 2850 1250 
z
" transform="scale(0.015625)"/>
      <path id="SimHei-61" d="M 2875 125 
L 2275 125 
Q 2225 175 2200 262 
Q 2175 350 2175 475 
Q 2000 275 1750 175 
Q 1500 75 1225 75 
Q 825 75 550 275 
Q 275 475 275 850 
Q 275 1225 525 1450 
Q 775 1675 1300 1750 
Q 1650 1800 1912 1875 
Q 2175 1950 2175 2075 
Q 2175 2225 2062 2375 
Q 1950 2525 1575 2525 
Q 1275 2525 1137 2412 
Q 1000 2300 950 2100 
L 400 2100 
Q 450 2500 762 2737 
Q 1075 2975 1575 2975 
Q 2125 2975 2400 2725 
Q 2675 2475 2675 2025 
L 2675 650 
Q 2675 500 2725 375 
Q 2775 250 2875 125 
z
M 2175 1050 
L 2175 1550 
Q 2025 1500 1887 1462 
Q 1750 1425 1425 1375 
Q 1050 1325 937 1200 
Q 825 1075 825 900 
Q 825 750 937 637 
Q 1050 525 1275 525 
Q 1500 525 1762 650 
Q 2025 775 2175 1050 
z
" transform="scale(0.015625)"/>
     </defs>
     <use xlink:href="#SimHei-54"/>
     <use xlink:href="#SimHei-68" x="50"/>
     <use xlink:href="#SimHei-65" x="100"/>
     <use xlink:href="#SimHei-20" x="150"/>
     <use xlink:href="#SimHei-64" x="200"/>
     <use xlink:href="#SimHei-65" x="250"/>
     <use xlink:href="#SimHei-76" x="300"/>
     <use xlink:href="#SimHei-65" x="350"/>
     <use xlink:href="#SimHei-6c" x="400"/>
     <use xlink:href="#SimHei-6f" x="450"/>
     <use xlink:href="#SimHei-70" x="500"/>
     <use xlink:href="#SimHei-6d" x="550"/>
     <use xlink:href="#SimHei-65" x="600"/>
     <use xlink:href="#SimHei-6e" x="650"/>
     <use xlink:href="#SimHei-74" x="700"/>
     <use xlink:href="#SimHei-20" x="750"/>
     <use xlink:href="#SimHei-6f" x="800"/>
     <use xlink:href="#SimHei-66" x="850"/>
     <use xlink:href="#SimHei-20" x="900"/>
     <use xlink:href="#SimHei-43" x="950"/>
     <use xlink:href="#SimHei-68" x="1000"/>
     <use xlink:href="#SimHei-69" x="1050"/>
     <use xlink:href="#SimHei-6e" x="1100"/>
     <use xlink:href="#SimHei-65" x="1150"/>
     <use xlink:href="#SimHei-73" x="1200"/>
     <use xlink:href="#SimHei-65" x="1250"/>
     <use xlink:href="#SimHei-20" x="1300"/>
     <use xlink:href="#SimHei-65" x="1350"/>
     <use xlink:href="#SimHei-64" x="1400"/>
     <use xlink:href="#SimHei-75" x="1450"/>
     <use xlink:href="#SimHei-63" x="1500"/>
     <use xlink:href="#SimHei-61" x="1550"/>
     <use xlink:href="#SimHei-74" x="1600"/>
     <use xlink:href="#SimHei-69" x="1650"/>
     <use xlink:href="#SimHei-6f" x="1700"/>
     <use xlink:href="#SimHei-6e" x="1750"/>
    </g>
    <!-- (1997-2020) -->
    <g transform="translate(173.64 56.208)scale(0.12 -0.12)">
     <defs>
      <path id="SimHei-28" d="M 2975 -200 
L 2700 -475 
Q 2075 125 1762 775 
Q 1450 1425 1450 2250 
Q 1450 3075 1762 3725 
Q 2075 4375 2700 5000 
L 2975 4725 
Q 2400 4175 2112 3587 
Q 1825 3000 1825 2250 
Q 1825 1500 2112 912 
Q 2400 325 2975 -200 
z
" transform="scale(0.015625)"/>
      <path id="SimHei-2d" d="M 2975 2125 
L 125 2125 
L 125 2525 
L 2975 2525 
L 2975 2125 
z
" transform="scale(0.015625)"/>
      <path id="SimHei-29" d="M 1675 2250 
Q 1675 1425 1362 775 
Q 1050 125 425 -475 
L 150 -200 
Q 725 325 1012 912 
Q 1300 1500 1300 2250 
Q 1300 3000 1012 3587 
Q 725 4175 150 4725 
L 425 5000 
Q 1050 4375 1362 3725 
Q 1675 3075 1675 2250 
z
" transform="scale(0.015625)"/>
     </defs>
     <use xlink:href="#SimHei-28"/>
     <use xlink:href="#SimHei-31" x="50"/>
     <use xlink:href="#SimHei-39" x="100"/>
     <use xlink:href="#SimHei-39" x="150"/>
     <use xlink:href="#SimHei-37" x="200"/>
     <use xlink:href="#SimHei-2d" x="250"/>
     <use xlink:href="#SimHei-32" x="300"/>
     <use xlink:href="#SimHei-30" x="350"/>
     <use xlink:href="#SimHei-32" x="400"/>
     <use xlink:href="#SimHei-30" x="450"/>
     <use xlink:href="#SimHei-29" x="500"/>
    </g>
   </g>
   <g id="legend_1">
    <g id="patch_7">
     <path d="M 172.64 78.208 
L 192.64 78.208 
L 192.64 71.208 
L 172.64 71.208 
z
" style="fill: #0000ff; fill-opacity: 0.6"/>
    </g>
    <g id="text_34">
     <!-- Colleges -->
     <g transform="translate(200.64 78.208)scale(0.1 -0.1)">
      <defs>
       <path id="SimHei-67" d="M 2975 2500 
Q 2800 2550 2637 2562 
Q 2475 2575 2300 2525 
Q 2375 2450 2425 2337 
Q 2475 2225 2475 2000 
Q 2475 1575 2187 1300 
Q 1900 1025 1475 1025 
Q 1375 1025 1212 1062 
Q 1050 1100 950 1150 
Q 875 1100 850 1050 
Q 825 1000 825 925 
Q 825 800 1000 737 
Q 1175 675 1625 675 
Q 2350 675 2612 475 
Q 2875 275 2875 -25 
Q 2875 -425 2487 -612 
Q 2100 -800 1575 -800 
Q 900 -800 575 -625 
Q 250 -450 250 -150 
Q 250 0 375 150 
Q 500 300 700 400 
Q 550 475 462 587 
Q 375 700 375 875 
Q 375 1025 487 1137 
Q 600 1250 750 1325 
Q 625 1450 550 1625 
Q 475 1800 475 2000 
Q 475 2425 762 2700 
Q 1050 2975 1475 2975 
Q 1700 2975 1862 2912 
Q 2025 2850 2150 2725 
Q 2350 2875 2550 2937 
Q 2750 3000 2975 2975 
L 2975 2500 
z
M 1975 2000 
Q 1975 2250 1850 2400 
Q 1725 2550 1475 2550 
Q 1225 2550 1100 2400 
Q 975 2250 975 2000 
Q 975 1750 1100 1600 
Q 1225 1450 1475 1450 
Q 1725 1450 1850 1600 
Q 1975 1750 1975 2000 
z
M 2400 -75 
Q 2400 25 2287 125 
Q 2175 225 1725 225 
Q 1625 225 1450 237 
Q 1275 250 1050 275 
Q 850 200 775 100 
Q 700 0 700 -100 
Q 700 -250 900 -350 
Q 1100 -450 1600 -450 
Q 2025 -450 2212 -337 
Q 2400 -225 2400 -75 
z
" transform="scale(0.015625)"/>
      </defs>
      <use xlink:href="#SimHei-43"/>
      <use xlink:href="#SimHei-6f" x="50"/>
      <use xlink:href="#SimHei-6c" x="100"/>
      <use xlink:href="#SimHei-6c" x="150"/>
      <use xlink:href="#SimHei-65" x="200"/>
      <use xlink:href="#SimHei-67" x="250"/>
      <use xlink:href="#SimHei-65" x="300"/>
      <use xlink:href="#SimHei-73" x="350"/>
     </g>
    </g>
   </g>
  </g>
  <g id="axes_2">
   <g id="PathCollection_1">
    <path d="M 64.603636 404.446028 
C 65.462993 404.446028 66.287268 404.104602 66.894924 403.496945 
C 67.502581 402.889289 67.844007 402.065014 67.844007 401.205658 
C 67.844007 400.346301 67.502581 399.522026 66.894924 398.91437 
C 66.287268 398.306713 65.462993 397.965287 64.603636 397.965287 
C 63.74428 397.965287 62.920005 398.306713 62.312349 398.91437 
C 61.704692 399.522026 61.363266 400.346301 61.363266 401.205658 
C 61.363266 402.065014 61.704692 402.889289 62.312349 403.496945 
C 62.920005 404.104602 63.74428 404.446028 64.603636 404.446028 
z
" clip-path="url(#pc621c467b0)" style="fill: #00ffff; fill-opacity: 0.7; stroke: #00ffff; stroke-opacity: 0.7"/>
    <path d="M 76.44 403.626047 
C 77.35869 403.626047 78.239877 403.261048 78.88949 402.611435 
C 79.539102 401.961823 79.904102 401.080636 79.904102 400.161946 
C 79.904102 399.243255 79.539102 398.362068 78.88949 397.712456 
C 78.239877 397.062844 77.35869 396.697844 76.44 396.697844 
C 75.52131 396.697844 74.640123 397.062844 73.99051 397.712456 
C 73.340898 398.362068 72.975898 399.243255 72.975898 400.161946 
C 72.975898 401.080636 73.340898 401.961823 73.99051 402.611435 
C 74.640123 403.261048 75.52131 403.626047 76.44 403.626047 
z
" clip-path="url(#pc621c467b0)" style="fill: #00ffff; fill-opacity: 0.7; stroke: #00ffff; stroke-opacity: 0.7"/>
    <path d="M 88.276364 397.573908 
C 89.250782 397.573908 90.185422 397.186768 90.87444 396.49775 
C 91.563458 395.808732 91.950598 394.874092 91.950598 393.899674 
C 91.950598 392.925255 91.563458 391.990615 90.87444 391.301597 
C 90.185422 390.61258 89.250782 390.225439 88.276364 390.225439 
C 87.301945 390.225439 86.367305 390.61258 85.678287 391.301597 
C 84.98927 391.990615 84.602129 392.925255 84.602129 393.899674 
C 84.602129 394.874092 84.98927 395.808732 85.678287 396.49775 
C 86.367305 397.186768 87.301945 397.573908 88.276364 397.573908 
z
" clip-path="url(#pc621c467b0)" style="fill: #00ffff; fill-opacity: 0.7; stroke: #00ffff; stroke-opacity: 0.7"/>
    <path d="M 100.112727 378.985841 
C 101.139854 378.985841 102.125051 378.577759 102.85134 377.85147 
C 103.577629 377.125182 103.985711 376.139985 103.985711 375.112858 
C 103.985711 374.08573 103.577629 373.100533 102.85134 372.374245 
C 102.125051 371.647956 101.139854 371.239874 100.112727 371.239874 
C 99.0856 371.239874 98.100403 371.647956 97.374114 372.374245 
C 96.647826 373.100533 96.239744 374.08573 96.239744 375.112858 
C 96.239744 376.139985 96.647826 377.125182 97.374114 377.85147 
C 98.100403 378.577759 99.0856 378.985841 100.112727 378.985841 
z
" clip-path="url(#pc621c467b0)" style="fill: #00ffff; fill-opacity: 0.7; stroke: #00ffff; stroke-opacity: 0.7"/>
    <path d="M 111.949091 356.630698 
C 113.026351 356.630698 114.059634 356.202698 114.821372 355.44096 
C 115.58311 354.679222 116.01111 353.645938 116.01111 352.568678 
C 116.01111 351.491418 115.58311 350.458135 114.821372 349.696397 
C 114.059634 348.934659 113.026351 348.506659 111.949091 348.506659 
C 110.871831 348.506659 109.838547 348.934659 109.07681 349.696397 
C 108.315072 350.458135 107.887072 351.491418 107.887072 352.568678 
C 107.887072 353.645938 108.315072 354.679222 109.07681 355.44096 
C 109.838547 356.202698 110.871831 356.630698 111.949091 356.630698 
z
" clip-path="url(#pc621c467b0)" style="fill: #00ffff; fill-opacity: 0.7; stroke: #00ffff; stroke-opacity: 0.7"/>
    <path d="M 123.785455 339.694442 
C 124.910616 339.694442 125.989845 339.247411 126.785455 338.451802 
C 127.581064 337.656192 128.028095 336.576963 128.028095 335.451802 
C 128.028095 334.32664 127.581064 333.247411 126.785455 332.451802 
C 125.989845 331.656192 124.910616 331.209161 123.785455 331.209161 
C 122.660293 331.209161 121.581064 331.656192 120.785455 332.451802 
C 119.989845 333.247411 119.542814 334.32664 119.542814 335.451802 
C 119.542814 336.576963 119.989845 337.656192 120.785455 338.451802 
C 121.581064 339.247411 122.660293 339.694442 123.785455 339.694442 
z
" clip-path="url(#pc621c467b0)" style="fill: #00ffff; fill-opacity: 0.7; stroke: #00ffff; stroke-opacity: 0.7"/>
    <path d="M 135.621818 311.269973 
C 136.792923 311.269973 137.916221 310.804688 138.744317 309.976592 
C 139.572414 309.148495 140.037699 308.025198 140.037699 306.854093 
C 140.037699 305.682988 139.572414 304.55969 138.744317 303.731594 
C 137.916221 302.903497 136.792923 302.438212 135.621818 302.438212 
C 134.450713 302.438212 133.327416 302.903497 132.499319 303.731594 
C 131.671223 304.55969 131.205938 305.682988 131.205938 306.854093 
C 131.205938 308.025198 131.671223 309.148495 132.499319 309.976592 
C 133.327416 310.804688 134.450713 311.269973 135.621818 311.269973 
z
" clip-path="url(#pc621c467b0)" style="fill: #00ffff; fill-opacity: 0.7; stroke: #00ffff; stroke-opacity: 0.7"/>
    <path d="M 147.458182 288.788118 
C 148.673495 288.788118 149.839196 288.305269 150.698552 287.445913 
C 151.557908 286.586556 152.040758 285.420856 152.040758 284.205542 
C 152.040758 282.990229 151.557908 281.824528 150.698552 280.965172 
C 149.839196 280.105816 148.673495 279.622967 147.458182 279.622967 
C 146.242869 279.622967 145.077168 280.105816 144.217811 280.965172 
C 143.358455 281.824528 142.875606 282.990229 142.875606 284.205542 
C 142.875606 285.420856 143.358455 286.586556 144.217811 287.445913 
C 145.077168 288.305269 146.242869 288.788118 147.458182 288.788118 
z
" clip-path="url(#pc621c467b0)" style="fill: #00ffff; fill-opacity: 0.7; stroke: #00ffff; stroke-opacity: 0.7"/>
    <path d="M 159.294545 266.509151 
C 160.552514 266.509151 161.759129 266.009355 162.648647 265.119836 
C 163.538166 264.230318 164.037962 263.023703 164.037962 261.765734 
C 164.037962 260.507766 163.538166 259.301151 162.648647 258.411632 
C 161.759129 257.522114 160.552514 257.022318 159.294545 257.022318 
C 158.036577 257.022318 156.829962 257.522114 155.940443 258.411632 
C 155.050925 259.301151 154.551129 260.507766 154.551129 261.765734 
C 154.551129 263.023703 155.050925 264.230318 155.940443 265.119836 
C 156.829962 266.009355 158.036577 266.509151 159.294545 266.509151 
z
" clip-path="url(#pc621c467b0)" style="fill: #00ffff; fill-opacity: 0.7; stroke: #00ffff; stroke-opacity: 0.7"/>
    <path d="M 171.130909 245.268618 
C 172.430134 245.268618 173.67632 244.752431 174.595011 243.83374 
C 175.513701 242.91505 176.029889 241.668863 176.029889 240.369638 
C 176.029889 239.070414 175.513701 237.824227 174.595011 236.905537 
C 173.67632 235.986846 172.430134 235.470659 171.130909 235.470659 
C 169.831685 235.470659 168.585498 235.986846 167.666807 236.905537 
C 166.748117 237.824227 166.23193 239.070414 166.23193 240.369638 
C 166.23193 241.668863 166.748117 242.91505 167.666807 243.83374 
C 168.585498 244.752431 169.831685 245.268618 171.130909 245.268618 
z
" clip-path="url(#pc621c467b0)" style="fill: #00ffff; fill-opacity: 0.7; stroke: #00ffff; stroke-opacity: 0.7"/>
    <path d="M 182.967273 235.712869 
C 184.306483 235.712869 185.591022 235.180795 186.537987 234.233831 
C 187.484951 233.286867 188.017025 232.002327 188.017025 230.663117 
C 188.017025 229.323907 187.484951 228.039367 186.537987 227.092403 
C 185.591022 226.145438 184.306483 225.613364 182.967273 225.613364 
C 181.628063 225.613364 180.343523 226.145438 179.396559 227.092403 
C 178.449594 228.039367 177.91752 229.323907 177.91752 230.663117 
C 177.91752 232.002327 178.449594 233.286867 179.396559 234.233831 
C 180.343523 235.180795 181.628063 235.712869 182.967273 235.712869 
z
" clip-path="url(#pc621c467b0)" style="fill: #00ffff; fill-opacity: 0.7; stroke: #00ffff; stroke-opacity: 0.7"/>
    <path d="M 194.803636 223.125983 
C 196.181672 223.125983 197.503453 222.578483 198.477871 221.604065 
C 199.452289 220.629647 199.999789 219.307866 199.999789 217.92983 
C 199.999789 216.551795 199.452289 215.230014 198.477871 214.255596 
C 197.503453 213.281177 196.181672 212.733678 194.803636 212.733678 
C 193.425601 212.733678 192.10382 213.281177 191.129402 214.255596 
C 190.154983 215.230014 189.607484 216.551795 189.607484 217.92983 
C 189.607484 219.307866 190.154983 220.629647 191.129402 221.604065 
C 192.10382 222.578483 193.425601 223.125983 194.803636 223.125983 
z
" clip-path="url(#pc621c467b0)" style="fill: #00ffff; fill-opacity: 0.7; stroke: #00ffff; stroke-opacity: 0.7"/>
    <path d="M 206.64 212.83125 
C 208.055797 212.83125 209.413797 212.268747 210.414917 211.267628 
C 211.416037 210.266508 211.978539 208.908508 211.978539 207.49271 
C 211.978539 206.076913 211.416037 204.718913 210.414917 203.717793 
C 209.413797 202.716673 208.055797 202.154171 206.64 202.154171 
C 205.224203 202.154171 203.866203 202.716673 202.865083 203.717793 
C 201.863963 204.718913 201.301461 206.076913 201.301461 207.49271 
C 201.301461 208.908508 201.863963 210.266508 202.865083 211.267628 
C 203.866203 212.268747 205.224203 212.83125 206.64 212.83125 
z
" clip-path="url(#pc621c467b0)" style="fill: #00ffff; fill-opacity: 0.7; stroke: #00ffff; stroke-opacity: 0.7"/>
    <path d="M 218.476364 204.828982 
C 219.928941 204.828982 221.32222 204.251867 222.349347 203.22474 
C 223.376474 202.197613 223.953589 200.804334 223.953589 199.351757 
C 223.953589 197.89918 223.376474 196.505901 222.349347 195.478773 
C 221.32222 194.451646 219.928941 193.874531 218.476364 193.874531 
C 217.023786 193.874531 215.630507 194.451646 214.60338 195.478773 
C 213.576253 196.505901 212.999138 197.89918 212.999138 199.351757 
C 212.999138 200.804334 213.576253 202.197613 214.60338 203.22474 
C 215.630507 204.251867 217.023786 204.828982 218.476364 204.828982 
z
" clip-path="url(#pc621c467b0)" style="fill: #00ffff; fill-opacity: 0.7; stroke: #00ffff; stroke-opacity: 0.7"/>
    <path d="M 230.312727 196.510176 
C 231.801176 196.510176 233.228862 195.918809 234.281354 194.866317 
C 235.333846 193.813824 235.925213 192.386138 235.925213 190.89769 
C 235.925213 189.409241 235.333846 187.981555 234.281354 186.929063 
C 233.228862 185.87657 231.801176 185.285204 230.312727 185.285204 
C 228.824279 185.285204 227.396592 185.87657 226.3441 186.929063 
C 225.291608 187.981555 224.700241 189.409241 224.700241 190.89769 
C 224.700241 192.386138 225.291608 193.813824 226.3441 194.866317 
C 227.396592 195.918809 228.824279 196.510176 230.312727 196.510176 
z
" clip-path="url(#pc621c467b0)" style="fill: #00ffff; fill-opacity: 0.7; stroke: #00ffff; stroke-opacity: 0.7"/>
    <path d="M 242.149091 186.100761 
C 243.672567 186.100761 245.13385 185.495478 246.21111 184.418218 
C 247.28837 183.340958 247.893654 181.879674 247.893654 180.356198 
C 247.893654 178.832723 247.28837 177.371439 246.21111 176.294179 
C 245.13385 175.216919 243.672567 174.611636 242.149091 174.611636 
C 240.625615 174.611636 239.164332 175.216919 238.087072 176.294179 
C 237.009812 177.371439 236.404528 178.832723 236.404528 180.356198 
C 236.404528 181.879674 237.009812 183.340958 238.087072 184.418218 
C 239.164332 185.495478 240.625615 186.100761 242.149091 186.100761 
z
" clip-path="url(#pc621c467b0)" style="fill: #00ffff; fill-opacity: 0.7; stroke: #00ffff; stroke-opacity: 0.7"/>
    <path d="M 253.985455 176.83646 
C 255.54317 176.83646 257.037295 176.217574 258.138766 175.116102 
C 259.240238 174.014631 259.859125 172.520506 259.859125 170.96279 
C 259.859125 169.405075 259.240238 167.91095 258.138766 166.809478 
C 257.037295 165.708007 255.54317 165.08912 253.985455 165.08912 
C 252.427739 165.08912 250.933614 165.708007 249.832143 166.809478 
C 248.730671 167.91095 248.111784 169.405075 248.111784 170.96279 
C 248.111784 172.520506 248.730671 174.014631 249.832143 175.116102 
C 250.933614 176.217574 252.427739 176.83646 253.985455 176.83646 
z
" clip-path="url(#pc621c467b0)" style="fill: #00ffff; fill-opacity: 0.7; stroke: #00ffff; stroke-opacity: 0.7"/>
    <path d="M 265.821818 167.778125 
C 267.413037 167.778125 268.939297 167.145927 270.064459 166.020765 
C 271.18962 164.895604 271.821818 163.369343 271.821818 161.778125 
C 271.821818 160.186906 271.18962 158.660646 270.064459 157.535484 
C 268.939297 156.410323 267.413037 155.778125 265.821818 155.778125 
C 264.2306 155.778125 262.704339 156.410323 261.579177 157.535484 
C 260.454016 158.660646 259.821818 160.186906 259.821818 161.778125 
C 259.821818 163.369343 260.454016 164.895604 261.579177 166.020765 
C 262.704339 167.145927 264.2306 167.778125 265.821818 167.778125 
z
" clip-path="url(#pc621c467b0)" style="fill: #00ffff; fill-opacity: 0.7; stroke: #00ffff; stroke-opacity: 0.7"/>
    <path d="M 277.658182 160.387123 
C 279.282213 160.387123 280.839946 159.741889 281.988309 158.593525 
C 283.136672 157.445162 283.781906 155.887429 283.781906 154.263398 
C 283.781906 152.639368 283.136672 151.081634 281.988309 149.933271 
C 280.839946 148.784908 279.282213 148.139674 277.658182 148.139674 
C 276.034151 148.139674 274.476418 148.784908 273.328055 149.933271 
C 272.179692 151.081634 271.534457 152.639368 271.534457 154.263398 
C 271.534457 155.887429 272.179692 157.445162 273.328055 158.593525 
C 274.476418 159.741889 276.034151 160.387123 277.658182 160.387123 
z
" clip-path="url(#pc621c467b0)" style="fill: #00ffff; fill-opacity: 0.7; stroke: #00ffff; stroke-opacity: 0.7"/>
    <path d="M 289.494545 154.037382 
C 291.150738 154.037382 292.739321 153.37937 293.910426 152.208264 
C 295.081531 151.037159 295.739543 149.448577 295.739543 147.792384 
C 295.739543 146.136191 295.081531 144.547609 293.910426 143.376504 
C 292.739321 142.205398 291.150738 141.547386 289.494545 141.547386 
C 287.838353 141.547386 286.24977 142.205398 285.078665 143.376504 
C 283.90756 144.547609 283.249547 146.136191 283.249547 147.792384 
C 283.249547 149.448577 283.90756 151.037159 285.078665 152.208264 
C 286.24977 153.37937 287.838353 154.037382 289.494545 154.037382 
z
" clip-path="url(#pc621c467b0)" style="fill: #00ffff; fill-opacity: 0.7; stroke: #00ffff; stroke-opacity: 0.7"/>
    <path d="M 301.330909 146.850361 
C 303.018651 146.850361 304.637495 146.179814 305.830909 144.9864 
C 307.024323 143.792986 307.69487 142.174142 307.69487 140.4864 
C 307.69487 138.798658 307.024323 137.179814 305.830909 135.9864 
C 304.637495 134.792986 303.018651 134.122439 301.330909 134.122439 
C 299.643167 134.122439 298.024323 134.792986 296.830909 135.9864 
C 295.637495 137.179814 294.966948 138.798658 294.966948 140.4864 
C 294.966948 142.174142 295.637495 143.792986 296.830909 144.9864 
C 298.024323 146.179814 299.643167 146.850361 301.330909 146.850361 
z
" clip-path="url(#pc621c467b0)" style="fill: #00ffff; fill-opacity: 0.7; stroke: #00ffff; stroke-opacity: 0.7"/>
    <path d="M 313.167273 133.085771 
C 314.885985 133.085771 316.534535 132.402919 317.749848 131.187606 
C 318.965162 129.972293 319.648013 128.323743 319.648013 126.60503 
C 319.648013 124.886318 318.965162 123.237768 317.749848 122.022455 
C 316.534535 120.807141 314.885985 120.12429 313.167273 120.12429 
C 311.44856 120.12429 309.80001 120.807141 308.584697 122.022455 
C 307.369384 123.237768 306.686532 124.886318 306.686532 126.60503 
C 306.686532 128.323743 307.369384 129.972293 308.584697 131.187606 
C 309.80001 132.402919 311.44856 133.085771 313.167273 133.085771 
z
" clip-path="url(#pc621c467b0)" style="fill: #00ffff; fill-opacity: 0.7; stroke: #00ffff; stroke-opacity: 0.7"/>
    <path d="M 325.003636 108.464509 
C 326.752771 108.464509 328.430501 107.76957 329.667326 106.532746 
C 330.904151 105.295921 331.599089 103.618191 331.599089 101.869056 
C 331.599089 100.119921 330.904151 98.442191 329.667326 97.205366 
C 328.430501 95.968542 326.752771 95.273603 325.003636 95.273603 
C 323.254502 95.273603 321.576772 95.968542 320.339947 97.205366 
C 319.103122 98.442191 318.408183 100.119921 318.408183 101.869056 
C 318.408183 103.618191 319.103122 105.295921 320.339947 106.532746 
C 321.576772 107.76957 323.254502 108.464509 325.003636 108.464509 
z
" clip-path="url(#pc621c467b0)" style="fill: #00ffff; fill-opacity: 0.7; stroke: #00ffff; stroke-opacity: 0.7"/>
    <path d="M 336.84 81.023263 
C 338.619036 81.023263 340.325448 80.316444 341.583416 79.058476 
C 342.841385 77.800507 343.548204 76.094096 343.548204 74.315059 
C 343.548204 72.536023 342.841385 70.829611 341.583416 69.571643 
C 340.325448 68.313674 338.619036 67.606855 336.84 67.606855 
C 335.060964 67.606855 333.354552 68.313674 332.096584 69.571643 
C 330.838615 70.829611 330.131796 72.536023 330.131796 74.315059 
C 330.131796 76.094096 330.838615 77.800507 332.096584 79.058476 
C 333.354552 80.316444 335.060964 81.023263 336.84 81.023263 
z
" clip-path="url(#pc621c467b0)" style="fill: #00ffff; fill-opacity: 0.7; stroke: #00ffff; stroke-opacity: 0.7"/>
   </g>
   <g id="PathCollection_2">
    <path d="M 64.603636 429.943384 
C 65.388118 429.943384 66.140574 429.631706 66.695286 429.076994 
C 67.249999 428.522282 67.561676 427.769825 67.561676 426.985344 
C 67.561676 426.200863 67.249999 425.448406 66.695286 424.893694 
C 66.140574 424.338982 65.388118 424.027304 64.603636 424.027304 
C 63.819155 424.027304 63.066698 424.338982 62.511986 424.893694 
C 61.957274 425.448406 61.645596 426.200863 61.645596 426.985344 
C 61.645596 427.769825 61.957274 428.522282 62.511986 429.076994 
C 63.066698 429.631706 63.819155 429.943384 64.603636 429.943384 
z
" clip-path="url(#pc621c467b0)" style="fill: #ffa500; stroke: #ffa500"/>
    <path d="M 76.44 429.10391 
C 77.278646 429.10391 78.083056 428.770712 78.676068 428.1777 
C 79.26908 427.584688 79.602278 426.780278 79.602278 425.941632 
C 79.602278 425.102986 79.26908 424.298576 78.676068 423.705564 
C 78.083056 423.112552 77.278646 422.779354 76.44 422.779354 
C 75.601354 422.779354 74.796944 423.112552 74.203932 423.705564 
C 73.61092 424.298576 73.277722 425.102986 73.277722 425.941632 
C 73.277722 426.780278 73.61092 427.584688 74.203932 428.1777 
C 74.796944 428.770712 75.601354 429.10391 76.44 429.10391 
z
" clip-path="url(#pc621c467b0)" style="fill: #ffa500; stroke: #ffa500"/>
    <path d="M 88.276364 428.252022 
C 89.165882 428.252022 90.019088 427.898613 90.648072 427.269628 
C 91.277056 426.640644 91.630466 425.787438 91.630466 424.89792 
C 91.630466 424.008402 91.277056 423.155196 90.648072 422.526212 
C 90.019088 421.897227 89.165882 421.543818 88.276364 421.543818 
C 87.386845 421.543818 86.53364 421.897227 85.904655 422.526212 
C 85.275671 423.155196 84.922262 424.008402 84.922262 424.89792 
C 84.922262 425.787438 85.275671 426.640644 85.904655 427.269628 
C 86.53364 427.898613 87.386845 428.252022 88.276364 428.252022 
z
" clip-path="url(#pc621c467b0)" style="fill: #ffa500; stroke: #ffa500"/>
    <path d="M 100.112727 427.389742 
C 101.050362 427.389742 101.94972 427.017216 102.612727 426.354208 
C 103.275735 425.6912 103.648261 424.791843 103.648261 423.854208 
C 103.648261 422.916573 103.275735 422.017216 102.612727 421.354208 
C 101.94972 420.6912 101.050362 420.318674 100.112727 420.318674 
C 99.175093 420.318674 98.275735 420.6912 97.612727 421.354208 
C 96.94972 422.017216 96.577193 422.916573 96.577193 423.854208 
C 96.577193 424.791843 96.94972 425.6912 97.612727 426.354208 
C 98.275735 427.017216 99.175093 427.389742 100.112727 427.389742 
z
" clip-path="url(#pc621c467b0)" style="fill: #ffa500; stroke: #ffa500"/>
    <path d="M 111.949091 426.518595 
C 112.93249 426.518595 113.875745 426.127887 114.571113 425.432518 
C 115.266481 424.73715 115.65719 423.793895 115.65719 422.810496 
C 115.65719 421.827097 115.266481 420.883842 114.571113 420.188474 
C 113.875745 419.493105 112.93249 419.102397 111.949091 419.102397 
C 110.965691 419.102397 110.022437 419.493105 109.327069 420.188474 
C 108.6317 420.883842 108.240992 421.827097 108.240992 422.810496 
C 108.240992 423.793895 108.6317 424.73715 109.327069 425.432518 
C 110.022437 426.127887 110.965691 426.518595 111.949091 426.518595 
z
" clip-path="url(#pc621c467b0)" style="fill: #ffa500; stroke: #ffa500"/>
    <path d="M 123.785455 425.535396 
C 124.812582 425.535396 125.797779 425.127314 126.524067 424.401026 
C 127.250356 423.674737 127.658438 422.68954 127.658438 421.662413 
C 127.658438 420.635286 127.250356 419.650089 126.524067 418.9238 
C 125.797779 418.197511 124.812582 417.789429 123.785455 417.789429 
C 122.758327 417.789429 121.77313 418.197511 121.046842 418.9238 
C 120.320553 419.650089 119.912471 420.635286 119.912471 421.662413 
C 119.912471 422.68954 120.320553 423.674737 121.046842 424.401026 
C 121.77313 425.127314 122.758327 425.535396 123.785455 425.535396 
z
" clip-path="url(#pc621c467b0)" style="fill: #ffa500; stroke: #ffa500"/>
    <path d="M 135.621818 424.64983 
C 136.690886 424.64983 137.716312 424.225085 138.472257 423.469139 
C 139.228202 422.713194 139.652947 421.687769 139.652947 420.618701 
C 139.652947 419.549633 139.228202 418.524207 138.472257 417.768262 
C 137.716312 417.012317 136.690886 416.587572 135.621818 416.587572 
C 134.55275 416.587572 133.527325 417.012317 132.77138 417.768262 
C 132.015434 418.524207 131.590689 419.549633 131.590689 420.618701 
C 131.590689 421.687769 132.015434 422.713194 132.77138 423.469139 
C 133.527325 424.225085 134.55275 424.64983 135.621818 424.64983 
z
" clip-path="url(#pc621c467b0)" style="fill: #ffa500; stroke: #ffa500"/>
    <path d="M 147.458182 423.653918 
C 148.567606 423.653918 149.63174 423.213139 150.416222 422.428657 
C 151.200703 421.644176 151.641482 420.580042 151.641482 419.470618 
C 151.641482 418.361193 151.200703 417.297059 150.416222 416.512578 
C 149.63174 415.728096 148.567606 415.287317 147.458182 415.287317 
C 146.348758 415.287317 145.284623 415.728096 144.500142 416.512578 
C 143.715661 417.297059 143.274882 418.361193 143.274882 419.470618 
C 143.274882 420.580042 143.715661 421.644176 144.500142 422.428657 
C 145.284623 423.213139 146.348758 423.653918 147.458182 423.653918 
z
" clip-path="url(#pc621c467b0)" style="fill: #ffa500; stroke: #ffa500"/>
    <path d="M 159.294545 422.757033 
C 160.442909 422.757033 161.544392 422.300783 162.356408 421.488768 
C 163.168423 420.676752 163.624672 419.575269 163.624672 418.426906 
C 163.624672 417.278542 163.168423 416.177059 162.356408 415.365043 
C 161.544392 414.553028 160.442909 414.096779 159.294545 414.096779 
C 158.146182 414.096779 157.044699 414.553028 156.232683 415.365043 
C 155.420668 416.177059 154.964418 417.278542 154.964418 418.426906 
C 154.964418 419.575269 155.420668 420.676752 156.232683 421.488768 
C 157.044699 422.300783 158.146182 422.757033 159.294545 422.757033 
z
" clip-path="url(#pc621c467b0)" style="fill: #ffa500; stroke: #ffa500"/>
    <path d="M 171.130909 421.85533 
C 172.316933 421.85533 173.454541 421.384117 174.293187 420.545471 
C 175.131833 419.706825 175.603045 418.569218 175.603045 417.383194 
C 175.603045 416.197169 175.131833 415.059562 174.293187 414.220916 
C 173.454541 413.38227 172.316933 412.911058 171.130909 412.911058 
C 169.944885 412.911058 168.807277 413.38227 167.968631 414.220916 
C 167.129986 415.059562 166.658773 416.197169 166.658773 417.383194 
C 166.658773 418.569218 167.129986 419.706825 167.968631 420.545471 
C 168.807277 421.384117 169.944885 421.85533 171.130909 421.85533 
z
" clip-path="url(#pc621c467b0)" style="fill: #ffa500; stroke: #ffa500"/>
    <path d="M 182.967273 420.949254 
C 184.189799 420.949254 185.362418 420.463539 186.226874 419.599083 
C 187.09133 418.734626 187.577045 417.562007 187.577045 416.339482 
C 187.577045 415.116956 187.09133 413.944337 186.226874 413.07988 
C 185.362418 412.215424 184.189799 411.729709 182.967273 411.729709 
C 181.744747 411.729709 180.572128 412.215424 179.707672 413.07988 
C 178.843215 413.944337 178.3575 415.116956 178.3575 416.339482 
C 178.3575 417.562007 178.843215 418.734626 179.707672 419.599083 
C 180.572128 420.463539 181.744747 420.949254 182.967273 420.949254 
z
" clip-path="url(#pc621c467b0)" style="fill: #ffa500; stroke: #ffa500"/>
    <path d="M 194.803636 420.039186 
C 196.061605 420.039186 197.26822 419.53939 198.157738 418.649872 
C 199.047257 417.760353 199.547053 416.553738 199.547053 415.29577 
C 199.547053 414.037801 199.047257 412.831186 198.157738 411.941668 
C 197.26822 411.052149 196.061605 410.552353 194.803636 410.552353 
C 193.545668 410.552353 192.339053 411.052149 191.449534 411.941668 
C 190.560016 412.831186 190.06022 414.037801 190.06022 415.29577 
C 190.06022 416.553738 190.560016 417.760353 191.449534 418.649872 
C 192.339053 419.53939 193.545668 420.039186 194.803636 420.039186 
z
" clip-path="url(#pc621c467b0)" style="fill: #ffa500; stroke: #ffa500"/>
    <path d="M 206.64 419.125455 
C 207.93244 419.125455 209.172119 418.611963 210.086012 417.69807 
C 210.999905 416.784177 211.513397 415.544498 211.513397 414.252058 
C 211.513397 412.959618 210.999905 411.719939 210.086012 410.806045 
C 209.172119 409.892152 207.93244 409.37866 206.64 409.37866 
C 205.34756 409.37866 204.107881 409.892152 203.193988 410.806045 
C 202.280095 411.719939 201.766603 412.959618 201.766603 414.252058 
C 201.766603 415.544498 202.280095 416.784177 203.193988 417.69807 
C 204.107881 418.611963 205.34756 419.125455 206.64 419.125455 
z
" clip-path="url(#pc621c467b0)" style="fill: #ffa500; stroke: #ffa500"/>
    <path d="M 218.476364 418.208346 
C 219.802379 418.208346 221.074263 417.681514 222.011898 416.74388 
C 222.949532 415.806245 223.476364 414.534361 223.476364 413.208346 
C 223.476364 411.88233 222.949532 410.610446 222.011898 409.672812 
C 221.074263 408.735177 219.802379 408.208346 218.476364 408.208346 
C 217.150348 408.208346 215.878464 408.735177 214.94083 409.672812 
C 214.003195 410.610446 213.476364 411.88233 213.476364 413.208346 
C 213.476364 414.534361 214.003195 415.806245 214.94083 416.74388 
C 215.878464 417.681514 217.150348 418.208346 218.476364 418.208346 
z
" clip-path="url(#pc621c467b0)" style="fill: #ffa500; stroke: #ffa500"/>
    <path d="M 230.312727 417.288109 
C 231.671489 417.288109 232.974782 416.748267 233.935571 415.787478 
C 234.896361 414.826688 235.436203 413.523395 235.436203 412.164634 
C 235.436203 410.805872 234.896361 409.502579 233.935571 408.541789 
C 232.974782 407.581 231.671489 407.041158 230.312727 407.041158 
C 228.953966 407.041158 227.650673 407.581 226.689883 408.541789 
C 225.729094 409.502579 225.189252 410.805872 225.189252 412.164634 
C 225.189252 413.523395 225.729094 414.826688 226.689883 415.787478 
C 227.650673 416.748267 228.953966 417.288109 230.312727 417.288109 
z
" clip-path="url(#pc621c467b0)" style="fill: #ffa500; stroke: #ffa500"/>
    <path d="M 242.149091 416.156223 
C 243.539828 416.156223 244.873791 415.603678 245.85719 414.620278 
C 246.84059 413.636879 247.393135 412.302916 247.393135 410.912179 
C 247.393135 409.521442 246.84059 408.187479 245.85719 407.20408 
C 244.873791 406.220681 243.539828 405.668135 242.149091 405.668135 
C 240.758354 405.668135 239.424391 406.220681 238.440992 407.20408 
C 237.457592 408.187479 236.905047 409.521442 236.905047 410.912179 
C 236.905047 412.302916 237.457592 413.636879 238.440992 414.620278 
C 239.424391 415.603678 240.758354 416.156223 242.149091 416.156223 
z
" clip-path="url(#pc621c467b0)" style="fill: #ffa500; stroke: #ffa500"/>
    <path d="M 253.985455 415.334741 
C 255.407448 415.334741 256.771391 414.769777 257.776892 413.764276 
C 258.782393 412.758775 259.347357 411.394832 259.347357 409.972838 
C 259.347357 408.550845 258.782393 407.186902 257.776892 406.181401 
C 256.771391 405.1759 255.407448 404.610936 253.985455 404.610936 
C 252.563461 404.610936 251.199518 405.1759 250.194017 406.181401 
C 249.188516 407.186902 248.623552 408.550845 248.623552 409.972838 
C 248.623552 411.394832 249.188516 412.758775 250.194017 413.764276 
C 251.199518 414.769777 252.563461 415.334741 253.985455 415.334741 
z
" clip-path="url(#pc621c467b0)" style="fill: #ffa500; stroke: #ffa500"/>
    <path d="M 265.821818 414.510723 
C 267.274395 414.510723 268.667674 413.933608 269.694802 412.906481 
C 270.721929 411.879354 271.299044 410.486075 271.299044 409.033498 
C 271.299044 407.58092 270.721929 406.187641 269.694802 405.160514 
C 268.667674 404.133387 267.274395 403.556272 265.821818 403.556272 
C 264.369241 403.556272 262.975962 404.133387 261.948835 405.160514 
C 260.921708 406.187641 260.344593 407.58092 260.344593 409.033498 
C 260.344593 410.486075 260.921708 411.879354 261.948835 412.906481 
C 262.975962 413.933608 264.369241 414.510723 265.821818 414.510723 
z
" clip-path="url(#pc621c467b0)" style="fill: #ffa500; stroke: #ffa500"/>
    <path d="M 277.658182 413.684327 
C 279.140712 413.684327 280.562722 413.095311 281.611029 412.047004 
C 282.659336 410.998697 283.248352 409.576687 283.248352 408.094157 
C 283.248352 406.611626 282.659336 405.189617 281.611029 404.14131 
C 280.562722 403.093002 279.140712 402.503987 277.658182 402.503987 
C 276.175651 402.503987 274.753642 403.093002 273.705335 404.14131 
C 272.657027 405.189617 272.068012 406.611626 272.068012 408.094157 
C 272.068012 409.576687 272.657027 410.998697 273.705335 412.047004 
C 274.753642 413.095311 276.175651 413.684327 277.658182 413.684327 
z
" clip-path="url(#pc621c467b0)" style="fill: #ffa500; stroke: #ffa500"/>
    <path d="M 289.494545 412.751322 
C 291.006436 412.751322 292.456606 412.150642 293.525674 411.081574 
C 294.594742 410.012506 295.195423 408.562335 295.195423 407.050445 
C 295.195423 405.538555 294.594742 404.088384 293.525674 403.019316 
C 292.456606 401.950248 291.006436 401.349568 289.494545 401.349568 
C 287.982655 401.349568 286.532484 401.950248 285.463417 403.019316 
C 284.394349 404.088384 283.793668 405.538555 283.793668 407.050445 
C 283.793668 408.562335 284.394349 410.012506 285.463417 411.081574 
C 286.532484 412.150642 287.982655 412.751322 289.494545 412.751322 
z
" clip-path="url(#pc621c467b0)" style="fill: #ffa500; stroke: #ffa500"/>
    <path d="M 301.330909 411.816208 
C 302.8716 411.816208 304.349395 411.204085 305.438828 410.114652 
C 306.528261 409.025219 307.140384 407.547424 307.140384 406.006733 
C 307.140384 404.466042 306.528261 402.988247 305.438828 401.898814 
C 304.349395 400.809381 302.8716 400.197258 301.330909 400.197258 
C 299.790218 400.197258 298.312423 400.809381 297.22299 401.898814 
C 296.133557 402.988247 295.521434 404.466042 295.521434 406.006733 
C 295.521434 407.547424 296.133557 409.025219 297.22299 410.114652 
C 298.312423 411.204085 299.790218 411.816208 301.330909 411.816208 
z
" clip-path="url(#pc621c467b0)" style="fill: #ffa500; stroke: #ffa500"/>
    <path d="M 313.167273 410.879101 
C 314.736235 410.879101 316.241149 410.255745 317.350573 409.146321 
C 318.459997 408.036897 319.083353 406.531983 319.083353 404.963021 
C 319.083353 403.394058 318.459997 401.889145 317.350573 400.779721 
C 316.241149 399.670297 314.736235 399.046941 313.167273 399.046941 
C 311.59831 399.046941 310.093397 399.670297 308.983973 400.779721 
C 307.874548 401.889145 307.251193 403.394058 307.251193 404.963021 
C 307.251193 406.531983 307.874548 408.036897 308.983973 409.146321 
C 310.093397 410.255745 311.59831 410.879101 313.167273 410.879101 
z
" clip-path="url(#pc621c467b0)" style="fill: #ffa500; stroke: #ffa500"/>
    <path d="M 325.003636 409.940106 
C 326.60037 409.940106 328.131921 409.305717 329.260983 408.176655 
C 330.390044 407.047594 331.024434 405.516043 331.024434 403.919309 
C 331.024434 402.322575 330.390044 400.791024 329.260983 399.661962 
C 328.131921 398.532901 326.60037 397.898512 325.003636 397.898512 
C 323.406902 397.898512 321.875351 398.532901 320.74629 399.661962 
C 319.617228 400.791024 318.982839 402.322575 318.982839 403.919309 
C 318.982839 405.516043 319.617228 407.047594 320.74629 408.176655 
C 321.875351 409.305717 323.406902 409.940106 325.003636 409.940106 
z
" clip-path="url(#pc621c467b0)" style="fill: #ffa500; stroke: #ffa500"/>
    <path d="M 336.84 408.999321 
C 338.464031 408.999321 340.021764 408.354087 341.170127 407.205724 
C 342.31849 406.057361 342.963724 404.499627 342.963724 402.875597 
C 342.963724 401.251566 342.31849 399.693833 341.170127 398.54547 
C 340.021764 397.397107 338.464031 396.751872 336.84 396.751872 
C 335.215969 396.751872 333.658236 397.397107 332.509873 398.54547 
C 331.36151 399.693833 330.716276 401.251566 330.716276 402.875597 
C 330.716276 404.499627 331.36151 406.057361 332.509873 407.205724 
C 333.658236 408.354087 335.215969 408.999321 336.84 408.999321 
z
" clip-path="url(#pc621c467b0)" style="fill: #ffa500; stroke: #ffa500"/>
   </g>
   <g id="matplotlib.axis_3">
    <g id="ytick_10">
     <g id="line2d_34">
      <defs>
       <path id="m347d7d6c90" d="M 0 0 
L 3.5 0 
" style="stroke: #000000; stroke-width: 0.8"/>
      </defs>
      <g>
       <use xlink:href="#m347d7d6c90" x="362.88" y="427.5072" style="stroke: #000000; stroke-width: 0.8"/>
      </g>
     </g>
     <g id="text_35">
      <!-- 0 -->
      <g transform="translate(369.88 430.9447)scale(0.1 -0.1)">
       <use xlink:href="#SimHei-30"/>
      </g>
     </g>
    </g>
    <g id="ytick_11">
     <g id="line2d_35">
      <g>
       <use xlink:href="#m347d7d6c90" x="362.88" y="375.3216" style="stroke: #000000; stroke-width: 0.8"/>
      </g>
     </g>
     <g id="text_36">
      <!-- 500 -->
      <g transform="translate(369.88 378.7591)scale(0.1 -0.1)">
       <use xlink:href="#SimHei-35"/>
       <use xlink:href="#SimHei-30" x="50"/>
       <use xlink:href="#SimHei-30" x="100"/>
      </g>
     </g>
    </g>
    <g id="ytick_12">
     <g id="line2d_36">
      <g>
       <use xlink:href="#m347d7d6c90" x="362.88" y="323.136" style="stroke: #000000; stroke-width: 0.8"/>
      </g>
     </g>
     <g id="text_37">
      <!-- 1000 -->
      <g transform="translate(369.88 326.5735)scale(0.1 -0.1)">
       <use xlink:href="#SimHei-31"/>
       <use xlink:href="#SimHei-30" x="50"/>
       <use xlink:href="#SimHei-30" x="100"/>
       <use xlink:href="#SimHei-30" x="150"/>
      </g>
     </g>
    </g>
    <g id="ytick_13">
     <g id="line2d_37">
      <g>
       <use xlink:href="#m347d7d6c90" x="362.88" y="270.9504" style="stroke: #000000; stroke-width: 0.8"/>
      </g>
     </g>
     <g id="text_38">
      <!-- 1500 -->
      <g transform="translate(369.88 274.3879)scale(0.1 -0.1)">
       <use xlink:href="#SimHei-31"/>
       <use xlink:href="#SimHei-35" x="50"/>
       <use xlink:href="#SimHei-30" x="100"/>
       <use xlink:href="#SimHei-30" x="150"/>
      </g>
     </g>
    </g>
    <g id="ytick_14">
     <g id="line2d_38">
      <g>
       <use xlink:href="#m347d7d6c90" x="362.88" y="218.7648" style="stroke: #000000; stroke-width: 0.8"/>
      </g>
     </g>
     <g id="text_39">
      <!-- 2000 -->
      <g transform="translate(369.88 222.2023)scale(0.1 -0.1)">
       <use xlink:href="#SimHei-32"/>
       <use xlink:href="#SimHei-30" x="50"/>
       <use xlink:href="#SimHei-30" x="100"/>
       <use xlink:href="#SimHei-30" x="150"/>
      </g>
     </g>
    </g>
    <g id="ytick_15">
     <g id="line2d_39">
      <g>
       <use xlink:href="#m347d7d6c90" x="362.88" y="166.5792" style="stroke: #000000; stroke-width: 0.8"/>
      </g>
     </g>
     <g id="text_40">
      <!-- 2500 -->
      <g transform="translate(369.88 170.0167)scale(0.1 -0.1)">
       <use xlink:href="#SimHei-32"/>
       <use xlink:href="#SimHei-35" x="50"/>
       <use xlink:href="#SimHei-30" x="100"/>
       <use xlink:href="#SimHei-30" x="150"/>
      </g>
     </g>
    </g>
    <g id="ytick_16">
     <g id="line2d_40">
      <g>
       <use xlink:href="#m347d7d6c90" x="362.88" y="114.3936" style="stroke: #000000; stroke-width: 0.8"/>
      </g>
     </g>
     <g id="text_41">
      <!-- 3000 -->
      <g transform="translate(369.88 117.8311)scale(0.1 -0.1)">
       <use xlink:href="#SimHei-33"/>
       <use xlink:href="#SimHei-30" x="50"/>
       <use xlink:href="#SimHei-30" x="100"/>
       <use xlink:href="#SimHei-30" x="150"/>
      </g>
     </g>
    </g>
    <g id="ytick_17">
     <g id="line2d_41">
      <g>
       <use xlink:href="#m347d7d6c90" x="362.88" y="62.208" style="stroke: #000000; stroke-width: 0.8"/>
      </g>
     </g>
     <g id="text_42">
      <!-- 3500 -->
      <g transform="translate(369.88 65.6455)scale(0.1 -0.1)">
       <use xlink:href="#SimHei-33"/>
       <use xlink:href="#SimHei-35" x="50"/>
       <use xlink:href="#SimHei-30" x="100"/>
       <use xlink:href="#SimHei-30" x="150"/>
      </g>
     </g>
    </g>
   </g>
   <g id="patch_8">
    <path d="M 50.4 453.6 
L 50.4 62.208 
" style="fill: none"/>
   </g>
   <g id="patch_9">
    <path d="M 362.88 453.6 
L 362.88 62.208 
" style="fill: none"/>
   </g>
   <g id="patch_10">
    <path d="M 50.4 453.6 
L 362.88 453.6 
" style="fill: none"/>
   </g>
   <g id="patch_11">
    <path d="M 50.4 62.208 
L 362.88 62.208 
" style="fill: none"/>
   </g>
   <g id="legend_2">
    <g id="PathCollection_3">
     <defs>
      <path id="m52bc72559f" d="M 0 5.267827 
C 1.397044 5.267827 2.737057 4.712775 3.724916 3.724916 
C 4.712775 2.737057 5.267827 1.397044 5.267827 0 
C 5.267827 -1.397044 4.712775 -2.737057 3.724916 -3.724916 
C 2.737057 -4.712775 1.397044 -5.267827 0 -5.267827 
C -1.397044 -5.267827 -2.737057 -4.712775 -3.724916 -3.724916 
C -4.712775 -2.737057 -5.267827 -1.397044 -5.267827 0 
C -5.267827 1.397044 -4.712775 2.737057 -3.724916 3.724916 
C -2.737057 4.712775 -1.397044 5.267827 0 5.267827 
z
" style="stroke: #00ffff; stroke-opacity: 0.7"/>
     </defs>
     <g>
      <use xlink:href="#m52bc72559f" x="69.4" y="75.887687" style="fill: #00ffff; fill-opacity: 0.7; stroke: #00ffff; stroke-opacity: 0.7"/>
     </g>
    </g>
    <g id="text_43">
     <!-- Students (10K) -->
     <g transform="translate(87.4 78.512687)scale(0.1 -0.1)">
      <defs>
       <path id="SimHei-53" d="M 2900 1325 
Q 2900 750 2537 412 
Q 2175 75 1550 75 
Q 925 75 575 425 
Q 225 775 225 1300 
L 225 1475 
L 800 1475 
L 800 1325 
Q 800 950 1025 750 
Q 1250 550 1550 550 
Q 1950 550 2137 762 
Q 2325 975 2325 1275 
Q 2325 1525 2100 1737 
Q 1875 1950 1450 2125 
Q 850 2350 587 2625 
Q 325 2900 325 3275 
Q 325 3800 687 4125 
Q 1050 4450 1550 4450 
Q 2200 4450 2487 4062 
Q 2775 3675 2775 3225 
L 2200 3225 
Q 2225 3500 2050 3725 
Q 1875 3950 1550 3950 
Q 1250 3950 1075 3787 
Q 900 3625 900 3350 
Q 900 3125 1037 2962 
Q 1175 2800 1750 2575 
Q 2300 2350 2600 2037 
Q 2900 1725 2900 1325 
z
" transform="scale(0.015625)"/>
      </defs>
      <use xlink:href="#SimHei-53"/>
      <use xlink:href="#SimHei-74" x="50"/>
      <use xlink:href="#SimHei-75" x="100"/>
      <use xlink:href="#SimHei-64" x="150"/>
      <use xlink:href="#SimHei-65" x="200"/>
      <use xlink:href="#SimHei-6e" x="250"/>
      <use xlink:href="#SimHei-74" x="300"/>
      <use xlink:href="#SimHei-73" x="350"/>
      <use xlink:href="#SimHei-20" x="400"/>
      <use xlink:href="#SimHei-28" x="450"/>
      <use xlink:href="#SimHei-31" x="500"/>
      <use xlink:href="#SimHei-30" x="550"/>
      <use xlink:href="#SimHei-4b" x="600"/>
      <use xlink:href="#SimHei-29" x="650"/>
     </g>
    </g>
    <g id="PathCollection_4">
     <defs>
      <path id="mf596618f24" d="M 0 4.808846 
C 1.275321 4.808846 2.49858 4.302156 3.400368 3.400368 
C 4.302156 2.49858 4.808846 1.275321 4.808846 0 
C 4.808846 -1.275321 4.302156 -2.49858 3.400368 -3.400368 
C 2.49858 -4.302156 1.275321 -4.808846 0 -4.808846 
C -1.275321 -4.808846 -2.49858 -4.302156 -3.400368 -3.400368 
C -4.302156 -2.49858 -4.808846 -1.275321 -4.808846 0 
C -4.808846 1.275321 -4.302156 2.49858 -3.400368 3.400368 
C -2.49858 4.302156 -1.275321 4.808846 0 4.808846 
z
" style="stroke: #ffa500"/>
     </defs>
     <g>
      <use xlink:href="#mf596618f24" x="69.4" y="89.442375" style="fill: #ffa500; stroke: #ffa500"/>
     </g>
    </g>
    <g id="text_44">
     <!-- Teachers (10K) -->
     <g transform="translate(87.4 92.067375)scale(0.1 -0.1)">
      <defs>
       <path id="SimHei-72" d="M 2500 2425 
Q 2025 2500 1700 2287 
Q 1375 2075 1150 1550 
L 1150 125 
L 650 125 
L 650 2925 
L 1150 2925 
L 1150 2200 
Q 1375 2600 1712 2787 
Q 2050 2975 2500 2975 
L 2500 2425 
z
" transform="scale(0.015625)"/>
      </defs>
      <use xlink:href="#SimHei-54"/>
      <use xlink:href="#SimHei-65" x="50"/>
      <use xlink:href="#SimHei-61" x="100"/>
      <use xlink:href="#SimHei-63" x="150"/>
      <use xlink:href="#SimHei-68" x="200"/>
      <use xlink:href="#SimHei-65" x="250"/>
      <use xlink:href="#SimHei-72" x="300"/>
      <use xlink:href="#SimHei-73" x="350"/>
      <use xlink:href="#SimHei-20" x="400"/>
      <use xlink:href="#SimHei-28" x="450"/>
      <use xlink:href="#SimHei-31" x="500"/>
      <use xlink:href="#SimHei-30" x="550"/>
      <use xlink:href="#SimHei-4b" x="600"/>
      <use xlink:href="#SimHei-29" x="650"/>
     </g>
    </g>
   </g>
  </g>
 </g>
 <defs>
  <clipPath id="pc621c467b0">
   <rect x="50.4" y="62.208" width="312.48" height="391.392"/>
  </clipPath>
 </defs>
</svg>
