<?xml version="1.0" encoding="utf-8" standalone="no"?>
<!DOCTYPE svg PUBLIC "-//W3C//DTD SVG 1.1//EN"
  "http://www.w3.org/Graphics/SVG/1.1/DTD/svg11.dtd">
<svg xmlns:xlink="http://www.w3.org/1999/xlink" width="403.2pt" height="518.4pt" viewBox="0 0 403.2 518.4" xmlns="http://www.w3.org/2000/svg" version="1.1">
 <metadata>
  <rdf:RDF xmlns:dc="http://purl.org/dc/elements/1.1/" xmlns:cc="http://creativecommons.org/ns#" xmlns:rdf="http://www.w3.org/1999/02/22-rdf-syntax-ns#">
   <cc:Work>
    <dc:type rdf:resource="http://purl.org/dc/dcmitype/StillImage"/>
    <dc:date>2022-10-24T15:51:39.673353</dc:date>
    <dc:format>image/svg+xml</dc:format>
    <dc:creator>
     <cc:Agent>
      <dc:title>Matplotlib v3.5.3, https://matplotlib.org/</dc:title>
     </cc:Agent>
    </dc:creator>
   </cc:Work>
  </rdf:RDF>
 </metadata>
 <defs>
  <style type="text/css">*{stroke-linejoin: round; stroke-linecap: butt}</style>
 </defs>
 <g id="figure_1">
  <g id="patch_1">
   <path d="M 0 518.4 
L 403.2 518.4 
L 403.2 0 
L 0 0 
L 0 518.4 
z
" style="fill: none"/>
  </g>
  <g id="axes_1">
   <g id="patch_2">
    <path d="M 50.4 453.6 
L 362.88 453.6 
L 362.88 62.208 
L 50.4 62.208 
z
" style="fill: #ffffff"/>
   </g>
   <g id="PolyCollection_1">
    <path d="M 64.603636 394.8912 
L 64.603636 397.686857 
L 76.44 397.407291 
L 88.276364 396.84816 
L 100.112727 396.568594 
L 111.949091 390.697714 
L 123.785455 379.654869 
L 135.621818 368.47224 
L 147.458182 357.289611 
L 159.294545 351.698297 
L 171.130909 346.805897 
L 182.967273 335.343703 
L 194.803636 331.150217 
L 206.64 328.634126 
L 218.476364 325.838469 
L 230.312727 323.042811 
L 242.149091 320.135328 
L 253.985455 317.451497 
L 265.821818 314.795623 
L 277.658182 312.279531 
L 289.494545 309.76344 
L 301.330909 307.247349 
L 313.167273 304.731257 
L 325.003636 302.075383 
L 336.84 299.559291 
L 336.84 286.978834 
L 336.84 286.978834 
L 325.003636 290.054057 
L 313.167273 293.269063 
L 301.330909 296.344286 
L 289.494545 299.419509 
L 277.658182 302.494731 
L 265.821818 305.569954 
L 253.985455 308.505394 
L 242.149091 311.580617 
L 230.312727 314.376274 
L 218.476364 317.451497 
L 206.64 320.52672 
L 194.803636 323.601943 
L 182.967273 327.515863 
L 171.130909 340.935017 
L 159.294545 346.106983 
L 147.458182 352.257429 
L 135.621818 363.719623 
L 123.785455 375.461383 
L 111.949091 386.224663 
L 100.112727 393.493371 
L 88.276364 391.256846 
L 76.44 394.611634 
L 64.603636 394.8912 
z
" clip-path="url(#p1c464bbaf8)" style="fill: #0000ff; fill-opacity: 0.6"/>
   </g>
   <g id="matplotlib.axis_1">
    <g id="xtick_1">
     <g id="line2d_1">
      <defs>
       <path id="m210245e716" d="M 0 0 
L 0 3.5 
" style="stroke: #000000; stroke-width: 0.8"/>
      </defs>
      <g>
       <use xlink:href="#m210245e716" x="64.603636" y="453.6" style="stroke: #000000; stroke-width: 0.8"/>
      </g>
     </g>
     <g id="text_1">
      <!-- 1997 -->
      <g transform="translate(67.416136 480.6)rotate(-90)scale(0.1 -0.1)">
       <defs>
        <path id="SimHei-31" d="M 1400 3600 
Q 1075 3275 575 2975 
L 575 3450 
Q 1200 3875 1600 4450 
L 1900 4450 
L 1900 150 
L 1400 150 
L 1400 3600 
z
" transform="scale(0.015625)"/>
        <path id="SimHei-39" d="M 800 75 
Q 1350 1000 1700 1750 
Q 1075 1650 662 1912 
Q 250 2175 162 2625 
Q 75 3075 175 3437 
Q 275 3800 487 4037 
Q 700 4275 1000 4375 
Q 1300 4475 1537 4475 
Q 1775 4475 2025 4375 
Q 2275 4275 2475 4075 
Q 2675 3875 2750 3662 
Q 2825 3450 2825 3112 
Q 2825 2775 2575 2250 
Q 2325 1725 1350 75 
L 800 75 
z
M 662 2875 
Q 700 2550 937 2337 
Q 1175 2125 1450 2150 
Q 1725 2175 1887 2300 
Q 2050 2425 2200 2725 
Q 2300 3100 2250 3362 
Q 2200 3625 1987 3800 
Q 1775 3975 1525 3975 
Q 1375 4000 1137 3900 
Q 900 3800 762 3500 
Q 625 3200 662 2875 
z
" transform="scale(0.015625)"/>
        <path id="SimHei-37" d="M 850 150 
Q 1300 2050 2425 3925 
L 275 3925 
L 275 4375 
L 2950 4375 
L 2950 3950 
Q 1775 2050 1400 150 
L 850 150 
z
" transform="scale(0.015625)"/>
       </defs>
       <use xlink:href="#SimHei-31"/>
       <use xlink:href="#SimHei-39" x="50"/>
       <use xlink:href="#SimHei-39" x="100"/>
       <use xlink:href="#SimHei-37" x="150"/>
      </g>
     </g>
    </g>
    <g id="xtick_2">
     <g id="line2d_2">
      <g>
       <use xlink:href="#m210245e716" x="76.44" y="453.6" style="stroke: #000000; stroke-width: 0.8"/>
      </g>
     </g>
     <g id="text_2">
      <!-- 1998 -->
      <g transform="translate(79.2525 480.6)rotate(-90)scale(0.1 -0.1)">
       <defs>
        <path id="SimHei-38" d="M 175 1375 
Q 175 1675 325 1962 
Q 475 2250 825 2425 
Q 525 2600 425 2812 
Q 325 3025 312 3300 
Q 300 3575 387 3775 
Q 475 3975 650 4150 
Q 825 4325 1037 4387 
Q 1250 4450 1500 4450 
Q 1750 4450 1950 4400 
Q 2150 4350 2375 4187 
Q 2600 4025 2700 3725 
Q 2800 3425 2687 3025 
Q 2575 2625 2100 2400 
Q 2525 2275 2700 2012 
Q 2875 1750 2875 1375 
Q 2875 1000 2762 775 
Q 2650 550 2512 400 
Q 2375 250 2137 162 
Q 1900 75 1537 75 
Q 1175 75 912 162 
Q 650 250 475 425 
Q 300 600 237 837 
Q 175 1075 175 1375 
z
M 687 1400 
Q 675 1100 787 875 
Q 900 650 1200 587 
Q 1500 525 1825 600 
Q 2150 675 2275 950 
Q 2400 1225 2362 1500 
Q 2325 1775 2050 1962 
Q 1775 2150 1450 2125 
Q 1125 2100 912 1900 
Q 700 1700 687 1400 
z
M 775 3350 
Q 775 3100 950 2875 
Q 1125 2650 1500 2650 
Q 1875 2650 2062 2875 
Q 2250 3100 2237 3412 
Q 2225 3725 2012 3875 
Q 1800 4025 1437 4000 
Q 1075 3975 925 3787 
Q 775 3600 775 3350 
z
" transform="scale(0.015625)"/>
       </defs>
       <use xlink:href="#SimHei-31"/>
       <use xlink:href="#SimHei-39" x="50"/>
       <use xlink:href="#SimHei-39" x="100"/>
       <use xlink:href="#SimHei-38" x="150"/>
      </g>
     </g>
    </g>
    <g id="xtick_3">
     <g id="line2d_3">
      <g>
       <use xlink:href="#m210245e716" x="88.276364" y="453.6" style="stroke: #000000; stroke-width: 0.8"/>
      </g>
     </g>
     <g id="text_3">
      <!-- 1999 -->
      <g transform="translate(91.088864 480.6)rotate(-90)scale(0.1 -0.1)">
       <use xlink:href="#SimHei-31"/>
       <use xlink:href="#SimHei-39" x="50"/>
       <use xlink:href="#SimHei-39" x="100"/>
       <use xlink:href="#SimHei-39" x="150"/>
      </g>
     </g>
    </g>
    <g id="xtick_4">
     <g id="line2d_4">
      <g>
       <use xlink:href="#m210245e716" x="100.112727" y="453.6" style="stroke: #000000; stroke-width: 0.8"/>
      </g>
     </g>
     <g id="text_4">
      <!-- 2000 -->
      <g transform="translate(102.925227 480.6)rotate(-90)scale(0.1 -0.1)">
       <defs>
        <path id="SimHei-32" d="M 300 250 
Q 325 625 650 925 
Q 975 1225 1475 1862 
Q 1975 2500 2125 2850 
Q 2275 3200 2237 3450 
Q 2200 3700 2000 3862 
Q 1800 4025 1537 4000 
Q 1275 3975 1037 3800 
Q 800 3625 675 3275 
L 200 3350 
Q 400 3925 712 4187 
Q 1025 4450 1450 4475 
Q 1700 4500 1900 4462 
Q 2100 4425 2312 4287 
Q 2525 4150 2662 3875 
Q 2800 3600 2762 3212 
Q 2725 2825 2375 2287 
Q 2025 1750 1025 600 
L 2825 600 
L 2825 150 
L 300 150 
L 300 250 
z
" transform="scale(0.015625)"/>
        <path id="SimHei-30" d="M 225 2537 
Q 250 3200 412 3587 
Q 575 3975 875 4225 
Q 1175 4475 1612 4475 
Q 2050 4475 2375 4112 
Q 2700 3750 2800 3200 
Q 2900 2650 2862 1937 
Q 2825 1225 2612 775 
Q 2400 325 1975 150 
Q 1550 -25 1125 187 
Q 700 400 525 750 
Q 350 1100 275 1487 
Q 200 1875 225 2537 
z
M 750 2687 
Q 675 2000 800 1462 
Q 925 925 1212 700 
Q 1500 475 1800 612 
Q 2100 750 2237 1162 
Q 2375 1575 2375 2062 
Q 2375 2550 2337 2950 
Q 2300 3350 2112 3675 
Q 1925 4000 1612 4012 
Q 1300 4025 1062 3700 
Q 825 3375 750 2687 
z
" transform="scale(0.015625)"/>
       </defs>
       <use xlink:href="#SimHei-32"/>
       <use xlink:href="#SimHei-30" x="50"/>
       <use xlink:href="#SimHei-30" x="100"/>
       <use xlink:href="#SimHei-30" x="150"/>
      </g>
     </g>
    </g>
    <g id="xtick_5">
     <g id="line2d_5">
      <g>
       <use xlink:href="#m210245e716" x="111.949091" y="453.6" style="stroke: #000000; stroke-width: 0.8"/>
      </g>
     </g>
     <g id="text_5">
      <!-- 2001 -->
      <g transform="translate(114.761591 480.6)rotate(-90)scale(0.1 -0.1)">
       <use xlink:href="#SimHei-32"/>
       <use xlink:href="#SimHei-30" x="50"/>
       <use xlink:href="#SimHei-30" x="100"/>
       <use xlink:href="#SimHei-31" x="150"/>
      </g>
     </g>
    </g>
    <g id="xtick_6">
     <g id="line2d_6">
      <g>
       <use xlink:href="#m210245e716" x="123.785455" y="453.6" style="stroke: #000000; stroke-width: 0.8"/>
      </g>
     </g>
     <g id="text_6">
      <!-- 2002 -->
      <g transform="translate(126.597955 480.6)rotate(-90)scale(0.1 -0.1)">
       <use xlink:href="#SimHei-32"/>
       <use xlink:href="#SimHei-30" x="50"/>
       <use xlink:href="#SimHei-30" x="100"/>
       <use xlink:href="#SimHei-32" x="150"/>
      </g>
     </g>
    </g>
    <g id="xtick_7">
     <g id="line2d_7">
      <g>
       <use xlink:href="#m210245e716" x="135.621818" y="453.6" style="stroke: #000000; stroke-width: 0.8"/>
      </g>
     </g>
     <g id="text_7">
      <!-- 2003 -->
      <g transform="translate(138.434318 480.6)rotate(-90)scale(0.1 -0.1)">
       <defs>
        <path id="SimHei-33" d="M 250 1225 
L 700 1300 
Q 800 975 1025 762 
Q 1250 550 1587 562 
Q 1925 575 2125 837 
Q 2325 1100 2300 1437 
Q 2275 1775 2037 1962 
Q 1800 2150 1275 2225 
L 1275 2550 
Q 1800 2600 2037 2825 
Q 2275 3050 2250 3412 
Q 2225 3775 1925 3937 
Q 1625 4100 1287 3975 
Q 950 3850 750 3275 
L 300 3350 
Q 450 3800 712 4100 
Q 975 4400 1425 4450 
Q 1875 4500 2212 4337 
Q 2550 4175 2687 3837 
Q 2825 3500 2725 3100 
Q 2625 2700 2150 2400 
Q 2500 2250 2687 1950 
Q 2875 1650 2812 1162 
Q 2750 675 2375 375 
Q 2000 75 1525 87 
Q 1050 100 700 387 
Q 350 675 250 1225 
z
" transform="scale(0.015625)"/>
       </defs>
       <use xlink:href="#SimHei-32"/>
       <use xlink:href="#SimHei-30" x="50"/>
       <use xlink:href="#SimHei-30" x="100"/>
       <use xlink:href="#SimHei-33" x="150"/>
      </g>
     </g>
    </g>
    <g id="xtick_8">
     <g id="line2d_8">
      <g>
       <use xlink:href="#m210245e716" x="147.458182" y="453.6" style="stroke: #000000; stroke-width: 0.8"/>
      </g>
     </g>
     <g id="text_8">
      <!-- 2004 -->
      <g transform="translate(150.270682 480.6)rotate(-90)scale(0.1 -0.1)">
       <defs>
        <path id="SimHei-34" d="M 2000 1100 
L 75 1100 
L 75 1525 
L 2100 4450 
L 2475 4450 
L 2475 1525 
L 3075 1525 
L 3075 1100 
L 2475 1100 
L 2475 150 
L 2000 150 
L 2000 1100 
z
M 2000 1525 
L 2000 3500 
L 600 1525 
L 2000 1525 
z
" transform="scale(0.015625)"/>
       </defs>
       <use xlink:href="#SimHei-32"/>
       <use xlink:href="#SimHei-30" x="50"/>
       <use xlink:href="#SimHei-30" x="100"/>
       <use xlink:href="#SimHei-34" x="150"/>
      </g>
     </g>
    </g>
    <g id="xtick_9">
     <g id="line2d_9">
      <g>
       <use xlink:href="#m210245e716" x="159.294545" y="453.6" style="stroke: #000000; stroke-width: 0.8"/>
      </g>
     </g>
     <g id="text_9">
      <!-- 2005 -->
      <g transform="translate(162.107045 480.6)rotate(-90)scale(0.1 -0.1)">
       <defs>
        <path id="SimHei-35" d="M 550 1325 
Q 725 650 1150 575 
Q 1575 500 1837 662 
Q 2100 825 2212 1087 
Q 2325 1350 2312 1675 
Q 2300 2000 2137 2225 
Q 1975 2450 1725 2525 
Q 1475 2600 1162 2525 
Q 850 2450 650 2175 
L 225 2225 
Q 275 2375 700 4375 
L 2675 4375 
L 2675 3925 
L 1075 3925 
Q 950 3250 825 2850 
Q 1200 3025 1525 3012 
Q 1850 3000 2150 2862 
Q 2450 2725 2587 2487 
Q 2725 2250 2787 2012 
Q 2850 1775 2837 1500 
Q 2825 1225 2725 937 
Q 2625 650 2425 462 
Q 2225 275 1937 162 
Q 1650 50 1275 75 
Q 900 100 562 350 
Q 225 600 100 1200 
L 550 1325 
z
" transform="scale(0.015625)"/>
       </defs>
       <use xlink:href="#SimHei-32"/>
       <use xlink:href="#SimHei-30" x="50"/>
       <use xlink:href="#SimHei-30" x="100"/>
       <use xlink:href="#SimHei-35" x="150"/>
      </g>
     </g>
    </g>
    <g id="xtick_10">
     <g id="line2d_10">
      <g>
       <use xlink:href="#m210245e716" x="171.130909" y="453.6" style="stroke: #000000; stroke-width: 0.8"/>
      </g>
     </g>
     <g id="text_10">
      <!-- 2006 -->
      <g transform="translate(173.943409 480.6)rotate(-90)scale(0.1 -0.1)">
       <defs>
        <path id="SimHei-36" d="M 250 1612 
Q 275 1975 387 2225 
Q 500 2475 725 2850 
L 1750 4450 
L 2325 4450 
L 1275 2800 
Q 1950 2975 2350 2750 
Q 2750 2525 2887 2237 
Q 3025 1950 3037 1612 
Q 3050 1275 2937 950 
Q 2825 625 2537 362 
Q 2250 100 1737 75 
Q 1225 50 862 262 
Q 500 475 362 862 
Q 225 1250 250 1612 
z
M 1025 787 
Q 1250 550 1625 525 
Q 2000 500 2250 775 
Q 2500 1050 2500 1575 
Q 2500 2100 2187 2300 
Q 1875 2500 1487 2450 
Q 1100 2400 925 2075 
Q 750 1750 775 1387 
Q 800 1025 1025 787 
z
" transform="scale(0.015625)"/>
       </defs>
       <use xlink:href="#SimHei-32"/>
       <use xlink:href="#SimHei-30" x="50"/>
       <use xlink:href="#SimHei-30" x="100"/>
       <use xlink:href="#SimHei-36" x="150"/>
      </g>
     </g>
    </g>
    <g id="xtick_11">
     <g id="line2d_11">
      <g>
       <use xlink:href="#m210245e716" x="182.967273" y="453.6" style="stroke: #000000; stroke-width: 0.8"/>
      </g>
     </g>
     <g id="text_11">
      <!-- 2007 -->
      <g transform="translate(185.779773 480.6)rotate(-90)scale(0.1 -0.1)">
       <use xlink:href="#SimHei-32"/>
       <use xlink:href="#SimHei-30" x="50"/>
       <use xlink:href="#SimHei-30" x="100"/>
       <use xlink:href="#SimHei-37" x="150"/>
      </g>
     </g>
    </g>
    <g id="xtick_12">
     <g id="line2d_12">
      <g>
       <use xlink:href="#m210245e716" x="194.803636" y="453.6" style="stroke: #000000; stroke-width: 0.8"/>
      </g>
     </g>
     <g id="text_12">
      <!-- 2008 -->
      <g transform="translate(197.616136 480.6)rotate(-90)scale(0.1 -0.1)">
       <use xlink:href="#SimHei-32"/>
       <use xlink:href="#SimHei-30" x="50"/>
       <use xlink:href="#SimHei-30" x="100"/>
       <use xlink:href="#SimHei-38" x="150"/>
      </g>
     </g>
    </g>
    <g id="xtick_13">
     <g id="line2d_13">
      <g>
       <use xlink:href="#m210245e716" x="206.64" y="453.6" style="stroke: #000000; stroke-width: 0.8"/>
      </g>
     </g>
     <g id="text_13">
      <!-- 2009 -->
      <g transform="translate(209.4525 480.6)rotate(-90)scale(0.1 -0.1)">
       <use xlink:href="#SimHei-32"/>
       <use xlink:href="#SimHei-30" x="50"/>
       <use xlink:href="#SimHei-30" x="100"/>
       <use xlink:href="#SimHei-39" x="150"/>
      </g>
     </g>
    </g>
    <g id="xtick_14">
     <g id="line2d_14">
      <g>
       <use xlink:href="#m210245e716" x="218.476364" y="453.6" style="stroke: #000000; stroke-width: 0.8"/>
      </g>
     </g>
     <g id="text_14">
      <!-- 2010 -->
      <g transform="translate(221.288864 480.6)rotate(-90)scale(0.1 -0.1)">
       <use xlink:href="#SimHei-32"/>
       <use xlink:href="#SimHei-30" x="50"/>
       <use xlink:href="#SimHei-31" x="100"/>
       <use xlink:href="#SimHei-30" x="150"/>
      </g>
     </g>
    </g>
    <g id="xtick_15">
     <g id="line2d_15">
      <g>
       <use xlink:href="#m210245e716" x="230.312727" y="453.6" style="stroke: #000000; stroke-width: 0.8"/>
      </g>
     </g>
     <g id="text_15">
      <!-- 2011 -->
      <g transform="translate(233.125227 480.6)rotate(-90)scale(0.1 -0.1)">
       <use xlink:href="#SimHei-32"/>
       <use xlink:href="#SimHei-30" x="50"/>
       <use xlink:href="#SimHei-31" x="100"/>
       <use xlink:href="#SimHei-31" x="150"/>
      </g>
     </g>
    </g>
    <g id="xtick_16">
     <g id="line2d_16">
      <g>
       <use xlink:href="#m210245e716" x="242.149091" y="453.6" style="stroke: #000000; stroke-width: 0.8"/>
      </g>
     </g>
     <g id="text_16">
      <!-- 2012 -->
      <g transform="translate(244.961591 480.6)rotate(-90)scale(0.1 -0.1)">
       <use xlink:href="#SimHei-32"/>
       <use xlink:href="#SimHei-30" x="50"/>
       <use xlink:href="#SimHei-31" x="100"/>
       <use xlink:href="#SimHei-32" x="150"/>
      </g>
     </g>
    </g>
    <g id="xtick_17">
     <g id="line2d_17">
      <g>
       <use xlink:href="#m210245e716" x="253.985455" y="453.6" style="stroke: #000000; stroke-width: 0.8"/>
      </g>
     </g>
     <g id="text_17">
      <!-- 2013 -->
      <g transform="translate(256.797955 480.6)rotate(-90)scale(0.1 -0.1)">
       <use xlink:href="#SimHei-32"/>
       <use xlink:href="#SimHei-30" x="50"/>
       <use xlink:href="#SimHei-31" x="100"/>
       <use xlink:href="#SimHei-33" x="150"/>
      </g>
     </g>
    </g>
    <g id="xtick_18">
     <g id="line2d_18">
      <g>
       <use xlink:href="#m210245e716" x="265.821818" y="453.6" style="stroke: #000000; stroke-width: 0.8"/>
      </g>
     </g>
     <g id="text_18">
      <!-- 2014 -->
      <g transform="translate(268.634318 480.6)rotate(-90)scale(0.1 -0.1)">
       <use xlink:href="#SimHei-32"/>
       <use xlink:href="#SimHei-30" x="50"/>
       <use xlink:href="#SimHei-31" x="100"/>
       <use xlink:href="#SimHei-34" x="150"/>
      </g>
     </g>
    </g>
    <g id="xtick_19">
     <g id="line2d_19">
      <g>
       <use xlink:href="#m210245e716" x="277.658182" y="453.6" style="stroke: #000000; stroke-width: 0.8"/>
      </g>
     </g>
     <g id="text_19">
      <!-- 2015 -->
      <g transform="translate(280.470682 480.6)rotate(-90)scale(0.1 -0.1)">
       <use xlink:href="#SimHei-32"/>
       <use xlink:href="#SimHei-30" x="50"/>
       <use xlink:href="#SimHei-31" x="100"/>
       <use xlink:href="#SimHei-35" x="150"/>
      </g>
     </g>
    </g>
    <g id="xtick_20">
     <g id="line2d_20">
      <g>
       <use xlink:href="#m210245e716" x="289.494545" y="453.6" style="stroke: #000000; stroke-width: 0.8"/>
      </g>
     </g>
     <g id="text_20">
      <!-- 2016 -->
      <g transform="translate(292.307045 480.6)rotate(-90)scale(0.1 -0.1)">
       <use xlink:href="#SimHei-32"/>
       <use xlink:href="#SimHei-30" x="50"/>
       <use xlink:href="#SimHei-31" x="100"/>
       <use xlink:href="#SimHei-36" x="150"/>
      </g>
     </g>
    </g>
    <g id="xtick_21">
     <g id="line2d_21">
      <g>
       <use xlink:href="#m210245e716" x="301.330909" y="453.6" style="stroke: #000000; stroke-width: 0.8"/>
      </g>
     </g>
     <g id="text_21">
      <!-- 2017 -->
      <g transform="translate(304.143409 480.6)rotate(-90)scale(0.1 -0.1)">
       <use xlink:href="#SimHei-32"/>
       <use xlink:href="#SimHei-30" x="50"/>
       <use xlink:href="#SimHei-31" x="100"/>
       <use xlink:href="#SimHei-37" x="150"/>
      </g>
     </g>
    </g>
    <g id="xtick_22">
     <g id="line2d_22">
      <g>
       <use xlink:href="#m210245e716" x="313.167273" y="453.6" style="stroke: #000000; stroke-width: 0.8"/>
      </g>
     </g>
     <g id="text_22">
      <!-- 2018 -->
      <g transform="translate(315.979773 480.6)rotate(-90)scale(0.1 -0.1)">
       <use xlink:href="#SimHei-32"/>
       <use xlink:href="#SimHei-30" x="50"/>
       <use xlink:href="#SimHei-31" x="100"/>
       <use xlink:href="#SimHei-38" x="150"/>
      </g>
     </g>
    </g>
    <g id="xtick_23">
     <g id="line2d_23">
      <g>
       <use xlink:href="#m210245e716" x="325.003636" y="453.6" style="stroke: #000000; stroke-width: 0.8"/>
      </g>
     </g>
     <g id="text_23">
      <!-- 2019 -->
      <g transform="translate(327.816136 480.6)rotate(-90)scale(0.1 -0.1)">
       <use xlink:href="#SimHei-32"/>
       <use xlink:href="#SimHei-30" x="50"/>
       <use xlink:href="#SimHei-31" x="100"/>
       <use xlink:href="#SimHei-39" x="150"/>
      </g>
     </g>
    </g>
    <g id="xtick_24">
     <g id="line2d_24">
      <g>
       <use xlink:href="#m210245e716" x="336.84" y="453.6" style="stroke: #000000; stroke-width: 0.8"/>
      </g>
     </g>
     <g id="text_24">
      <!-- 2020 -->
      <g transform="translate(339.6525 480.6)rotate(-90)scale(0.1 -0.1)">
       <use xlink:href="#SimHei-32"/>
       <use xlink:href="#SimHei-30" x="50"/>
       <use xlink:href="#SimHei-32" x="100"/>
       <use xlink:href="#SimHei-30" x="150"/>
      </g>
     </g>
    </g>
   </g>
   <g id="matplotlib.axis_2">
    <g id="ytick_1">
     <g id="line2d_25">
      <defs>
       <path id="ma988bff2a6" d="M 0 0 
L -3.5 0 
" style="stroke: #000000; stroke-width: 0.8"/>
      </defs>
      <g>
       <use xlink:href="#ma988bff2a6" x="50.4" y="453.6" style="stroke: #000000; stroke-width: 0.8"/>
      </g>
     </g>
     <g id="text_25">
      <!-- 0 K -->
      <g transform="translate(28.4 457.0375)scale(0.1 -0.1)">
       <defs>
        <path id="SimHei-20" transform="scale(0.015625)"/>
        <path id="SimHei-4b" d="M 3050 125 
L 2400 125 
L 1250 2250 
L 850 1725 
L 850 125 
L 275 125 
L 275 4400 
L 850 4400 
L 850 2550 
L 2275 4400 
L 2950 4400 
L 1625 2725 
L 3050 125 
z
" transform="scale(0.015625)"/>
       </defs>
       <use xlink:href="#SimHei-30"/>
       <use xlink:href="#SimHei-20" x="50"/>
       <use xlink:href="#SimHei-4b" x="100"/>
      </g>
     </g>
    </g>
    <g id="ytick_2">
     <g id="line2d_26">
      <g>
       <use xlink:href="#ma988bff2a6" x="50.4" y="397.686857" style="stroke: #000000; stroke-width: 0.8"/>
      </g>
     </g>
     <g id="text_26">
      <!-- 2 K -->
      <g transform="translate(28.4 401.124357)scale(0.1 -0.1)">
       <use xlink:href="#SimHei-32"/>
       <use xlink:href="#SimHei-20" x="50"/>
       <use xlink:href="#SimHei-4b" x="100"/>
      </g>
     </g>
    </g>
    <g id="ytick_3">
     <g id="line2d_27">
      <g>
       <use xlink:href="#ma988bff2a6" x="50.4" y="341.773714" style="stroke: #000000; stroke-width: 0.8"/>
      </g>
     </g>
     <g id="text_27">
      <!-- 4 K -->
      <g transform="translate(28.4 345.211214)scale(0.1 -0.1)">
       <use xlink:href="#SimHei-34"/>
       <use xlink:href="#SimHei-20" x="50"/>
       <use xlink:href="#SimHei-4b" x="100"/>
      </g>
     </g>
    </g>
    <g id="ytick_4">
     <g id="line2d_28">
      <g>
       <use xlink:href="#ma988bff2a6" x="50.4" y="285.860571" style="stroke: #000000; stroke-width: 0.8"/>
      </g>
     </g>
     <g id="text_28">
      <!-- 6 K -->
      <g transform="translate(28.4 289.298071)scale(0.1 -0.1)">
       <use xlink:href="#SimHei-36"/>
       <use xlink:href="#SimHei-20" x="50"/>
       <use xlink:href="#SimHei-4b" x="100"/>
      </g>
     </g>
    </g>
    <g id="ytick_5">
     <g id="line2d_29">
      <g>
       <use xlink:href="#ma988bff2a6" x="50.4" y="229.947429" style="stroke: #000000; stroke-width: 0.8"/>
      </g>
     </g>
     <g id="text_29">
      <!-- 8 K -->
      <g transform="translate(28.4 233.384929)scale(0.1 -0.1)">
       <use xlink:href="#SimHei-38"/>
       <use xlink:href="#SimHei-20" x="50"/>
       <use xlink:href="#SimHei-4b" x="100"/>
      </g>
     </g>
    </g>
    <g id="ytick_6">
     <g id="line2d_30">
      <g>
       <use xlink:href="#ma988bff2a6" x="50.4" y="174.034286" style="stroke: #000000; stroke-width: 0.8"/>
      </g>
     </g>
     <g id="text_30">
      <!-- 10 K -->
      <g transform="translate(23.4 177.471786)scale(0.1 -0.1)">
       <use xlink:href="#SimHei-31"/>
       <use xlink:href="#SimHei-30" x="50"/>
       <use xlink:href="#SimHei-20" x="100"/>
       <use xlink:href="#SimHei-4b" x="150"/>
      </g>
     </g>
    </g>
    <g id="ytick_7">
     <g id="line2d_31">
      <g>
       <use xlink:href="#ma988bff2a6" x="50.4" y="118.121143" style="stroke: #000000; stroke-width: 0.8"/>
      </g>
     </g>
     <g id="text_31">
      <!-- 12 K -->
      <g transform="translate(23.4 121.558643)scale(0.1 -0.1)">
       <use xlink:href="#SimHei-31"/>
       <use xlink:href="#SimHei-32" x="50"/>
       <use xlink:href="#SimHei-20" x="100"/>
       <use xlink:href="#SimHei-4b" x="150"/>
      </g>
     </g>
    </g>
    <g id="ytick_8">
     <g id="line2d_32">
      <g>
       <use xlink:href="#ma988bff2a6" x="50.4" y="62.208" style="stroke: #000000; stroke-width: 0.8"/>
      </g>
     </g>
    </g>
   </g>
   <g id="LineCollection_1">
    <path d="M 64.603636 397.686857 
L 348.676364 397.686857 
" clip-path="url(#p1c464bbaf8)" style="fill: none; stroke-dasharray: 5.55,2.4; stroke-dashoffset: 0; stroke: #808080; stroke-width: 1.5"/>
   </g>
   <g id="LineCollection_2">
    <path d="M 64.603636 341.773714 
L 348.676364 341.773714 
" clip-path="url(#p1c464bbaf8)" style="fill: none; stroke-dasharray: 5.55,2.4; stroke-dashoffset: 0; stroke: #808080; stroke-width: 1.5"/>
   </g>
   <g id="LineCollection_3">
    <path d="M 64.603636 285.860571 
L 348.676364 285.860571 
" clip-path="url(#p1c464bbaf8)" style="fill: none; stroke-dasharray: 5.55,2.4; stroke-dashoffset: 0; stroke: #808080; stroke-width: 1.5"/>
   </g>
   <g id="LineCollection_4">
    <path d="M 64.603636 229.947429 
L 348.676364 229.947429 
" clip-path="url(#p1c464bbaf8)" style="fill: none; stroke-dasharray: 5.55,2.4; stroke-dashoffset: 0; stroke: #808080; stroke-width: 1.5"/>
   </g>
   <g id="LineCollection_5">
    <path d="M 64.603636 174.034286 
L 348.676364 174.034286 
" clip-path="url(#p1c464bbaf8)" style="fill: none; stroke-dasharray: 5.55,2.4; stroke-dashoffset: 0; stroke: #808080; stroke-width: 1.5"/>
   </g>
   <g id="LineCollection_6">
    <path d="M 64.603636 118.121143 
L 348.676364 118.121143 
" clip-path="url(#p1c464bbaf8)" style="fill: none; stroke-dasharray: 5.55,2.4; stroke-dashoffset: 0; stroke: #808080; stroke-width: 1.5"/>
   </g>
   <g id="patch_3">
    <path d="M 50.4 453.6 
L 50.4 62.208 
" style="fill: none"/>
   </g>
   <g id="patch_4">
    <path d="M 362.88 453.6 
L 362.88 62.208 
" style="fill: none"/>
   </g>
   <g id="patch_5">
    <path d="M 50.4 453.6 
L 362.88 453.6 
" style="fill: none"/>
   </g>
   <g id="patch_6">
    <path d="M 50.4 62.208 
L 362.88 62.208 
" style="fill: none"/>
   </g>
   <g id="text_32">
    <!-- The development of Chinese education -->
    <g transform="translate(98.64 44.18925)scale(0.12 -0.12)">
     <defs>
      <path id="SimHei-54" d="M 2850 3925 
L 1850 3925 
L 1850 125 
L 1275 125 
L 1275 3925 
L 275 3925 
L 275 4400 
L 2850 4400 
L 2850 3925 
z
" transform="scale(0.015625)"/>
      <path id="SimHei-68" d="M 2800 125 
L 2300 125 
L 2300 1925 
Q 2300 2225 2150 2400 
Q 2000 2575 1750 2575 
Q 1425 2575 1137 2237 
Q 850 1900 850 1400 
L 850 125 
L 350 125 
L 350 4400 
L 850 4400 
L 850 2400 
Q 1050 2675 1287 2825 
Q 1525 2975 1900 2975 
Q 2350 2975 2575 2725 
Q 2800 2475 2800 2100 
L 2800 125 
z
" transform="scale(0.015625)"/>
      <path id="SimHei-65" d="M 2850 1075 
Q 2800 625 2450 350 
Q 2100 75 1625 75 
Q 1025 75 637 462 
Q 250 850 250 1525 
Q 250 2200 637 2587 
Q 1025 2975 1625 2975 
Q 2150 2975 2487 2637 
Q 2825 2300 2825 1525 
L 800 1525 
Q 800 975 1037 750 
Q 1275 525 1625 525 
Q 1900 525 2075 662 
Q 2250 800 2300 1075 
L 2850 1075 
z
M 2250 1925 
Q 2200 2275 2025 2412 
Q 1850 2550 1575 2550 
Q 1325 2550 1125 2412 
Q 925 2275 825 1925 
L 2250 1925 
z
" transform="scale(0.015625)"/>
      <path id="SimHei-64" d="M 2750 125 
L 2250 125 
L 2250 500 
Q 2100 275 1900 175 
Q 1700 75 1425 75 
Q 925 75 575 437 
Q 225 800 225 1525 
Q 225 2250 575 2625 
Q 925 3000 1425 3000 
Q 1700 3000 1900 2887 
Q 2100 2775 2250 2550 
L 2250 4400 
L 2750 4400 
L 2750 125 
z
M 2250 1525 
Q 2250 2000 2037 2275 
Q 1825 2550 1525 2550 
Q 1150 2550 962 2275 
Q 775 2000 775 1525 
Q 775 1050 962 787 
Q 1150 525 1525 525 
Q 1825 525 2037 787 
Q 2250 1050 2250 1525 
z
" transform="scale(0.015625)"/>
      <path id="SimHei-76" d="M 2875 2925 
L 1825 75 
L 1275 75 
L 225 2925 
L 750 2925 
L 1525 750 
L 1575 750 
L 2350 2925 
L 2875 2925 
z
" transform="scale(0.015625)"/>
      <path id="SimHei-6c" d="M 1825 125 
L 1325 125 
L 1325 4400 
L 1825 4400 
L 1825 125 
z
" transform="scale(0.015625)"/>
      <path id="SimHei-6f" d="M 2925 1525 
Q 2925 875 2525 475 
Q 2125 75 1575 75 
Q 1025 75 625 475 
Q 225 875 225 1525 
Q 225 2175 625 2575 
Q 1025 2975 1575 2975 
Q 2125 2975 2525 2575 
Q 2925 2175 2925 1525 
z
M 2375 1525 
Q 2375 2025 2125 2275 
Q 1875 2525 1575 2525 
Q 1275 2525 1025 2275 
Q 775 2025 775 1525 
Q 775 1025 1025 775 
Q 1275 525 1575 525 
Q 1875 525 2125 775 
Q 2375 1025 2375 1525 
z
" transform="scale(0.015625)"/>
      <path id="SimHei-70" d="M 2825 1525 
Q 2825 800 2475 425 
Q 2125 50 1625 50 
Q 1350 50 1150 162 
Q 950 275 800 500 
L 800 -800 
L 300 -800 
L 300 2925 
L 800 2925 
L 800 2550 
Q 950 2775 1150 2875 
Q 1350 2975 1625 2975 
Q 2125 2975 2475 2612 
Q 2825 2250 2825 1525 
z
M 2275 1525 
Q 2275 2000 2087 2262 
Q 1900 2525 1525 2525 
Q 1225 2525 1012 2262 
Q 800 2000 800 1525 
Q 800 1050 1012 775 
Q 1225 500 1525 500 
Q 1900 500 2087 775 
Q 2275 1050 2275 1525 
z
" transform="scale(0.015625)"/>
      <path id="SimHei-6d" d="M 3050 125 
L 2550 125 
L 2550 2150 
Q 2550 2300 2500 2400 
Q 2450 2500 2300 2500 
Q 2125 2500 1975 2312 
Q 1825 2125 1825 1825 
L 1825 125 
L 1325 125 
L 1325 2150 
Q 1325 2300 1275 2400 
Q 1225 2500 1075 2500 
Q 900 2500 750 2312 
Q 600 2125 600 1825 
L 600 125 
L 100 125 
L 100 2925 
L 600 2925 
L 600 2550 
Q 725 2750 900 2862 
Q 1075 2975 1275 2975 
Q 1475 2975 1612 2862 
Q 1750 2750 1800 2550 
Q 1925 2750 2087 2862 
Q 2250 2975 2450 2975 
Q 2750 2975 2900 2812 
Q 3050 2650 3050 2350 
L 3050 125 
z
" transform="scale(0.015625)"/>
      <path id="SimHei-6e" d="M 2800 125 
L 2300 125 
L 2300 1925 
Q 2300 2225 2150 2400 
Q 2000 2575 1750 2575 
Q 1425 2575 1137 2237 
Q 850 1900 850 1400 
L 850 125 
L 350 125 
L 350 2925 
L 850 2925 
L 850 2400 
Q 1050 2675 1287 2825 
Q 1525 2975 1900 2975 
Q 2350 2975 2575 2725 
Q 2800 2475 2800 2100 
L 2800 125 
z
" transform="scale(0.015625)"/>
      <path id="SimHei-74" d="M 2750 200 
Q 2625 150 2462 112 
Q 2300 75 2025 75 
Q 1575 75 1300 325 
Q 1025 575 1025 1025 
L 1025 2525 
L 175 2525 
L 175 2925 
L 1025 2925 
L 1025 3900 
L 1525 3900 
L 1525 2925 
L 2550 2925 
L 2550 2525 
L 1525 2525 
L 1525 1000 
Q 1525 800 1625 662 
Q 1725 525 2000 525 
Q 2275 525 2450 575 
Q 2625 625 2750 700 
L 2750 200 
z
" transform="scale(0.015625)"/>
      <path id="SimHei-66" d="M 2850 3825 
Q 2725 3900 2550 3950 
Q 2375 4000 2100 4000 
Q 1825 4000 1725 3862 
Q 1625 3725 1625 3525 
L 1625 2925 
L 2650 2925 
L 2650 2525 
L 1625 2525 
L 1625 125 
L 1125 125 
L 1125 2525 
L 275 2525 
L 275 2925 
L 1125 2925 
L 1125 3500 
Q 1125 3950 1400 4200 
Q 1675 4450 2125 4450 
Q 2400 4450 2562 4412 
Q 2725 4375 2850 4325 
L 2850 3825 
z
" transform="scale(0.015625)"/>
      <path id="SimHei-43" d="M 2975 1825 
Q 2950 875 2575 475 
Q 2200 75 1675 75 
Q 1075 75 650 562 
Q 225 1050 225 2125 
Q 225 3300 637 3875 
Q 1050 4450 1700 4450 
Q 2250 4450 2612 4037 
Q 2975 3625 2950 2875 
L 2400 2875 
Q 2400 3425 2225 3700 
Q 2050 3975 1700 3975 
Q 1300 3975 1062 3562 
Q 825 3150 825 2175 
Q 825 1275 1062 912 
Q 1300 550 1675 550 
Q 1950 550 2175 812 
Q 2400 1075 2400 1825 
L 2975 1825 
z
" transform="scale(0.015625)"/>
      <path id="SimHei-69" d="M 1800 3725 
L 1300 3725 
L 1300 4375 
L 1800 4375 
L 1800 3725 
z
M 1800 125 
L 1300 125 
L 1300 2925 
L 1800 2925 
L 1800 125 
z
" transform="scale(0.015625)"/>
      <path id="SimHei-73" d="M 2750 900 
Q 2750 500 2437 287 
Q 2125 75 1650 75 
Q 1050 75 725 312 
Q 400 550 400 1000 
L 900 1000 
Q 900 700 1112 600 
Q 1325 500 1625 500 
Q 1925 500 2075 612 
Q 2225 725 2225 900 
Q 2225 1025 2100 1150 
Q 1975 1275 1475 1350 
Q 900 1425 687 1637 
Q 475 1850 475 2200 
Q 475 2500 762 2737 
Q 1050 2975 1600 2975 
Q 2100 2975 2387 2750 
Q 2675 2525 2675 2150 
L 2175 2150 
Q 2175 2375 2012 2462 
Q 1850 2550 1600 2550 
Q 1275 2550 1137 2437 
Q 1000 2325 1000 2175 
Q 1000 2000 1125 1900 
Q 1250 1800 1650 1750 
Q 2300 1650 2525 1437 
Q 2750 1225 2750 900 
z
" transform="scale(0.015625)"/>
      <path id="SimHei-75" d="M 2800 125 
L 2300 125 
L 2300 650 
Q 2100 375 1862 225 
Q 1625 75 1250 75 
Q 800 75 575 325 
Q 350 575 350 950 
L 350 2925 
L 850 2925 
L 850 1125 
Q 850 825 1000 650 
Q 1150 475 1400 475 
Q 1725 475 2012 812 
Q 2300 1150 2300 1650 
L 2300 2925 
L 2800 2925 
L 2800 125 
z
" transform="scale(0.015625)"/>
      <path id="SimHei-63" d="M 2850 1250 
Q 2850 725 2487 400 
Q 2125 75 1575 75 
Q 1025 75 625 462 
Q 225 850 225 1525 
Q 225 2200 625 2587 
Q 1025 2975 1575 2975 
Q 2125 2975 2450 2687 
Q 2775 2400 2775 2000 
L 2225 2000 
Q 2200 2300 2012 2412 
Q 1825 2525 1575 2525 
Q 1275 2525 1025 2287 
Q 775 2050 775 1525 
Q 775 1000 1025 762 
Q 1275 525 1575 525 
Q 1900 525 2100 700 
Q 2300 875 2300 1250 
L 2850 1250 
z
" transform="scale(0.015625)"/>
      <path id="SimHei-61" d="M 2875 125 
L 2275 125 
Q 2225 175 2200 262 
Q 2175 350 2175 475 
Q 2000 275 1750 175 
Q 1500 75 1225 75 
Q 825 75 550 275 
Q 275 475 275 850 
Q 275 1225 525 1450 
Q 775 1675 1300 1750 
Q 1650 1800 1912 1875 
Q 2175 1950 2175 2075 
Q 2175 2225 2062 2375 
Q 1950 2525 1575 2525 
Q 1275 2525 1137 2412 
Q 1000 2300 950 2100 
L 400 2100 
Q 450 2500 762 2737 
Q 1075 2975 1575 2975 
Q 2125 2975 2400 2725 
Q 2675 2475 2675 2025 
L 2675 650 
Q 2675 500 2725 375 
Q 2775 250 2875 125 
z
M 2175 1050 
L 2175 1550 
Q 2025 1500 1887 1462 
Q 1750 1425 1425 1375 
Q 1050 1325 937 1200 
Q 825 1075 825 900 
Q 825 750 937 637 
Q 1050 525 1275 525 
Q 1500 525 1762 650 
Q 2025 775 2175 1050 
z
" transform="scale(0.015625)"/>
     </defs>
     <use xlink:href="#SimHei-54"/>
     <use xlink:href="#SimHei-68" x="50"/>
     <use xlink:href="#SimHei-65" x="100"/>
     <use xlink:href="#SimHei-20" x="150"/>
     <use xlink:href="#SimHei-64" x="200"/>
     <use xlink:href="#SimHei-65" x="250"/>
     <use xlink:href="#SimHei-76" x="300"/>
     <use xlink:href="#SimHei-65" x="350"/>
     <use xlink:href="#SimHei-6c" x="400"/>
     <use xlink:href="#SimHei-6f" x="450"/>
     <use xlink:href="#SimHei-70" x="500"/>
     <use xlink:href="#SimHei-6d" x="550"/>
     <use xlink:href="#SimHei-65" x="600"/>
     <use xlink:href="#SimHei-6e" x="650"/>
     <use xlink:href="#SimHei-74" x="700"/>
     <use xlink:href="#SimHei-20" x="750"/>
     <use xlink:href="#SimHei-6f" x="800"/>
     <use xlink:href="#SimHei-66" x="850"/>
     <use xlink:href="#SimHei-20" x="900"/>
     <use xlink:href="#SimHei-43" x="950"/>
     <use xlink:href="#SimHei-68" x="1000"/>
     <use xlink:href="#SimHei-69" x="1050"/>
     <use xlink:href="#SimHei-6e" x="1100"/>
     <use xlink:href="#SimHei-65" x="1150"/>
     <use xlink:href="#SimHei-73" x="1200"/>
     <use xlink:href="#SimHei-65" x="1250"/>
     <use xlink:href="#SimHei-20" x="1300"/>
     <use xlink:href="#SimHei-65" x="1350"/>
     <use xlink:href="#SimHei-64" x="1400"/>
     <use xlink:href="#SimHei-75" x="1450"/>
     <use xlink:href="#SimHei-63" x="1500"/>
     <use xlink:href="#SimHei-61" x="1550"/>
     <use xlink:href="#SimHei-74" x="1600"/>
     <use xlink:href="#SimHei-69" x="1650"/>
     <use xlink:href="#SimHei-6f" x="1700"/>
     <use xlink:href="#SimHei-6e" x="1750"/>
    </g>
    <!-- (1997-2020) -->
    <g transform="translate(173.64 56.208)scale(0.12 -0.12)">
     <defs>
      <path id="SimHei-28" d="M 2975 -200 
L 2700 -475 
Q 2075 125 1762 775 
Q 1450 1425 1450 2250 
Q 1450 3075 1762 3725 
Q 2075 4375 2700 5000 
L 2975 4725 
Q 2400 4175 2112 3587 
Q 1825 3000 1825 2250 
Q 1825 1500 2112 912 
Q 2400 325 2975 -200 
z
" transform="scale(0.015625)"/>
      <path id="SimHei-2d" d="M 2975 2125 
L 125 2125 
L 125 2525 
L 2975 2525 
L 2975 2125 
z
" transform="scale(0.015625)"/>
      <path id="SimHei-29" d="M 1675 2250 
Q 1675 1425 1362 775 
Q 1050 125 425 -475 
L 150 -200 
Q 725 325 1012 912 
Q 1300 1500 1300 2250 
Q 1300 3000 1012 3587 
Q 725 4175 150 4725 
L 425 5000 
Q 1050 4375 1362 3725 
Q 1675 3075 1675 2250 
z
" transform="scale(0.015625)"/>
     </defs>
     <use xlink:href="#SimHei-28"/>
     <use xlink:href="#SimHei-31" x="50"/>
     <use xlink:href="#SimHei-39" x="100"/>
     <use xlink:href="#SimHei-39" x="150"/>
     <use xlink:href="#SimHei-37" x="200"/>
     <use xlink:href="#SimHei-2d" x="250"/>
     <use xlink:href="#SimHei-32" x="300"/>
     <use xlink:href="#SimHei-30" x="350"/>
     <use xlink:href="#SimHei-32" x="400"/>
     <use xlink:href="#SimHei-30" x="450"/>
     <use xlink:href="#SimHei-29" x="500"/>
    </g>
   </g>
   <g id="legend_1">
    <g id="patch_7">
     <path d="M 172.64 78.208 
L 192.64 78.208 
L 192.64 71.208 
L 172.64 71.208 
z
" style="fill: #0000ff; fill-opacity: 0.6"/>
    </g>
    <g id="text_33">
     <!-- Colleges -->
     <g transform="translate(200.64 78.208)scale(0.1 -0.1)">
      <defs>
       <path id="SimHei-67" d="M 2975 2500 
Q 2800 2550 2637 2562 
Q 2475 2575 2300 2525 
Q 2375 2450 2425 2337 
Q 2475 2225 2475 2000 
Q 2475 1575 2187 1300 
Q 1900 1025 1475 1025 
Q 1375 1025 1212 1062 
Q 1050 1100 950 1150 
Q 875 1100 850 1050 
Q 825 1000 825 925 
Q 825 800 1000 737 
Q 1175 675 1625 675 
Q 2350 675 2612 475 
Q 2875 275 2875 -25 
Q 2875 -425 2487 -612 
Q 2100 -800 1575 -800 
Q 900 -800 575 -625 
Q 250 -450 250 -150 
Q 250 0 375 150 
Q 500 300 700 400 
Q 550 475 462 587 
Q 375 700 375 875 
Q 375 1025 487 1137 
Q 600 1250 750 1325 
Q 625 1450 550 1625 
Q 475 1800 475 2000 
Q 475 2425 762 2700 
Q 1050 2975 1475 2975 
Q 1700 2975 1862 2912 
Q 2025 2850 2150 2725 
Q 2350 2875 2550 2937 
Q 2750 3000 2975 2975 
L 2975 2500 
z
M 1975 2000 
Q 1975 2250 1850 2400 
Q 1725 2550 1475 2550 
Q 1225 2550 1100 2400 
Q 975 2250 975 2000 
Q 975 1750 1100 1600 
Q 1225 1450 1475 1450 
Q 1725 1450 1850 1600 
Q 1975 1750 1975 2000 
z
M 2400 -75 
Q 2400 25 2287 125 
Q 2175 225 1725 225 
Q 1625 225 1450 237 
Q 1275 250 1050 275 
Q 850 200 775 100 
Q 700 0 700 -100 
Q 700 -250 900 -350 
Q 1100 -450 1600 -450 
Q 2025 -450 2212 -337 
Q 2400 -225 2400 -75 
z
" transform="scale(0.015625)"/>
      </defs>
      <use xlink:href="#SimHei-43"/>
      <use xlink:href="#SimHei-6f" x="50"/>
      <use xlink:href="#SimHei-6c" x="100"/>
      <use xlink:href="#SimHei-6c" x="150"/>
      <use xlink:href="#SimHei-65" x="200"/>
      <use xlink:href="#SimHei-67" x="250"/>
      <use xlink:href="#SimHei-65" x="300"/>
      <use xlink:href="#SimHei-73" x="350"/>
     </g>
    </g>
   </g>
  </g>
  <g id="axes_2">
   <g id="PathCollection_1">
    <path d="M 64.603636 396.38536 
C 65.462993 396.38536 66.287268 396.043934 66.894924 395.436277 
C 67.502581 394.828621 67.844007 394.004346 67.844007 393.14499 
C 67.844007 392.285633 67.502581 391.461358 66.894924 390.853702 
C 66.287268 390.246045 65.462993 389.904619 64.603636 389.904619 
C 63.74428 389.904619 62.920005 390.246045 62.312349 390.853702 
C 61.704692 391.461358 61.363266 392.285633 61.363266 393.14499 
C 61.363266 394.004346 61.704692 394.828621 62.312349 395.436277 
C 62.920005 396.043934 63.74428 396.38536 64.603636 396.38536 
z
" clip-path="url(#p1c464bbaf8)" style="fill: #00ffff; fill-opacity: 0.7; stroke: #00ffff; stroke-opacity: 0.7"/>
    <path d="M 76.44 395.404808 
C 77.35869 395.404808 78.239877 395.039808 78.88949 394.390196 
C 79.539102 393.740584 79.904102 392.859397 79.904102 391.940706 
C 79.904102 391.022016 79.539102 390.140829 78.88949 389.491217 
C 78.239877 388.841604 77.35869 388.476605 76.44 388.476605 
C 75.52131 388.476605 74.640123 388.841604 73.99051 389.491217 
C 73.340898 390.140829 72.975898 391.022016 72.975898 391.940706 
C 72.975898 392.859397 73.340898 393.740584 73.99051 394.390196 
C 74.640123 395.039808 75.52131 395.404808 76.44 395.404808 
z
" clip-path="url(#p1c464bbaf8)" style="fill: #00ffff; fill-opacity: 0.7; stroke: #00ffff; stroke-opacity: 0.7"/>
    <path d="M 88.276364 388.389243 
C 89.250782 388.389243 90.185422 388.002102 90.87444 387.313084 
C 91.563458 386.624066 91.950598 385.689426 91.950598 384.715008 
C 91.950598 383.74059 91.563458 382.80595 90.87444 382.116932 
C 90.185422 381.427914 89.250782 381.040773 88.276364 381.040773 
C 87.301945 381.040773 86.367305 381.427914 85.678287 382.116932 
C 84.98927 382.80595 84.602129 383.74059 84.602129 384.715008 
C 84.602129 385.689426 84.98927 386.624066 85.678287 387.313084 
C 86.367305 388.002102 87.301945 388.389243 88.276364 388.389243 
z
" clip-path="url(#p1c464bbaf8)" style="fill: #00ffff; fill-opacity: 0.7; stroke: #00ffff; stroke-opacity: 0.7"/>
    <path d="M 100.112727 366.910896 
C 101.139854 366.910896 102.125051 366.502814 102.85134 365.776525 
C 103.577629 365.050237 103.985711 364.06504 103.985711 363.037913 
C 103.985711 362.010785 103.577629 361.025588 102.85134 360.2993 
C 102.125051 359.573011 101.139854 359.164929 100.112727 359.164929 
C 99.0856 359.164929 98.100403 359.573011 97.374114 360.2993 
C 96.647826 361.025588 96.239744 362.010785 96.239744 363.037913 
C 96.239744 364.06504 96.647826 365.050237 97.374114 365.776525 
C 98.100403 366.502814 99.0856 366.910896 100.112727 366.910896 
z
" clip-path="url(#p1c464bbaf8)" style="fill: #00ffff; fill-opacity: 0.7; stroke: #00ffff; stroke-opacity: 0.7"/>
    <path d="M 111.949091 341.087417 
C 113.026351 341.087417 114.059634 340.659417 114.821372 339.897679 
C 115.58311 339.135942 116.01111 338.102658 116.01111 337.025398 
C 116.01111 335.948138 115.58311 334.914855 114.821372 334.153117 
C 114.059634 333.391379 113.026351 332.963379 111.949091 332.963379 
C 110.871831 332.963379 109.838547 333.391379 109.07681 334.153117 
C 108.315072 334.914855 107.887072 335.948138 107.887072 337.025398 
C 107.887072 338.102658 108.315072 339.135942 109.07681 339.897679 
C 109.838547 340.659417 110.871831 341.087417 111.949091 341.087417 
z
" clip-path="url(#p1c464bbaf8)" style="fill: #00ffff; fill-opacity: 0.7; stroke: #00ffff; stroke-opacity: 0.7"/>
    <path d="M 123.785455 321.517796 
C 124.910616 321.517796 125.989845 321.070765 126.785455 320.275156 
C 127.581064 319.479546 128.028095 318.400317 128.028095 317.275156 
C 128.028095 316.149994 127.581064 315.070765 126.785455 314.275156 
C 125.989845 313.479546 124.910616 313.032515 123.785455 313.032515 
C 122.660293 313.032515 121.581064 313.479546 120.785455 314.275156 
C 119.989845 315.070765 119.542814 316.149994 119.542814 317.275156 
C 119.542814 318.400317 119.989845 319.479546 120.785455 320.275156 
C 121.581064 321.070765 122.660293 321.517796 123.785455 321.517796 
z
" clip-path="url(#p1c464bbaf8)" style="fill: #00ffff; fill-opacity: 0.7; stroke: #00ffff; stroke-opacity: 0.7"/>
    <path d="M 135.621818 288.69368 
C 136.792923 288.69368 137.916221 288.228395 138.744317 287.400298 
C 139.572414 286.572202 140.037699 285.448905 140.037699 284.277799 
C 140.037699 283.106694 139.572414 281.983397 138.744317 281.1553 
C 137.916221 280.327204 136.792923 279.861919 135.621818 279.861919 
C 134.450713 279.861919 133.327416 280.327204 132.499319 281.1553 
C 131.671223 281.983397 131.205938 283.106694 131.205938 284.277799 
C 131.205938 285.448905 131.671223 286.572202 132.499319 287.400298 
C 133.327416 288.228395 134.450713 288.69368 135.621818 288.69368 
z
" clip-path="url(#p1c464bbaf8)" style="fill: #00ffff; fill-opacity: 0.7; stroke: #00ffff; stroke-opacity: 0.7"/>
    <path d="M 147.458182 262.727432 
C 148.673495 262.727432 149.839196 262.244583 150.698552 261.385227 
C 151.557908 260.525871 152.040758 259.36017 152.040758 258.144857 
C 152.040758 256.929543 151.557908 255.763843 150.698552 254.904486 
C 149.839196 254.04513 148.673495 253.562281 147.458182 253.562281 
C 146.242869 253.562281 145.077168 254.04513 144.217811 254.904486 
C 143.358455 255.763843 142.875606 256.929543 142.875606 258.144857 
C 142.875606 259.36017 143.358455 260.525871 144.217811 261.385227 
C 145.077168 262.244583 146.242869 262.727432 147.458182 262.727432 
z
" clip-path="url(#p1c464bbaf8)" style="fill: #00ffff; fill-opacity: 0.7; stroke: #00ffff; stroke-opacity: 0.7"/>
    <path d="M 159.294545 236.996187 
C 160.552514 236.996187 161.759129 236.496391 162.648647 235.606872 
C 163.538166 234.717354 164.037962 233.510739 164.037962 232.25277 
C 164.037962 230.994802 163.538166 229.788187 162.648647 228.898668 
C 161.759129 228.00915 160.552514 227.509354 159.294545 227.509354 
C 158.036577 227.509354 156.829962 228.00915 155.940443 228.898668 
C 155.050925 229.788187 154.551129 230.994802 154.551129 232.25277 
C 154.551129 233.510739 155.050925 234.717354 155.940443 235.606872 
C 156.829962 236.496391 158.036577 236.996187 159.294545 236.996187 
z
" clip-path="url(#p1c464bbaf8)" style="fill: #00ffff; fill-opacity: 0.7; stroke: #00ffff; stroke-opacity: 0.7"/>
    <path d="M 171.130909 212.463947 
C 172.430134 212.463947 173.67632 211.947759 174.595011 211.029069 
C 175.513701 210.110379 176.029889 208.864192 176.029889 207.564967 
C 176.029889 206.265743 175.513701 205.019556 174.595011 204.100866 
C 173.67632 203.182175 172.430134 202.665988 171.130909 202.665988 
C 169.831685 202.665988 168.585498 203.182175 167.666807 204.100866 
C 166.748117 205.019556 166.23193 206.265743 166.23193 207.564967 
C 166.23193 208.864192 166.748117 210.110379 167.666807 211.029069 
C 168.585498 211.947759 169.831685 212.463947 171.130909 212.463947 
z
" clip-path="url(#p1c464bbaf8)" style="fill: #00ffff; fill-opacity: 0.7; stroke: #00ffff; stroke-opacity: 0.7"/>
    <path d="M 182.967273 201.414887 
C 184.306483 201.414887 185.591022 200.882813 186.537987 199.935849 
C 187.484951 198.988885 188.017025 197.704345 188.017025 196.365135 
C 188.017025 195.025925 187.484951 193.741385 186.537987 192.794421 
C 185.591022 191.847456 184.306483 191.315382 182.967273 191.315382 
C 181.628063 191.315382 180.343523 191.847456 179.396559 192.794421 
C 178.449594 193.741385 177.91752 195.025925 177.91752 196.365135 
C 177.91752 197.704345 178.449594 198.988885 179.396559 199.935849 
C 180.343523 200.882813 181.628063 201.414887 182.967273 201.414887 
z
" clip-path="url(#p1c464bbaf8)" style="fill: #00ffff; fill-opacity: 0.7; stroke: #00ffff; stroke-opacity: 0.7"/>
    <path d="M 194.803636 186.869034 
C 196.181672 186.869034 197.503453 186.321534 198.477871 185.347116 
C 199.452289 184.372697 199.999789 183.050917 199.999789 181.672881 
C 199.999789 180.294846 199.452289 178.973065 198.477871 177.998647 
C 197.503453 177.024228 196.181672 176.476729 194.803636 176.476729 
C 193.425601 176.476729 192.10382 177.024228 191.129402 177.998647 
C 190.154983 178.973065 189.607484 180.294846 189.607484 181.672881 
C 189.607484 183.050917 190.154983 184.372697 191.129402 185.347116 
C 192.10382 186.321534 193.425601 186.869034 194.803636 186.869034 
z
" clip-path="url(#p1c464bbaf8)" style="fill: #00ffff; fill-opacity: 0.7; stroke: #00ffff; stroke-opacity: 0.7"/>
    <path d="M 206.64 174.96859 
C 208.055797 174.96859 209.413797 174.406087 210.414917 173.404968 
C 211.416037 172.403848 211.978539 171.045848 211.978539 169.63005 
C 211.978539 168.214253 211.416037 166.856253 210.414917 165.855133 
C 209.413797 164.854013 208.055797 164.291511 206.64 164.291511 
C 205.224203 164.291511 203.866203 164.854013 202.865083 165.855133 
C 201.863963 166.856253 201.301461 168.214253 201.301461 169.63005 
C 201.301461 171.045848 201.863963 172.403848 202.865083 173.404968 
C 203.866203 174.406087 205.224203 174.96859 206.64 174.96859 
z
" clip-path="url(#p1c464bbaf8)" style="fill: #00ffff; fill-opacity: 0.7; stroke: #00ffff; stroke-opacity: 0.7"/>
    <path d="M 218.476364 165.713868 
C 219.928941 165.713868 221.32222 165.136753 222.349347 164.109626 
C 223.376474 163.082499 223.953589 161.68922 223.953589 160.236642 
C 223.953589 158.784065 223.376474 157.390786 222.349347 156.363659 
C 221.32222 155.336532 219.928941 154.759417 218.476364 154.759417 
C 217.023786 154.759417 215.630507 155.336532 214.60338 156.363659 
C 213.576253 157.390786 212.999138 158.784065 212.999138 160.236642 
C 212.999138 161.68922 213.576253 163.082499 214.60338 164.109626 
C 215.630507 165.136753 217.023786 165.713868 218.476364 165.713868 
z
" clip-path="url(#p1c464bbaf8)" style="fill: #00ffff; fill-opacity: 0.7; stroke: #00ffff; stroke-opacity: 0.7"/>
    <path d="M 230.312727 156.094436 
C 231.801176 156.094436 233.228862 155.503069 234.281354 154.450577 
C 235.333846 153.398084 235.925213 151.970398 235.925213 150.48195 
C 235.925213 148.993501 235.333846 147.565815 234.281354 146.513323 
C 233.228862 145.46083 231.801176 144.869463 230.312727 144.869463 
C 228.824279 144.869463 227.396592 145.46083 226.3441 146.513323 
C 225.291608 147.565815 224.700241 148.993501 224.700241 150.48195 
C 224.700241 151.970398 225.291608 153.398084 226.3441 154.450577 
C 227.396592 155.503069 228.824279 156.094436 230.312727 156.094436 
z
" clip-path="url(#p1c464bbaf8)" style="fill: #00ffff; fill-opacity: 0.7; stroke: #00ffff; stroke-opacity: 0.7"/>
    <path d="M 242.149091 144.063253 
C 243.672567 144.063253 245.13385 143.45797 246.21111 142.38071 
C 247.28837 141.30345 247.893654 139.842166 247.893654 138.31869 
C 247.893654 136.795215 247.28837 135.333931 246.21111 134.256671 
C 245.13385 133.179411 243.672567 132.574128 242.149091 132.574128 
C 240.625615 132.574128 239.164332 133.179411 238.087072 134.256671 
C 237.009812 135.333931 236.404528 136.795215 236.404528 138.31869 
C 236.404528 139.842166 237.009812 141.30345 238.087072 142.38071 
C 239.164332 143.45797 240.625615 144.063253 242.149091 144.063253 
z
" clip-path="url(#p1c464bbaf8)" style="fill: #00ffff; fill-opacity: 0.7; stroke: #00ffff; stroke-opacity: 0.7"/>
    <path d="M 253.985455 133.353813 
C 255.54317 133.353813 257.037295 132.734926 258.138766 131.633455 
C 259.240238 130.531984 259.859125 129.037858 259.859125 127.480143 
C 259.859125 125.922427 259.240238 124.428302 258.138766 123.326831 
C 257.037295 122.22536 255.54317 121.606473 253.985455 121.606473 
C 252.427739 121.606473 250.933614 122.22536 249.832143 123.326831 
C 248.730671 124.428302 248.111784 125.922427 248.111784 127.480143 
C 248.111784 129.037858 248.730671 130.531984 249.832143 131.633455 
C 250.933614 132.734926 252.427739 133.353813 253.985455 133.353813 
z
" clip-path="url(#p1c464bbaf8)" style="fill: #00ffff; fill-opacity: 0.7; stroke: #00ffff; stroke-opacity: 0.7"/>
    <path d="M 265.821818 122.882452 
C 267.413037 122.882452 268.939297 122.250254 270.064459 121.125092 
C 271.18962 119.999931 271.821818 118.47367 271.821818 116.882452 
C 271.821818 115.291233 271.18962 113.764972 270.064459 112.639811 
C 268.939297 111.51465 267.413037 110.882452 265.821818 110.882452 
C 264.2306 110.882452 262.704339 111.51465 261.579177 112.639811 
C 260.454016 113.764972 259.821818 115.291233 259.821818 116.882452 
C 259.821818 118.47367 260.454016 119.999931 261.579177 121.125092 
C 262.704339 122.250254 264.2306 122.882452 265.821818 122.882452 
z
" clip-path="url(#p1c464bbaf8)" style="fill: #00ffff; fill-opacity: 0.7; stroke: #00ffff; stroke-opacity: 0.7"/>
    <path d="M 277.658182 114.335338 
C 279.282213 114.335338 280.839946 113.690104 281.988309 112.541741 
C 283.136672 111.393377 283.781906 109.835644 283.781906 108.211614 
C 283.781906 106.587583 283.136672 105.02985 281.988309 103.881487 
C 280.839946 102.733123 279.282213 102.087889 277.658182 102.087889 
C 276.034151 102.087889 274.476418 102.733123 273.328055 103.881487 
C 272.179692 105.02985 271.534457 106.587583 271.534457 108.211614 
C 271.534457 109.835644 272.179692 111.393377 273.328055 112.541741 
C 274.476418 113.690104 276.034151 114.335338 277.658182 114.335338 
z
" clip-path="url(#p1c464bbaf8)" style="fill: #00ffff; fill-opacity: 0.7; stroke: #00ffff; stroke-opacity: 0.7"/>
    <path d="M 289.494545 106.990056 
C 291.150738 106.990056 292.739321 106.332044 293.910426 105.160939 
C 295.081531 103.989834 295.739543 102.401251 295.739543 100.745058 
C 295.739543 99.088866 295.081531 97.500283 293.910426 96.329178 
C 292.739321 95.158073 291.150738 94.50006 289.494545 94.50006 
C 287.838353 94.50006 286.24977 95.158073 285.078665 96.329178 
C 283.90756 97.500283 283.249547 99.088866 283.249547 100.745058 
C 283.249547 102.401251 283.90756 103.989834 285.078665 105.160939 
C 286.24977 106.332044 287.838353 106.990056 289.494545 106.990056 
z
" clip-path="url(#p1c464bbaf8)" style="fill: #00ffff; fill-opacity: 0.7; stroke: #00ffff; stroke-opacity: 0.7"/>
    <path d="M 301.330909 98.679038 
C 303.018651 98.679038 304.637495 98.008491 305.830909 96.815077 
C 307.024323 95.621663 307.69487 94.002819 307.69487 92.315077 
C 307.69487 90.627335 307.024323 89.008491 305.830909 87.815077 
C 304.637495 86.621663 303.018651 85.951116 301.330909 85.951116 
C 299.643167 85.951116 298.024323 86.621663 296.830909 87.815077 
C 295.637495 89.008491 294.966948 90.627335 294.966948 92.315077 
C 294.966948 94.002819 295.637495 95.621663 296.830909 96.815077 
C 298.024323 98.008491 299.643167 98.679038 301.330909 98.679038 
z
" clip-path="url(#p1c464bbaf8)" style="fill: #00ffff; fill-opacity: 0.7; stroke: #00ffff; stroke-opacity: 0.7"/>
    <path d="M 313.167273 82.778853 
C 314.885985 82.778853 316.534535 82.096001 317.749848 80.880688 
C 318.965162 79.665374 319.648013 78.016825 319.648013 76.298112 
C 319.648013 74.579399 318.965162 72.93085 317.749848 71.715536 
C 316.534535 70.500223 314.885985 69.817371 313.167273 69.817371 
C 311.44856 69.817371 309.80001 70.500223 308.584697 71.715536 
C 307.369384 72.93085 306.686532 74.579399 306.686532 76.298112 
C 306.686532 78.016825 307.369384 79.665374 308.584697 80.880688 
C 309.80001 82.096001 311.44856 82.778853 313.167273 82.778853 
z
" clip-path="url(#p1c464bbaf8)" style="fill: #00ffff; fill-opacity: 0.7; stroke: #00ffff; stroke-opacity: 0.7"/>
    <path d="M 325.003636 54.352056 
C 326.752771 54.352056 328.430501 53.657118 329.667326 52.420293 
C 330.904151 51.183468 331.599089 49.505738 331.599089 47.756603 
C 331.599089 46.007469 330.904151 44.329738 329.667326 43.092914 
C 328.430501 41.856089 326.752771 41.16115 325.003636 41.16115 
C 323.254502 41.16115 321.576772 41.856089 320.339947 43.092914 
C 319.103122 44.329738 318.408183 46.007469 318.408183 47.756603 
C 318.408183 49.505738 319.103122 51.183468 320.339947 52.420293 
C 321.576772 53.657118 323.254502 54.352056 325.003636 54.352056 
z
" clip-path="url(#p1c464bbaf8)" style="fill: #00ffff; fill-opacity: 0.7; stroke: #00ffff; stroke-opacity: 0.7"/>
    <path d="M 336.84 34.714565 
C 338.619036 34.714565 340.325448 34.007746 341.583416 32.749777 
C 342.841385 31.491808 343.548204 29.785397 343.548204 28.006361 
C 343.548204 26.227324 342.841385 24.520913 341.583416 23.262944 
C 340.325448 22.004975 338.619036 21.298157 336.84 21.298157 
C 335.060964 21.298157 333.354552 22.004975 332.096584 23.262944 
C 330.838615 24.520913 330.131796 26.227324 330.131796 28.006361 
C 330.131796 29.785397 330.838615 31.491808 332.096584 32.749777 
C 333.354552 34.007746 335.060964 34.714565 336.84 34.714565 
z
" clip-path="url(#p1c464bbaf8)" style="fill: #00ffff; fill-opacity: 0.7; stroke: #00ffff; stroke-opacity: 0.7"/>
   </g>
   <g id="PathCollection_2">
    <path d="M 64.603636 425.848821 
C 65.388118 425.848821 66.140574 425.537144 66.695286 424.982432 
C 67.249999 424.42772 67.561676 423.675263 67.561676 422.890782 
C 67.561676 422.1063 67.249999 421.353844 66.695286 420.799131 
C 66.140574 420.244419 65.388118 419.932742 64.603636 419.932742 
C 63.819155 419.932742 63.066698 420.244419 62.511986 420.799131 
C 61.957274 421.353844 61.645596 422.1063 61.645596 422.890782 
C 61.645596 423.675263 61.957274 424.42772 62.511986 424.982432 
C 63.066698 425.537144 63.819155 425.848821 64.603636 425.848821 
z
" clip-path="url(#p1c464bbaf8)" style="fill: #ffa500; stroke: #ffa500"/>
    <path d="M 76.44 424.848776 
C 77.278646 424.848776 78.083056 424.515579 78.676068 423.922566 
C 79.26908 423.329554 79.602278 422.525144 79.602278 421.686498 
C 79.602278 420.847853 79.26908 420.043443 78.676068 419.45043 
C 78.083056 418.857418 77.278646 418.524221 76.44 418.524221 
C 75.601354 418.524221 74.796944 418.857418 74.203932 419.45043 
C 73.61092 420.043443 73.277722 420.847853 73.277722 421.686498 
C 73.277722 422.525144 73.61092 423.329554 74.203932 423.922566 
C 74.796944 424.515579 75.601354 424.848776 76.44 424.848776 
z
" clip-path="url(#p1c464bbaf8)" style="fill: #ffa500; stroke: #ffa500"/>
    <path d="M 88.276364 423.836317 
C 89.165882 423.836317 90.019088 423.482908 90.648072 422.853924 
C 91.277056 422.224939 91.630466 421.371734 91.630466 420.482215 
C 91.630466 419.592697 91.277056 418.739492 90.648072 418.110507 
C 90.019088 417.481523 89.165882 417.128113 88.276364 417.128113 
C 87.386845 417.128113 86.53364 417.481523 85.904655 418.110507 
C 85.275671 418.739492 84.922262 419.592697 84.922262 420.482215 
C 84.922262 421.371734 85.275671 422.224939 85.904655 422.853924 
C 86.53364 423.482908 87.386845 423.836317 88.276364 423.836317 
z
" clip-path="url(#p1c464bbaf8)" style="fill: #ffa500; stroke: #ffa500"/>
    <path d="M 100.112727 422.813466 
C 101.050362 422.813466 101.94972 422.44094 102.612727 421.777932 
C 103.275735 421.114925 103.648261 420.215567 103.648261 419.277932 
C 103.648261 418.340298 103.275735 417.44094 102.612727 416.777932 
C 101.94972 416.114925 101.050362 415.742398 100.112727 415.742398 
C 99.175093 415.742398 98.275735 416.114925 97.612727 416.777932 
C 96.94972 417.44094 96.577193 418.340298 96.577193 419.277932 
C 96.577193 420.215567 96.94972 421.114925 97.612727 421.777932 
C 98.275735 422.44094 99.175093 422.813466 100.112727 422.813466 
z
" clip-path="url(#p1c464bbaf8)" style="fill: #ffa500; stroke: #ffa500"/>
    <path d="M 111.949091 421.781748 
C 112.93249 421.781748 113.875745 421.39104 114.571113 420.695671 
C 115.266481 420.000303 115.65719 419.057049 115.65719 418.073649 
C 115.65719 417.09025 115.266481 416.146996 114.571113 415.451627 
C 113.875745 414.756259 112.93249 414.36555 111.949091 414.36555 
C 110.965691 414.36555 110.022437 414.756259 109.327069 415.451627 
C 108.6317 416.146996 108.240992 417.09025 108.240992 418.073649 
C 108.240992 419.057049 108.6317 420.000303 109.327069 420.695671 
C 110.022437 421.39104 110.965691 421.781748 111.949091 421.781748 
z
" clip-path="url(#p1c464bbaf8)" style="fill: #ffa500; stroke: #ffa500"/>
    <path d="M 123.785455 420.621921 
C 124.812582 420.621921 125.797779 420.213839 126.524067 419.487551 
C 127.250356 418.761262 127.658438 417.776065 127.658438 416.748938 
C 127.658438 415.721811 127.250356 414.736614 126.524067 414.010325 
C 125.797779 413.284036 124.812582 412.875954 123.785455 412.875954 
C 122.758327 412.875954 121.77313 413.284036 121.046842 414.010325 
C 120.320553 414.736614 119.912471 415.721811 119.912471 416.748938 
C 119.912471 417.776065 120.320553 418.761262 121.046842 419.487551 
C 121.77313 420.213839 122.758327 420.621921 123.785455 420.621921 
z
" clip-path="url(#p1c464bbaf8)" style="fill: #ffa500; stroke: #ffa500"/>
    <path d="M 135.621818 419.575784 
C 136.690886 419.575784 137.716312 419.151038 138.472257 418.395093 
C 139.228202 417.639148 139.652947 416.613723 139.652947 415.544655 
C 139.652947 414.475587 139.228202 413.450161 138.472257 412.694216 
C 137.716312 411.938271 136.690886 411.513526 135.621818 411.513526 
C 134.55275 411.513526 133.527325 411.938271 132.77138 412.694216 
C 132.015434 413.450161 131.590689 414.475587 131.590689 415.544655 
C 131.590689 416.613723 132.015434 417.639148 132.77138 418.395093 
C 133.527325 419.151038 134.55275 419.575784 135.621818 419.575784 
z
" clip-path="url(#p1c464bbaf8)" style="fill: #ffa500; stroke: #ffa500"/>
    <path d="M 147.458182 418.403244 
C 148.567606 418.403244 149.63174 417.962465 150.416222 417.177983 
C 151.200703 416.393502 151.641482 415.329368 151.641482 414.219943 
C 151.641482 413.110519 151.200703 412.046385 150.416222 411.261903 
C 149.63174 410.477422 148.567606 410.036643 147.458182 410.036643 
C 146.348758 410.036643 145.284623 410.477422 144.500142 411.261903 
C 143.715661 412.046385 143.274882 413.110519 143.274882 414.219943 
C 143.274882 415.329368 143.715661 416.393502 144.500142 417.177983 
C 145.284623 417.962465 146.348758 418.403244 147.458182 418.403244 
z
" clip-path="url(#p1c464bbaf8)" style="fill: #ffa500; stroke: #ffa500"/>
    <path d="M 159.294545 417.345787 
C 160.442909 417.345787 161.544392 416.889538 162.356408 416.077522 
C 163.168423 415.265507 163.624672 414.164023 163.624672 413.01566 
C 163.624672 411.867297 163.168423 410.765813 162.356408 409.953798 
C 161.544392 409.141783 160.442909 408.685533 159.294545 408.685533 
C 158.146182 408.685533 157.044699 409.141783 156.232683 409.953798 
C 155.420668 410.765813 154.964418 411.867297 154.964418 413.01566 
C 154.964418 414.164023 155.420668 415.265507 156.232683 416.077522 
C 157.044699 416.889538 158.146182 417.345787 159.294545 417.345787 
z
" clip-path="url(#p1c464bbaf8)" style="fill: #ffa500; stroke: #ffa500"/>
    <path d="M 171.130909 416.283513 
C 172.316933 416.283513 173.454541 415.812301 174.293187 414.973655 
C 175.131833 414.135009 175.603045 412.997402 175.603045 411.811377 
C 175.603045 410.625353 175.131833 409.487745 174.293187 408.6491 
C 173.454541 407.810454 172.316933 407.339241 171.130909 407.339241 
C 169.944885 407.339241 168.807277 407.810454 167.968631 408.6491 
C 167.129986 409.487745 166.658773 410.625353 166.658773 411.811377 
C 166.658773 412.997402 167.129986 414.135009 167.968631 414.973655 
C 168.807277 415.812301 169.944885 416.283513 171.130909 416.283513 
z
" clip-path="url(#p1c464bbaf8)" style="fill: #ffa500; stroke: #ffa500"/>
    <path d="M 182.967273 415.216866 
C 184.189799 415.216866 185.362418 414.731152 186.226874 413.866695 
C 187.09133 413.002239 187.577045 411.82962 187.577045 410.607094 
C 187.577045 409.384568 187.09133 408.211949 186.226874 407.347493 
C 185.362418 406.483037 184.189799 405.997322 182.967273 405.997322 
C 181.744747 405.997322 180.572128 406.483037 179.707672 407.347493 
C 178.843215 408.211949 178.3575 409.384568 178.3575 410.607094 
C 178.3575 411.82962 178.843215 413.002239 179.707672 413.866695 
C 180.572128 414.731152 181.744747 415.216866 182.967273 415.216866 
z
" clip-path="url(#p1c464bbaf8)" style="fill: #ffa500; stroke: #ffa500"/>
    <path d="M 194.803636 414.146228 
C 196.061605 414.146228 197.26822 413.646431 198.157738 412.756913 
C 199.047257 411.867395 199.547053 410.66078 199.547053 409.402811 
C 199.547053 408.144842 199.047257 406.938227 198.157738 406.048709 
C 197.26822 405.159191 196.061605 404.659395 194.803636 404.659395 
C 193.545668 404.659395 192.339053 405.159191 191.449534 406.048709 
C 190.560016 406.938227 190.06022 408.144842 190.06022 409.402811 
C 190.06022 410.66078 190.560016 411.867395 191.449534 412.756913 
C 192.339053 413.646431 193.545668 414.146228 194.803636 414.146228 
z
" clip-path="url(#p1c464bbaf8)" style="fill: #ffa500; stroke: #ffa500"/>
    <path d="M 206.64 413.071925 
C 207.93244 413.071925 209.172119 412.558433 210.086012 411.64454 
C 210.999905 410.730647 211.513397 409.490968 211.513397 408.198528 
C 211.513397 406.906088 210.999905 405.666409 210.086012 404.752516 
C 209.172119 403.838623 207.93244 403.325131 206.64 403.325131 
C 205.34756 403.325131 204.107881 403.838623 203.193988 404.752516 
C 202.280095 405.666409 201.766603 406.906088 201.766603 408.198528 
C 201.766603 409.490968 202.280095 410.730647 203.193988 411.64454 
C 204.107881 412.558433 205.34756 413.071925 206.64 413.071925 
z
" clip-path="url(#p1c464bbaf8)" style="fill: #ffa500; stroke: #ffa500"/>
    <path d="M 218.476364 411.994245 
C 219.802379 411.994245 221.074263 411.467413 222.011898 410.529779 
C 222.949532 409.592144 223.476364 408.32026 223.476364 406.994245 
C 223.476364 405.668229 222.949532 404.396346 222.011898 403.458711 
C 221.074263 402.521076 219.802379 401.994245 218.476364 401.994245 
C 217.150348 401.994245 215.878464 402.521076 214.94083 403.458711 
C 214.003195 404.396346 213.476364 405.668229 213.476364 406.994245 
C 213.476364 408.32026 214.003195 409.592144 214.94083 410.529779 
C 215.878464 411.467413 217.150348 411.994245 218.476364 411.994245 
z
" clip-path="url(#p1c464bbaf8)" style="fill: #ffa500; stroke: #ffa500"/>
    <path d="M 230.312727 410.913437 
C 231.671489 410.913437 232.974782 410.373596 233.935571 409.412806 
C 234.896361 408.452017 235.436203 407.148723 235.436203 405.789962 
C 235.436203 404.4312 234.896361 403.127907 233.935571 402.167118 
C 232.974782 401.206328 231.671489 400.666486 230.312727 400.666486 
C 228.953966 400.666486 227.650673 401.206328 226.689883 402.167118 
C 225.729094 403.127907 225.189252 404.4312 225.189252 405.789962 
C 225.189252 407.148723 225.729094 408.452017 226.689883 409.412806 
C 227.650673 410.373596 228.953966 410.913437 230.312727 410.913437 
z
" clip-path="url(#p1c464bbaf8)" style="fill: #ffa500; stroke: #ffa500"/>
    <path d="M 242.149091 409.588866 
C 243.539828 409.588866 244.873791 409.036321 245.85719 408.052921 
C 246.84059 407.069522 247.393135 405.735559 247.393135 404.344822 
C 247.393135 402.954085 246.84059 401.620122 245.85719 400.636723 
C 244.873791 399.653323 243.539828 399.100778 242.149091 399.100778 
C 240.758354 399.100778 239.424391 399.653323 238.440992 400.636723 
C 237.457592 401.620122 236.905047 402.954085 236.905047 404.344822 
C 236.905047 405.735559 237.457592 407.069522 238.440992 408.052921 
C 239.424391 409.036321 240.758354 409.588866 242.149091 409.588866 
z
" clip-path="url(#p1c464bbaf8)" style="fill: #ffa500; stroke: #ffa500"/>
    <path d="M 253.985455 408.62287 
C 255.407448 408.62287 256.771391 408.057906 257.776892 407.052405 
C 258.782393 406.046904 259.347357 404.682961 259.347357 403.260967 
C 259.347357 401.838974 258.782393 400.475031 257.776892 399.46953 
C 256.771391 398.464029 255.407448 397.899065 253.985455 397.899065 
C 252.563461 397.899065 251.199518 398.464029 250.194017 399.46953 
C 249.188516 400.475031 248.623552 401.838974 248.623552 403.260967 
C 248.623552 404.682961 249.188516 406.046904 250.194017 407.052405 
C 251.199518 408.057906 252.563461 408.62287 253.985455 408.62287 
z
" clip-path="url(#p1c464bbaf8)" style="fill: #ffa500; stroke: #ffa500"/>
    <path d="M 265.821818 407.654338 
C 267.274395 407.654338 268.667674 407.077223 269.694802 406.050096 
C 270.721929 405.022969 271.299044 403.62969 271.299044 402.177113 
C 271.299044 400.724535 270.721929 399.331256 269.694802 398.304129 
C 268.667674 397.277002 267.274395 396.699887 265.821818 396.699887 
C 264.369241 396.699887 262.975962 397.277002 261.948835 398.304129 
C 260.921708 399.331256 260.344593 400.724535 260.344593 402.177113 
C 260.344593 403.62969 260.921708 405.022969 261.948835 406.050096 
C 262.975962 407.077223 264.369241 407.654338 265.821818 407.654338 
z
" clip-path="url(#p1c464bbaf8)" style="fill: #ffa500; stroke: #ffa500"/>
    <path d="M 277.658182 406.683428 
C 279.140712 406.683428 280.562722 406.094412 281.611029 405.046105 
C 282.659336 403.997798 283.248352 402.575788 283.248352 401.093258 
C 283.248352 399.610727 282.659336 398.188718 281.611029 397.140411 
C 280.562722 396.092103 279.140712 395.503088 277.658182 395.503088 
C 276.175651 395.503088 274.753642 396.092103 273.705335 397.140411 
C 272.657027 398.188718 272.068012 399.610727 272.068012 401.093258 
C 272.068012 402.575788 272.657027 403.997798 273.705335 405.046105 
C 274.753642 406.094412 276.175651 406.683428 277.658182 406.683428 
z
" clip-path="url(#p1c464bbaf8)" style="fill: #ffa500; stroke: #ffa500"/>
    <path d="M 289.494545 405.589852 
C 291.006436 405.589852 292.456606 404.989172 293.525674 403.920104 
C 294.594742 402.851036 295.195423 401.400865 295.195423 399.888975 
C 295.195423 398.377084 294.594742 396.926914 293.525674 395.857846 
C 292.456606 394.788778 291.006436 394.188098 289.494545 394.188098 
C 287.982655 394.188098 286.532484 394.788778 285.463417 395.857846 
C 284.394349 396.926914 283.793668 398.377084 283.793668 399.888975 
C 283.793668 401.400865 284.394349 402.851036 285.463417 403.920104 
C 286.532484 404.989172 287.982655 405.589852 289.494545 405.589852 
z
" clip-path="url(#p1c464bbaf8)" style="fill: #ffa500; stroke: #ffa500"/>
    <path d="M 301.330909 404.494167 
C 302.8716 404.494167 304.349395 403.882044 305.438828 402.792611 
C 306.528261 401.703178 307.140384 400.225382 307.140384 398.684692 
C 307.140384 397.144001 306.528261 395.666205 305.438828 394.576773 
C 304.349395 393.48734 302.8716 392.875217 301.330909 392.875217 
C 299.790218 392.875217 298.312423 393.48734 297.22299 394.576773 
C 296.133557 395.666205 295.521434 397.144001 295.521434 398.684692 
C 295.521434 400.225382 296.133557 401.703178 297.22299 402.792611 
C 298.312423 403.882044 299.790218 404.494167 301.330909 404.494167 
z
" clip-path="url(#p1c464bbaf8)" style="fill: #ffa500; stroke: #ffa500"/>
    <path d="M 313.167273 403.396488 
C 314.736235 403.396488 316.241149 402.773133 317.350573 401.663709 
C 318.459997 400.554285 319.083353 399.049371 319.083353 397.480409 
C 319.083353 395.911446 318.459997 394.406533 317.350573 393.297108 
C 316.241149 392.187684 314.736235 391.564329 313.167273 391.564329 
C 311.59831 391.564329 310.093397 392.187684 308.983973 393.297108 
C 307.874548 394.406533 307.251193 395.911446 307.251193 397.480409 
C 307.251193 399.049371 307.874548 400.554285 308.983973 401.663709 
C 310.093397 402.773133 311.59831 403.396488 313.167273 403.396488 
z
" clip-path="url(#p1c464bbaf8)" style="fill: #ffa500; stroke: #ffa500"/>
    <path d="M 325.003636 402.296923 
C 326.60037 402.296923 328.131921 401.662534 329.260983 400.533472 
C 330.390044 399.404411 331.024434 397.87286 331.024434 396.276126 
C 331.024434 394.679391 330.390044 393.14784 329.260983 392.018779 
C 328.131921 390.889717 326.60037 390.255328 325.003636 390.255328 
C 323.406902 390.255328 321.875351 390.889717 320.74629 392.018779 
C 319.617228 393.14784 318.982839 394.679391 318.982839 396.276126 
C 318.982839 397.87286 319.617228 399.404411 320.74629 400.533472 
C 321.875351 401.662534 323.406902 402.296923 325.003636 402.296923 
z
" clip-path="url(#p1c464bbaf8)" style="fill: #ffa500; stroke: #ffa500"/>
    <path d="M 336.84 401.195567 
C 338.464031 401.195567 340.021764 400.550333 341.170127 399.401969 
C 342.31849 398.253606 342.963724 396.695873 342.963724 395.071842 
C 342.963724 393.447812 342.31849 391.890079 341.170127 390.741715 
C 340.021764 389.593352 338.464031 388.948118 336.84 388.948118 
C 335.215969 388.948118 333.658236 389.593352 332.509873 390.741715 
C 331.36151 391.890079 330.716276 393.447812 330.716276 395.071842 
C 330.716276 396.695873 331.36151 398.253606 332.509873 399.401969 
C 333.658236 400.550333 335.215969 401.195567 336.84 401.195567 
z
" clip-path="url(#p1c464bbaf8)" style="fill: #ffa500; stroke: #ffa500"/>
   </g>
   <g id="matplotlib.axis_3">
    <g id="ytick_9">
     <g id="line2d_33">
      <defs>
       <path id="m71eba84150" d="M 0 0 
L 3.5 0 
" style="stroke: #000000; stroke-width: 0.8"/>
      </defs>
      <g>
       <use xlink:href="#m71eba84150" x="362.88" y="423.492923" style="stroke: #000000; stroke-width: 0.8"/>
      </g>
     </g>
     <g id="text_34">
      <!-- 0 -->
      <g transform="translate(369.88 426.930423)scale(0.1 -0.1)">
       <use xlink:href="#SimHei-30"/>
      </g>
     </g>
    </g>
    <g id="ytick_10">
     <g id="line2d_34">
      <g>
       <use xlink:href="#m71eba84150" x="362.88" y="363.278769" style="stroke: #000000; stroke-width: 0.8"/>
      </g>
     </g>
     <g id="text_35">
      <!-- 500 -->
      <g transform="translate(369.88 366.716269)scale(0.1 -0.1)">
       <use xlink:href="#SimHei-35"/>
       <use xlink:href="#SimHei-30" x="50"/>
       <use xlink:href="#SimHei-30" x="100"/>
      </g>
     </g>
    </g>
    <g id="ytick_11">
     <g id="line2d_35">
      <g>
       <use xlink:href="#m71eba84150" x="362.88" y="303.064615" style="stroke: #000000; stroke-width: 0.8"/>
      </g>
     </g>
     <g id="text_36">
      <!-- 1000 -->
      <g transform="translate(369.88 306.502115)scale(0.1 -0.1)">
       <use xlink:href="#SimHei-31"/>
       <use xlink:href="#SimHei-30" x="50"/>
       <use xlink:href="#SimHei-30" x="100"/>
       <use xlink:href="#SimHei-30" x="150"/>
      </g>
     </g>
    </g>
    <g id="ytick_12">
     <g id="line2d_36">
      <g>
       <use xlink:href="#m71eba84150" x="362.88" y="242.850462" style="stroke: #000000; stroke-width: 0.8"/>
      </g>
     </g>
     <g id="text_37">
      <!-- 1500 -->
      <g transform="translate(369.88 246.287962)scale(0.1 -0.1)">
       <use xlink:href="#SimHei-31"/>
       <use xlink:href="#SimHei-35" x="50"/>
       <use xlink:href="#SimHei-30" x="100"/>
       <use xlink:href="#SimHei-30" x="150"/>
      </g>
     </g>
    </g>
    <g id="ytick_13">
     <g id="line2d_37">
      <g>
       <use xlink:href="#m71eba84150" x="362.88" y="182.636308" style="stroke: #000000; stroke-width: 0.8"/>
      </g>
     </g>
     <g id="text_38">
      <!-- 2000 -->
      <g transform="translate(369.88 186.073808)scale(0.1 -0.1)">
       <use xlink:href="#SimHei-32"/>
       <use xlink:href="#SimHei-30" x="50"/>
       <use xlink:href="#SimHei-30" x="100"/>
       <use xlink:href="#SimHei-30" x="150"/>
      </g>
     </g>
    </g>
    <g id="ytick_14">
     <g id="line2d_38">
      <g>
       <use xlink:href="#m71eba84150" x="362.88" y="122.422154" style="stroke: #000000; stroke-width: 0.8"/>
      </g>
     </g>
     <g id="text_39">
      <!-- 2500 -->
      <g transform="translate(369.88 125.859654)scale(0.1 -0.1)">
       <use xlink:href="#SimHei-32"/>
       <use xlink:href="#SimHei-35" x="50"/>
       <use xlink:href="#SimHei-30" x="100"/>
       <use xlink:href="#SimHei-30" x="150"/>
      </g>
     </g>
    </g>
    <g id="ytick_15">
     <g id="line2d_39">
      <g>
       <use xlink:href="#m71eba84150" x="362.88" y="62.208" style="stroke: #000000; stroke-width: 0.8"/>
      </g>
     </g>
     <g id="text_40">
      <!-- 3000 -->
      <g transform="translate(369.88 65.6455)scale(0.1 -0.1)">
       <use xlink:href="#SimHei-33"/>
       <use xlink:href="#SimHei-30" x="50"/>
       <use xlink:href="#SimHei-30" x="100"/>
       <use xlink:href="#SimHei-30" x="150"/>
      </g>
     </g>
    </g>
   </g>
   <g id="patch_8">
    <path d="M 50.4 453.6 
L 50.4 62.208 
" style="fill: none"/>
   </g>
   <g id="patch_9">
    <path d="M 362.88 453.6 
L 362.88 62.208 
" style="fill: none"/>
   </g>
   <g id="patch_10">
    <path d="M 50.4 453.6 
L 362.88 453.6 
" style="fill: none"/>
   </g>
   <g id="patch_11">
    <path d="M 50.4 62.208 
L 362.88 62.208 
" style="fill: none"/>
   </g>
   <g id="legend_2">
    <g id="PathCollection_3">
     <defs>
      <path id="m11d9e1d784" d="M 0 5.267827 
C 1.397044 5.267827 2.737057 4.712775 3.724916 3.724916 
C 4.712775 2.737057 5.267827 1.397044 5.267827 0 
C 5.267827 -1.397044 4.712775 -2.737057 3.724916 -3.724916 
C 2.737057 -4.712775 1.397044 -5.267827 0 -5.267827 
C -1.397044 -5.267827 -2.737057 -4.712775 -3.724916 -3.724916 
C -4.712775 -2.737057 -5.267827 -1.397044 -5.267827 0 
C -5.267827 1.397044 -4.712775 2.737057 -3.724916 3.724916 
C -2.737057 4.712775 -1.397044 5.267827 0 5.267827 
z
" style="stroke: #00ffff; stroke-opacity: 0.7"/>
     </defs>
     <g>
      <use xlink:href="#m11d9e1d784" x="69.4" y="75.887687" style="fill: #00ffff; fill-opacity: 0.7; stroke: #00ffff; stroke-opacity: 0.7"/>
     </g>
    </g>
    <g id="text_41">
     <!-- Students (10K) -->
     <g transform="translate(87.4 78.512687)scale(0.1 -0.1)">
      <defs>
       <path id="SimHei-53" d="M 2900 1325 
Q 2900 750 2537 412 
Q 2175 75 1550 75 
Q 925 75 575 425 
Q 225 775 225 1300 
L 225 1475 
L 800 1475 
L 800 1325 
Q 800 950 1025 750 
Q 1250 550 1550 550 
Q 1950 550 2137 762 
Q 2325 975 2325 1275 
Q 2325 1525 2100 1737 
Q 1875 1950 1450 2125 
Q 850 2350 587 2625 
Q 325 2900 325 3275 
Q 325 3800 687 4125 
Q 1050 4450 1550 4450 
Q 2200 4450 2487 4062 
Q 2775 3675 2775 3225 
L 2200 3225 
Q 2225 3500 2050 3725 
Q 1875 3950 1550 3950 
Q 1250 3950 1075 3787 
Q 900 3625 900 3350 
Q 900 3125 1037 2962 
Q 1175 2800 1750 2575 
Q 2300 2350 2600 2037 
Q 2900 1725 2900 1325 
z
" transform="scale(0.015625)"/>
      </defs>
      <use xlink:href="#SimHei-53"/>
      <use xlink:href="#SimHei-74" x="50"/>
      <use xlink:href="#SimHei-75" x="100"/>
      <use xlink:href="#SimHei-64" x="150"/>
      <use xlink:href="#SimHei-65" x="200"/>
      <use xlink:href="#SimHei-6e" x="250"/>
      <use xlink:href="#SimHei-74" x="300"/>
      <use xlink:href="#SimHei-73" x="350"/>
      <use xlink:href="#SimHei-20" x="400"/>
      <use xlink:href="#SimHei-28" x="450"/>
      <use xlink:href="#SimHei-31" x="500"/>
      <use xlink:href="#SimHei-30" x="550"/>
      <use xlink:href="#SimHei-4b" x="600"/>
      <use xlink:href="#SimHei-29" x="650"/>
     </g>
    </g>
    <g id="PathCollection_4">
     <defs>
      <path id="mbed0a2f805" d="M 0 4.808846 
C 1.275321 4.808846 2.49858 4.302156 3.400368 3.400368 
C 4.302156 2.49858 4.808846 1.275321 4.808846 0 
C 4.808846 -1.275321 4.302156 -2.49858 3.400368 -3.400368 
C 2.49858 -4.302156 1.275321 -4.808846 0 -4.808846 
C -1.275321 -4.808846 -2.49858 -4.302156 -3.400368 -3.400368 
C -4.302156 -2.49858 -4.808846 -1.275321 -4.808846 0 
C -4.808846 1.275321 -4.302156 2.49858 -3.400368 3.400368 
C -2.49858 4.302156 -1.275321 4.808846 0 4.808846 
z
" style="stroke: #ffa500"/>
     </defs>
     <g>
      <use xlink:href="#mbed0a2f805" x="69.4" y="89.442375" style="fill: #ffa500; stroke: #ffa500"/>
     </g>
    </g>
    <g id="text_42">
     <!-- Teachers (10K) -->
     <g transform="translate(87.4 92.067375)scale(0.1 -0.1)">
      <defs>
       <path id="SimHei-72" d="M 2500 2425 
Q 2025 2500 1700 2287 
Q 1375 2075 1150 1550 
L 1150 125 
L 650 125 
L 650 2925 
L 1150 2925 
L 1150 2200 
Q 1375 2600 1712 2787 
Q 2050 2975 2500 2975 
L 2500 2425 
z
" transform="scale(0.015625)"/>
      </defs>
      <use xlink:href="#SimHei-54"/>
      <use xlink:href="#SimHei-65" x="50"/>
      <use xlink:href="#SimHei-61" x="100"/>
      <use xlink:href="#SimHei-63" x="150"/>
      <use xlink:href="#SimHei-68" x="200"/>
      <use xlink:href="#SimHei-65" x="250"/>
      <use xlink:href="#SimHei-72" x="300"/>
      <use xlink:href="#SimHei-73" x="350"/>
      <use xlink:href="#SimHei-20" x="400"/>
      <use xlink:href="#SimHei-28" x="450"/>
      <use xlink:href="#SimHei-31" x="500"/>
      <use xlink:href="#SimHei-30" x="550"/>
      <use xlink:href="#SimHei-4b" x="600"/>
      <use xlink:href="#SimHei-29" x="650"/>
     </g>
    </g>
   </g>
  </g>
 </g>
 <defs>
  <clipPath id="p1c464bbaf8">
   <rect x="50.4" y="62.208" width="312.48" height="391.392"/>
  </clipPath>
 </defs>
</svg>
