<?xml version="1.0" encoding="utf-8" standalone="no"?>
<!DOCTYPE svg PUBLIC "-//W3C//DTD SVG 1.1//EN"
  "http://www.w3.org/Graphics/SVG/1.1/DTD/svg11.dtd">
<!-- Created with matplotlib (https://matplotlib.org/) -->
<svg height="691.2pt" version="1.1" viewBox="0 0 691.2 691.2" width="691.2pt" xmlns="http://www.w3.org/2000/svg" xmlns:xlink="http://www.w3.org/1999/xlink">
 <metadata>
  <rdf:RDF xmlns:cc="http://creativecommons.org/ns#" xmlns:dc="http://purl.org/dc/elements/1.1/" xmlns:rdf="http://www.w3.org/1999/02/22-rdf-syntax-ns#">
   <cc:Work>
    <dc:type rdf:resource="http://purl.org/dc/dcmitype/StillImage"/>
    <dc:date>2022-10-26T13:32:58.732012</dc:date>
    <dc:format>image/svg+xml</dc:format>
    <dc:creator>
     <cc:Agent>
      <dc:title>Matplotlib v3.3.4, https://matplotlib.org/</dc:title>
     </cc:Agent>
    </dc:creator>
   </cc:Work>
  </rdf:RDF>
 </metadata>
 <defs>
  <style type="text/css">*{stroke-linecap:butt;stroke-linejoin:round;}</style>
 </defs>
 <g id="figure_1">
  <g id="patch_1">
   <path d="M 0 691.2 
L 691.2 691.2 
L 691.2 0 
L 0 0 
z
" style="fill:none;"/>
  </g>
  <g id="axes_1">
   <g id="patch_2">
    <path d="M 86.4 328.005818 
L 622.08 328.005818 
L 622.08 82.944 
L 86.4 82.944 
z
" style="fill:#ffffff;"/>
   </g>
   <g id="matplotlib.axis_1">
    <g id="xtick_1">
     <g id="line2d_1">
      <defs>
       <path d="M 0 0 
L 0 3.5 
" id="mab67710806" style="stroke:#000000;stroke-width:0.8;"/>
      </defs>
      <g>
       <use style="stroke:#000000;stroke-width:0.8;" x="107.003077" xlink:href="#mab67710806" y="328.005818"/>
      </g>
     </g>
     <g id="text_1">
      <!-- 1997 -->
      <g transform="translate(97.053685 342.228819)rotate(-1)scale(0.1 -0.1)">
       <defs>
        <path d="M 21.875 56.25 
Q 16.796875 51.171875 8.984375 46.484375 
L 8.984375 53.90625 
Q 18.75 60.546875 25 69.53125 
L 29.6875 69.53125 
L 29.6875 2.34375 
L 21.875 2.34375 
z
" id="SimHei-49"/>
        <path d="M 12.5 1.171875 
Q 21.09375 15.625 26.5625 27.34375 
Q 16.796875 25.78125 10.34375 29.875 
Q 3.90625 33.984375 2.53125 41.015625 
Q 1.171875 48.046875 2.734375 53.703125 
Q 4.296875 59.375 7.609375 63.078125 
Q 10.9375 66.796875 15.625 68.359375 
Q 20.3125 69.921875 24.015625 69.921875 
Q 27.734375 69.921875 31.640625 68.359375 
Q 35.546875 66.796875 38.671875 63.671875 
Q 41.796875 60.546875 42.96875 57.21875 
Q 44.140625 53.90625 44.140625 48.625 
Q 44.140625 43.359375 40.234375 35.15625 
Q 36.328125 26.953125 21.09375 1.171875 
z
M 9.765625 50 
Q 10.9375 39.84375 14.640625 36.515625 
Q 18.359375 33.203125 22.65625 33.59375 
Q 26.953125 33.984375 29.484375 35.9375 
Q 32.03125 37.890625 34.375 42.578125 
Q 35.9375 48.4375 35.15625 52.53125 
Q 34.375 56.640625 31.046875 59.375 
Q 27.734375 62.109375 23.828125 62.109375 
Q 21.484375 62.5 17.765625 60.9375 
Q 14.0625 59.375 11.90625 54.6875 
Q 9.765625 50 10.9375 39.84375 
z
" id="SimHei-57"/>
        <path d="M 13.28125 2.34375 
Q 20.3125 32.03125 37.890625 61.328125 
L 4.296875 61.328125 
L 4.296875 68.359375 
L 46.09375 68.359375 
L 46.09375 61.71875 
Q 27.734375 32.03125 21.875 2.34375 
L 13.28125 2.34375 
z
" id="SimHei-55"/>
       </defs>
       <use xlink:href="#SimHei-49"/>
       <use x="50" xlink:href="#SimHei-57"/>
       <use x="100" xlink:href="#SimHei-57"/>
       <use x="150" xlink:href="#SimHei-55"/>
      </g>
     </g>
    </g>
    <g id="xtick_2">
     <g id="line2d_2">
      <g>
       <use style="stroke:#000000;stroke-width:0.8;" x="127.606154" xlink:href="#mab67710806" y="328.005818"/>
      </g>
     </g>
     <g id="text_2">
      <!-- 1998 -->
      <g transform="translate(117.656762 342.228819)rotate(-1)scale(0.1 -0.1)">
       <defs>
        <path d="M 2.734375 16.796875 
Q 2.734375 26.171875 5.078125 30.65625 
Q 7.421875 35.15625 12.890625 37.890625 
Q 8.203125 40.625 6.640625 43.9375 
Q 5.078125 47.265625 4.875 51.5625 
Q 4.6875 55.859375 6.046875 58.984375 
Q 7.421875 62.109375 10.15625 64.84375 
Q 12.890625 67.578125 16.203125 68.546875 
Q 19.53125 69.53125 23.4375 69.53125 
Q 27.34375 69.53125 30.46875 68.75 
Q 33.59375 67.96875 37.109375 65.421875 
Q 40.625 62.890625 42.1875 58.203125 
Q 43.75 53.515625 41.984375 47.265625 
Q 40.234375 41.015625 32.8125 37.5 
Q 39.453125 35.546875 42.1875 31.4375 
Q 44.921875 27.34375 44.921875 21.484375 
Q 44.921875 15.625 43.15625 12.109375 
Q 41.40625 8.59375 39.25 6.25 
Q 37.109375 3.90625 33.390625 2.53125 
Q 29.6875 1.171875 24.015625 1.171875 
Q 18.359375 1.171875 14.25 2.53125 
Q 10.15625 3.90625 7.421875 6.640625 
Q 4.6875 9.375 3.703125 13.078125 
Q 2.734375 16.796875 2.734375 26.171875 
z
M 10.9375 26.5625 
Q 10.546875 17.1875 12.296875 13.671875 
Q 14.0625 10.15625 18.75 9.171875 
Q 23.4375 8.203125 28.515625 9.375 
Q 33.59375 10.546875 35.546875 14.84375 
Q 37.5 19.140625 36.90625 23.4375 
Q 36.328125 27.734375 32.03125 30.65625 
Q 27.734375 33.59375 22.65625 33.203125 
Q 17.578125 32.8125 14.25 29.6875 
Q 10.9375 26.5625 10.546875 17.1875 
z
M 12.109375 56.25 
Q 12.109375 48.4375 14.84375 44.921875 
Q 17.578125 41.40625 23.4375 41.40625 
Q 29.296875 41.40625 32.21875 44.921875 
Q 35.15625 48.4375 34.953125 53.3125 
Q 34.765625 58.203125 31.4375 60.546875 
Q 28.125 62.890625 22.453125 62.5 
Q 16.796875 62.109375 14.453125 59.171875 
Q 12.109375 56.25 12.109375 48.4375 
z
" id="SimHei-56"/>
       </defs>
       <use xlink:href="#SimHei-49"/>
       <use x="50" xlink:href="#SimHei-57"/>
       <use x="100" xlink:href="#SimHei-57"/>
       <use x="150" xlink:href="#SimHei-56"/>
      </g>
     </g>
    </g>
    <g id="xtick_3">
     <g id="line2d_3">
      <g>
       <use style="stroke:#000000;stroke-width:0.8;" x="148.209231" xlink:href="#mab67710806" y="328.005818"/>
      </g>
     </g>
     <g id="text_3">
      <!-- 1999 -->
      <g transform="translate(138.259839 342.228819)rotate(-1)scale(0.1 -0.1)">
       <use xlink:href="#SimHei-49"/>
       <use x="50" xlink:href="#SimHei-57"/>
       <use x="100" xlink:href="#SimHei-57"/>
       <use x="150" xlink:href="#SimHei-57"/>
      </g>
     </g>
    </g>
    <g id="xtick_4">
     <g id="line2d_4">
      <g>
       <use style="stroke:#000000;stroke-width:0.8;" x="168.812308" xlink:href="#mab67710806" y="328.005818"/>
      </g>
     </g>
     <g id="text_4">
      <!-- 2000 -->
      <g transform="translate(158.862916 342.228819)rotate(-1)scale(0.1 -0.1)">
       <defs>
        <path d="M 4.6875 3.90625 
Q 5.078125 9.765625 10.15625 14.453125 
Q 15.234375 19.140625 23.046875 29.09375 
Q 30.859375 39.0625 33.203125 44.53125 
Q 35.546875 50 34.953125 53.90625 
Q 34.375 57.8125 31.25 60.34375 
Q 28.125 62.890625 24.015625 62.5 
Q 19.921875 62.109375 16.203125 59.375 
Q 12.5 56.640625 10.546875 51.171875 
L 3.125 52.34375 
Q 6.25 61.328125 11.125 65.421875 
Q 16.015625 69.53125 22.65625 69.921875 
Q 26.5625 70.3125 29.6875 69.71875 
Q 32.8125 69.140625 36.125 66.984375 
Q 39.453125 64.84375 41.59375 60.546875 
Q 43.75 56.25 43.15625 50.1875 
Q 42.578125 44.140625 37.109375 35.734375 
Q 31.640625 27.34375 16.015625 9.375 
L 44.140625 9.375 
L 44.140625 2.34375 
L 4.6875 2.34375 
z
" id="SimHei-50"/>
        <path d="M 3.125 29.296875 
Q 3.90625 50 6.4375 56.046875 
Q 8.984375 62.109375 13.671875 66.015625 
Q 18.359375 69.921875 25.1875 69.921875 
Q 32.03125 69.921875 37.109375 64.25 
Q 42.1875 58.59375 43.75 50 
Q 45.3125 41.40625 44.71875 30.265625 
Q 44.140625 19.140625 40.8125 12.109375 
Q 37.5 5.078125 30.859375 2.34375 
Q 24.21875 -0.390625 17.578125 2.921875 
Q 10.9375 6.25 8.203125 11.71875 
Q 5.46875 17.1875 4.296875 23.234375 
Q 3.125 29.296875 3.90625 50 
z
M 12.890625 52.734375 
Q 10.546875 31.25 12.5 22.84375 
Q 14.453125 14.453125 18.9375 10.9375 
Q 23.4375 7.421875 28.125 9.5625 
Q 32.8125 11.71875 34.953125 18.15625 
Q 37.109375 24.609375 37.109375 32.21875 
Q 37.109375 39.84375 36.515625 46.09375 
Q 35.9375 52.34375 33 57.421875 
Q 30.078125 62.5 25.1875 62.6875 
Q 20.3125 62.890625 16.59375 57.8125 
Q 12.890625 52.734375 10.546875 31.25 
z
" id="SimHei-48"/>
       </defs>
       <use xlink:href="#SimHei-50"/>
       <use x="50" xlink:href="#SimHei-48"/>
       <use x="100" xlink:href="#SimHei-48"/>
       <use x="150" xlink:href="#SimHei-48"/>
      </g>
     </g>
    </g>
    <g id="xtick_5">
     <g id="line2d_5">
      <g>
       <use style="stroke:#000000;stroke-width:0.8;" x="189.415385" xlink:href="#mab67710806" y="328.005818"/>
      </g>
     </g>
     <g id="text_5">
      <!-- 2001 -->
      <g transform="translate(179.465993 342.228819)rotate(-1)scale(0.1 -0.1)">
       <use xlink:href="#SimHei-50"/>
       <use x="50" xlink:href="#SimHei-48"/>
       <use x="100" xlink:href="#SimHei-48"/>
       <use x="150" xlink:href="#SimHei-49"/>
      </g>
     </g>
    </g>
    <g id="xtick_6">
     <g id="line2d_6">
      <g>
       <use style="stroke:#000000;stroke-width:0.8;" x="210.018462" xlink:href="#mab67710806" y="328.005818"/>
      </g>
     </g>
     <g id="text_6">
      <!-- 2002 -->
      <g transform="translate(200.069069 342.228819)rotate(-1)scale(0.1 -0.1)">
       <use xlink:href="#SimHei-50"/>
       <use x="50" xlink:href="#SimHei-48"/>
       <use x="100" xlink:href="#SimHei-48"/>
       <use x="150" xlink:href="#SimHei-50"/>
      </g>
     </g>
    </g>
    <g id="xtick_7">
     <g id="line2d_7">
      <g>
       <use style="stroke:#000000;stroke-width:0.8;" x="230.621538" xlink:href="#mab67710806" y="328.005818"/>
      </g>
     </g>
     <g id="text_7">
      <!-- 2003 -->
      <g transform="translate(220.672146 342.228819)rotate(-1)scale(0.1 -0.1)">
       <defs>
        <path d="M 3.90625 19.140625 
L 10.9375 20.3125 
Q 12.5 15.234375 16.015625 11.90625 
Q 19.53125 8.59375 24.796875 8.78125 
Q 30.078125 8.984375 33.203125 13.078125 
Q 36.328125 17.1875 35.9375 22.453125 
Q 35.546875 27.734375 31.828125 30.65625 
Q 28.125 33.59375 19.921875 34.765625 
L 19.921875 39.84375 
Q 28.125 40.625 31.828125 44.140625 
Q 35.546875 47.65625 35.15625 53.3125 
Q 34.765625 58.984375 30.078125 61.515625 
Q 25.390625 64.0625 20.109375 62.109375 
Q 14.84375 60.15625 11.71875 51.171875 
L 4.6875 52.34375 
Q 7.03125 59.375 11.125 64.0625 
Q 15.234375 68.75 22.265625 69.53125 
Q 29.296875 70.3125 34.5625 67.765625 
Q 39.84375 65.234375 41.984375 59.953125 
Q 44.140625 54.6875 42.578125 48.4375 
Q 41.015625 42.1875 33.59375 37.5 
Q 39.0625 35.15625 41.984375 30.46875 
Q 44.921875 25.78125 43.9375 18.15625 
Q 42.96875 10.546875 37.109375 5.859375 
Q 31.25 1.171875 23.828125 1.359375 
Q 16.40625 1.5625 10.9375 6.046875 
Q 5.46875 10.546875 3.90625 19.140625 
z
" id="SimHei-51"/>
       </defs>
       <use xlink:href="#SimHei-50"/>
       <use x="50" xlink:href="#SimHei-48"/>
       <use x="100" xlink:href="#SimHei-48"/>
       <use x="150" xlink:href="#SimHei-51"/>
      </g>
     </g>
    </g>
    <g id="xtick_8">
     <g id="line2d_8">
      <g>
       <use style="stroke:#000000;stroke-width:0.8;" x="251.224615" xlink:href="#mab67710806" y="328.005818"/>
      </g>
     </g>
     <g id="text_8">
      <!-- 2004 -->
      <g transform="translate(241.275223 342.228819)rotate(-1)scale(0.1 -0.1)">
       <defs>
        <path d="M 31.25 17.1875 
L 1.171875 17.1875 
L 1.171875 23.828125 
L 32.8125 69.53125 
L 38.671875 69.53125 
L 38.671875 23.828125 
L 48.046875 23.828125 
L 48.046875 17.1875 
L 38.671875 17.1875 
L 38.671875 2.34375 
L 31.25 2.34375 
z
M 31.25 23.828125 
L 31.25 54.6875 
L 9.375 23.828125 
z
" id="SimHei-52"/>
       </defs>
       <use xlink:href="#SimHei-50"/>
       <use x="50" xlink:href="#SimHei-48"/>
       <use x="100" xlink:href="#SimHei-48"/>
       <use x="150" xlink:href="#SimHei-52"/>
      </g>
     </g>
    </g>
    <g id="xtick_9">
     <g id="line2d_9">
      <g>
       <use style="stroke:#000000;stroke-width:0.8;" x="271.827692" xlink:href="#mab67710806" y="328.005818"/>
      </g>
     </g>
     <g id="text_9">
      <!-- 2005 -->
      <g transform="translate(261.8783 342.228819)rotate(-1)scale(0.1 -0.1)">
       <defs>
        <path d="M 8.59375 20.703125 
Q 11.328125 10.15625 17.96875 8.984375 
Q 24.609375 7.8125 28.703125 10.34375 
Q 32.8125 12.890625 34.5625 16.984375 
Q 36.328125 21.09375 36.125 26.171875 
Q 35.9375 31.25 33.390625 34.765625 
Q 30.859375 38.28125 26.953125 39.453125 
Q 23.046875 40.625 18.15625 39.453125 
Q 13.28125 38.28125 10.15625 33.984375 
L 3.515625 34.765625 
Q 4.296875 37.109375 10.9375 68.359375 
L 41.796875 68.359375 
L 41.796875 61.328125 
L 16.796875 61.328125 
Q 14.84375 50.78125 12.890625 44.53125 
Q 18.75 47.265625 23.828125 47.0625 
Q 28.90625 46.875 33.59375 44.71875 
Q 38.28125 42.578125 40.421875 38.859375 
Q 42.578125 35.15625 43.546875 31.4375 
Q 44.53125 27.734375 44.328125 23.4375 
Q 44.140625 19.140625 42.578125 14.640625 
Q 41.015625 10.15625 37.890625 7.21875 
Q 34.765625 4.296875 30.265625 2.53125 
Q 25.78125 0.78125 19.921875 1.171875 
Q 14.0625 1.5625 8.78125 5.46875 
Q 3.515625 9.375 1.5625 18.75 
z
" id="SimHei-53"/>
       </defs>
       <use xlink:href="#SimHei-50"/>
       <use x="50" xlink:href="#SimHei-48"/>
       <use x="100" xlink:href="#SimHei-48"/>
       <use x="150" xlink:href="#SimHei-53"/>
      </g>
     </g>
    </g>
    <g id="xtick_10">
     <g id="line2d_10">
      <g>
       <use style="stroke:#000000;stroke-width:0.8;" x="292.430769" xlink:href="#mab67710806" y="328.005818"/>
      </g>
     </g>
     <g id="text_10">
      <!-- 2006 -->
      <g transform="translate(282.481377 342.228819)rotate(-1)scale(0.1 -0.1)">
       <defs>
        <path d="M 3.515625 19.53125 
Q 4.296875 30.859375 6.046875 34.765625 
Q 7.8125 38.671875 11.328125 44.53125 
L 27.34375 69.53125 
L 36.328125 69.53125 
L 19.921875 43.75 
Q 30.46875 46.484375 36.71875 42.96875 
Q 42.96875 39.453125 45.109375 34.953125 
Q 47.265625 30.46875 47.453125 25.1875 
Q 47.65625 19.921875 45.890625 14.84375 
Q 44.140625 9.765625 39.640625 5.65625 
Q 35.15625 1.5625 27.140625 1.171875 
Q 19.140625 0.78125 13.46875 4.09375 
Q 7.8125 7.421875 5.65625 13.46875 
Q 3.515625 19.53125 4.296875 30.859375 
z
M 12.5 16.015625 
Q 19.53125 8.59375 25.390625 8.203125 
Q 31.25 7.8125 35.15625 12.109375 
Q 39.0625 16.40625 39.0625 24.609375 
Q 39.0625 32.8125 34.171875 35.9375 
Q 29.296875 39.0625 23.234375 38.28125 
Q 17.1875 37.5 14.453125 32.421875 
Q 11.71875 27.34375 12.109375 21.671875 
Q 12.5 16.015625 19.53125 8.59375 
z
" id="SimHei-54"/>
       </defs>
       <use xlink:href="#SimHei-50"/>
       <use x="50" xlink:href="#SimHei-48"/>
       <use x="100" xlink:href="#SimHei-48"/>
       <use x="150" xlink:href="#SimHei-54"/>
      </g>
     </g>
    </g>
    <g id="xtick_11">
     <g id="line2d_11">
      <g>
       <use style="stroke:#000000;stroke-width:0.8;" x="313.033846" xlink:href="#mab67710806" y="328.005818"/>
      </g>
     </g>
     <g id="text_11">
      <!-- 2007 -->
      <g transform="translate(303.084454 342.228819)rotate(-1)scale(0.1 -0.1)">
       <use xlink:href="#SimHei-50"/>
       <use x="50" xlink:href="#SimHei-48"/>
       <use x="100" xlink:href="#SimHei-48"/>
       <use x="150" xlink:href="#SimHei-55"/>
      </g>
     </g>
    </g>
    <g id="xtick_12">
     <g id="line2d_12">
      <g>
       <use style="stroke:#000000;stroke-width:0.8;" x="333.636923" xlink:href="#mab67710806" y="328.005818"/>
      </g>
     </g>
     <g id="text_12">
      <!-- 2008 -->
      <g transform="translate(323.687531 342.228819)rotate(-1)scale(0.1 -0.1)">
       <use xlink:href="#SimHei-50"/>
       <use x="50" xlink:href="#SimHei-48"/>
       <use x="100" xlink:href="#SimHei-48"/>
       <use x="150" xlink:href="#SimHei-56"/>
      </g>
     </g>
    </g>
    <g id="xtick_13">
     <g id="line2d_13">
      <g>
       <use style="stroke:#000000;stroke-width:0.8;" x="354.24" xlink:href="#mab67710806" y="328.005818"/>
      </g>
     </g>
     <g id="text_13">
      <!-- 2009 -->
      <g transform="translate(344.290608 342.228819)rotate(-1)scale(0.1 -0.1)">
       <use xlink:href="#SimHei-50"/>
       <use x="50" xlink:href="#SimHei-48"/>
       <use x="100" xlink:href="#SimHei-48"/>
       <use x="150" xlink:href="#SimHei-57"/>
      </g>
     </g>
    </g>
    <g id="xtick_14">
     <g id="line2d_14">
      <g>
       <use style="stroke:#000000;stroke-width:0.8;" x="374.843077" xlink:href="#mab67710806" y="328.005818"/>
      </g>
     </g>
     <g id="text_14">
      <!-- 2010 -->
      <g transform="translate(364.893685 342.228819)rotate(-1)scale(0.1 -0.1)">
       <use xlink:href="#SimHei-50"/>
       <use x="50" xlink:href="#SimHei-48"/>
       <use x="100" xlink:href="#SimHei-49"/>
       <use x="150" xlink:href="#SimHei-48"/>
      </g>
     </g>
    </g>
    <g id="xtick_15">
     <g id="line2d_15">
      <g>
       <use style="stroke:#000000;stroke-width:0.8;" x="395.446154" xlink:href="#mab67710806" y="328.005818"/>
      </g>
     </g>
     <g id="text_15">
      <!-- 2011 -->
      <g transform="translate(385.496762 342.228819)rotate(-1)scale(0.1 -0.1)">
       <use xlink:href="#SimHei-50"/>
       <use x="50" xlink:href="#SimHei-48"/>
       <use x="100" xlink:href="#SimHei-49"/>
       <use x="150" xlink:href="#SimHei-49"/>
      </g>
     </g>
    </g>
    <g id="xtick_16">
     <g id="line2d_16">
      <g>
       <use style="stroke:#000000;stroke-width:0.8;" x="416.049231" xlink:href="#mab67710806" y="328.005818"/>
      </g>
     </g>
     <g id="text_16">
      <!-- 2012 -->
      <g transform="translate(406.099839 342.228819)rotate(-1)scale(0.1 -0.1)">
       <use xlink:href="#SimHei-50"/>
       <use x="50" xlink:href="#SimHei-48"/>
       <use x="100" xlink:href="#SimHei-49"/>
       <use x="150" xlink:href="#SimHei-50"/>
      </g>
     </g>
    </g>
    <g id="xtick_17">
     <g id="line2d_17">
      <g>
       <use style="stroke:#000000;stroke-width:0.8;" x="436.652308" xlink:href="#mab67710806" y="328.005818"/>
      </g>
     </g>
     <g id="text_17">
      <!-- 2013 -->
      <g transform="translate(426.702916 342.228819)rotate(-1)scale(0.1 -0.1)">
       <use xlink:href="#SimHei-50"/>
       <use x="50" xlink:href="#SimHei-48"/>
       <use x="100" xlink:href="#SimHei-49"/>
       <use x="150" xlink:href="#SimHei-51"/>
      </g>
     </g>
    </g>
    <g id="xtick_18">
     <g id="line2d_18">
      <g>
       <use style="stroke:#000000;stroke-width:0.8;" x="457.255385" xlink:href="#mab67710806" y="328.005818"/>
      </g>
     </g>
     <g id="text_18">
      <!-- 2014 -->
      <g transform="translate(447.305993 342.228819)rotate(-1)scale(0.1 -0.1)">
       <use xlink:href="#SimHei-50"/>
       <use x="50" xlink:href="#SimHei-48"/>
       <use x="100" xlink:href="#SimHei-49"/>
       <use x="150" xlink:href="#SimHei-52"/>
      </g>
     </g>
    </g>
    <g id="xtick_19">
     <g id="line2d_19">
      <g>
       <use style="stroke:#000000;stroke-width:0.8;" x="477.858462" xlink:href="#mab67710806" y="328.005818"/>
      </g>
     </g>
     <g id="text_19">
      <!-- 2015 -->
      <g transform="translate(467.909069 342.228819)rotate(-1)scale(0.1 -0.1)">
       <use xlink:href="#SimHei-50"/>
       <use x="50" xlink:href="#SimHei-48"/>
       <use x="100" xlink:href="#SimHei-49"/>
       <use x="150" xlink:href="#SimHei-53"/>
      </g>
     </g>
    </g>
    <g id="xtick_20">
     <g id="line2d_20">
      <g>
       <use style="stroke:#000000;stroke-width:0.8;" x="498.461538" xlink:href="#mab67710806" y="328.005818"/>
      </g>
     </g>
     <g id="text_20">
      <!-- 2016 -->
      <g transform="translate(488.512146 342.228819)rotate(-1)scale(0.1 -0.1)">
       <use xlink:href="#SimHei-50"/>
       <use x="50" xlink:href="#SimHei-48"/>
       <use x="100" xlink:href="#SimHei-49"/>
       <use x="150" xlink:href="#SimHei-54"/>
      </g>
     </g>
    </g>
    <g id="xtick_21">
     <g id="line2d_21">
      <g>
       <use style="stroke:#000000;stroke-width:0.8;" x="519.064615" xlink:href="#mab67710806" y="328.005818"/>
      </g>
     </g>
     <g id="text_21">
      <!-- 2017 -->
      <g transform="translate(509.115223 342.228819)rotate(-1)scale(0.1 -0.1)">
       <use xlink:href="#SimHei-50"/>
       <use x="50" xlink:href="#SimHei-48"/>
       <use x="100" xlink:href="#SimHei-49"/>
       <use x="150" xlink:href="#SimHei-55"/>
      </g>
     </g>
    </g>
    <g id="xtick_22">
     <g id="line2d_22">
      <g>
       <use style="stroke:#000000;stroke-width:0.8;" x="539.667692" xlink:href="#mab67710806" y="328.005818"/>
      </g>
     </g>
     <g id="text_22">
      <!-- 2018 -->
      <g transform="translate(529.7183 342.228819)rotate(-1)scale(0.1 -0.1)">
       <use xlink:href="#SimHei-50"/>
       <use x="50" xlink:href="#SimHei-48"/>
       <use x="100" xlink:href="#SimHei-49"/>
       <use x="150" xlink:href="#SimHei-56"/>
      </g>
     </g>
    </g>
    <g id="xtick_23">
     <g id="line2d_23">
      <g>
       <use style="stroke:#000000;stroke-width:0.8;" x="560.270769" xlink:href="#mab67710806" y="328.005818"/>
      </g>
     </g>
     <g id="text_23">
      <!-- 2019 -->
      <g transform="translate(550.321377 342.228819)rotate(-1)scale(0.1 -0.1)">
       <use xlink:href="#SimHei-50"/>
       <use x="50" xlink:href="#SimHei-48"/>
       <use x="100" xlink:href="#SimHei-49"/>
       <use x="150" xlink:href="#SimHei-57"/>
      </g>
     </g>
    </g>
    <g id="xtick_24">
     <g id="line2d_24">
      <g>
       <use style="stroke:#000000;stroke-width:0.8;" x="580.873846" xlink:href="#mab67710806" y="328.005818"/>
      </g>
     </g>
     <g id="text_24">
      <!-- 2020 -->
      <g transform="translate(570.924454 342.228819)rotate(-1)scale(0.1 -0.1)">
       <use xlink:href="#SimHei-50"/>
       <use x="50" xlink:href="#SimHei-48"/>
       <use x="100" xlink:href="#SimHei-50"/>
       <use x="150" xlink:href="#SimHei-48"/>
      </g>
     </g>
    </g>
    <g id="text_25">
     <!-- Time (Year) -->
     <g transform="translate(326.74 354.783316)scale(0.1 -0.1)">
      <defs>
       <path d="M 44.53125 61.328125 
L 28.90625 61.328125 
L 28.90625 1.953125 
L 19.921875 1.953125 
L 19.921875 61.328125 
L 4.296875 61.328125 
L 4.296875 68.75 
L 44.53125 68.75 
z
" id="SimHei-84"/>
       <path d="M 28.125 58.203125 
L 20.3125 58.203125 
L 20.3125 68.359375 
L 28.125 68.359375 
z
M 28.125 1.953125 
L 20.3125 1.953125 
L 20.3125 45.703125 
L 28.125 45.703125 
z
" id="SimHei-105"/>
       <path d="M 47.65625 1.953125 
L 39.84375 1.953125 
L 39.84375 33.59375 
Q 39.84375 35.9375 39.0625 37.5 
Q 38.28125 39.0625 35.9375 39.0625 
Q 33.203125 39.0625 30.859375 36.125 
Q 28.515625 33.203125 28.515625 28.515625 
L 28.515625 1.953125 
L 20.703125 1.953125 
L 20.703125 33.59375 
Q 20.703125 35.9375 19.921875 37.5 
Q 19.140625 39.0625 16.796875 39.0625 
Q 14.0625 39.0625 11.71875 36.125 
Q 9.375 33.203125 9.375 28.515625 
L 9.375 1.953125 
L 1.5625 1.953125 
L 1.5625 45.703125 
L 9.375 45.703125 
L 9.375 39.84375 
Q 11.328125 42.96875 14.0625 44.71875 
Q 16.796875 46.484375 19.921875 46.484375 
Q 23.046875 46.484375 25.1875 44.71875 
Q 27.34375 42.96875 28.125 39.84375 
Q 30.078125 42.96875 32.609375 44.71875 
Q 35.15625 46.484375 38.28125 46.484375 
Q 42.96875 46.484375 45.3125 43.9375 
Q 47.65625 41.40625 47.65625 36.71875 
z
" id="SimHei-109"/>
       <path d="M 44.53125 16.796875 
Q 43.75 9.765625 38.28125 5.46875 
Q 32.8125 1.171875 25.390625 1.171875 
Q 16.015625 1.171875 9.953125 7.21875 
Q 3.90625 13.28125 3.90625 23.828125 
Q 3.90625 34.375 9.953125 40.421875 
Q 16.015625 46.484375 25.390625 46.484375 
Q 33.59375 46.484375 38.859375 41.203125 
Q 44.140625 35.9375 44.140625 23.828125 
L 12.5 23.828125 
Q 12.5 15.234375 16.203125 11.71875 
Q 19.921875 8.203125 25.390625 8.203125 
Q 29.6875 8.203125 32.421875 10.34375 
Q 35.15625 12.5 35.9375 16.796875 
z
M 35.15625 30.078125 
Q 34.375 35.546875 31.640625 37.6875 
Q 28.90625 39.84375 24.609375 39.84375 
Q 20.703125 39.84375 17.578125 37.6875 
Q 14.453125 35.546875 12.890625 30.078125 
z
" id="SimHei-101"/>
       <path id="SimHei-32"/>
       <path d="M 46.484375 -3.125 
L 42.1875 -7.421875 
Q 32.421875 1.953125 27.53125 12.109375 
Q 22.65625 22.265625 22.65625 35.15625 
Q 22.65625 48.046875 27.53125 58.203125 
Q 32.421875 68.359375 42.1875 78.125 
L 46.484375 73.828125 
Q 37.5 65.234375 33 56.046875 
Q 28.515625 46.875 28.515625 35.15625 
Q 28.515625 23.4375 33 14.25 
Q 37.5 5.078125 46.484375 -3.125 
z
" id="SimHei-40"/>
       <path d="M 47.265625 68.75 
L 28.90625 32.03125 
L 28.90625 1.953125 
L 19.921875 1.953125 
L 19.921875 32.03125 
L 1.5625 68.75 
L 10.546875 68.75 
L 24.21875 40.234375 
L 24.609375 40.234375 
L 38.28125 68.75 
z
" id="SimHei-89"/>
       <path d="M 44.921875 1.953125 
L 35.546875 1.953125 
Q 34.765625 2.734375 34.375 4.09375 
Q 33.984375 5.46875 33.984375 7.421875 
Q 31.25 4.296875 27.34375 2.734375 
Q 23.4375 1.171875 19.140625 1.171875 
Q 12.890625 1.171875 8.59375 4.296875 
Q 4.296875 7.421875 4.296875 13.28125 
Q 4.296875 19.140625 8.203125 22.65625 
Q 12.109375 26.171875 20.3125 27.34375 
Q 25.78125 28.125 29.875 29.296875 
Q 33.984375 30.46875 33.984375 32.421875 
Q 33.984375 34.765625 32.21875 37.109375 
Q 30.46875 39.453125 24.609375 39.453125 
Q 19.921875 39.453125 17.765625 37.6875 
Q 15.625 35.9375 14.84375 32.8125 
L 6.25 32.8125 
Q 7.03125 39.0625 11.90625 42.765625 
Q 16.796875 46.484375 24.609375 46.484375 
Q 33.203125 46.484375 37.5 42.578125 
Q 41.796875 38.671875 41.796875 31.640625 
L 41.796875 10.15625 
Q 41.796875 7.8125 42.578125 5.859375 
Q 43.359375 3.90625 44.921875 1.953125 
z
M 33.984375 16.40625 
L 33.984375 24.21875 
Q 31.640625 23.4375 29.484375 22.84375 
Q 27.34375 22.265625 22.265625 21.484375 
Q 16.40625 20.703125 14.640625 18.75 
Q 12.890625 16.796875 12.890625 14.0625 
Q 12.890625 11.71875 14.640625 9.953125 
Q 16.40625 8.203125 19.921875 8.203125 
Q 23.4375 8.203125 27.53125 10.15625 
Q 31.640625 12.109375 33.984375 16.40625 
z
" id="SimHei-97"/>
       <path d="M 39.0625 37.890625 
Q 31.640625 39.0625 26.5625 35.734375 
Q 21.484375 32.421875 17.96875 24.21875 
L 17.96875 1.953125 
L 10.15625 1.953125 
L 10.15625 45.703125 
L 17.96875 45.703125 
L 17.96875 34.375 
Q 21.484375 40.625 26.75 43.546875 
Q 32.03125 46.484375 39.0625 46.484375 
z
" id="SimHei-114"/>
       <path d="M 26.171875 35.15625 
Q 26.171875 22.265625 21.28125 12.109375 
Q 16.40625 1.953125 6.640625 -7.421875 
L 2.34375 -3.125 
Q 11.328125 5.078125 15.8125 14.25 
Q 20.3125 23.4375 20.3125 35.15625 
Q 20.3125 46.875 15.8125 56.046875 
Q 11.328125 65.234375 2.34375 73.828125 
L 6.640625 78.125 
Q 16.40625 68.359375 21.28125 58.203125 
Q 26.171875 48.046875 26.171875 35.15625 
z
" id="SimHei-41"/>
      </defs>
      <use xlink:href="#SimHei-84"/>
      <use x="50" xlink:href="#SimHei-105"/>
      <use x="100" xlink:href="#SimHei-109"/>
      <use x="150" xlink:href="#SimHei-101"/>
      <use x="200" xlink:href="#SimHei-32"/>
      <use x="250" xlink:href="#SimHei-40"/>
      <use x="300" xlink:href="#SimHei-89"/>
      <use x="350" xlink:href="#SimHei-101"/>
      <use x="400" xlink:href="#SimHei-97"/>
      <use x="450" xlink:href="#SimHei-114"/>
      <use x="500" xlink:href="#SimHei-41"/>
     </g>
    </g>
   </g>
   <g id="matplotlib.axis_2">
    <g id="ytick_1">
     <g id="line2d_25">
      <defs>
       <path d="M 0 0 
L -3.5 0 
" id="m5dcc55c8f0" style="stroke:#000000;stroke-width:0.8;"/>
      </defs>
      <g>
       <use style="stroke:#000000;stroke-width:0.8;" x="86.4" xlink:href="#m5dcc55c8f0" y="328.005818"/>
      </g>
     </g>
     <g id="text_26">
      <!-- 0 -->
      <g transform="translate(74.4 331.443318)scale(0.1 -0.1)">
       <use xlink:href="#SimHei-48"/>
      </g>
     </g>
    </g>
    <g id="ytick_2">
     <g id="line2d_26">
      <g>
       <use style="stroke:#000000;stroke-width:0.8;" x="86.4" xlink:href="#m5dcc55c8f0" y="297.373091"/>
      </g>
     </g>
     <g id="text_27">
      <!-- 1000 -->
      <g transform="translate(59.4 300.810591)scale(0.1 -0.1)">
       <use xlink:href="#SimHei-49"/>
       <use x="50" xlink:href="#SimHei-48"/>
       <use x="100" xlink:href="#SimHei-48"/>
       <use x="150" xlink:href="#SimHei-48"/>
      </g>
     </g>
    </g>
    <g id="ytick_3">
     <g id="line2d_27">
      <g>
       <use style="stroke:#000000;stroke-width:0.8;" x="86.4" xlink:href="#m5dcc55c8f0" y="266.740364"/>
      </g>
     </g>
     <g id="text_28">
      <!-- 2000 -->
      <g transform="translate(59.4 270.177864)scale(0.1 -0.1)">
       <use xlink:href="#SimHei-50"/>
       <use x="50" xlink:href="#SimHei-48"/>
       <use x="100" xlink:href="#SimHei-48"/>
       <use x="150" xlink:href="#SimHei-48"/>
      </g>
     </g>
    </g>
    <g id="ytick_4">
     <g id="line2d_28">
      <g>
       <use style="stroke:#000000;stroke-width:0.8;" x="86.4" xlink:href="#m5dcc55c8f0" y="236.107636"/>
      </g>
     </g>
     <g id="text_29">
      <!-- 3000 -->
      <g transform="translate(59.4 239.545136)scale(0.1 -0.1)">
       <use xlink:href="#SimHei-51"/>
       <use x="50" xlink:href="#SimHei-48"/>
       <use x="100" xlink:href="#SimHei-48"/>
       <use x="150" xlink:href="#SimHei-48"/>
      </g>
     </g>
    </g>
    <g id="ytick_5">
     <g id="line2d_29">
      <g>
       <use style="stroke:#000000;stroke-width:0.8;" x="86.4" xlink:href="#m5dcc55c8f0" y="205.474909"/>
      </g>
     </g>
     <g id="text_30">
      <!-- 4000 -->
      <g transform="translate(59.4 208.912409)scale(0.1 -0.1)">
       <use xlink:href="#SimHei-52"/>
       <use x="50" xlink:href="#SimHei-48"/>
       <use x="100" xlink:href="#SimHei-48"/>
       <use x="150" xlink:href="#SimHei-48"/>
      </g>
     </g>
    </g>
    <g id="ytick_6">
     <g id="line2d_30">
      <g>
       <use style="stroke:#000000;stroke-width:0.8;" x="86.4" xlink:href="#m5dcc55c8f0" y="174.842182"/>
      </g>
     </g>
     <g id="text_31">
      <!-- 5000 -->
      <g transform="translate(59.4 178.279682)scale(0.1 -0.1)">
       <use xlink:href="#SimHei-53"/>
       <use x="50" xlink:href="#SimHei-48"/>
       <use x="100" xlink:href="#SimHei-48"/>
       <use x="150" xlink:href="#SimHei-48"/>
      </g>
     </g>
    </g>
    <g id="ytick_7">
     <g id="line2d_31">
      <g>
       <use style="stroke:#000000;stroke-width:0.8;" x="86.4" xlink:href="#m5dcc55c8f0" y="144.209455"/>
      </g>
     </g>
     <g id="text_32">
      <!-- 6000 -->
      <g transform="translate(59.4 147.646955)scale(0.1 -0.1)">
       <use xlink:href="#SimHei-54"/>
       <use x="50" xlink:href="#SimHei-48"/>
       <use x="100" xlink:href="#SimHei-48"/>
       <use x="150" xlink:href="#SimHei-48"/>
      </g>
     </g>
    </g>
    <g id="ytick_8">
     <g id="line2d_32">
      <g>
       <use style="stroke:#000000;stroke-width:0.8;" x="86.4" xlink:href="#m5dcc55c8f0" y="113.576727"/>
      </g>
     </g>
     <g id="text_33">
      <!-- 7000 -->
      <g transform="translate(59.4 117.014227)scale(0.1 -0.1)">
       <use xlink:href="#SimHei-55"/>
       <use x="50" xlink:href="#SimHei-48"/>
       <use x="100" xlink:href="#SimHei-48"/>
       <use x="150" xlink:href="#SimHei-48"/>
      </g>
     </g>
    </g>
    <g id="ytick_9">
     <g id="line2d_33">
      <g>
       <use style="stroke:#000000;stroke-width:0.8;" x="86.4" xlink:href="#m5dcc55c8f0" y="82.944"/>
      </g>
     </g>
     <g id="text_34">
      <!-- 8000 -->
      <g transform="translate(59.4 86.3815)scale(0.1 -0.1)">
       <use xlink:href="#SimHei-56"/>
       <use x="50" xlink:href="#SimHei-48"/>
       <use x="100" xlink:href="#SimHei-48"/>
       <use x="150" xlink:href="#SimHei-48"/>
      </g>
     </g>
    </g>
    <g id="text_35">
     <!-- Numbers (s) -->
     <g transform="translate(0.4 81.694)scale(0.1 -0.1)">
      <defs>
       <path d="M 44.53125 1.953125 
L 34.765625 1.953125 
L 13.28125 50.390625 
L 12.890625 50.390625 
L 12.890625 1.953125 
L 3.90625 1.953125 
L 3.90625 68.75 
L 13.671875 68.75 
L 35.15625 20.3125 
L 35.546875 20.3125 
L 35.546875 68.75 
L 44.53125 68.75 
z
" id="SimHei-78"/>
       <path d="M 43.75 1.953125 
L 35.9375 1.953125 
L 35.9375 10.15625 
Q 32.8125 5.859375 29.09375 3.515625 
Q 25.390625 1.171875 19.53125 1.171875 
Q 12.5 1.171875 8.984375 5.078125 
Q 5.46875 8.984375 5.46875 14.84375 
L 5.46875 45.703125 
L 13.28125 45.703125 
L 13.28125 17.578125 
Q 13.28125 12.890625 15.625 10.15625 
Q 17.96875 7.421875 21.875 7.421875 
Q 26.953125 7.421875 31.4375 12.6875 
Q 35.9375 17.96875 35.9375 25.78125 
L 35.9375 45.703125 
L 43.75 45.703125 
z
" id="SimHei-117"/>
       <path d="M 44.140625 23.828125 
Q 44.140625 12.5 38.671875 6.828125 
Q 33.203125 1.171875 25.390625 1.171875 
Q 21.09375 1.171875 17.96875 2.734375 
Q 14.84375 4.296875 12.5 7.8125 
L 12.5 1.953125 
L 4.6875 1.953125 
L 4.6875 68.75 
L 12.5 68.75 
L 12.5 39.84375 
Q 14.84375 43.359375 17.96875 45.109375 
Q 21.09375 46.875 25.390625 46.875 
Q 33.203125 46.875 38.671875 41.015625 
Q 44.140625 35.15625 44.140625 23.828125 
z
M 35.546875 23.828125 
Q 35.546875 31.25 32.609375 35.546875 
Q 29.6875 39.84375 23.828125 39.84375 
Q 19.140625 39.84375 15.8125 35.546875 
Q 12.5 31.25 12.5 23.828125 
Q 12.5 16.40625 15.8125 12.296875 
Q 19.140625 8.203125 23.828125 8.203125 
Q 29.6875 8.203125 32.609375 12.296875 
Q 35.546875 16.40625 35.546875 23.828125 
z
" id="SimHei-98"/>
       <path d="M 42.96875 14.0625 
Q 42.96875 7.8125 38.078125 4.484375 
Q 33.203125 1.171875 25.78125 1.171875 
Q 16.40625 1.171875 11.328125 4.875 
Q 6.25 8.59375 6.25 15.625 
L 14.0625 15.625 
Q 14.0625 10.9375 17.375 9.375 
Q 20.703125 7.8125 25.390625 7.8125 
Q 30.078125 7.8125 32.421875 9.5625 
Q 34.765625 11.328125 34.765625 14.0625 
Q 34.765625 16.015625 32.8125 17.96875 
Q 30.859375 19.921875 23.046875 21.09375 
Q 14.0625 22.265625 10.734375 25.578125 
Q 7.421875 28.90625 7.421875 34.375 
Q 7.421875 39.0625 11.90625 42.765625 
Q 16.40625 46.484375 25 46.484375 
Q 32.8125 46.484375 37.296875 42.96875 
Q 41.796875 39.453125 41.796875 33.59375 
L 33.984375 33.59375 
Q 33.984375 37.109375 31.4375 38.46875 
Q 28.90625 39.84375 25 39.84375 
Q 19.921875 39.84375 17.765625 38.078125 
Q 15.625 36.328125 15.625 33.984375 
Q 15.625 31.25 17.578125 29.6875 
Q 19.53125 28.125 25.78125 27.34375 
Q 35.9375 25.78125 39.453125 22.453125 
Q 42.96875 19.140625 42.96875 14.0625 
z
" id="SimHei-115"/>
      </defs>
      <use xlink:href="#SimHei-78"/>
      <use x="50" xlink:href="#SimHei-117"/>
      <use x="100" xlink:href="#SimHei-109"/>
      <use x="150" xlink:href="#SimHei-98"/>
      <use x="200" xlink:href="#SimHei-101"/>
      <use x="250" xlink:href="#SimHei-114"/>
      <use x="300" xlink:href="#SimHei-115"/>
      <use x="350" xlink:href="#SimHei-32"/>
      <use x="400" xlink:href="#SimHei-40"/>
      <use x="450" xlink:href="#SimHei-115"/>
      <use x="500" xlink:href="#SimHei-41"/>
     </g>
    </g>
   </g>
   <g id="line2d_34">
    <path clip-path="url(#p9c77f07936)" d="M 107.003077 265.208727 
L 127.606154 264.9024 
L 148.209231 262.758109 
L 168.812308 263.830255 
L 189.415385 256.631564 
L 210.018462 244.6848 
L 230.621538 232.125382 
L 251.224615 219.719127 
L 271.827692 213.286255 
L 292.430769 207.772364 
L 313.033846 194.1408 
L 333.636923 189.699055 
L 354.24 186.635782 
L 374.843077 183.419345 
L 395.446154 180.202909 
L 416.049231 177.078371 
L 436.652308 173.9232 
L 457.255385 170.859927 
L 477.858462 167.796655 
L 498.461538 164.733382 
L 519.064615 161.670109 
L 539.667692 158.606836 
L 560.270769 155.3904 
L 580.873846 152.327127 
" style="fill:none;stroke:#8b4513;stroke-linecap:square;stroke-width:1.5;"/>
    <defs>
     <path d="M 0 3 
C 0.795609 3 1.55874 2.683901 2.12132 2.12132 
C 2.683901 1.55874 3 0.795609 3 0 
C 3 -0.795609 2.683901 -1.55874 2.12132 -2.12132 
C 1.55874 -2.683901 0.795609 -3 0 -3 
C -0.795609 -3 -1.55874 -2.683901 -2.12132 -2.12132 
C -2.683901 -1.55874 -3 -0.795609 -3 0 
C -3 0.795609 -2.683901 1.55874 -2.12132 2.12132 
C -1.55874 2.683901 -0.795609 3 0 3 
z
" id="mb072f72d89" style="stroke:#8b4513;"/>
    </defs>
    <g clip-path="url(#p9c77f07936)">
     <use style="fill:#ffffff;stroke:#8b4513;" x="107.003077" xlink:href="#mb072f72d89" y="265.208727"/>
     <use style="fill:#ffffff;stroke:#8b4513;" x="127.606154" xlink:href="#mb072f72d89" y="264.9024"/>
     <use style="fill:#ffffff;stroke:#8b4513;" x="148.209231" xlink:href="#mb072f72d89" y="262.758109"/>
     <use style="fill:#ffffff;stroke:#8b4513;" x="168.812308" xlink:href="#mb072f72d89" y="263.830255"/>
     <use style="fill:#ffffff;stroke:#8b4513;" x="189.415385" xlink:href="#mb072f72d89" y="256.631564"/>
     <use style="fill:#ffffff;stroke:#8b4513;" x="210.018462" xlink:href="#mb072f72d89" y="244.6848"/>
     <use style="fill:#ffffff;stroke:#8b4513;" x="230.621538" xlink:href="#mb072f72d89" y="232.125382"/>
     <use style="fill:#ffffff;stroke:#8b4513;" x="251.224615" xlink:href="#mb072f72d89" y="219.719127"/>
     <use style="fill:#ffffff;stroke:#8b4513;" x="271.827692" xlink:href="#mb072f72d89" y="213.286255"/>
     <use style="fill:#ffffff;stroke:#8b4513;" x="292.430769" xlink:href="#mb072f72d89" y="207.772364"/>
     <use style="fill:#ffffff;stroke:#8b4513;" x="313.033846" xlink:href="#mb072f72d89" y="194.1408"/>
     <use style="fill:#ffffff;stroke:#8b4513;" x="333.636923" xlink:href="#mb072f72d89" y="189.699055"/>
     <use style="fill:#ffffff;stroke:#8b4513;" x="354.24" xlink:href="#mb072f72d89" y="186.635782"/>
     <use style="fill:#ffffff;stroke:#8b4513;" x="374.843077" xlink:href="#mb072f72d89" y="183.419345"/>
     <use style="fill:#ffffff;stroke:#8b4513;" x="395.446154" xlink:href="#mb072f72d89" y="180.202909"/>
     <use style="fill:#ffffff;stroke:#8b4513;" x="416.049231" xlink:href="#mb072f72d89" y="177.078371"/>
     <use style="fill:#ffffff;stroke:#8b4513;" x="436.652308" xlink:href="#mb072f72d89" y="173.9232"/>
     <use style="fill:#ffffff;stroke:#8b4513;" x="457.255385" xlink:href="#mb072f72d89" y="170.859927"/>
     <use style="fill:#ffffff;stroke:#8b4513;" x="477.858462" xlink:href="#mb072f72d89" y="167.796655"/>
     <use style="fill:#ffffff;stroke:#8b4513;" x="498.461538" xlink:href="#mb072f72d89" y="164.733382"/>
     <use style="fill:#ffffff;stroke:#8b4513;" x="519.064615" xlink:href="#mb072f72d89" y="161.670109"/>
     <use style="fill:#ffffff;stroke:#8b4513;" x="539.667692" xlink:href="#mb072f72d89" y="158.606836"/>
     <use style="fill:#ffffff;stroke:#8b4513;" x="560.270769" xlink:href="#mb072f72d89" y="155.3904"/>
     <use style="fill:#ffffff;stroke:#8b4513;" x="580.873846" xlink:href="#mb072f72d89" y="152.327127"/>
    </g>
   </g>
   <g id="patch_3">
    <path d="M 86.4 328.005818 
L 86.4 82.944 
" style="fill:none;"/>
   </g>
   <g id="patch_4">
    <path d="M 622.08 328.005818 
L 622.08 82.944 
" style="fill:none;"/>
   </g>
   <g id="patch_5">
    <path d="M 86.4 328.005818 
L 622.08 328.005818 
" style="fill:none;"/>
   </g>
   <g id="patch_6">
    <path d="M 86.4 82.944 
L 622.08 82.944 
" style="fill:none;"/>
   </g>
   <g id="text_36">
    <!-- The development of Chinese education -->
    <g transform="translate(246.24 42.01275)scale(0.12 -0.12)">
     <defs>
      <path d="M 43.75 1.953125 
L 35.9375 1.953125 
L 35.9375 30.078125 
Q 35.9375 34.765625 33.59375 37.5 
Q 31.25 40.234375 27.34375 40.234375 
Q 22.265625 40.234375 17.765625 34.953125 
Q 13.28125 29.6875 13.28125 21.875 
L 13.28125 1.953125 
L 5.46875 1.953125 
L 5.46875 68.75 
L 13.28125 68.75 
L 13.28125 37.5 
Q 16.40625 41.796875 20.109375 44.140625 
Q 23.828125 46.484375 29.6875 46.484375 
Q 36.71875 46.484375 40.234375 42.578125 
Q 43.75 38.671875 43.75 32.8125 
z
" id="SimHei-104"/>
      <path d="M 42.96875 1.953125 
L 35.15625 1.953125 
L 35.15625 7.8125 
Q 32.8125 4.296875 29.6875 2.734375 
Q 26.5625 1.171875 22.265625 1.171875 
Q 14.453125 1.171875 8.984375 6.828125 
Q 3.515625 12.5 3.515625 23.828125 
Q 3.515625 35.15625 8.984375 41.015625 
Q 14.453125 46.875 22.265625 46.875 
Q 26.5625 46.875 29.6875 45.109375 
Q 32.8125 43.359375 35.15625 39.84375 
L 35.15625 68.75 
L 42.96875 68.75 
z
M 35.15625 23.828125 
Q 35.15625 31.25 31.828125 35.546875 
Q 28.515625 39.84375 23.828125 39.84375 
Q 17.96875 39.84375 15.03125 35.546875 
Q 12.109375 31.25 12.109375 23.828125 
Q 12.109375 16.40625 15.03125 12.296875 
Q 17.96875 8.203125 23.828125 8.203125 
Q 28.515625 8.203125 31.828125 12.296875 
Q 35.15625 16.40625 35.15625 23.828125 
z
" id="SimHei-100"/>
      <path d="M 44.921875 45.703125 
L 28.515625 1.171875 
L 19.921875 1.171875 
L 3.515625 45.703125 
L 11.71875 45.703125 
L 23.828125 11.71875 
L 24.609375 11.71875 
L 36.71875 45.703125 
z
" id="SimHei-118"/>
      <path d="M 28.515625 1.953125 
L 20.703125 1.953125 
L 20.703125 68.75 
L 28.515625 68.75 
z
" id="SimHei-108"/>
      <path d="M 45.703125 23.828125 
Q 45.703125 13.671875 39.453125 7.421875 
Q 33.203125 1.171875 24.609375 1.171875 
Q 16.015625 1.171875 9.765625 7.421875 
Q 3.515625 13.671875 3.515625 23.828125 
Q 3.515625 33.984375 9.765625 40.234375 
Q 16.015625 46.484375 24.609375 46.484375 
Q 33.203125 46.484375 39.453125 40.234375 
Q 45.703125 33.984375 45.703125 23.828125 
z
M 37.109375 23.828125 
Q 37.109375 31.640625 33.203125 35.546875 
Q 29.296875 39.453125 24.609375 39.453125 
Q 19.921875 39.453125 16.015625 35.546875 
Q 12.109375 31.640625 12.109375 23.828125 
Q 12.109375 16.015625 16.015625 12.109375 
Q 19.921875 8.203125 24.609375 8.203125 
Q 29.296875 8.203125 33.203125 12.109375 
Q 37.109375 16.015625 37.109375 23.828125 
z
" id="SimHei-111"/>
      <path d="M 44.140625 23.828125 
Q 44.140625 12.5 38.671875 6.640625 
Q 33.203125 0.78125 25.390625 0.78125 
Q 21.09375 0.78125 17.96875 2.53125 
Q 14.84375 4.296875 12.5 7.8125 
L 12.5 -12.5 
L 4.6875 -12.5 
L 4.6875 45.703125 
L 12.5 45.703125 
L 12.5 39.84375 
Q 14.84375 43.359375 17.96875 44.921875 
Q 21.09375 46.484375 25.390625 46.484375 
Q 33.203125 46.484375 38.671875 40.8125 
Q 44.140625 35.15625 44.140625 23.828125 
z
M 35.546875 23.828125 
Q 35.546875 31.25 32.609375 35.34375 
Q 29.6875 39.453125 23.828125 39.453125 
Q 19.140625 39.453125 15.8125 35.34375 
Q 12.5 31.25 12.5 23.828125 
Q 12.5 16.40625 15.8125 12.109375 
Q 19.140625 7.8125 23.828125 7.8125 
Q 29.6875 7.8125 32.609375 12.109375 
Q 35.546875 16.40625 35.546875 23.828125 
z
" id="SimHei-112"/>
      <path d="M 43.75 1.953125 
L 35.9375 1.953125 
L 35.9375 30.078125 
Q 35.9375 34.765625 33.59375 37.5 
Q 31.25 40.234375 27.34375 40.234375 
Q 22.265625 40.234375 17.765625 34.953125 
Q 13.28125 29.6875 13.28125 21.875 
L 13.28125 1.953125 
L 5.46875 1.953125 
L 5.46875 45.703125 
L 13.28125 45.703125 
L 13.28125 37.5 
Q 16.40625 41.796875 20.109375 44.140625 
Q 23.828125 46.484375 29.6875 46.484375 
Q 36.71875 46.484375 40.234375 42.578125 
Q 43.75 38.671875 43.75 32.8125 
z
" id="SimHei-110"/>
      <path d="M 42.96875 3.125 
Q 41.015625 2.34375 38.46875 1.75 
Q 35.9375 1.171875 31.640625 1.171875 
Q 24.609375 1.171875 20.3125 5.078125 
Q 16.015625 8.984375 16.015625 16.015625 
L 16.015625 39.453125 
L 2.734375 39.453125 
L 2.734375 45.703125 
L 16.015625 45.703125 
L 16.015625 60.9375 
L 23.828125 60.9375 
L 23.828125 45.703125 
L 39.84375 45.703125 
L 39.84375 39.453125 
L 23.828125 39.453125 
L 23.828125 15.625 
Q 23.828125 12.5 25.390625 10.34375 
Q 26.953125 8.203125 31.25 8.203125 
Q 35.546875 8.203125 38.28125 8.984375 
Q 41.015625 9.765625 42.96875 10.9375 
z
" id="SimHei-116"/>
      <path d="M 44.53125 59.765625 
Q 42.578125 60.9375 39.84375 61.71875 
Q 37.109375 62.5 32.8125 62.5 
Q 28.515625 62.5 26.953125 60.34375 
Q 25.390625 58.203125 25.390625 55.078125 
L 25.390625 45.703125 
L 41.40625 45.703125 
L 41.40625 39.453125 
L 25.390625 39.453125 
L 25.390625 1.953125 
L 17.578125 1.953125 
L 17.578125 39.453125 
L 4.296875 39.453125 
L 4.296875 45.703125 
L 17.578125 45.703125 
L 17.578125 54.6875 
Q 17.578125 61.71875 21.875 65.625 
Q 26.171875 69.53125 33.203125 69.53125 
Q 37.5 69.53125 40.03125 68.9375 
Q 42.578125 68.359375 44.53125 67.578125 
z
" id="SimHei-102"/>
      <path d="M 46.484375 28.515625 
Q 46.09375 13.671875 40.234375 7.421875 
Q 34.375 1.171875 26.171875 1.171875 
Q 16.796875 1.171875 10.15625 8.78125 
Q 3.515625 16.40625 3.515625 33.203125 
Q 3.515625 51.5625 9.953125 60.546875 
Q 16.40625 69.53125 26.5625 69.53125 
Q 35.15625 69.53125 40.8125 63.078125 
Q 46.484375 56.640625 46.09375 44.921875 
L 37.5 44.921875 
Q 37.5 53.515625 34.765625 57.8125 
Q 32.03125 62.109375 26.5625 62.109375 
Q 20.3125 62.109375 16.59375 55.65625 
Q 12.890625 49.21875 12.890625 33.984375 
Q 12.890625 19.921875 16.59375 14.25 
Q 20.3125 8.59375 26.171875 8.59375 
Q 30.46875 8.59375 33.984375 12.6875 
Q 37.5 16.796875 37.5 28.515625 
z
" id="SimHei-67"/>
      <path d="M 44.53125 19.53125 
Q 44.53125 11.328125 38.859375 6.25 
Q 33.203125 1.171875 24.609375 1.171875 
Q 16.015625 1.171875 9.765625 7.21875 
Q 3.515625 13.28125 3.515625 23.828125 
Q 3.515625 34.375 9.765625 40.421875 
Q 16.015625 46.484375 24.609375 46.484375 
Q 33.203125 46.484375 38.28125 41.984375 
Q 43.359375 37.5 43.359375 31.25 
L 34.765625 31.25 
Q 34.375 35.9375 31.4375 37.6875 
Q 28.515625 39.453125 24.609375 39.453125 
Q 19.921875 39.453125 16.015625 35.734375 
Q 12.109375 32.03125 12.109375 23.828125 
Q 12.109375 15.625 16.015625 11.90625 
Q 19.921875 8.203125 24.609375 8.203125 
Q 29.6875 8.203125 32.8125 10.9375 
Q 35.9375 13.671875 35.9375 19.53125 
z
" id="SimHei-99"/>
     </defs>
     <use xlink:href="#SimHei-84"/>
     <use x="50" xlink:href="#SimHei-104"/>
     <use x="100" xlink:href="#SimHei-101"/>
     <use x="150" xlink:href="#SimHei-32"/>
     <use x="200" xlink:href="#SimHei-100"/>
     <use x="250" xlink:href="#SimHei-101"/>
     <use x="300" xlink:href="#SimHei-118"/>
     <use x="350" xlink:href="#SimHei-101"/>
     <use x="400" xlink:href="#SimHei-108"/>
     <use x="450" xlink:href="#SimHei-111"/>
     <use x="500" xlink:href="#SimHei-112"/>
     <use x="550" xlink:href="#SimHei-109"/>
     <use x="600" xlink:href="#SimHei-101"/>
     <use x="650" xlink:href="#SimHei-110"/>
     <use x="700" xlink:href="#SimHei-116"/>
     <use x="750" xlink:href="#SimHei-32"/>
     <use x="800" xlink:href="#SimHei-111"/>
     <use x="850" xlink:href="#SimHei-102"/>
     <use x="900" xlink:href="#SimHei-32"/>
     <use x="950" xlink:href="#SimHei-67"/>
     <use x="1000" xlink:href="#SimHei-104"/>
     <use x="1050" xlink:href="#SimHei-105"/>
     <use x="1100" xlink:href="#SimHei-110"/>
     <use x="1150" xlink:href="#SimHei-101"/>
     <use x="1200" xlink:href="#SimHei-115"/>
     <use x="1250" xlink:href="#SimHei-101"/>
     <use x="1300" xlink:href="#SimHei-32"/>
     <use x="1350" xlink:href="#SimHei-101"/>
     <use x="1400" xlink:href="#SimHei-100"/>
     <use x="1450" xlink:href="#SimHei-117"/>
     <use x="1500" xlink:href="#SimHei-99"/>
     <use x="1550" xlink:href="#SimHei-97"/>
     <use x="1600" xlink:href="#SimHei-116"/>
     <use x="1650" xlink:href="#SimHei-105"/>
     <use x="1700" xlink:href="#SimHei-111"/>
     <use x="1750" xlink:href="#SimHei-110"/>
    </g>
    <!--  -->
    <g transform="translate(354.24 53.41275)scale(0.12 -0.12)"/>
    <!-- The number of Chinese College numbers -->
    <g transform="translate(243.24 64.92525)scale(0.12 -0.12)">
     <defs>
      <path d="M 46.484375 39.0625 
Q 43.75 39.84375 41.203125 40.03125 
Q 38.671875 40.234375 35.9375 39.453125 
Q 37.109375 38.28125 37.890625 36.515625 
Q 38.671875 34.765625 38.671875 31.25 
Q 38.671875 24.609375 34.171875 20.3125 
Q 29.6875 16.015625 23.046875 16.015625 
Q 21.484375 16.015625 18.9375 16.59375 
Q 16.40625 17.1875 14.84375 17.96875 
Q 13.671875 17.1875 13.28125 16.40625 
Q 12.890625 15.625 12.890625 14.453125 
Q 12.890625 12.5 15.625 11.515625 
Q 18.359375 10.546875 25.390625 10.546875 
Q 36.71875 10.546875 40.8125 7.421875 
Q 44.921875 4.296875 44.921875 -0.390625 
Q 44.921875 -6.640625 38.859375 -9.5625 
Q 32.8125 -12.5 24.609375 -12.5 
Q 14.0625 -12.5 8.984375 -9.765625 
Q 3.90625 -7.03125 3.90625 -2.34375 
Q 3.90625 0 5.859375 2.34375 
Q 7.8125 4.6875 10.9375 6.25 
Q 8.59375 7.421875 7.21875 9.171875 
Q 5.859375 10.9375 5.859375 13.671875 
Q 5.859375 16.015625 7.609375 17.765625 
Q 9.375 19.53125 11.71875 20.703125 
Q 9.765625 22.65625 8.59375 25.390625 
Q 7.421875 28.125 7.421875 31.25 
Q 7.421875 37.890625 11.90625 42.1875 
Q 16.40625 46.484375 23.046875 46.484375 
Q 26.5625 46.484375 29.09375 45.5 
Q 31.640625 44.53125 33.59375 42.578125 
Q 36.71875 44.921875 39.84375 45.890625 
Q 42.96875 46.875 46.484375 46.484375 
z
M 30.859375 31.25 
Q 30.859375 35.15625 28.90625 37.5 
Q 26.953125 39.84375 23.046875 39.84375 
Q 19.140625 39.84375 17.1875 37.5 
Q 15.234375 35.15625 15.234375 31.25 
Q 15.234375 27.34375 17.1875 25 
Q 19.140625 22.65625 23.046875 22.65625 
Q 26.953125 22.65625 28.90625 25 
Q 30.859375 27.34375 30.859375 31.25 
z
M 37.5 -1.171875 
Q 37.5 0.390625 35.734375 1.953125 
Q 33.984375 3.515625 26.953125 3.515625 
Q 25.390625 3.515625 22.65625 3.703125 
Q 19.921875 3.90625 16.40625 4.296875 
Q 13.28125 3.125 12.109375 1.5625 
Q 10.9375 0 10.9375 -1.5625 
Q 10.9375 -3.90625 14.0625 -5.46875 
Q 17.1875 -7.03125 25 -7.03125 
Q 31.640625 -7.03125 34.5625 -5.265625 
Q 37.5 -3.515625 37.5 -1.171875 
z
" id="SimHei-103"/>
     </defs>
     <use xlink:href="#SimHei-84"/>
     <use x="50" xlink:href="#SimHei-104"/>
     <use x="100" xlink:href="#SimHei-101"/>
     <use x="150" xlink:href="#SimHei-32"/>
     <use x="200" xlink:href="#SimHei-110"/>
     <use x="250" xlink:href="#SimHei-117"/>
     <use x="300" xlink:href="#SimHei-109"/>
     <use x="350" xlink:href="#SimHei-98"/>
     <use x="400" xlink:href="#SimHei-101"/>
     <use x="450" xlink:href="#SimHei-114"/>
     <use x="500" xlink:href="#SimHei-32"/>
     <use x="550" xlink:href="#SimHei-111"/>
     <use x="600" xlink:href="#SimHei-102"/>
     <use x="650" xlink:href="#SimHei-32"/>
     <use x="700" xlink:href="#SimHei-67"/>
     <use x="750" xlink:href="#SimHei-104"/>
     <use x="800" xlink:href="#SimHei-105"/>
     <use x="850" xlink:href="#SimHei-110"/>
     <use x="900" xlink:href="#SimHei-101"/>
     <use x="950" xlink:href="#SimHei-115"/>
     <use x="1000" xlink:href="#SimHei-101"/>
     <use x="1050" xlink:href="#SimHei-32"/>
     <use x="1100" xlink:href="#SimHei-67"/>
     <use x="1150" xlink:href="#SimHei-111"/>
     <use x="1200" xlink:href="#SimHei-108"/>
     <use x="1250" xlink:href="#SimHei-108"/>
     <use x="1300" xlink:href="#SimHei-101"/>
     <use x="1350" xlink:href="#SimHei-103"/>
     <use x="1400" xlink:href="#SimHei-101"/>
     <use x="1450" xlink:href="#SimHei-32"/>
     <use x="1500" xlink:href="#SimHei-110"/>
     <use x="1550" xlink:href="#SimHei-117"/>
     <use x="1600" xlink:href="#SimHei-109"/>
     <use x="1650" xlink:href="#SimHei-98"/>
     <use x="1700" xlink:href="#SimHei-101"/>
     <use x="1750" xlink:href="#SimHei-114"/>
     <use x="1800" xlink:href="#SimHei-115"/>
    </g>
    <!-- (1997-2020) -->
    <g transform="translate(321.24 76.944)scale(0.12 -0.12)">
     <defs>
      <path d="M 46.484375 33.203125 
L 1.953125 33.203125 
L 1.953125 39.453125 
L 46.484375 39.453125 
z
" id="SimHei-45"/>
     </defs>
     <use xlink:href="#SimHei-40"/>
     <use x="50" xlink:href="#SimHei-49"/>
     <use x="100" xlink:href="#SimHei-57"/>
     <use x="150" xlink:href="#SimHei-57"/>
     <use x="200" xlink:href="#SimHei-55"/>
     <use x="250" xlink:href="#SimHei-45"/>
     <use x="300" xlink:href="#SimHei-50"/>
     <use x="350" xlink:href="#SimHei-48"/>
     <use x="400" xlink:href="#SimHei-50"/>
     <use x="450" xlink:href="#SimHei-48"/>
     <use x="500" xlink:href="#SimHei-41"/>
    </g>
   </g>
   <g id="legend_1">
    <g id="patch_7">
     <path d="M 543.08 104.194 
L 615.08 104.194 
Q 617.08 104.194 617.08 102.194 
L 617.08 89.944 
Q 617.08 87.944 615.08 87.944 
L 543.08 87.944 
Q 541.08 87.944 541.08 89.944 
L 541.08 102.194 
Q 541.08 104.194 543.08 104.194 
z
" style="fill:#ffffff;opacity:0.8;stroke:#cccccc;stroke-linejoin:miter;"/>
    </g>
    <g id="line2d_35">
     <path d="M 545.08 95.444 
L 565.08 95.444 
" style="fill:none;stroke:#8b4513;stroke-linecap:square;stroke-width:1.5;"/>
    </g>
    <g id="line2d_36">
     <g>
      <use style="fill:#ffffff;stroke:#8b4513;" x="555.08" xlink:href="#mb072f72d89" y="95.444"/>
     </g>
    </g>
    <g id="text_37">
     <!-- Colleges -->
     <g transform="translate(573.08 98.944)scale(0.1 -0.1)">
      <use xlink:href="#SimHei-67"/>
      <use x="50" xlink:href="#SimHei-111"/>
      <use x="100" xlink:href="#SimHei-108"/>
      <use x="150" xlink:href="#SimHei-108"/>
      <use x="200" xlink:href="#SimHei-101"/>
      <use x="250" xlink:href="#SimHei-103"/>
      <use x="300" xlink:href="#SimHei-101"/>
      <use x="350" xlink:href="#SimHei-115"/>
     </g>
    </g>
   </g>
  </g>
  <g id="axes_2">
   <g id="patch_8">
    <path d="M 86.4 622.08 
L 622.08 622.08 
L 622.08 377.018182 
L 86.4 377.018182 
z
" style="fill:#ffffff;"/>
   </g>
   <g id="matplotlib.axis_3">
    <g id="xtick_25">
     <g id="line2d_37">
      <g>
       <use style="stroke:#000000;stroke-width:0.8;" x="107.8272" xlink:href="#mab67710806" y="622.08"/>
      </g>
     </g>
     <g id="text_38">
      <!-- 1997 -->
      <g transform="translate(97.877808 636.303001)rotate(-1)scale(0.1 -0.1)">
       <use xlink:href="#SimHei-49"/>
       <use x="50" xlink:href="#SimHei-57"/>
       <use x="100" xlink:href="#SimHei-57"/>
       <use x="150" xlink:href="#SimHei-55"/>
      </g>
     </g>
    </g>
    <g id="xtick_26">
     <g id="line2d_38">
      <g>
       <use style="stroke:#000000;stroke-width:0.8;" x="129.2544" xlink:href="#mab67710806" y="622.08"/>
      </g>
     </g>
     <g id="text_39">
      <!-- 1998 -->
      <g transform="translate(119.305008 636.303001)rotate(-1)scale(0.1 -0.1)">
       <use xlink:href="#SimHei-49"/>
       <use x="50" xlink:href="#SimHei-57"/>
       <use x="100" xlink:href="#SimHei-57"/>
       <use x="150" xlink:href="#SimHei-56"/>
      </g>
     </g>
    </g>
    <g id="xtick_27">
     <g id="line2d_39">
      <g>
       <use style="stroke:#000000;stroke-width:0.8;" x="150.6816" xlink:href="#mab67710806" y="622.08"/>
      </g>
     </g>
     <g id="text_40">
      <!-- 1999 -->
      <g transform="translate(140.732208 636.303001)rotate(-1)scale(0.1 -0.1)">
       <use xlink:href="#SimHei-49"/>
       <use x="50" xlink:href="#SimHei-57"/>
       <use x="100" xlink:href="#SimHei-57"/>
       <use x="150" xlink:href="#SimHei-57"/>
      </g>
     </g>
    </g>
    <g id="xtick_28">
     <g id="line2d_40">
      <g>
       <use style="stroke:#000000;stroke-width:0.8;" x="172.1088" xlink:href="#mab67710806" y="622.08"/>
      </g>
     </g>
     <g id="text_41">
      <!-- 2000 -->
      <g transform="translate(162.159408 636.303001)rotate(-1)scale(0.1 -0.1)">
       <use xlink:href="#SimHei-50"/>
       <use x="50" xlink:href="#SimHei-48"/>
       <use x="100" xlink:href="#SimHei-48"/>
       <use x="150" xlink:href="#SimHei-48"/>
      </g>
     </g>
    </g>
    <g id="xtick_29">
     <g id="line2d_41">
      <g>
       <use style="stroke:#000000;stroke-width:0.8;" x="193.536" xlink:href="#mab67710806" y="622.08"/>
      </g>
     </g>
     <g id="text_42">
      <!-- 2001 -->
      <g transform="translate(183.586608 636.303001)rotate(-1)scale(0.1 -0.1)">
       <use xlink:href="#SimHei-50"/>
       <use x="50" xlink:href="#SimHei-48"/>
       <use x="100" xlink:href="#SimHei-48"/>
       <use x="150" xlink:href="#SimHei-49"/>
      </g>
     </g>
    </g>
    <g id="xtick_30">
     <g id="line2d_42">
      <g>
       <use style="stroke:#000000;stroke-width:0.8;" x="214.9632" xlink:href="#mab67710806" y="622.08"/>
      </g>
     </g>
     <g id="text_43">
      <!-- 2002 -->
      <g transform="translate(205.013808 636.303001)rotate(-1)scale(0.1 -0.1)">
       <use xlink:href="#SimHei-50"/>
       <use x="50" xlink:href="#SimHei-48"/>
       <use x="100" xlink:href="#SimHei-48"/>
       <use x="150" xlink:href="#SimHei-50"/>
      </g>
     </g>
    </g>
    <g id="xtick_31">
     <g id="line2d_43">
      <g>
       <use style="stroke:#000000;stroke-width:0.8;" x="236.3904" xlink:href="#mab67710806" y="622.08"/>
      </g>
     </g>
     <g id="text_44">
      <!-- 2003 -->
      <g transform="translate(226.441008 636.303001)rotate(-1)scale(0.1 -0.1)">
       <use xlink:href="#SimHei-50"/>
       <use x="50" xlink:href="#SimHei-48"/>
       <use x="100" xlink:href="#SimHei-48"/>
       <use x="150" xlink:href="#SimHei-51"/>
      </g>
     </g>
    </g>
    <g id="xtick_32">
     <g id="line2d_44">
      <g>
       <use style="stroke:#000000;stroke-width:0.8;" x="257.8176" xlink:href="#mab67710806" y="622.08"/>
      </g>
     </g>
     <g id="text_45">
      <!-- 2004 -->
      <g transform="translate(247.868208 636.303001)rotate(-1)scale(0.1 -0.1)">
       <use xlink:href="#SimHei-50"/>
       <use x="50" xlink:href="#SimHei-48"/>
       <use x="100" xlink:href="#SimHei-48"/>
       <use x="150" xlink:href="#SimHei-52"/>
      </g>
     </g>
    </g>
    <g id="xtick_33">
     <g id="line2d_45">
      <g>
       <use style="stroke:#000000;stroke-width:0.8;" x="279.2448" xlink:href="#mab67710806" y="622.08"/>
      </g>
     </g>
     <g id="text_46">
      <!-- 2005 -->
      <g transform="translate(269.295408 636.303001)rotate(-1)scale(0.1 -0.1)">
       <use xlink:href="#SimHei-50"/>
       <use x="50" xlink:href="#SimHei-48"/>
       <use x="100" xlink:href="#SimHei-48"/>
       <use x="150" xlink:href="#SimHei-53"/>
      </g>
     </g>
    </g>
    <g id="xtick_34">
     <g id="line2d_46">
      <g>
       <use style="stroke:#000000;stroke-width:0.8;" x="300.672" xlink:href="#mab67710806" y="622.08"/>
      </g>
     </g>
     <g id="text_47">
      <!-- 2006 -->
      <g transform="translate(290.722608 636.303001)rotate(-1)scale(0.1 -0.1)">
       <use xlink:href="#SimHei-50"/>
       <use x="50" xlink:href="#SimHei-48"/>
       <use x="100" xlink:href="#SimHei-48"/>
       <use x="150" xlink:href="#SimHei-54"/>
      </g>
     </g>
    </g>
    <g id="xtick_35">
     <g id="line2d_47">
      <g>
       <use style="stroke:#000000;stroke-width:0.8;" x="322.0992" xlink:href="#mab67710806" y="622.08"/>
      </g>
     </g>
     <g id="text_48">
      <!-- 2007 -->
      <g transform="translate(312.149808 636.303001)rotate(-1)scale(0.1 -0.1)">
       <use xlink:href="#SimHei-50"/>
       <use x="50" xlink:href="#SimHei-48"/>
       <use x="100" xlink:href="#SimHei-48"/>
       <use x="150" xlink:href="#SimHei-55"/>
      </g>
     </g>
    </g>
    <g id="xtick_36">
     <g id="line2d_48">
      <g>
       <use style="stroke:#000000;stroke-width:0.8;" x="343.5264" xlink:href="#mab67710806" y="622.08"/>
      </g>
     </g>
     <g id="text_49">
      <!-- 2008 -->
      <g transform="translate(333.577008 636.303001)rotate(-1)scale(0.1 -0.1)">
       <use xlink:href="#SimHei-50"/>
       <use x="50" xlink:href="#SimHei-48"/>
       <use x="100" xlink:href="#SimHei-48"/>
       <use x="150" xlink:href="#SimHei-56"/>
      </g>
     </g>
    </g>
    <g id="xtick_37">
     <g id="line2d_49">
      <g>
       <use style="stroke:#000000;stroke-width:0.8;" x="364.9536" xlink:href="#mab67710806" y="622.08"/>
      </g>
     </g>
     <g id="text_50">
      <!-- 2009 -->
      <g transform="translate(355.004208 636.303001)rotate(-1)scale(0.1 -0.1)">
       <use xlink:href="#SimHei-50"/>
       <use x="50" xlink:href="#SimHei-48"/>
       <use x="100" xlink:href="#SimHei-48"/>
       <use x="150" xlink:href="#SimHei-57"/>
      </g>
     </g>
    </g>
    <g id="xtick_38">
     <g id="line2d_50">
      <g>
       <use style="stroke:#000000;stroke-width:0.8;" x="386.3808" xlink:href="#mab67710806" y="622.08"/>
      </g>
     </g>
     <g id="text_51">
      <!-- 2010 -->
      <g transform="translate(376.431408 636.303001)rotate(-1)scale(0.1 -0.1)">
       <use xlink:href="#SimHei-50"/>
       <use x="50" xlink:href="#SimHei-48"/>
       <use x="100" xlink:href="#SimHei-49"/>
       <use x="150" xlink:href="#SimHei-48"/>
      </g>
     </g>
    </g>
    <g id="xtick_39">
     <g id="line2d_51">
      <g>
       <use style="stroke:#000000;stroke-width:0.8;" x="407.808" xlink:href="#mab67710806" y="622.08"/>
      </g>
     </g>
     <g id="text_52">
      <!-- 2011 -->
      <g transform="translate(397.858608 636.303001)rotate(-1)scale(0.1 -0.1)">
       <use xlink:href="#SimHei-50"/>
       <use x="50" xlink:href="#SimHei-48"/>
       <use x="100" xlink:href="#SimHei-49"/>
       <use x="150" xlink:href="#SimHei-49"/>
      </g>
     </g>
    </g>
    <g id="xtick_40">
     <g id="line2d_52">
      <g>
       <use style="stroke:#000000;stroke-width:0.8;" x="429.2352" xlink:href="#mab67710806" y="622.08"/>
      </g>
     </g>
     <g id="text_53">
      <!-- 2012 -->
      <g transform="translate(419.285808 636.303001)rotate(-1)scale(0.1 -0.1)">
       <use xlink:href="#SimHei-50"/>
       <use x="50" xlink:href="#SimHei-48"/>
       <use x="100" xlink:href="#SimHei-49"/>
       <use x="150" xlink:href="#SimHei-50"/>
      </g>
     </g>
    </g>
    <g id="xtick_41">
     <g id="line2d_53">
      <g>
       <use style="stroke:#000000;stroke-width:0.8;" x="450.6624" xlink:href="#mab67710806" y="622.08"/>
      </g>
     </g>
     <g id="text_54">
      <!-- 2013 -->
      <g transform="translate(440.713008 636.303001)rotate(-1)scale(0.1 -0.1)">
       <use xlink:href="#SimHei-50"/>
       <use x="50" xlink:href="#SimHei-48"/>
       <use x="100" xlink:href="#SimHei-49"/>
       <use x="150" xlink:href="#SimHei-51"/>
      </g>
     </g>
    </g>
    <g id="xtick_42">
     <g id="line2d_54">
      <g>
       <use style="stroke:#000000;stroke-width:0.8;" x="472.0896" xlink:href="#mab67710806" y="622.08"/>
      </g>
     </g>
     <g id="text_55">
      <!-- 2014 -->
      <g transform="translate(462.140208 636.303001)rotate(-1)scale(0.1 -0.1)">
       <use xlink:href="#SimHei-50"/>
       <use x="50" xlink:href="#SimHei-48"/>
       <use x="100" xlink:href="#SimHei-49"/>
       <use x="150" xlink:href="#SimHei-52"/>
      </g>
     </g>
    </g>
    <g id="xtick_43">
     <g id="line2d_55">
      <g>
       <use style="stroke:#000000;stroke-width:0.8;" x="493.5168" xlink:href="#mab67710806" y="622.08"/>
      </g>
     </g>
     <g id="text_56">
      <!-- 2015 -->
      <g transform="translate(483.567408 636.303001)rotate(-1)scale(0.1 -0.1)">
       <use xlink:href="#SimHei-50"/>
       <use x="50" xlink:href="#SimHei-48"/>
       <use x="100" xlink:href="#SimHei-49"/>
       <use x="150" xlink:href="#SimHei-53"/>
      </g>
     </g>
    </g>
    <g id="xtick_44">
     <g id="line2d_56">
      <g>
       <use style="stroke:#000000;stroke-width:0.8;" x="514.944" xlink:href="#mab67710806" y="622.08"/>
      </g>
     </g>
     <g id="text_57">
      <!-- 2016 -->
      <g transform="translate(504.994608 636.303001)rotate(-1)scale(0.1 -0.1)">
       <use xlink:href="#SimHei-50"/>
       <use x="50" xlink:href="#SimHei-48"/>
       <use x="100" xlink:href="#SimHei-49"/>
       <use x="150" xlink:href="#SimHei-54"/>
      </g>
     </g>
    </g>
    <g id="xtick_45">
     <g id="line2d_57">
      <g>
       <use style="stroke:#000000;stroke-width:0.8;" x="536.3712" xlink:href="#mab67710806" y="622.08"/>
      </g>
     </g>
     <g id="text_58">
      <!-- 2017 -->
      <g transform="translate(526.421808 636.303001)rotate(-1)scale(0.1 -0.1)">
       <use xlink:href="#SimHei-50"/>
       <use x="50" xlink:href="#SimHei-48"/>
       <use x="100" xlink:href="#SimHei-49"/>
       <use x="150" xlink:href="#SimHei-55"/>
      </g>
     </g>
    </g>
    <g id="xtick_46">
     <g id="line2d_58">
      <g>
       <use style="stroke:#000000;stroke-width:0.8;" x="557.7984" xlink:href="#mab67710806" y="622.08"/>
      </g>
     </g>
     <g id="text_59">
      <!-- 2018 -->
      <g transform="translate(547.849008 636.303001)rotate(-1)scale(0.1 -0.1)">
       <use xlink:href="#SimHei-50"/>
       <use x="50" xlink:href="#SimHei-48"/>
       <use x="100" xlink:href="#SimHei-49"/>
       <use x="150" xlink:href="#SimHei-56"/>
      </g>
     </g>
    </g>
    <g id="xtick_47">
     <g id="line2d_59">
      <g>
       <use style="stroke:#000000;stroke-width:0.8;" x="579.2256" xlink:href="#mab67710806" y="622.08"/>
      </g>
     </g>
     <g id="text_60">
      <!-- 2019 -->
      <g transform="translate(569.276208 636.303001)rotate(-1)scale(0.1 -0.1)">
       <use xlink:href="#SimHei-50"/>
       <use x="50" xlink:href="#SimHei-48"/>
       <use x="100" xlink:href="#SimHei-49"/>
       <use x="150" xlink:href="#SimHei-57"/>
      </g>
     </g>
    </g>
    <g id="xtick_48">
     <g id="line2d_60">
      <g>
       <use style="stroke:#000000;stroke-width:0.8;" x="600.6528" xlink:href="#mab67710806" y="622.08"/>
      </g>
     </g>
     <g id="text_61">
      <!-- 2020 -->
      <g transform="translate(590.703408 636.303001)rotate(-1)scale(0.1 -0.1)">
       <use xlink:href="#SimHei-50"/>
       <use x="50" xlink:href="#SimHei-48"/>
       <use x="100" xlink:href="#SimHei-50"/>
       <use x="150" xlink:href="#SimHei-48"/>
      </g>
     </g>
    </g>
    <g id="text_62">
     <!-- Time (Year) -->
     <g transform="translate(326.74 648.857498)scale(0.1 -0.1)">
      <use xlink:href="#SimHei-84"/>
      <use x="50" xlink:href="#SimHei-105"/>
      <use x="100" xlink:href="#SimHei-109"/>
      <use x="150" xlink:href="#SimHei-101"/>
      <use x="200" xlink:href="#SimHei-32"/>
      <use x="250" xlink:href="#SimHei-40"/>
      <use x="300" xlink:href="#SimHei-89"/>
      <use x="350" xlink:href="#SimHei-101"/>
      <use x="400" xlink:href="#SimHei-97"/>
      <use x="450" xlink:href="#SimHei-114"/>
      <use x="500" xlink:href="#SimHei-41"/>
     </g>
    </g>
   </g>
   <g id="matplotlib.axis_4">
    <g id="ytick_10">
     <g id="line2d_61">
      <g>
       <use style="stroke:#000000;stroke-width:0.8;" x="86.4" xlink:href="#m5dcc55c8f0" y="622.08"/>
      </g>
     </g>
     <g id="text_63">
      <!-- 0 -->
      <g transform="translate(74.4 625.5175)scale(0.1 -0.1)">
       <use xlink:href="#SimHei-48"/>
      </g>
     </g>
    </g>
    <g id="ytick_11">
     <g id="line2d_62">
      <g>
       <use style="stroke:#000000;stroke-width:0.8;" x="86.4" xlink:href="#m5dcc55c8f0" y="591.447273"/>
      </g>
     </g>
     <g id="text_64">
      <!-- 500 -->
      <g transform="translate(64.4 594.884773)scale(0.1 -0.1)">
       <use xlink:href="#SimHei-53"/>
       <use x="50" xlink:href="#SimHei-48"/>
       <use x="100" xlink:href="#SimHei-48"/>
      </g>
     </g>
    </g>
    <g id="ytick_12">
     <g id="line2d_63">
      <g>
       <use style="stroke:#000000;stroke-width:0.8;" x="86.4" xlink:href="#m5dcc55c8f0" y="560.814545"/>
      </g>
     </g>
     <g id="text_65">
      <!-- 1000 -->
      <g transform="translate(59.4 564.252045)scale(0.1 -0.1)">
       <use xlink:href="#SimHei-49"/>
       <use x="50" xlink:href="#SimHei-48"/>
       <use x="100" xlink:href="#SimHei-48"/>
       <use x="150" xlink:href="#SimHei-48"/>
      </g>
     </g>
    </g>
    <g id="ytick_13">
     <g id="line2d_64">
      <g>
       <use style="stroke:#000000;stroke-width:0.8;" x="86.4" xlink:href="#m5dcc55c8f0" y="530.181818"/>
      </g>
     </g>
     <g id="text_66">
      <!-- 1500 -->
      <g transform="translate(59.4 533.619318)scale(0.1 -0.1)">
       <use xlink:href="#SimHei-49"/>
       <use x="50" xlink:href="#SimHei-53"/>
       <use x="100" xlink:href="#SimHei-48"/>
       <use x="150" xlink:href="#SimHei-48"/>
      </g>
     </g>
    </g>
    <g id="ytick_14">
     <g id="line2d_65">
      <g>
       <use style="stroke:#000000;stroke-width:0.8;" x="86.4" xlink:href="#m5dcc55c8f0" y="499.549091"/>
      </g>
     </g>
     <g id="text_67">
      <!-- 2000 -->
      <g transform="translate(59.4 502.986591)scale(0.1 -0.1)">
       <use xlink:href="#SimHei-50"/>
       <use x="50" xlink:href="#SimHei-48"/>
       <use x="100" xlink:href="#SimHei-48"/>
       <use x="150" xlink:href="#SimHei-48"/>
      </g>
     </g>
    </g>
    <g id="ytick_15">
     <g id="line2d_66">
      <g>
       <use style="stroke:#000000;stroke-width:0.8;" x="86.4" xlink:href="#m5dcc55c8f0" y="468.916364"/>
      </g>
     </g>
     <g id="text_68">
      <!-- 2500 -->
      <g transform="translate(59.4 472.353864)scale(0.1 -0.1)">
       <use xlink:href="#SimHei-50"/>
       <use x="50" xlink:href="#SimHei-53"/>
       <use x="100" xlink:href="#SimHei-48"/>
       <use x="150" xlink:href="#SimHei-48"/>
      </g>
     </g>
    </g>
    <g id="ytick_16">
     <g id="line2d_67">
      <g>
       <use style="stroke:#000000;stroke-width:0.8;" x="86.4" xlink:href="#m5dcc55c8f0" y="438.283636"/>
      </g>
     </g>
     <g id="text_69">
      <!-- 3000 -->
      <g transform="translate(59.4 441.721136)scale(0.1 -0.1)">
       <use xlink:href="#SimHei-51"/>
       <use x="50" xlink:href="#SimHei-48"/>
       <use x="100" xlink:href="#SimHei-48"/>
       <use x="150" xlink:href="#SimHei-48"/>
      </g>
     </g>
    </g>
    <g id="ytick_17">
     <g id="line2d_68">
      <g>
       <use style="stroke:#000000;stroke-width:0.8;" x="86.4" xlink:href="#m5dcc55c8f0" y="407.650909"/>
      </g>
     </g>
     <g id="text_70">
      <!-- 3500 -->
      <g transform="translate(59.4 411.088409)scale(0.1 -0.1)">
       <use xlink:href="#SimHei-51"/>
       <use x="50" xlink:href="#SimHei-53"/>
       <use x="100" xlink:href="#SimHei-48"/>
       <use x="150" xlink:href="#SimHei-48"/>
      </g>
     </g>
    </g>
    <g id="ytick_18">
     <g id="line2d_69">
      <g>
       <use style="stroke:#000000;stroke-width:0.8;" x="86.4" xlink:href="#m5dcc55c8f0" y="377.018182"/>
      </g>
     </g>
     <g id="text_71">
      <!-- 4000 -->
      <g transform="translate(59.4 380.455682)scale(0.1 -0.1)">
       <use xlink:href="#SimHei-52"/>
       <use x="50" xlink:href="#SimHei-48"/>
       <use x="100" xlink:href="#SimHei-48"/>
       <use x="150" xlink:href="#SimHei-48"/>
      </g>
     </g>
    </g>
    <g id="text_72">
     <!-- Numbers (10Ks) -->
     <g transform="translate(-14.6 375.768182)scale(0.1 -0.1)">
      <defs>
       <path d="M 47.65625 1.953125 
L 37.5 1.953125 
L 19.53125 35.15625 
L 13.28125 26.953125 
L 13.28125 1.953125 
L 4.296875 1.953125 
L 4.296875 68.75 
L 13.28125 68.75 
L 13.28125 39.84375 
L 35.546875 68.75 
L 46.09375 68.75 
L 25.390625 42.578125 
z
" id="SimHei-75"/>
      </defs>
      <use xlink:href="#SimHei-78"/>
      <use x="50" xlink:href="#SimHei-117"/>
      <use x="100" xlink:href="#SimHei-109"/>
      <use x="150" xlink:href="#SimHei-98"/>
      <use x="200" xlink:href="#SimHei-101"/>
      <use x="250" xlink:href="#SimHei-114"/>
      <use x="300" xlink:href="#SimHei-115"/>
      <use x="350" xlink:href="#SimHei-32"/>
      <use x="400" xlink:href="#SimHei-40"/>
      <use x="450" xlink:href="#SimHei-49"/>
      <use x="500" xlink:href="#SimHei-48"/>
      <use x="550" xlink:href="#SimHei-75"/>
      <use x="600" xlink:href="#SimHei-115"/>
      <use x="650" xlink:href="#SimHei-41"/>
     </g>
    </g>
   </g>
   <g id="line2d_70">
    <path clip-path="url(#p3428c82879)" d="M 107.8272 606.641105 
L 129.2544 606.028451 
L 150.6816 602.352524 
L 172.1088 591.324742 
L 193.536 578.091404 
L 214.9632 568.043869 
L 236.3904 551.257135 
L 257.8176 537.962531 
L 279.2448 524.790458 
L 300.672 512.23104 
L 322.0992 506.533353 
L 343.5264 499.058967 
L 364.9536 492.932422 
L 386.3808 488.153716 
L 407.808 483.191215 
L 429.2352 477.003404 
L 450.6624 471.489513 
L 472.0896 466.098153 
L 493.5168 461.68704 
L 514.944 457.888582 
L 536.3712 453.6 
L 557.7984 445.451695 
L 579.2256 430.931782 
L 600.6528 420.884247 
" style="fill:none;stroke:#008000;stroke-linecap:square;stroke-width:1.5;"/>
    <defs>
     <path d="M 0 3 
C 0.795609 3 1.55874 2.683901 2.12132 2.12132 
C 2.683901 1.55874 3 0.795609 3 0 
C 3 -0.795609 2.683901 -1.55874 2.12132 -2.12132 
C 1.55874 -2.683901 0.795609 -3 0 -3 
C -0.795609 -3 -1.55874 -2.683901 -2.12132 -2.12132 
C -2.683901 -1.55874 -3 -0.795609 -3 0 
C -3 0.795609 -2.683901 1.55874 -2.12132 2.12132 
C -1.55874 2.683901 -0.795609 3 0 3 
z
" id="m116e6505e7" style="stroke:#008000;"/>
    </defs>
    <g clip-path="url(#p3428c82879)">
     <use style="fill:#ffffff;stroke:#008000;" x="107.8272" xlink:href="#m116e6505e7" y="606.641105"/>
     <use style="fill:#ffffff;stroke:#008000;" x="129.2544" xlink:href="#m116e6505e7" y="606.028451"/>
     <use style="fill:#ffffff;stroke:#008000;" x="150.6816" xlink:href="#m116e6505e7" y="602.352524"/>
     <use style="fill:#ffffff;stroke:#008000;" x="172.1088" xlink:href="#m116e6505e7" y="591.324742"/>
     <use style="fill:#ffffff;stroke:#008000;" x="193.536" xlink:href="#m116e6505e7" y="578.091404"/>
     <use style="fill:#ffffff;stroke:#008000;" x="214.9632" xlink:href="#m116e6505e7" y="568.043869"/>
     <use style="fill:#ffffff;stroke:#008000;" x="236.3904" xlink:href="#m116e6505e7" y="551.257135"/>
     <use style="fill:#ffffff;stroke:#008000;" x="257.8176" xlink:href="#m116e6505e7" y="537.962531"/>
     <use style="fill:#ffffff;stroke:#008000;" x="279.2448" xlink:href="#m116e6505e7" y="524.790458"/>
     <use style="fill:#ffffff;stroke:#008000;" x="300.672" xlink:href="#m116e6505e7" y="512.23104"/>
     <use style="fill:#ffffff;stroke:#008000;" x="322.0992" xlink:href="#m116e6505e7" y="506.533353"/>
     <use style="fill:#ffffff;stroke:#008000;" x="343.5264" xlink:href="#m116e6505e7" y="499.058967"/>
     <use style="fill:#ffffff;stroke:#008000;" x="364.9536" xlink:href="#m116e6505e7" y="492.932422"/>
     <use style="fill:#ffffff;stroke:#008000;" x="386.3808" xlink:href="#m116e6505e7" y="488.153716"/>
     <use style="fill:#ffffff;stroke:#008000;" x="407.808" xlink:href="#m116e6505e7" y="483.191215"/>
     <use style="fill:#ffffff;stroke:#008000;" x="429.2352" xlink:href="#m116e6505e7" y="477.003404"/>
     <use style="fill:#ffffff;stroke:#008000;" x="450.6624" xlink:href="#m116e6505e7" y="471.489513"/>
     <use style="fill:#ffffff;stroke:#008000;" x="472.0896" xlink:href="#m116e6505e7" y="466.098153"/>
     <use style="fill:#ffffff;stroke:#008000;" x="493.5168" xlink:href="#m116e6505e7" y="461.68704"/>
     <use style="fill:#ffffff;stroke:#008000;" x="514.944" xlink:href="#m116e6505e7" y="457.888582"/>
     <use style="fill:#ffffff;stroke:#008000;" x="536.3712" xlink:href="#m116e6505e7" y="453.6"/>
     <use style="fill:#ffffff;stroke:#008000;" x="557.7984" xlink:href="#m116e6505e7" y="445.451695"/>
     <use style="fill:#ffffff;stroke:#008000;" x="579.2256" xlink:href="#m116e6505e7" y="430.931782"/>
     <use style="fill:#ffffff;stroke:#008000;" x="600.6528" xlink:href="#m116e6505e7" y="420.884247"/>
    </g>
   </g>
   <g id="line2d_71">
    <path clip-path="url(#p3428c82879)" d="M 107.8272 621.773673 
L 129.2544 621.161018 
L 150.6816 620.548364 
L 172.1088 619.935709 
L 193.536 619.323055 
L 214.9632 618.649135 
L 236.3904 618.03648 
L 257.8176 617.36256 
L 279.2448 616.749905 
L 300.672 616.137251 
L 322.0992 615.524596 
L 343.5264 614.911942 
L 364.9536 614.299287 
L 386.3808 613.686633 
L 407.808 613.073978 
L 429.2352 612.338793 
L 450.6624 611.787404 
L 472.0896 611.236015 
L 493.5168 610.684625 
L 514.944 610.071971 
L 536.3712 609.459316 
L 557.7984 608.846662 
L 579.2256 608.234007 
L 600.6528 607.621353 
" style="fill:none;stroke:#008000;stroke-linecap:square;stroke-width:1.5;"/>
    <defs>
     <path d="M 0 1.5 
C 0.397805 1.5 0.77937 1.341951 1.06066 1.06066 
C 1.341951 0.77937 1.5 0.397805 1.5 0 
C 1.5 -0.397805 1.341951 -0.77937 1.06066 -1.06066 
C 0.77937 -1.341951 0.397805 -1.5 0 -1.5 
C -0.397805 -1.5 -0.77937 -1.341951 -1.06066 -1.06066 
C -1.341951 -0.77937 -1.5 -0.397805 -1.5 0 
C -1.5 0.397805 -1.341951 0.77937 -1.06066 1.06066 
C -0.77937 1.341951 -0.397805 1.5 0 1.5 
z
" id="ma46d67f21e" style="stroke:#008000;"/>
    </defs>
    <g clip-path="url(#p3428c82879)">
     <use style="fill:#ffffff;stroke:#008000;" x="107.8272" xlink:href="#ma46d67f21e" y="621.773673"/>
     <use style="fill:#ffffff;stroke:#008000;" x="129.2544" xlink:href="#ma46d67f21e" y="621.161018"/>
     <use style="fill:#ffffff;stroke:#008000;" x="150.6816" xlink:href="#ma46d67f21e" y="620.548364"/>
     <use style="fill:#ffffff;stroke:#008000;" x="172.1088" xlink:href="#ma46d67f21e" y="619.935709"/>
     <use style="fill:#ffffff;stroke:#008000;" x="193.536" xlink:href="#ma46d67f21e" y="619.323055"/>
     <use style="fill:#ffffff;stroke:#008000;" x="214.9632" xlink:href="#ma46d67f21e" y="618.649135"/>
     <use style="fill:#ffffff;stroke:#008000;" x="236.3904" xlink:href="#ma46d67f21e" y="618.03648"/>
     <use style="fill:#ffffff;stroke:#008000;" x="257.8176" xlink:href="#ma46d67f21e" y="617.36256"/>
     <use style="fill:#ffffff;stroke:#008000;" x="279.2448" xlink:href="#ma46d67f21e" y="616.749905"/>
     <use style="fill:#ffffff;stroke:#008000;" x="300.672" xlink:href="#ma46d67f21e" y="616.137251"/>
     <use style="fill:#ffffff;stroke:#008000;" x="322.0992" xlink:href="#ma46d67f21e" y="615.524596"/>
     <use style="fill:#ffffff;stroke:#008000;" x="343.5264" xlink:href="#ma46d67f21e" y="614.911942"/>
     <use style="fill:#ffffff;stroke:#008000;" x="364.9536" xlink:href="#ma46d67f21e" y="614.299287"/>
     <use style="fill:#ffffff;stroke:#008000;" x="386.3808" xlink:href="#ma46d67f21e" y="613.686633"/>
     <use style="fill:#ffffff;stroke:#008000;" x="407.808" xlink:href="#ma46d67f21e" y="613.073978"/>
     <use style="fill:#ffffff;stroke:#008000;" x="429.2352" xlink:href="#ma46d67f21e" y="612.338793"/>
     <use style="fill:#ffffff;stroke:#008000;" x="450.6624" xlink:href="#ma46d67f21e" y="611.787404"/>
     <use style="fill:#ffffff;stroke:#008000;" x="472.0896" xlink:href="#ma46d67f21e" y="611.236015"/>
     <use style="fill:#ffffff;stroke:#008000;" x="493.5168" xlink:href="#ma46d67f21e" y="610.684625"/>
     <use style="fill:#ffffff;stroke:#008000;" x="514.944" xlink:href="#ma46d67f21e" y="610.071971"/>
     <use style="fill:#ffffff;stroke:#008000;" x="536.3712" xlink:href="#ma46d67f21e" y="609.459316"/>
     <use style="fill:#ffffff;stroke:#008000;" x="557.7984" xlink:href="#ma46d67f21e" y="608.846662"/>
     <use style="fill:#ffffff;stroke:#008000;" x="579.2256" xlink:href="#ma46d67f21e" y="608.234007"/>
     <use style="fill:#ffffff;stroke:#008000;" x="600.6528" xlink:href="#ma46d67f21e" y="607.621353"/>
    </g>
   </g>
   <g id="patch_9">
    <path d="M 86.4 622.08 
L 86.4 377.018182 
" style="fill:none;"/>
   </g>
   <g id="patch_10">
    <path d="M 622.08 622.08 
L 622.08 377.018182 
" style="fill:none;"/>
   </g>
   <g id="patch_11">
    <path d="M 86.4 622.08 
L 622.08 622.08 
" style="fill:none;"/>
   </g>
   <g id="patch_12">
    <path d="M 86.4 377.018182 
L 622.08 377.018182 
" style="fill:none;"/>
   </g>
   <g id="text_73">
    <!-- The number of Chinese students and teachers -->
    <g transform="translate(225.24 371.252523)scale(0.12 -0.12)">
     <use xlink:href="#SimHei-84"/>
     <use x="50" xlink:href="#SimHei-104"/>
     <use x="100" xlink:href="#SimHei-101"/>
     <use x="150" xlink:href="#SimHei-32"/>
     <use x="200" xlink:href="#SimHei-110"/>
     <use x="250" xlink:href="#SimHei-117"/>
     <use x="300" xlink:href="#SimHei-109"/>
     <use x="350" xlink:href="#SimHei-98"/>
     <use x="400" xlink:href="#SimHei-101"/>
     <use x="450" xlink:href="#SimHei-114"/>
     <use x="500" xlink:href="#SimHei-32"/>
     <use x="550" xlink:href="#SimHei-111"/>
     <use x="600" xlink:href="#SimHei-102"/>
     <use x="650" xlink:href="#SimHei-32"/>
     <use x="700" xlink:href="#SimHei-67"/>
     <use x="750" xlink:href="#SimHei-104"/>
     <use x="800" xlink:href="#SimHei-105"/>
     <use x="850" xlink:href="#SimHei-110"/>
     <use x="900" xlink:href="#SimHei-101"/>
     <use x="950" xlink:href="#SimHei-115"/>
     <use x="1000" xlink:href="#SimHei-101"/>
     <use x="1050" xlink:href="#SimHei-32"/>
     <use x="1100" xlink:href="#SimHei-115"/>
     <use x="1150" xlink:href="#SimHei-116"/>
     <use x="1200" xlink:href="#SimHei-117"/>
     <use x="1250" xlink:href="#SimHei-100"/>
     <use x="1300" xlink:href="#SimHei-101"/>
     <use x="1350" xlink:href="#SimHei-110"/>
     <use x="1400" xlink:href="#SimHei-116"/>
     <use x="1450" xlink:href="#SimHei-115"/>
     <use x="1500" xlink:href="#SimHei-32"/>
     <use x="1550" xlink:href="#SimHei-97"/>
     <use x="1600" xlink:href="#SimHei-110"/>
     <use x="1650" xlink:href="#SimHei-100"/>
     <use x="1700" xlink:href="#SimHei-32"/>
     <use x="1750" xlink:href="#SimHei-116"/>
     <use x="1800" xlink:href="#SimHei-101"/>
     <use x="1850" xlink:href="#SimHei-97"/>
     <use x="1900" xlink:href="#SimHei-99"/>
     <use x="1950" xlink:href="#SimHei-104"/>
     <use x="2000" xlink:href="#SimHei-101"/>
     <use x="2050" xlink:href="#SimHei-114"/>
     <use x="2100" xlink:href="#SimHei-115"/>
    </g>
    <!-- (1997-2020) -->
    <g transform="translate(321.24 383.271273)scale(0.12 -0.12)">
     <use xlink:href="#SimHei-40"/>
     <use x="50" xlink:href="#SimHei-49"/>
     <use x="100" xlink:href="#SimHei-57"/>
     <use x="150" xlink:href="#SimHei-57"/>
     <use x="200" xlink:href="#SimHei-55"/>
     <use x="250" xlink:href="#SimHei-45"/>
     <use x="300" xlink:href="#SimHei-50"/>
     <use x="350" xlink:href="#SimHei-48"/>
     <use x="400" xlink:href="#SimHei-50"/>
     <use x="450" xlink:href="#SimHei-48"/>
     <use x="500" xlink:href="#SimHei-41"/>
    </g>
   </g>
   <g id="legend_2">
    <g id="patch_13">
     <path d="M 543.08 411.518182 
L 615.08 411.518182 
Q 617.08 411.518182 617.08 409.518182 
L 617.08 384.018182 
Q 617.08 382.018182 615.08 382.018182 
L 543.08 382.018182 
Q 541.08 382.018182 541.08 384.018182 
L 541.08 409.518182 
Q 541.08 411.518182 543.08 411.518182 
z
" style="fill:#ffffff;opacity:0.8;stroke:#cccccc;stroke-linejoin:miter;"/>
    </g>
    <g id="line2d_72">
     <path d="M 545.08 389.518182 
L 565.08 389.518182 
" style="fill:none;stroke:#008000;stroke-linecap:square;stroke-width:1.5;"/>
    </g>
    <g id="line2d_73">
     <g>
      <use style="fill:#ffffff;stroke:#008000;" x="555.08" xlink:href="#m116e6505e7" y="389.518182"/>
     </g>
    </g>
    <g id="text_74">
     <!-- Students -->
     <g transform="translate(573.08 393.018182)scale(0.1 -0.1)">
      <defs>
       <path d="M 45.3125 20.703125 
Q 45.3125 11.71875 39.640625 6.4375 
Q 33.984375 1.171875 24.21875 1.171875 
Q 14.453125 1.171875 8.984375 6.640625 
Q 3.515625 12.109375 3.515625 20.3125 
L 3.515625 23.046875 
L 12.5 23.046875 
L 12.5 20.703125 
Q 12.5 14.84375 16.015625 11.71875 
Q 19.53125 8.59375 24.21875 8.59375 
Q 30.46875 8.59375 33.390625 11.90625 
Q 36.328125 15.234375 36.328125 19.921875 
Q 36.328125 23.828125 32.8125 27.140625 
Q 29.296875 30.46875 22.65625 33.203125 
Q 13.28125 36.71875 9.171875 41.015625 
Q 5.078125 45.3125 5.078125 51.171875 
Q 5.078125 59.375 10.734375 64.453125 
Q 16.40625 69.53125 24.21875 69.53125 
Q 34.375 69.53125 38.859375 63.46875 
Q 43.359375 57.421875 43.359375 50.390625 
L 34.375 50.390625 
Q 34.765625 54.6875 32.03125 58.203125 
Q 29.296875 61.71875 24.21875 61.71875 
Q 19.53125 61.71875 16.796875 59.171875 
Q 14.0625 56.640625 14.0625 52.34375 
Q 14.0625 48.828125 16.203125 46.28125 
Q 18.359375 43.75 27.34375 40.234375 
Q 35.9375 36.71875 40.625 31.828125 
Q 45.3125 26.953125 45.3125 20.703125 
z
" id="SimHei-83"/>
      </defs>
      <use xlink:href="#SimHei-83"/>
      <use x="50" xlink:href="#SimHei-116"/>
      <use x="100" xlink:href="#SimHei-117"/>
      <use x="150" xlink:href="#SimHei-100"/>
      <use x="200" xlink:href="#SimHei-101"/>
      <use x="250" xlink:href="#SimHei-110"/>
      <use x="300" xlink:href="#SimHei-116"/>
      <use x="350" xlink:href="#SimHei-115"/>
     </g>
    </g>
    <g id="line2d_74">
     <path d="M 545.08 402.768182 
L 565.08 402.768182 
" style="fill:none;stroke:#008000;stroke-linecap:square;stroke-width:1.5;"/>
    </g>
    <g id="line2d_75">
     <g>
      <use style="fill:#ffffff;stroke:#008000;" x="555.08" xlink:href="#ma46d67f21e" y="402.768182"/>
     </g>
    </g>
    <g id="text_75">
     <!-- Teachers -->
     <g transform="translate(573.08 406.268182)scale(0.1 -0.1)">
      <use xlink:href="#SimHei-84"/>
      <use x="50" xlink:href="#SimHei-101"/>
      <use x="100" xlink:href="#SimHei-97"/>
      <use x="150" xlink:href="#SimHei-99"/>
      <use x="200" xlink:href="#SimHei-104"/>
      <use x="250" xlink:href="#SimHei-101"/>
      <use x="300" xlink:href="#SimHei-114"/>
      <use x="350" xlink:href="#SimHei-115"/>
     </g>
    </g>
   </g>
  </g>
 </g>
 <defs>
  <clipPath id="p9c77f07936">
   <rect height="245.061818" width="535.68" x="86.4" y="82.944"/>
  </clipPath>
  <clipPath id="p3428c82879">
   <rect height="245.061818" width="535.68" x="86.4" y="377.018182"/>
  </clipPath>
 </defs>
</svg>
