<?xml version="1.0" encoding="utf-8" standalone="no"?>
<!DOCTYPE svg PUBLIC "-//W3C//DTD SVG 1.1//EN"
  "http://www.w3.org/Graphics/SVG/1.1/DTD/svg11.dtd">
<svg xmlns:xlink="http://www.w3.org/1999/xlink" width="403.2pt" height="518.4pt" viewBox="0 0 403.2 518.4" xmlns="http://www.w3.org/2000/svg" version="1.1">
 <metadata>
  <rdf:RDF xmlns:dc="http://purl.org/dc/elements/1.1/" xmlns:cc="http://creativecommons.org/ns#" xmlns:rdf="http://www.w3.org/1999/02/22-rdf-syntax-ns#">
   <cc:Work>
    <dc:type rdf:resource="http://purl.org/dc/dcmitype/StillImage"/>
    <dc:date>2022-10-24T18:43:56.905337</dc:date>
    <dc:format>image/svg+xml</dc:format>
    <dc:creator>
     <cc:Agent>
      <dc:title>Matplotlib v3.5.3, https://matplotlib.org/</dc:title>
     </cc:Agent>
    </dc:creator>
   </cc:Work>
  </rdf:RDF>
 </metadata>
 <defs>
  <style type="text/css">*{stroke-linejoin: round; stroke-linecap: butt}</style>
 </defs>
 <g id="figure_1">
  <g id="patch_1">
   <path d="M 0 518.4 
L 403.2 518.4 
L 403.2 0 
L 0 0 
L 0 518.4 
z
" style="fill: none"/>
  </g>
  <g id="axes_1">
   <g id="patch_2">
    <path d="M 50.4 453.6 
L 362.88 453.6 
L 362.88 62.208 
L 50.4 62.208 
z
" style="fill: #ffffff"/>
   </g>
   <g id="PolyCollection_1">
    <path d="M 64.603636 402.2298 
L 64.603636 404.676 
L 76.44 404.43138 
L 88.276364 403.94214 
L 100.112727 403.69752 
L 111.949091 398.5605 
L 123.785455 388.89801 
L 135.621818 379.11321 
L 147.458182 369.32841 
L 159.294545 364.43601 
L 171.130909 360.15516 
L 182.967273 350.12574 
L 194.803636 346.45644 
L 206.64 344.25486 
L 218.476364 341.80866 
L 230.312727 339.36246 
L 242.149091 336.818412 
L 253.985455 334.47006 
L 265.821818 332.14617 
L 277.658182 329.94459 
L 289.494545 327.74301 
L 301.330909 325.54143 
L 313.167273 323.33985 
L 325.003636 321.01596 
L 336.84 318.81438 
L 336.84 307.80648 
L 336.84 307.80648 
L 325.003636 310.4973 
L 313.167273 313.31043 
L 301.330909 316.00125 
L 289.494545 318.69207 
L 277.658182 321.38289 
L 265.821818 324.07371 
L 253.985455 326.64222 
L 242.149091 329.33304 
L 230.312727 331.77924 
L 218.476364 334.47006 
L 206.64 337.16088 
L 194.803636 339.8517 
L 182.967273 343.27638 
L 171.130909 355.01814 
L 159.294545 359.54361 
L 147.458182 364.92525 
L 135.621818 374.95467 
L 123.785455 385.22871 
L 111.949091 394.64658 
L 100.112727 401.0067 
L 88.276364 399.04974 
L 76.44 401.98518 
L 64.603636 402.2298 
z
" clip-path="url(#p2e3991f7db)" style="fill: #0000ff; fill-opacity: 0.6"/>
   </g>
   <g id="matplotlib.axis_1">
    <g id="xtick_1">
     <g id="line2d_1">
      <defs>
       <path id="mb7a2a5cee7" d="M 0 0 
L 0 3.5 
" style="stroke: #000000; stroke-width: 0.8"/>
      </defs>
      <g>
       <use xlink:href="#mb7a2a5cee7" x="64.603636" y="453.6" style="stroke: #000000; stroke-width: 0.8"/>
      </g>
     </g>
     <g id="text_1">
      <!-- 1997 -->
      <g transform="translate(67.416136 480.6)rotate(-90)scale(0.1 -0.1)">
       <defs>
        <path id="SimHei-31" d="M 1400 3600 
Q 1075 3275 575 2975 
L 575 3450 
Q 1200 3875 1600 4450 
L 1900 4450 
L 1900 150 
L 1400 150 
L 1400 3600 
z
" transform="scale(0.015625)"/>
        <path id="SimHei-39" d="M 800 75 
Q 1350 1000 1700 1750 
Q 1075 1650 662 1912 
Q 250 2175 162 2625 
Q 75 3075 175 3437 
Q 275 3800 487 4037 
Q 700 4275 1000 4375 
Q 1300 4475 1537 4475 
Q 1775 4475 2025 4375 
Q 2275 4275 2475 4075 
Q 2675 3875 2750 3662 
Q 2825 3450 2825 3112 
Q 2825 2775 2575 2250 
Q 2325 1725 1350 75 
L 800 75 
z
M 662 2875 
Q 700 2550 937 2337 
Q 1175 2125 1450 2150 
Q 1725 2175 1887 2300 
Q 2050 2425 2200 2725 
Q 2300 3100 2250 3362 
Q 2200 3625 1987 3800 
Q 1775 3975 1525 3975 
Q 1375 4000 1137 3900 
Q 900 3800 762 3500 
Q 625 3200 662 2875 
z
" transform="scale(0.015625)"/>
        <path id="SimHei-37" d="M 850 150 
Q 1300 2050 2425 3925 
L 275 3925 
L 275 4375 
L 2950 4375 
L 2950 3950 
Q 1775 2050 1400 150 
L 850 150 
z
" transform="scale(0.015625)"/>
       </defs>
       <use xlink:href="#SimHei-31"/>
       <use xlink:href="#SimHei-39" x="50"/>
       <use xlink:href="#SimHei-39" x="100"/>
       <use xlink:href="#SimHei-37" x="150"/>
      </g>
     </g>
    </g>
    <g id="xtick_2">
     <g id="line2d_2">
      <g>
       <use xlink:href="#mb7a2a5cee7" x="76.44" y="453.6" style="stroke: #000000; stroke-width: 0.8"/>
      </g>
     </g>
     <g id="text_2">
      <!-- 1998 -->
      <g transform="translate(79.2525 480.6)rotate(-90)scale(0.1 -0.1)">
       <defs>
        <path id="SimHei-38" d="M 175 1375 
Q 175 1675 325 1962 
Q 475 2250 825 2425 
Q 525 2600 425 2812 
Q 325 3025 312 3300 
Q 300 3575 387 3775 
Q 475 3975 650 4150 
Q 825 4325 1037 4387 
Q 1250 4450 1500 4450 
Q 1750 4450 1950 4400 
Q 2150 4350 2375 4187 
Q 2600 4025 2700 3725 
Q 2800 3425 2687 3025 
Q 2575 2625 2100 2400 
Q 2525 2275 2700 2012 
Q 2875 1750 2875 1375 
Q 2875 1000 2762 775 
Q 2650 550 2512 400 
Q 2375 250 2137 162 
Q 1900 75 1537 75 
Q 1175 75 912 162 
Q 650 250 475 425 
Q 300 600 237 837 
Q 175 1075 175 1375 
z
M 687 1400 
Q 675 1100 787 875 
Q 900 650 1200 587 
Q 1500 525 1825 600 
Q 2150 675 2275 950 
Q 2400 1225 2362 1500 
Q 2325 1775 2050 1962 
Q 1775 2150 1450 2125 
Q 1125 2100 912 1900 
Q 700 1700 687 1400 
z
M 775 3350 
Q 775 3100 950 2875 
Q 1125 2650 1500 2650 
Q 1875 2650 2062 2875 
Q 2250 3100 2237 3412 
Q 2225 3725 2012 3875 
Q 1800 4025 1437 4000 
Q 1075 3975 925 3787 
Q 775 3600 775 3350 
z
" transform="scale(0.015625)"/>
       </defs>
       <use xlink:href="#SimHei-31"/>
       <use xlink:href="#SimHei-39" x="50"/>
       <use xlink:href="#SimHei-39" x="100"/>
       <use xlink:href="#SimHei-38" x="150"/>
      </g>
     </g>
    </g>
    <g id="xtick_3">
     <g id="line2d_3">
      <g>
       <use xlink:href="#mb7a2a5cee7" x="88.276364" y="453.6" style="stroke: #000000; stroke-width: 0.8"/>
      </g>
     </g>
     <g id="text_3">
      <!-- 1999 -->
      <g transform="translate(91.088864 480.6)rotate(-90)scale(0.1 -0.1)">
       <use xlink:href="#SimHei-31"/>
       <use xlink:href="#SimHei-39" x="50"/>
       <use xlink:href="#SimHei-39" x="100"/>
       <use xlink:href="#SimHei-39" x="150"/>
      </g>
     </g>
    </g>
    <g id="xtick_4">
     <g id="line2d_4">
      <g>
       <use xlink:href="#mb7a2a5cee7" x="100.112727" y="453.6" style="stroke: #000000; stroke-width: 0.8"/>
      </g>
     </g>
     <g id="text_4">
      <!-- 2000 -->
      <g transform="translate(102.925227 480.6)rotate(-90)scale(0.1 -0.1)">
       <defs>
        <path id="SimHei-32" d="M 300 250 
Q 325 625 650 925 
Q 975 1225 1475 1862 
Q 1975 2500 2125 2850 
Q 2275 3200 2237 3450 
Q 2200 3700 2000 3862 
Q 1800 4025 1537 4000 
Q 1275 3975 1037 3800 
Q 800 3625 675 3275 
L 200 3350 
Q 400 3925 712 4187 
Q 1025 4450 1450 4475 
Q 1700 4500 1900 4462 
Q 2100 4425 2312 4287 
Q 2525 4150 2662 3875 
Q 2800 3600 2762 3212 
Q 2725 2825 2375 2287 
Q 2025 1750 1025 600 
L 2825 600 
L 2825 150 
L 300 150 
L 300 250 
z
" transform="scale(0.015625)"/>
        <path id="SimHei-30" d="M 225 2537 
Q 250 3200 412 3587 
Q 575 3975 875 4225 
Q 1175 4475 1612 4475 
Q 2050 4475 2375 4112 
Q 2700 3750 2800 3200 
Q 2900 2650 2862 1937 
Q 2825 1225 2612 775 
Q 2400 325 1975 150 
Q 1550 -25 1125 187 
Q 700 400 525 750 
Q 350 1100 275 1487 
Q 200 1875 225 2537 
z
M 750 2687 
Q 675 2000 800 1462 
Q 925 925 1212 700 
Q 1500 475 1800 612 
Q 2100 750 2237 1162 
Q 2375 1575 2375 2062 
Q 2375 2550 2337 2950 
Q 2300 3350 2112 3675 
Q 1925 4000 1612 4012 
Q 1300 4025 1062 3700 
Q 825 3375 750 2687 
z
" transform="scale(0.015625)"/>
       </defs>
       <use xlink:href="#SimHei-32"/>
       <use xlink:href="#SimHei-30" x="50"/>
       <use xlink:href="#SimHei-30" x="100"/>
       <use xlink:href="#SimHei-30" x="150"/>
      </g>
     </g>
    </g>
    <g id="xtick_5">
     <g id="line2d_5">
      <g>
       <use xlink:href="#mb7a2a5cee7" x="111.949091" y="453.6" style="stroke: #000000; stroke-width: 0.8"/>
      </g>
     </g>
     <g id="text_5">
      <!-- 2001 -->
      <g transform="translate(114.761591 480.6)rotate(-90)scale(0.1 -0.1)">
       <use xlink:href="#SimHei-32"/>
       <use xlink:href="#SimHei-30" x="50"/>
       <use xlink:href="#SimHei-30" x="100"/>
       <use xlink:href="#SimHei-31" x="150"/>
      </g>
     </g>
    </g>
    <g id="xtick_6">
     <g id="line2d_6">
      <g>
       <use xlink:href="#mb7a2a5cee7" x="123.785455" y="453.6" style="stroke: #000000; stroke-width: 0.8"/>
      </g>
     </g>
     <g id="text_6">
      <!-- 2002 -->
      <g transform="translate(126.597955 480.6)rotate(-90)scale(0.1 -0.1)">
       <use xlink:href="#SimHei-32"/>
       <use xlink:href="#SimHei-30" x="50"/>
       <use xlink:href="#SimHei-30" x="100"/>
       <use xlink:href="#SimHei-32" x="150"/>
      </g>
     </g>
    </g>
    <g id="xtick_7">
     <g id="line2d_7">
      <g>
       <use xlink:href="#mb7a2a5cee7" x="135.621818" y="453.6" style="stroke: #000000; stroke-width: 0.8"/>
      </g>
     </g>
     <g id="text_7">
      <!-- 2003 -->
      <g transform="translate(138.434318 480.6)rotate(-90)scale(0.1 -0.1)">
       <defs>
        <path id="SimHei-33" d="M 250 1225 
L 700 1300 
Q 800 975 1025 762 
Q 1250 550 1587 562 
Q 1925 575 2125 837 
Q 2325 1100 2300 1437 
Q 2275 1775 2037 1962 
Q 1800 2150 1275 2225 
L 1275 2550 
Q 1800 2600 2037 2825 
Q 2275 3050 2250 3412 
Q 2225 3775 1925 3937 
Q 1625 4100 1287 3975 
Q 950 3850 750 3275 
L 300 3350 
Q 450 3800 712 4100 
Q 975 4400 1425 4450 
Q 1875 4500 2212 4337 
Q 2550 4175 2687 3837 
Q 2825 3500 2725 3100 
Q 2625 2700 2150 2400 
Q 2500 2250 2687 1950 
Q 2875 1650 2812 1162 
Q 2750 675 2375 375 
Q 2000 75 1525 87 
Q 1050 100 700 387 
Q 350 675 250 1225 
z
" transform="scale(0.015625)"/>
       </defs>
       <use xlink:href="#SimHei-32"/>
       <use xlink:href="#SimHei-30" x="50"/>
       <use xlink:href="#SimHei-30" x="100"/>
       <use xlink:href="#SimHei-33" x="150"/>
      </g>
     </g>
    </g>
    <g id="xtick_8">
     <g id="line2d_8">
      <g>
       <use xlink:href="#mb7a2a5cee7" x="147.458182" y="453.6" style="stroke: #000000; stroke-width: 0.8"/>
      </g>
     </g>
     <g id="text_8">
      <!-- 2004 -->
      <g transform="translate(150.270682 480.6)rotate(-90)scale(0.1 -0.1)">
       <defs>
        <path id="SimHei-34" d="M 2000 1100 
L 75 1100 
L 75 1525 
L 2100 4450 
L 2475 4450 
L 2475 1525 
L 3075 1525 
L 3075 1100 
L 2475 1100 
L 2475 150 
L 2000 150 
L 2000 1100 
z
M 2000 1525 
L 2000 3500 
L 600 1525 
L 2000 1525 
z
" transform="scale(0.015625)"/>
       </defs>
       <use xlink:href="#SimHei-32"/>
       <use xlink:href="#SimHei-30" x="50"/>
       <use xlink:href="#SimHei-30" x="100"/>
       <use xlink:href="#SimHei-34" x="150"/>
      </g>
     </g>
    </g>
    <g id="xtick_9">
     <g id="line2d_9">
      <g>
       <use xlink:href="#mb7a2a5cee7" x="159.294545" y="453.6" style="stroke: #000000; stroke-width: 0.8"/>
      </g>
     </g>
     <g id="text_9">
      <!-- 2005 -->
      <g transform="translate(162.107045 480.6)rotate(-90)scale(0.1 -0.1)">
       <defs>
        <path id="SimHei-35" d="M 550 1325 
Q 725 650 1150 575 
Q 1575 500 1837 662 
Q 2100 825 2212 1087 
Q 2325 1350 2312 1675 
Q 2300 2000 2137 2225 
Q 1975 2450 1725 2525 
Q 1475 2600 1162 2525 
Q 850 2450 650 2175 
L 225 2225 
Q 275 2375 700 4375 
L 2675 4375 
L 2675 3925 
L 1075 3925 
Q 950 3250 825 2850 
Q 1200 3025 1525 3012 
Q 1850 3000 2150 2862 
Q 2450 2725 2587 2487 
Q 2725 2250 2787 2012 
Q 2850 1775 2837 1500 
Q 2825 1225 2725 937 
Q 2625 650 2425 462 
Q 2225 275 1937 162 
Q 1650 50 1275 75 
Q 900 100 562 350 
Q 225 600 100 1200 
L 550 1325 
z
" transform="scale(0.015625)"/>
       </defs>
       <use xlink:href="#SimHei-32"/>
       <use xlink:href="#SimHei-30" x="50"/>
       <use xlink:href="#SimHei-30" x="100"/>
       <use xlink:href="#SimHei-35" x="150"/>
      </g>
     </g>
    </g>
    <g id="xtick_10">
     <g id="line2d_10">
      <g>
       <use xlink:href="#mb7a2a5cee7" x="171.130909" y="453.6" style="stroke: #000000; stroke-width: 0.8"/>
      </g>
     </g>
     <g id="text_10">
      <!-- 2006 -->
      <g transform="translate(173.943409 480.6)rotate(-90)scale(0.1 -0.1)">
       <defs>
        <path id="SimHei-36" d="M 250 1612 
Q 275 1975 387 2225 
Q 500 2475 725 2850 
L 1750 4450 
L 2325 4450 
L 1275 2800 
Q 1950 2975 2350 2750 
Q 2750 2525 2887 2237 
Q 3025 1950 3037 1612 
Q 3050 1275 2937 950 
Q 2825 625 2537 362 
Q 2250 100 1737 75 
Q 1225 50 862 262 
Q 500 475 362 862 
Q 225 1250 250 1612 
z
M 1025 787 
Q 1250 550 1625 525 
Q 2000 500 2250 775 
Q 2500 1050 2500 1575 
Q 2500 2100 2187 2300 
Q 1875 2500 1487 2450 
Q 1100 2400 925 2075 
Q 750 1750 775 1387 
Q 800 1025 1025 787 
z
" transform="scale(0.015625)"/>
       </defs>
       <use xlink:href="#SimHei-32"/>
       <use xlink:href="#SimHei-30" x="50"/>
       <use xlink:href="#SimHei-30" x="100"/>
       <use xlink:href="#SimHei-36" x="150"/>
      </g>
     </g>
    </g>
    <g id="xtick_11">
     <g id="line2d_11">
      <g>
       <use xlink:href="#mb7a2a5cee7" x="182.967273" y="453.6" style="stroke: #000000; stroke-width: 0.8"/>
      </g>
     </g>
     <g id="text_11">
      <!-- 2007 -->
      <g transform="translate(185.779773 480.6)rotate(-90)scale(0.1 -0.1)">
       <use xlink:href="#SimHei-32"/>
       <use xlink:href="#SimHei-30" x="50"/>
       <use xlink:href="#SimHei-30" x="100"/>
       <use xlink:href="#SimHei-37" x="150"/>
      </g>
     </g>
    </g>
    <g id="xtick_12">
     <g id="line2d_12">
      <g>
       <use xlink:href="#mb7a2a5cee7" x="194.803636" y="453.6" style="stroke: #000000; stroke-width: 0.8"/>
      </g>
     </g>
     <g id="text_12">
      <!-- 2008 -->
      <g transform="translate(197.616136 480.6)rotate(-90)scale(0.1 -0.1)">
       <use xlink:href="#SimHei-32"/>
       <use xlink:href="#SimHei-30" x="50"/>
       <use xlink:href="#SimHei-30" x="100"/>
       <use xlink:href="#SimHei-38" x="150"/>
      </g>
     </g>
    </g>
    <g id="xtick_13">
     <g id="line2d_13">
      <g>
       <use xlink:href="#mb7a2a5cee7" x="206.64" y="453.6" style="stroke: #000000; stroke-width: 0.8"/>
      </g>
     </g>
     <g id="text_13">
      <!-- 2009 -->
      <g transform="translate(209.4525 480.6)rotate(-90)scale(0.1 -0.1)">
       <use xlink:href="#SimHei-32"/>
       <use xlink:href="#SimHei-30" x="50"/>
       <use xlink:href="#SimHei-30" x="100"/>
       <use xlink:href="#SimHei-39" x="150"/>
      </g>
     </g>
    </g>
    <g id="xtick_14">
     <g id="line2d_14">
      <g>
       <use xlink:href="#mb7a2a5cee7" x="218.476364" y="453.6" style="stroke: #000000; stroke-width: 0.8"/>
      </g>
     </g>
     <g id="text_14">
      <!-- 2010 -->
      <g transform="translate(221.288864 480.6)rotate(-90)scale(0.1 -0.1)">
       <use xlink:href="#SimHei-32"/>
       <use xlink:href="#SimHei-30" x="50"/>
       <use xlink:href="#SimHei-31" x="100"/>
       <use xlink:href="#SimHei-30" x="150"/>
      </g>
     </g>
    </g>
    <g id="xtick_15">
     <g id="line2d_15">
      <g>
       <use xlink:href="#mb7a2a5cee7" x="230.312727" y="453.6" style="stroke: #000000; stroke-width: 0.8"/>
      </g>
     </g>
     <g id="text_15">
      <!-- 2011 -->
      <g transform="translate(233.125227 480.6)rotate(-90)scale(0.1 -0.1)">
       <use xlink:href="#SimHei-32"/>
       <use xlink:href="#SimHei-30" x="50"/>
       <use xlink:href="#SimHei-31" x="100"/>
       <use xlink:href="#SimHei-31" x="150"/>
      </g>
     </g>
    </g>
    <g id="xtick_16">
     <g id="line2d_16">
      <g>
       <use xlink:href="#mb7a2a5cee7" x="242.149091" y="453.6" style="stroke: #000000; stroke-width: 0.8"/>
      </g>
     </g>
     <g id="text_16">
      <!-- 2012 -->
      <g transform="translate(244.961591 480.6)rotate(-90)scale(0.1 -0.1)">
       <use xlink:href="#SimHei-32"/>
       <use xlink:href="#SimHei-30" x="50"/>
       <use xlink:href="#SimHei-31" x="100"/>
       <use xlink:href="#SimHei-32" x="150"/>
      </g>
     </g>
    </g>
    <g id="xtick_17">
     <g id="line2d_17">
      <g>
       <use xlink:href="#mb7a2a5cee7" x="253.985455" y="453.6" style="stroke: #000000; stroke-width: 0.8"/>
      </g>
     </g>
     <g id="text_17">
      <!-- 2013 -->
      <g transform="translate(256.797955 480.6)rotate(-90)scale(0.1 -0.1)">
       <use xlink:href="#SimHei-32"/>
       <use xlink:href="#SimHei-30" x="50"/>
       <use xlink:href="#SimHei-31" x="100"/>
       <use xlink:href="#SimHei-33" x="150"/>
      </g>
     </g>
    </g>
    <g id="xtick_18">
     <g id="line2d_18">
      <g>
       <use xlink:href="#mb7a2a5cee7" x="265.821818" y="453.6" style="stroke: #000000; stroke-width: 0.8"/>
      </g>
     </g>
     <g id="text_18">
      <!-- 2014 -->
      <g transform="translate(268.634318 480.6)rotate(-90)scale(0.1 -0.1)">
       <use xlink:href="#SimHei-32"/>
       <use xlink:href="#SimHei-30" x="50"/>
       <use xlink:href="#SimHei-31" x="100"/>
       <use xlink:href="#SimHei-34" x="150"/>
      </g>
     </g>
    </g>
    <g id="xtick_19">
     <g id="line2d_19">
      <g>
       <use xlink:href="#mb7a2a5cee7" x="277.658182" y="453.6" style="stroke: #000000; stroke-width: 0.8"/>
      </g>
     </g>
     <g id="text_19">
      <!-- 2015 -->
      <g transform="translate(280.470682 480.6)rotate(-90)scale(0.1 -0.1)">
       <use xlink:href="#SimHei-32"/>
       <use xlink:href="#SimHei-30" x="50"/>
       <use xlink:href="#SimHei-31" x="100"/>
       <use xlink:href="#SimHei-35" x="150"/>
      </g>
     </g>
    </g>
    <g id="xtick_20">
     <g id="line2d_20">
      <g>
       <use xlink:href="#mb7a2a5cee7" x="289.494545" y="453.6" style="stroke: #000000; stroke-width: 0.8"/>
      </g>
     </g>
     <g id="text_20">
      <!-- 2016 -->
      <g transform="translate(292.307045 480.6)rotate(-90)scale(0.1 -0.1)">
       <use xlink:href="#SimHei-32"/>
       <use xlink:href="#SimHei-30" x="50"/>
       <use xlink:href="#SimHei-31" x="100"/>
       <use xlink:href="#SimHei-36" x="150"/>
      </g>
     </g>
    </g>
    <g id="xtick_21">
     <g id="line2d_21">
      <g>
       <use xlink:href="#mb7a2a5cee7" x="301.330909" y="453.6" style="stroke: #000000; stroke-width: 0.8"/>
      </g>
     </g>
     <g id="text_21">
      <!-- 2017 -->
      <g transform="translate(304.143409 480.6)rotate(-90)scale(0.1 -0.1)">
       <use xlink:href="#SimHei-32"/>
       <use xlink:href="#SimHei-30" x="50"/>
       <use xlink:href="#SimHei-31" x="100"/>
       <use xlink:href="#SimHei-37" x="150"/>
      </g>
     </g>
    </g>
    <g id="xtick_22">
     <g id="line2d_22">
      <g>
       <use xlink:href="#mb7a2a5cee7" x="313.167273" y="453.6" style="stroke: #000000; stroke-width: 0.8"/>
      </g>
     </g>
     <g id="text_22">
      <!-- 2018 -->
      <g transform="translate(315.979773 480.6)rotate(-90)scale(0.1 -0.1)">
       <use xlink:href="#SimHei-32"/>
       <use xlink:href="#SimHei-30" x="50"/>
       <use xlink:href="#SimHei-31" x="100"/>
       <use xlink:href="#SimHei-38" x="150"/>
      </g>
     </g>
    </g>
    <g id="xtick_23">
     <g id="line2d_23">
      <g>
       <use xlink:href="#mb7a2a5cee7" x="325.003636" y="453.6" style="stroke: #000000; stroke-width: 0.8"/>
      </g>
     </g>
     <g id="text_23">
      <!-- 2019 -->
      <g transform="translate(327.816136 480.6)rotate(-90)scale(0.1 -0.1)">
       <use xlink:href="#SimHei-32"/>
       <use xlink:href="#SimHei-30" x="50"/>
       <use xlink:href="#SimHei-31" x="100"/>
       <use xlink:href="#SimHei-39" x="150"/>
      </g>
     </g>
    </g>
    <g id="xtick_24">
     <g id="line2d_24">
      <g>
       <use xlink:href="#mb7a2a5cee7" x="336.84" y="453.6" style="stroke: #000000; stroke-width: 0.8"/>
      </g>
     </g>
     <g id="text_24">
      <!-- 2020 -->
      <g transform="translate(339.6525 480.6)rotate(-90)scale(0.1 -0.1)">
       <use xlink:href="#SimHei-32"/>
       <use xlink:href="#SimHei-30" x="50"/>
       <use xlink:href="#SimHei-32" x="100"/>
       <use xlink:href="#SimHei-30" x="150"/>
      </g>
     </g>
    </g>
   </g>
   <g id="matplotlib.axis_2">
    <g id="ytick_1">
     <g id="line2d_25">
      <defs>
       <path id="m93aaccaa39" d="M 0 0 
L -3.5 0 
" style="stroke: #000000; stroke-width: 0.8"/>
      </defs>
      <g>
       <use xlink:href="#m93aaccaa39" x="50.4" y="453.6" style="stroke: #000000; stroke-width: 0.8"/>
      </g>
     </g>
     <g id="text_25">
      <!-- 0 K -->
      <g transform="translate(28.4 457.0375)scale(0.1 -0.1)">
       <defs>
        <path id="SimHei-20" transform="scale(0.015625)"/>
        <path id="SimHei-4b" d="M 3050 125 
L 2400 125 
L 1250 2250 
L 850 1725 
L 850 125 
L 275 125 
L 275 4400 
L 850 4400 
L 850 2550 
L 2275 4400 
L 2950 4400 
L 1625 2725 
L 3050 125 
z
" transform="scale(0.015625)"/>
       </defs>
       <use xlink:href="#SimHei-30"/>
       <use xlink:href="#SimHei-20" x="50"/>
       <use xlink:href="#SimHei-4b" x="100"/>
      </g>
     </g>
    </g>
    <g id="ytick_2">
     <g id="line2d_26">
      <g>
       <use xlink:href="#m93aaccaa39" x="50.4" y="404.676" style="stroke: #000000; stroke-width: 0.8"/>
      </g>
     </g>
     <g id="text_26">
      <!-- 2 K -->
      <g transform="translate(28.4 408.1135)scale(0.1 -0.1)">
       <use xlink:href="#SimHei-32"/>
       <use xlink:href="#SimHei-20" x="50"/>
       <use xlink:href="#SimHei-4b" x="100"/>
      </g>
     </g>
    </g>
    <g id="ytick_3">
     <g id="line2d_27">
      <g>
       <use xlink:href="#m93aaccaa39" x="50.4" y="355.752" style="stroke: #000000; stroke-width: 0.8"/>
      </g>
     </g>
     <g id="text_27">
      <!-- 4 K -->
      <g transform="translate(28.4 359.1895)scale(0.1 -0.1)">
       <use xlink:href="#SimHei-34"/>
       <use xlink:href="#SimHei-20" x="50"/>
       <use xlink:href="#SimHei-4b" x="100"/>
      </g>
     </g>
    </g>
    <g id="ytick_4">
     <g id="line2d_28">
      <g>
       <use xlink:href="#m93aaccaa39" x="50.4" y="306.828" style="stroke: #000000; stroke-width: 0.8"/>
      </g>
     </g>
     <g id="text_28">
      <!-- 6 K -->
      <g transform="translate(28.4 310.2655)scale(0.1 -0.1)">
       <use xlink:href="#SimHei-36"/>
       <use xlink:href="#SimHei-20" x="50"/>
       <use xlink:href="#SimHei-4b" x="100"/>
      </g>
     </g>
    </g>
    <g id="ytick_5">
     <g id="line2d_29">
      <g>
       <use xlink:href="#m93aaccaa39" x="50.4" y="257.904" style="stroke: #000000; stroke-width: 0.8"/>
      </g>
     </g>
     <g id="text_29">
      <!-- 8 K -->
      <g transform="translate(28.4 261.3415)scale(0.1 -0.1)">
       <use xlink:href="#SimHei-38"/>
       <use xlink:href="#SimHei-20" x="50"/>
       <use xlink:href="#SimHei-4b" x="100"/>
      </g>
     </g>
    </g>
    <g id="ytick_6">
     <g id="line2d_30">
      <g>
       <use xlink:href="#m93aaccaa39" x="50.4" y="208.98" style="stroke: #000000; stroke-width: 0.8"/>
      </g>
     </g>
     <g id="text_30">
      <!-- 10 K -->
      <g transform="translate(23.4 212.4175)scale(0.1 -0.1)">
       <use xlink:href="#SimHei-31"/>
       <use xlink:href="#SimHei-30" x="50"/>
       <use xlink:href="#SimHei-20" x="100"/>
       <use xlink:href="#SimHei-4b" x="150"/>
      </g>
     </g>
    </g>
    <g id="ytick_7">
     <g id="line2d_31">
      <g>
       <use xlink:href="#m93aaccaa39" x="50.4" y="160.056" style="stroke: #000000; stroke-width: 0.8"/>
      </g>
     </g>
     <g id="text_31">
      <!-- 12 K -->
      <g transform="translate(23.4 163.4935)scale(0.1 -0.1)">
       <use xlink:href="#SimHei-31"/>
       <use xlink:href="#SimHei-32" x="50"/>
       <use xlink:href="#SimHei-20" x="100"/>
       <use xlink:href="#SimHei-4b" x="150"/>
      </g>
     </g>
    </g>
    <g id="ytick_8">
     <g id="line2d_32">
      <g>
       <use xlink:href="#m93aaccaa39" x="50.4" y="111.132" style="stroke: #000000; stroke-width: 0.8"/>
      </g>
     </g>
     <g id="text_32">
      <!-- 14 K -->
      <g transform="translate(23.4 114.5695)scale(0.1 -0.1)">
       <use xlink:href="#SimHei-31"/>
       <use xlink:href="#SimHei-34" x="50"/>
       <use xlink:href="#SimHei-20" x="100"/>
       <use xlink:href="#SimHei-4b" x="150"/>
      </g>
     </g>
    </g>
    <g id="ytick_9">
     <g id="line2d_33">
      <g>
       <use xlink:href="#m93aaccaa39" x="50.4" y="62.208" style="stroke: #000000; stroke-width: 0.8"/>
      </g>
     </g>
    </g>
   </g>
   <g id="LineCollection_1">
    <path d="M 64.603636 404.676 
L 348.676364 404.676 
" clip-path="url(#p2e3991f7db)" style="fill: none; stroke-dasharray: 5.55,2.4; stroke-dashoffset: 0; stroke: #808080; stroke-width: 1.5"/>
   </g>
   <g id="LineCollection_2">
    <path d="M 64.603636 355.752 
L 348.676364 355.752 
" clip-path="url(#p2e3991f7db)" style="fill: none; stroke-dasharray: 5.55,2.4; stroke-dashoffset: 0; stroke: #808080; stroke-width: 1.5"/>
   </g>
   <g id="LineCollection_3">
    <path d="M 64.603636 306.828 
L 348.676364 306.828 
" clip-path="url(#p2e3991f7db)" style="fill: none; stroke-dasharray: 5.55,2.4; stroke-dashoffset: 0; stroke: #808080; stroke-width: 1.5"/>
   </g>
   <g id="LineCollection_4">
    <path d="M 64.603636 257.904 
L 348.676364 257.904 
" clip-path="url(#p2e3991f7db)" style="fill: none; stroke-dasharray: 5.55,2.4; stroke-dashoffset: 0; stroke: #808080; stroke-width: 1.5"/>
   </g>
   <g id="LineCollection_5">
    <path d="M 64.603636 208.98 
L 348.676364 208.98 
" clip-path="url(#p2e3991f7db)" style="fill: none; stroke-dasharray: 5.55,2.4; stroke-dashoffset: 0; stroke: #808080; stroke-width: 1.5"/>
   </g>
   <g id="LineCollection_6">
    <path d="M 64.603636 160.056 
L 348.676364 160.056 
" clip-path="url(#p2e3991f7db)" style="fill: none; stroke-dasharray: 5.55,2.4; stroke-dashoffset: 0; stroke: #808080; stroke-width: 1.5"/>
   </g>
   <g id="patch_3">
    <path d="M 50.4 453.6 
L 50.4 62.208 
" style="fill: none"/>
   </g>
   <g id="patch_4">
    <path d="M 362.88 453.6 
L 362.88 62.208 
" style="fill: none"/>
   </g>
   <g id="patch_5">
    <path d="M 50.4 453.6 
L 362.88 453.6 
" style="fill: none"/>
   </g>
   <g id="patch_6">
    <path d="M 50.4 62.208 
L 362.88 62.208 
" style="fill: none"/>
   </g>
   <g id="text_33">
    <!-- The development of Chinese education -->
    <g transform="translate(98.64 44.18925)scale(0.12 -0.12)">
     <defs>
      <path id="SimHei-54" d="M 2850 3925 
L 1850 3925 
L 1850 125 
L 1275 125 
L 1275 3925 
L 275 3925 
L 275 4400 
L 2850 4400 
L 2850 3925 
z
" transform="scale(0.015625)"/>
      <path id="SimHei-68" d="M 2800 125 
L 2300 125 
L 2300 1925 
Q 2300 2225 2150 2400 
Q 2000 2575 1750 2575 
Q 1425 2575 1137 2237 
Q 850 1900 850 1400 
L 850 125 
L 350 125 
L 350 4400 
L 850 4400 
L 850 2400 
Q 1050 2675 1287 2825 
Q 1525 2975 1900 2975 
Q 2350 2975 2575 2725 
Q 2800 2475 2800 2100 
L 2800 125 
z
" transform="scale(0.015625)"/>
      <path id="SimHei-65" d="M 2850 1075 
Q 2800 625 2450 350 
Q 2100 75 1625 75 
Q 1025 75 637 462 
Q 250 850 250 1525 
Q 250 2200 637 2587 
Q 1025 2975 1625 2975 
Q 2150 2975 2487 2637 
Q 2825 2300 2825 1525 
L 800 1525 
Q 800 975 1037 750 
Q 1275 525 1625 525 
Q 1900 525 2075 662 
Q 2250 800 2300 1075 
L 2850 1075 
z
M 2250 1925 
Q 2200 2275 2025 2412 
Q 1850 2550 1575 2550 
Q 1325 2550 1125 2412 
Q 925 2275 825 1925 
L 2250 1925 
z
" transform="scale(0.015625)"/>
      <path id="SimHei-64" d="M 2750 125 
L 2250 125 
L 2250 500 
Q 2100 275 1900 175 
Q 1700 75 1425 75 
Q 925 75 575 437 
Q 225 800 225 1525 
Q 225 2250 575 2625 
Q 925 3000 1425 3000 
Q 1700 3000 1900 2887 
Q 2100 2775 2250 2550 
L 2250 4400 
L 2750 4400 
L 2750 125 
z
M 2250 1525 
Q 2250 2000 2037 2275 
Q 1825 2550 1525 2550 
Q 1150 2550 962 2275 
Q 775 2000 775 1525 
Q 775 1050 962 787 
Q 1150 525 1525 525 
Q 1825 525 2037 787 
Q 2250 1050 2250 1525 
z
" transform="scale(0.015625)"/>
      <path id="SimHei-76" d="M 2875 2925 
L 1825 75 
L 1275 75 
L 225 2925 
L 750 2925 
L 1525 750 
L 1575 750 
L 2350 2925 
L 2875 2925 
z
" transform="scale(0.015625)"/>
      <path id="SimHei-6c" d="M 1825 125 
L 1325 125 
L 1325 4400 
L 1825 4400 
L 1825 125 
z
" transform="scale(0.015625)"/>
      <path id="SimHei-6f" d="M 2925 1525 
Q 2925 875 2525 475 
Q 2125 75 1575 75 
Q 1025 75 625 475 
Q 225 875 225 1525 
Q 225 2175 625 2575 
Q 1025 2975 1575 2975 
Q 2125 2975 2525 2575 
Q 2925 2175 2925 1525 
z
M 2375 1525 
Q 2375 2025 2125 2275 
Q 1875 2525 1575 2525 
Q 1275 2525 1025 2275 
Q 775 2025 775 1525 
Q 775 1025 1025 775 
Q 1275 525 1575 525 
Q 1875 525 2125 775 
Q 2375 1025 2375 1525 
z
" transform="scale(0.015625)"/>
      <path id="SimHei-70" d="M 2825 1525 
Q 2825 800 2475 425 
Q 2125 50 1625 50 
Q 1350 50 1150 162 
Q 950 275 800 500 
L 800 -800 
L 300 -800 
L 300 2925 
L 800 2925 
L 800 2550 
Q 950 2775 1150 2875 
Q 1350 2975 1625 2975 
Q 2125 2975 2475 2612 
Q 2825 2250 2825 1525 
z
M 2275 1525 
Q 2275 2000 2087 2262 
Q 1900 2525 1525 2525 
Q 1225 2525 1012 2262 
Q 800 2000 800 1525 
Q 800 1050 1012 775 
Q 1225 500 1525 500 
Q 1900 500 2087 775 
Q 2275 1050 2275 1525 
z
" transform="scale(0.015625)"/>
      <path id="SimHei-6d" d="M 3050 125 
L 2550 125 
L 2550 2150 
Q 2550 2300 2500 2400 
Q 2450 2500 2300 2500 
Q 2125 2500 1975 2312 
Q 1825 2125 1825 1825 
L 1825 125 
L 1325 125 
L 1325 2150 
Q 1325 2300 1275 2400 
Q 1225 2500 1075 2500 
Q 900 2500 750 2312 
Q 600 2125 600 1825 
L 600 125 
L 100 125 
L 100 2925 
L 600 2925 
L 600 2550 
Q 725 2750 900 2862 
Q 1075 2975 1275 2975 
Q 1475 2975 1612 2862 
Q 1750 2750 1800 2550 
Q 1925 2750 2087 2862 
Q 2250 2975 2450 2975 
Q 2750 2975 2900 2812 
Q 3050 2650 3050 2350 
L 3050 125 
z
" transform="scale(0.015625)"/>
      <path id="SimHei-6e" d="M 2800 125 
L 2300 125 
L 2300 1925 
Q 2300 2225 2150 2400 
Q 2000 2575 1750 2575 
Q 1425 2575 1137 2237 
Q 850 1900 850 1400 
L 850 125 
L 350 125 
L 350 2925 
L 850 2925 
L 850 2400 
Q 1050 2675 1287 2825 
Q 1525 2975 1900 2975 
Q 2350 2975 2575 2725 
Q 2800 2475 2800 2100 
L 2800 125 
z
" transform="scale(0.015625)"/>
      <path id="SimHei-74" d="M 2750 200 
Q 2625 150 2462 112 
Q 2300 75 2025 75 
Q 1575 75 1300 325 
Q 1025 575 1025 1025 
L 1025 2525 
L 175 2525 
L 175 2925 
L 1025 2925 
L 1025 3900 
L 1525 3900 
L 1525 2925 
L 2550 2925 
L 2550 2525 
L 1525 2525 
L 1525 1000 
Q 1525 800 1625 662 
Q 1725 525 2000 525 
Q 2275 525 2450 575 
Q 2625 625 2750 700 
L 2750 200 
z
" transform="scale(0.015625)"/>
      <path id="SimHei-66" d="M 2850 3825 
Q 2725 3900 2550 3950 
Q 2375 4000 2100 4000 
Q 1825 4000 1725 3862 
Q 1625 3725 1625 3525 
L 1625 2925 
L 2650 2925 
L 2650 2525 
L 1625 2525 
L 1625 125 
L 1125 125 
L 1125 2525 
L 275 2525 
L 275 2925 
L 1125 2925 
L 1125 3500 
Q 1125 3950 1400 4200 
Q 1675 4450 2125 4450 
Q 2400 4450 2562 4412 
Q 2725 4375 2850 4325 
L 2850 3825 
z
" transform="scale(0.015625)"/>
      <path id="SimHei-43" d="M 2975 1825 
Q 2950 875 2575 475 
Q 2200 75 1675 75 
Q 1075 75 650 562 
Q 225 1050 225 2125 
Q 225 3300 637 3875 
Q 1050 4450 1700 4450 
Q 2250 4450 2612 4037 
Q 2975 3625 2950 2875 
L 2400 2875 
Q 2400 3425 2225 3700 
Q 2050 3975 1700 3975 
Q 1300 3975 1062 3562 
Q 825 3150 825 2175 
Q 825 1275 1062 912 
Q 1300 550 1675 550 
Q 1950 550 2175 812 
Q 2400 1075 2400 1825 
L 2975 1825 
z
" transform="scale(0.015625)"/>
      <path id="SimHei-69" d="M 1800 3725 
L 1300 3725 
L 1300 4375 
L 1800 4375 
L 1800 3725 
z
M 1800 125 
L 1300 125 
L 1300 2925 
L 1800 2925 
L 1800 125 
z
" transform="scale(0.015625)"/>
      <path id="SimHei-73" d="M 2750 900 
Q 2750 500 2437 287 
Q 2125 75 1650 75 
Q 1050 75 725 312 
Q 400 550 400 1000 
L 900 1000 
Q 900 700 1112 600 
Q 1325 500 1625 500 
Q 1925 500 2075 612 
Q 2225 725 2225 900 
Q 2225 1025 2100 1150 
Q 1975 1275 1475 1350 
Q 900 1425 687 1637 
Q 475 1850 475 2200 
Q 475 2500 762 2737 
Q 1050 2975 1600 2975 
Q 2100 2975 2387 2750 
Q 2675 2525 2675 2150 
L 2175 2150 
Q 2175 2375 2012 2462 
Q 1850 2550 1600 2550 
Q 1275 2550 1137 2437 
Q 1000 2325 1000 2175 
Q 1000 2000 1125 1900 
Q 1250 1800 1650 1750 
Q 2300 1650 2525 1437 
Q 2750 1225 2750 900 
z
" transform="scale(0.015625)"/>
      <path id="SimHei-75" d="M 2800 125 
L 2300 125 
L 2300 650 
Q 2100 375 1862 225 
Q 1625 75 1250 75 
Q 800 75 575 325 
Q 350 575 350 950 
L 350 2925 
L 850 2925 
L 850 1125 
Q 850 825 1000 650 
Q 1150 475 1400 475 
Q 1725 475 2012 812 
Q 2300 1150 2300 1650 
L 2300 2925 
L 2800 2925 
L 2800 125 
z
" transform="scale(0.015625)"/>
      <path id="SimHei-63" d="M 2850 1250 
Q 2850 725 2487 400 
Q 2125 75 1575 75 
Q 1025 75 625 462 
Q 225 850 225 1525 
Q 225 2200 625 2587 
Q 1025 2975 1575 2975 
Q 2125 2975 2450 2687 
Q 2775 2400 2775 2000 
L 2225 2000 
Q 2200 2300 2012 2412 
Q 1825 2525 1575 2525 
Q 1275 2525 1025 2287 
Q 775 2050 775 1525 
Q 775 1000 1025 762 
Q 1275 525 1575 525 
Q 1900 525 2100 700 
Q 2300 875 2300 1250 
L 2850 1250 
z
" transform="scale(0.015625)"/>
      <path id="SimHei-61" d="M 2875 125 
L 2275 125 
Q 2225 175 2200 262 
Q 2175 350 2175 475 
Q 2000 275 1750 175 
Q 1500 75 1225 75 
Q 825 75 550 275 
Q 275 475 275 850 
Q 275 1225 525 1450 
Q 775 1675 1300 1750 
Q 1650 1800 1912 1875 
Q 2175 1950 2175 2075 
Q 2175 2225 2062 2375 
Q 1950 2525 1575 2525 
Q 1275 2525 1137 2412 
Q 1000 2300 950 2100 
L 400 2100 
Q 450 2500 762 2737 
Q 1075 2975 1575 2975 
Q 2125 2975 2400 2725 
Q 2675 2475 2675 2025 
L 2675 650 
Q 2675 500 2725 375 
Q 2775 250 2875 125 
z
M 2175 1050 
L 2175 1550 
Q 2025 1500 1887 1462 
Q 1750 1425 1425 1375 
Q 1050 1325 937 1200 
Q 825 1075 825 900 
Q 825 750 937 637 
Q 1050 525 1275 525 
Q 1500 525 1762 650 
Q 2025 775 2175 1050 
z
" transform="scale(0.015625)"/>
     </defs>
     <use xlink:href="#SimHei-54"/>
     <use xlink:href="#SimHei-68" x="50"/>
     <use xlink:href="#SimHei-65" x="100"/>
     <use xlink:href="#SimHei-20" x="150"/>
     <use xlink:href="#SimHei-64" x="200"/>
     <use xlink:href="#SimHei-65" x="250"/>
     <use xlink:href="#SimHei-76" x="300"/>
     <use xlink:href="#SimHei-65" x="350"/>
     <use xlink:href="#SimHei-6c" x="400"/>
     <use xlink:href="#SimHei-6f" x="450"/>
     <use xlink:href="#SimHei-70" x="500"/>
     <use xlink:href="#SimHei-6d" x="550"/>
     <use xlink:href="#SimHei-65" x="600"/>
     <use xlink:href="#SimHei-6e" x="650"/>
     <use xlink:href="#SimHei-74" x="700"/>
     <use xlink:href="#SimHei-20" x="750"/>
     <use xlink:href="#SimHei-6f" x="800"/>
     <use xlink:href="#SimHei-66" x="850"/>
     <use xlink:href="#SimHei-20" x="900"/>
     <use xlink:href="#SimHei-43" x="950"/>
     <use xlink:href="#SimHei-68" x="1000"/>
     <use xlink:href="#SimHei-69" x="1050"/>
     <use xlink:href="#SimHei-6e" x="1100"/>
     <use xlink:href="#SimHei-65" x="1150"/>
     <use xlink:href="#SimHei-73" x="1200"/>
     <use xlink:href="#SimHei-65" x="1250"/>
     <use xlink:href="#SimHei-20" x="1300"/>
     <use xlink:href="#SimHei-65" x="1350"/>
     <use xlink:href="#SimHei-64" x="1400"/>
     <use xlink:href="#SimHei-75" x="1450"/>
     <use xlink:href="#SimHei-63" x="1500"/>
     <use xlink:href="#SimHei-61" x="1550"/>
     <use xlink:href="#SimHei-74" x="1600"/>
     <use xlink:href="#SimHei-69" x="1650"/>
     <use xlink:href="#SimHei-6f" x="1700"/>
     <use xlink:href="#SimHei-6e" x="1750"/>
    </g>
    <!-- (1997-2020) -->
    <g transform="translate(173.64 56.208)scale(0.12 -0.12)">
     <defs>
      <path id="SimHei-28" d="M 2975 -200 
L 2700 -475 
Q 2075 125 1762 775 
Q 1450 1425 1450 2250 
Q 1450 3075 1762 3725 
Q 2075 4375 2700 5000 
L 2975 4725 
Q 2400 4175 2112 3587 
Q 1825 3000 1825 2250 
Q 1825 1500 2112 912 
Q 2400 325 2975 -200 
z
" transform="scale(0.015625)"/>
      <path id="SimHei-2d" d="M 2975 2125 
L 125 2125 
L 125 2525 
L 2975 2525 
L 2975 2125 
z
" transform="scale(0.015625)"/>
      <path id="SimHei-29" d="M 1675 2250 
Q 1675 1425 1362 775 
Q 1050 125 425 -475 
L 150 -200 
Q 725 325 1012 912 
Q 1300 1500 1300 2250 
Q 1300 3000 1012 3587 
Q 725 4175 150 4725 
L 425 5000 
Q 1050 4375 1362 3725 
Q 1675 3075 1675 2250 
z
" transform="scale(0.015625)"/>
     </defs>
     <use xlink:href="#SimHei-28"/>
     <use xlink:href="#SimHei-31" x="50"/>
     <use xlink:href="#SimHei-39" x="100"/>
     <use xlink:href="#SimHei-39" x="150"/>
     <use xlink:href="#SimHei-37" x="200"/>
     <use xlink:href="#SimHei-2d" x="250"/>
     <use xlink:href="#SimHei-32" x="300"/>
     <use xlink:href="#SimHei-30" x="350"/>
     <use xlink:href="#SimHei-32" x="400"/>
     <use xlink:href="#SimHei-30" x="450"/>
     <use xlink:href="#SimHei-29" x="500"/>
    </g>
   </g>
   <g id="legend_1">
    <g id="patch_7">
     <path d="M 172.64 78.208 
L 192.64 78.208 
L 192.64 71.208 
L 172.64 71.208 
z
" style="fill: #0000ff; fill-opacity: 0.6"/>
    </g>
    <g id="text_34">
     <!-- Colleges -->
     <g transform="translate(200.64 78.208)scale(0.1 -0.1)">
      <defs>
       <path id="SimHei-67" d="M 2975 2500 
Q 2800 2550 2637 2562 
Q 2475 2575 2300 2525 
Q 2375 2450 2425 2337 
Q 2475 2225 2475 2000 
Q 2475 1575 2187 1300 
Q 1900 1025 1475 1025 
Q 1375 1025 1212 1062 
Q 1050 1100 950 1150 
Q 875 1100 850 1050 
Q 825 1000 825 925 
Q 825 800 1000 737 
Q 1175 675 1625 675 
Q 2350 675 2612 475 
Q 2875 275 2875 -25 
Q 2875 -425 2487 -612 
Q 2100 -800 1575 -800 
Q 900 -800 575 -625 
Q 250 -450 250 -150 
Q 250 0 375 150 
Q 500 300 700 400 
Q 550 475 462 587 
Q 375 700 375 875 
Q 375 1025 487 1137 
Q 600 1250 750 1325 
Q 625 1450 550 1625 
Q 475 1800 475 2000 
Q 475 2425 762 2700 
Q 1050 2975 1475 2975 
Q 1700 2975 1862 2912 
Q 2025 2850 2150 2725 
Q 2350 2875 2550 2937 
Q 2750 3000 2975 2975 
L 2975 2500 
z
M 1975 2000 
Q 1975 2250 1850 2400 
Q 1725 2550 1475 2550 
Q 1225 2550 1100 2400 
Q 975 2250 975 2000 
Q 975 1750 1100 1600 
Q 1225 1450 1475 1450 
Q 1725 1450 1850 1600 
Q 1975 1750 1975 2000 
z
M 2400 -75 
Q 2400 25 2287 125 
Q 2175 225 1725 225 
Q 1625 225 1450 237 
Q 1275 250 1050 275 
Q 850 200 775 100 
Q 700 0 700 -100 
Q 700 -250 900 -350 
Q 1100 -450 1600 -450 
Q 2025 -450 2212 -337 
Q 2400 -225 2400 -75 
z
" transform="scale(0.015625)"/>
      </defs>
      <use xlink:href="#SimHei-43"/>
      <use xlink:href="#SimHei-6f" x="50"/>
      <use xlink:href="#SimHei-6c" x="100"/>
      <use xlink:href="#SimHei-6c" x="150"/>
      <use xlink:href="#SimHei-65" x="200"/>
      <use xlink:href="#SimHei-67" x="250"/>
      <use xlink:href="#SimHei-65" x="300"/>
      <use xlink:href="#SimHei-73" x="350"/>
     </g>
    </g>
   </g>
  </g>
  <g id="axes_2">
   <g id="PathCollection_1">
    <path d="M 64.603636 406.329133 
C 65.962398 406.329133 67.265691 405.789291 68.226481 404.828502 
C 69.18727 403.867712 69.727112 402.564419 69.727112 401.205658 
C 69.727112 399.846896 69.18727 398.543603 68.226481 397.582813 
C 67.265691 396.622024 65.962398 396.082182 64.603636 396.082182 
C 63.244875 396.082182 61.941582 396.622024 60.980792 397.582813 
C 60.020003 398.543603 59.480161 399.846896 59.480161 401.205658 
C 59.480161 402.564419 60.020003 403.867712 60.980792 404.828502 
C 61.941582 405.789291 63.244875 406.329133 64.603636 406.329133 
z
" clip-path="url(#p2e3991f7db)" style="fill: #00ffff; fill-opacity: 0.7; stroke: #00ffff; stroke-opacity: 0.7"/>
    <path d="M 76.44 405.639171 
C 77.892577 405.639171 79.285856 405.062056 80.312983 404.034929 
C 81.340111 403.007802 81.917226 401.614523 81.917226 400.161946 
C 81.917226 398.709368 81.340111 397.316089 80.312983 396.288962 
C 79.285856 395.261835 77.892577 394.68472 76.44 394.68472 
C 74.987423 394.68472 73.594144 395.261835 72.567017 396.288962 
C 71.539889 397.316089 70.962774 398.709368 70.962774 400.161946 
C 70.962774 401.614523 71.539889 403.007802 72.567017 404.034929 
C 73.594144 405.062056 74.987423 405.639171 76.44 405.639171 
z
" clip-path="url(#p2e3991f7db)" style="fill: #00ffff; fill-opacity: 0.7; stroke: #00ffff; stroke-opacity: 0.7"/>
    <path d="M 88.276364 399.709149 
C 89.817054 399.709149 91.29485 399.097026 92.384283 398.007593 
C 93.473716 396.91816 94.085839 395.440364 94.085839 393.899674 
C 94.085839 392.358983 93.473716 390.881187 92.384283 389.791754 
C 91.29485 388.702322 89.817054 388.090199 88.276364 388.090199 
C 86.735673 388.090199 85.257877 388.702322 84.168444 389.791754 
C 83.079012 390.881187 82.466889 392.358983 82.466889 393.899674 
C 82.466889 395.440364 83.079012 396.91816 84.168444 398.007593 
C 85.257877 399.097026 86.735673 399.709149 88.276364 399.709149 
z
" clip-path="url(#p2e3991f7db)" style="fill: #00ffff; fill-opacity: 0.7; stroke: #00ffff; stroke-opacity: 0.7"/>
    <path d="M 100.112727 381.236582 
C 101.736758 381.236582 103.294491 380.591348 104.442854 379.442985 
C 105.591217 378.294622 106.236452 376.736888 106.236452 375.112858 
C 106.236452 373.488827 105.591217 371.931094 104.442854 370.782731 
C 103.294491 369.634367 101.736758 368.989133 100.112727 368.989133 
C 98.488697 368.989133 96.930963 369.634367 95.7826 370.782731 
C 94.634237 371.931094 93.989003 373.488827 93.989003 375.112858 
C 93.989003 376.736888 94.634237 378.294622 95.7826 379.442985 
C 96.930963 380.591348 98.488697 381.236582 100.112727 381.236582 
z
" clip-path="url(#p2e3991f7db)" style="fill: #00ffff; fill-opacity: 0.7; stroke: #00ffff; stroke-opacity: 0.7"/>
    <path d="M 111.949091 358.991295 
C 113.652389 358.991295 115.286153 358.314567 116.490566 357.110154 
C 117.69498 355.905741 118.371707 354.271976 118.371707 352.568678 
C 118.371707 350.865381 117.69498 349.231616 116.490566 348.027203 
C 115.286153 346.822789 113.652389 346.146062 111.949091 346.146062 
C 110.245793 346.146062 108.612029 346.822789 107.407615 348.027203 
C 106.203202 349.231616 105.526475 350.865381 105.526475 352.568678 
C 105.526475 354.271976 106.203202 355.905741 107.407615 357.110154 
C 108.612029 358.314567 110.245793 358.991295 111.949091 358.991295 
z
" clip-path="url(#p2e3991f7db)" style="fill: #00ffff; fill-opacity: 0.7; stroke: #00ffff; stroke-opacity: 0.7"/>
    <path d="M 123.785455 342.160006 
C 125.564491 342.160006 127.270902 341.453187 128.528871 340.195218 
C 129.78684 338.937249 130.493658 337.230838 130.493658 335.451802 
C 130.493658 333.672765 129.78684 331.966354 128.528871 330.708385 
C 127.270902 329.450416 125.564491 328.743598 123.785455 328.743598 
C 122.006418 328.743598 120.300007 329.450416 119.042038 330.708385 
C 117.784069 331.966354 117.077251 333.672765 117.077251 335.451802 
C 117.077251 337.230838 117.784069 338.937249 119.042038 340.195218 
C 120.300007 341.453187 122.006418 342.160006 123.785455 342.160006 
z
" clip-path="url(#p2e3991f7db)" style="fill: #00ffff; fill-opacity: 0.7; stroke: #00ffff; stroke-opacity: 0.7"/>
    <path d="M 135.621818 313.836213 
C 137.473498 313.836213 139.249587 313.100533 140.558923 311.791197 
C 141.868258 310.481862 142.603938 308.705773 142.603938 306.854093 
C 142.603938 305.002413 141.868258 303.226324 140.558923 301.916988 
C 139.249587 300.607653 137.473498 299.871973 135.621818 299.871973 
C 133.770138 299.871973 131.994049 300.607653 130.684714 301.916988 
C 129.375378 303.226324 128.639698 305.002413 128.639698 306.854093 
C 128.639698 308.705773 129.375378 310.481862 130.684714 311.791197 
C 131.994049 313.100533 133.770138 313.836213 135.621818 313.836213 
z
" clip-path="url(#p2e3991f7db)" style="fill: #00ffff; fill-opacity: 0.7; stroke: #00ffff; stroke-opacity: 0.7"/>
    <path d="M 147.458182 291.451231 
C 149.379761 291.451231 151.222896 290.687779 152.581657 289.329018 
C 153.940419 287.970256 154.70387 286.127121 154.70387 284.205542 
C 154.70387 282.283963 153.940419 280.440829 152.581657 279.082067 
C 151.222896 277.723305 149.379761 276.959854 147.458182 276.959854 
C 145.536603 276.959854 143.693468 277.723305 142.334706 279.082067 
C 140.975945 280.440829 140.212493 282.283963 140.212493 284.205542 
C 140.212493 286.127121 140.975945 287.970256 142.334706 289.329018 
C 143.693468 290.687779 145.536603 291.451231 147.458182 291.451231 
z
" clip-path="url(#p2e3991f7db)" style="fill: #00ffff; fill-opacity: 0.7; stroke: #00ffff; stroke-opacity: 0.7"/>
    <path d="M 159.294545 269.265734 
C 161.283569 269.265734 163.191394 268.475487 164.597846 267.069035 
C 166.004298 265.662583 166.794545 263.754758 166.794545 261.765734 
C 166.794545 259.776711 166.004298 257.868885 164.597846 256.462434 
C 163.191394 255.055982 161.283569 254.265734 159.294545 254.265734 
C 157.305522 254.265734 155.397696 255.055982 153.991245 256.462434 
C 152.584793 257.868885 151.794545 259.776711 151.794545 261.765734 
C 151.794545 263.754758 152.584793 265.662583 153.991245 267.069035 
C 155.397696 268.475487 157.305522 269.265734 159.294545 269.265734 
z
" clip-path="url(#p2e3991f7db)" style="fill: #00ffff; fill-opacity: 0.7; stroke: #00ffff; stroke-opacity: 0.7"/>
    <path d="M 171.130909 248.115605 
C 173.185163 248.115605 175.155557 247.299441 176.608135 245.846864 
C 178.060712 244.394287 178.876876 242.423893 178.876876 240.369638 
C 178.876876 238.315384 178.060712 236.34499 176.608135 234.892413 
C 175.155557 233.439836 173.185163 232.623672 171.130909 232.623672 
C 169.076655 232.623672 167.106261 233.439836 165.653684 234.892413 
C 164.201106 236.34499 163.384942 238.315384 163.384942 240.369638 
C 163.384942 242.423893 164.201106 244.394287 165.653684 245.846864 
C 167.106261 247.299441 169.076655 248.115605 171.130909 248.115605 
z
" clip-path="url(#p2e3991f7db)" style="fill: #00ffff; fill-opacity: 0.7; stroke: #00ffff; stroke-opacity: 0.7"/>
    <path d="M 182.967273 238.647477 
C 185.08475 238.647477 187.115785 237.806194 188.613068 236.308912 
C 190.11035 234.811629 190.951632 232.780594 190.951632 230.663117 
C 190.951632 228.54564 190.11035 226.514604 188.613068 225.017322 
C 187.115785 223.52004 185.08475 222.678757 182.967273 222.678757 
C 180.849796 222.678757 178.81876 223.52004 177.321478 225.017322 
C 175.824196 226.514604 174.982913 228.54564 174.982913 230.663117 
C 174.982913 232.780594 175.824196 234.811629 177.321478 236.308912 
C 178.81876 237.806194 180.849796 238.647477 182.967273 238.647477 
z
" clip-path="url(#p2e3991f7db)" style="fill: #00ffff; fill-opacity: 0.7; stroke: #00ffff; stroke-opacity: 0.7"/>
    <path d="M 194.803636 226.145669 
C 196.982502 226.145669 199.072421 225.279996 200.613111 223.739305 
C 202.153802 222.198615 203.019475 220.108696 203.019475 217.92983 
C 203.019475 215.750965 202.153802 213.661046 200.613111 212.120355 
C 199.072421 210.579665 196.982502 209.713992 194.803636 209.713992 
C 192.624771 209.713992 190.534852 210.579665 188.994161 212.120355 
C 187.453471 213.661046 186.587798 215.750965 186.587798 217.92983 
C 186.587798 220.108696 187.453471 222.198615 188.994161 223.739305 
C 190.534852 225.279996 192.624771 226.145669 194.803636 226.145669 
z
" clip-path="url(#p2e3991f7db)" style="fill: #00ffff; fill-opacity: 0.7; stroke: #00ffff; stroke-opacity: 0.7"/>
    <path d="M 206.64 215.933682 
C 208.878572 215.933682 211.025759 215.044288 212.608668 213.461379 
C 214.191578 211.878469 215.080972 209.731282 215.080972 207.49271 
C 215.080972 205.254139 214.191578 203.106952 212.608668 201.524042 
C 211.025759 199.941133 208.878572 199.051739 206.64 199.051739 
C 204.401428 199.051739 202.254241 199.941133 200.671332 201.524042 
C 199.088422 203.106952 198.199028 205.254139 198.199028 207.49271 
C 198.199028 209.731282 199.088422 211.878469 200.671332 213.461379 
C 202.254241 215.044288 204.401428 215.933682 206.64 215.933682 
z
" clip-path="url(#p2e3991f7db)" style="fill: #00ffff; fill-opacity: 0.7; stroke: #00ffff; stroke-opacity: 0.7"/>
    <path d="M 218.476364 208.012011 
C 220.77309 208.012011 222.976057 207.099512 224.600088 205.475481 
C 226.224119 203.85145 227.136618 201.648483 227.136618 199.351757 
C 227.136618 197.055031 226.224119 194.852063 224.600088 193.228032 
C 222.976057 191.604002 220.77309 190.691503 218.476364 190.691503 
C 216.179637 190.691503 213.97667 191.604002 212.352639 193.228032 
C 210.728609 194.852063 209.81611 197.055031 209.81611 199.351757 
C 209.81611 201.648483 210.728609 203.85145 212.352639 205.475481 
C 213.97667 207.099512 216.179637 208.012011 218.476364 208.012011 
z
" clip-path="url(#p2e3991f7db)" style="fill: #00ffff; fill-opacity: 0.7; stroke: #00ffff; stroke-opacity: 0.7"/>
    <path d="M 230.312727 199.771809 
C 232.666171 199.771809 234.923541 198.836776 236.587677 197.17264 
C 238.251814 195.508504 239.186847 193.251134 239.186847 190.89769 
C 239.186847 188.544246 238.251814 186.286876 236.587677 184.622739 
C 234.923541 182.958603 232.666171 182.02357 230.312727 182.02357 
C 227.959283 182.02357 225.701913 182.958603 224.037777 184.622739 
C 222.373641 186.286876 221.438608 188.544246 221.438608 190.89769 
C 221.438608 193.251134 222.373641 195.508504 224.037777 197.17264 
C 225.701913 198.836776 227.959283 199.771809 230.312727 199.771809 
z
" clip-path="url(#p2e3991f7db)" style="fill: #00ffff; fill-opacity: 0.7; stroke: #00ffff; stroke-opacity: 0.7"/>
    <path d="M 242.149091 189.439149 
C 244.557918 189.439149 246.868409 188.482112 248.571707 186.778815 
C 250.275005 185.075517 251.232042 182.765025 251.232042 180.356198 
C 251.232042 177.947372 250.275005 175.63688 248.571707 173.933582 
C 246.868409 172.230284 244.557918 171.273247 242.149091 171.273247 
C 239.740264 171.273247 237.429772 172.230284 235.726475 173.933582 
C 234.023177 175.63688 233.06614 177.947372 233.06614 180.356198 
C 233.06614 182.765025 234.023177 185.075517 235.726475 186.778815 
C 237.429772 188.482112 239.740264 189.439149 242.149091 189.439149 
z
" clip-path="url(#p2e3991f7db)" style="fill: #00ffff; fill-opacity: 0.7; stroke: #00ffff; stroke-opacity: 0.7"/>
    <path d="M 253.985455 180.249878 
C 256.448419 180.249878 258.810838 179.271332 260.552417 177.529753 
C 262.293996 175.788174 263.272542 173.425755 263.272542 170.96279 
C 263.272542 168.499826 262.293996 166.137407 260.552417 164.395828 
C 258.810838 162.654249 256.448419 161.675703 253.985455 161.675703 
C 251.52249 161.675703 249.160071 162.654249 247.418492 164.395828 
C 245.676913 166.137407 244.698367 168.499826 244.698367 170.96279 
C 244.698367 173.425755 245.676913 175.788174 247.418492 177.529753 
C 249.160071 179.271332 251.52249 180.249878 253.985455 180.249878 
z
" clip-path="url(#p2e3991f7db)" style="fill: #00ffff; fill-opacity: 0.7; stroke: #00ffff; stroke-opacity: 0.7"/>
    <path d="M 265.821818 171.264958 
C 268.337756 171.264958 270.750986 170.265365 272.530022 168.486329 
C 274.309059 166.707292 275.308651 164.294062 275.308651 161.778125 
C 275.308651 159.262187 274.309059 156.848957 272.530022 155.069921 
C 270.750986 153.290884 268.337756 152.291292 265.821818 152.291292 
C 263.305881 152.291292 260.892651 153.290884 259.113614 155.069921 
C 257.334578 156.848957 256.334985 159.262187 256.334985 161.778125 
C 256.334985 164.294062 257.334578 166.707292 259.113614 168.486329 
C 260.892651 170.265365 263.305881 171.264958 265.821818 171.264958 
z
" clip-path="url(#p2e3991f7db)" style="fill: #00ffff; fill-opacity: 0.7; stroke: #00ffff; stroke-opacity: 0.7"/>
    <path d="M 277.658182 163.945857 
C 280.226 163.945857 282.688992 162.925652 284.504714 161.10993 
C 286.320435 159.294209 287.34064 156.831216 287.34064 154.263398 
C 287.34064 151.69558 286.320435 149.232588 284.504714 147.416866 
C 282.688992 145.601145 280.226 144.58094 277.658182 144.58094 
C 275.090364 144.58094 272.627371 145.601145 270.81165 147.416866 
C 268.995928 149.232588 267.975723 151.69558 267.975723 154.263398 
C 267.975723 156.831216 268.995928 159.294209 270.81165 161.10993 
C 272.627371 162.925652 275.090364 163.945857 277.658182 163.945857 
z
" clip-path="url(#p2e3991f7db)" style="fill: #00ffff; fill-opacity: 0.7; stroke: #00ffff; stroke-opacity: 0.7"/>
    <path d="M 289.494545 157.666593 
C 292.113216 157.666593 294.624986 156.626184 296.476665 154.774504 
C 298.328345 152.922824 299.368754 150.411055 299.368754 147.792384 
C 299.368754 145.173713 298.328345 142.661944 296.476665 140.810264 
C 294.624986 138.958584 292.113216 137.918175 289.494545 137.918175 
C 286.875875 137.918175 284.364105 138.958584 282.512425 140.810264 
C 280.660746 142.661944 279.620337 145.173713 279.620337 147.792384 
C 279.620337 150.411055 280.660746 152.922824 282.512425 154.774504 
C 284.364105 156.626184 286.875875 157.666593 289.494545 157.666593 
z
" clip-path="url(#p2e3991f7db)" style="fill: #00ffff; fill-opacity: 0.7; stroke: #00ffff; stroke-opacity: 0.7"/>
    <path d="M 301.330909 150.548706 
C 303.999464 150.548706 306.559081 149.488478 308.446034 147.601525 
C 310.332987 145.714572 311.393215 143.154955 311.393215 140.4864 
C 311.393215 137.817845 310.332987 135.258228 308.446034 133.371275 
C 306.559081 131.484322 303.999464 130.424094 301.330909 130.424094 
C 298.662354 130.424094 296.102737 131.484322 294.215784 133.371275 
C 292.328831 135.258228 291.268603 137.817845 291.268603 140.4864 
C 291.268603 143.154955 292.328831 145.714572 294.215784 147.601525 
C 296.102737 149.488478 298.662354 150.548706 301.330909 150.548706 
z
" clip-path="url(#p2e3991f7db)" style="fill: #00ffff; fill-opacity: 0.7; stroke: #00ffff; stroke-opacity: 0.7"/>
    <path d="M 313.167273 136.851981 
C 315.884796 136.851981 318.491382 135.772298 320.412961 133.850719 
C 322.33454 131.92914 323.414223 129.322554 323.414223 126.60503 
C 323.414223 123.887507 322.33454 121.280921 320.412961 119.359342 
C 318.491382 117.437763 315.884796 116.35808 313.167273 116.35808 
C 310.44975 116.35808 307.843163 117.437763 305.921584 119.359342 
C 304.000005 121.280921 302.920322 123.887507 302.920322 126.60503 
C 302.920322 129.322554 304.000005 131.92914 305.921584 133.850719 
C 307.843163 135.772298 310.44975 136.851981 313.167273 136.851981 
z
" clip-path="url(#p2e3991f7db)" style="fill: #00ffff; fill-opacity: 0.7; stroke: #00ffff; stroke-opacity: 0.7"/>
    <path d="M 325.003636 112.297383 
C 327.769261 112.297383 330.421985 111.198589 332.377577 109.242997 
C 334.333169 107.287405 335.431963 104.634681 335.431963 101.869056 
C 335.431963 99.103431 334.333169 96.450707 332.377577 94.495115 
C 330.421985 92.539523 327.769261 91.440729 325.003636 91.440729 
C 322.238012 91.440729 319.585288 92.539523 317.629696 94.495115 
C 315.674104 96.450707 314.57531 99.103431 314.57531 101.869056 
C 314.57531 104.634681 315.674104 107.287405 317.629696 109.242997 
C 319.585288 111.198589 322.238012 112.297383 325.003636 112.297383 
z
" clip-path="url(#p2e3991f7db)" style="fill: #00ffff; fill-opacity: 0.7; stroke: #00ffff; stroke-opacity: 0.7"/>
    <path d="M 336.84 84.921661 
C 339.652904 84.921661 342.350977 83.804082 344.34 81.815059 
C 346.329023 79.826036 347.446602 77.127963 347.446602 74.315059 
C 347.446602 71.502156 346.329023 68.804082 344.34 66.815059 
C 342.350977 64.826036 339.652904 63.708457 336.84 63.708457 
C 334.027096 63.708457 331.329023 64.826036 329.34 66.815059 
C 327.350977 68.804082 326.233398 71.502156 326.233398 74.315059 
C 326.233398 77.127963 327.350977 79.826036 329.34 81.815059 
C 331.329023 83.804082 334.027096 84.921661 336.84 84.921661 
z
" clip-path="url(#p2e3991f7db)" style="fill: #00ffff; fill-opacity: 0.7; stroke: #00ffff; stroke-opacity: 0.7"/>
   </g>
   <g id="PathCollection_2">
    <path d="M 64.603636 429.076994 
C 65.158348 429.076994 65.690416 428.856605 66.082656 428.464364 
C 66.474897 428.072123 66.695286 427.540056 66.695286 426.985344 
C 66.695286 426.430632 66.474897 425.898565 66.082656 425.506324 
C 65.690416 425.114083 65.158348 424.893694 64.603636 424.893694 
C 64.048924 424.893694 63.516857 425.114083 63.124616 425.506324 
C 62.732376 425.898565 62.511986 426.430632 62.511986 426.985344 
C 62.511986 427.540056 62.732376 428.072123 63.124616 428.464364 
C 63.516857 428.856605 64.048924 429.076994 64.603636 429.076994 
z
" clip-path="url(#p2e3991f7db)" style="fill: #ffa500; fill-opacity: 0.7; stroke: #ffa500; stroke-opacity: 0.7"/>
    <path d="M 76.44 428.1777 
C 77.033012 428.1777 77.601816 427.942094 78.021139 427.522771 
C 78.440462 427.103448 78.676068 426.534644 78.676068 425.941632 
C 78.676068 425.34862 78.440462 424.779816 78.021139 424.360493 
C 77.601816 423.94117 77.033012 423.705564 76.44 423.705564 
C 75.846988 423.705564 75.278184 423.94117 74.858861 424.360493 
C 74.439538 424.779816 74.203932 425.34862 74.203932 425.941632 
C 74.203932 426.534644 74.439538 427.103448 74.858861 427.522771 
C 75.278184 427.942094 75.846988 428.1777 76.44 428.1777 
z
" clip-path="url(#p2e3991f7db)" style="fill: #ffa500; fill-opacity: 0.7; stroke: #ffa500; stroke-opacity: 0.7"/>
    <path d="M 88.276364 427.269628 
C 88.905348 427.269628 89.508655 427.01973 89.953415 426.574971 
C 90.398174 426.130212 90.648072 425.526904 90.648072 424.89792 
C 90.648072 424.268936 90.398174 423.665628 89.953415 423.220869 
C 89.508655 422.77611 88.905348 422.526212 88.276364 422.526212 
C 87.647379 422.526212 87.044072 422.77611 86.599313 423.220869 
C 86.154554 423.665628 85.904655 424.268936 85.904655 424.89792 
C 85.904655 425.526904 86.154554 426.130212 86.599313 426.574971 
C 87.044072 427.01973 87.647379 427.269628 88.276364 427.269628 
z
" clip-path="url(#p2e3991f7db)" style="fill: #ffa500; fill-opacity: 0.7; stroke: #ffa500; stroke-opacity: 0.7"/>
    <path d="M 100.112727 426.354208 
C 100.775735 426.354208 101.411677 426.090792 101.880494 425.621975 
C 102.349312 425.153158 102.612727 424.517216 102.612727 423.854208 
C 102.612727 423.1912 102.349312 422.555258 101.880494 422.086441 
C 101.411677 421.617624 100.775735 421.354208 100.112727 421.354208 
C 99.44972 421.354208 98.813778 421.617624 98.34496 422.086441 
C 97.876143 422.555258 97.612727 423.1912 97.612727 423.854208 
C 97.612727 424.517216 97.876143 425.153158 98.34496 425.621975 
C 98.813778 426.090792 99.44972 426.354208 100.112727 426.354208 
z
" clip-path="url(#p2e3991f7db)" style="fill: #ffa500; fill-opacity: 0.7; stroke: #ffa500; stroke-opacity: 0.7"/>
    <path d="M 111.949091 425.432518 
C 112.644459 425.432518 113.311441 425.156245 113.803141 424.664546 
C 114.29484 424.172846 114.571113 423.505864 114.571113 422.810496 
C 114.571113 422.115128 114.29484 421.448146 113.803141 420.956446 
C 113.311441 420.464747 112.644459 420.188474 111.949091 420.188474 
C 111.253723 420.188474 110.586741 420.464747 110.095041 420.956446 
C 109.603342 421.448146 109.327069 422.115128 109.327069 422.810496 
C 109.327069 423.505864 109.603342 424.172846 110.095041 424.664546 
C 110.586741 425.156245 111.253723 425.432518 111.949091 425.432518 
z
" clip-path="url(#p2e3991f7db)" style="fill: #ffa500; fill-opacity: 0.7; stroke: #ffa500; stroke-opacity: 0.7"/>
    <path d="M 123.785455 424.401026 
C 124.511743 424.401026 125.208383 424.112468 125.721946 423.598904 
C 126.23551 423.085341 126.524067 422.388701 126.524067 421.662413 
C 126.524067 420.936124 126.23551 420.239485 125.721946 419.725921 
C 125.208383 419.212358 124.511743 418.9238 123.785455 418.9238 
C 123.059166 418.9238 122.362526 419.212358 121.848963 419.725921 
C 121.335399 420.239485 121.046842 420.936124 121.046842 421.662413 
C 121.046842 422.388701 121.335399 423.085341 121.848963 423.598904 
C 122.362526 424.112468 123.059166 424.401026 123.785455 424.401026 
z
" clip-path="url(#p2e3991f7db)" style="fill: #ffa500; fill-opacity: 0.7; stroke: #ffa500; stroke-opacity: 0.7"/>
    <path d="M 135.621818 423.469139 
C 136.377763 423.469139 137.102849 423.168799 137.637383 422.634265 
C 138.171917 422.099731 138.472257 421.374646 138.472257 420.618701 
C 138.472257 419.862756 138.171917 419.13767 137.637383 418.603136 
C 137.102849 418.068602 136.377763 417.768262 135.621818 417.768262 
C 134.865873 417.768262 134.140788 418.068602 133.606254 418.603136 
C 133.07172 419.13767 132.77138 419.862756 132.77138 420.618701 
C 132.77138 421.374646 133.07172 422.099731 133.606254 422.634265 
C 134.140788 423.168799 134.865873 423.469139 135.621818 423.469139 
z
" clip-path="url(#p2e3991f7db)" style="fill: #ffa500; fill-opacity: 0.7; stroke: #ffa500; stroke-opacity: 0.7"/>
    <path d="M 147.458182 422.428657 
C 148.242663 422.428657 148.99512 422.11698 149.549832 421.562268 
C 150.104544 421.007556 150.416222 420.255099 150.416222 419.470618 
C 150.416222 418.686136 150.104544 417.93368 149.549832 417.378968 
C 148.99512 416.824255 148.242663 416.512578 147.458182 416.512578 
C 146.6737 416.512578 145.921244 416.824255 145.366532 417.378968 
C 144.81182 417.93368 144.500142 418.686136 144.500142 419.470618 
C 144.500142 420.255099 144.81182 421.007556 145.366532 421.562268 
C 145.921244 422.11698 146.6737 422.428657 147.458182 422.428657 
z
" clip-path="url(#p2e3991f7db)" style="fill: #ffa500; fill-opacity: 0.7; stroke: #ffa500; stroke-opacity: 0.7"/>
    <path d="M 159.294545 421.488768 
C 160.106561 421.488768 160.885427 421.166151 161.459609 420.591969 
C 162.033791 420.017788 162.356408 419.238921 162.356408 418.426906 
C 162.356408 417.61489 162.033791 416.836024 161.459609 416.261842 
C 160.885427 415.687661 160.106561 415.365043 159.294545 415.365043 
C 158.48253 415.365043 157.703663 415.687661 157.129482 416.261842 
C 156.5553 416.836024 156.232683 417.61489 156.232683 418.426906 
C 156.232683 419.238921 156.5553 420.017788 157.129482 420.591969 
C 157.703663 421.166151 158.48253 421.488768 159.294545 421.488768 
z
" clip-path="url(#p2e3991f7db)" style="fill: #ffa500; fill-opacity: 0.7; stroke: #ffa500; stroke-opacity: 0.7"/>
    <path d="M 171.130909 420.545471 
C 171.969555 420.545471 172.773965 420.212274 173.366977 419.619262 
C 173.959989 419.026249 174.293187 418.221839 174.293187 417.383194 
C 174.293187 416.544548 173.959989 415.740138 173.366977 415.147126 
C 172.773965 414.554113 171.969555 414.220916 171.130909 414.220916 
C 170.292263 414.220916 169.487853 414.554113 168.894841 415.147126 
C 168.301829 415.740138 167.968631 416.544548 167.968631 417.383194 
C 167.968631 418.221839 168.301829 419.026249 168.894841 419.619262 
C 169.487853 420.212274 170.292263 420.545471 171.130909 420.545471 
z
" clip-path="url(#p2e3991f7db)" style="fill: #ffa500; fill-opacity: 0.7; stroke: #ffa500; stroke-opacity: 0.7"/>
    <path d="M 182.967273 419.599083 
C 183.831729 419.599083 184.660896 419.255631 185.272159 418.644368 
C 185.883422 418.033105 186.226874 417.203938 186.226874 416.339482 
C 186.226874 415.475025 185.883422 414.645858 185.272159 414.034595 
C 184.660896 413.423333 183.831729 413.07988 182.967273 413.07988 
C 182.102816 413.07988 181.27365 413.423333 180.662387 414.034595 
C 180.051124 414.645858 179.707672 415.475025 179.707672 416.339482 
C 179.707672 417.203938 180.051124 418.033105 180.662387 418.644368 
C 181.27365 419.255631 182.102816 419.599083 182.967273 419.599083 
z
" clip-path="url(#p2e3991f7db)" style="fill: #ffa500; fill-opacity: 0.7; stroke: #ffa500; stroke-opacity: 0.7"/>
    <path d="M 194.803636 418.649872 
C 195.693155 418.649872 196.54636 418.296462 197.175345 417.667478 
C 197.804329 417.038493 198.157738 416.185288 198.157738 415.29577 
C 198.157738 414.406251 197.804329 413.553046 197.175345 412.924061 
C 196.54636 412.295077 195.693155 411.941668 194.803636 411.941668 
C 193.914118 411.941668 193.060912 412.295077 192.431928 412.924061 
C 191.802944 413.553046 191.449534 414.406251 191.449534 415.29577 
C 191.449534 416.185288 191.802944 417.038493 192.431928 417.667478 
C 193.060912 418.296462 193.914118 418.649872 194.803636 418.649872 
z
" clip-path="url(#p2e3991f7db)" style="fill: #ffa500; fill-opacity: 0.7; stroke: #ffa500; stroke-opacity: 0.7"/>
    <path d="M 206.64 417.69807 
C 207.553893 417.69807 208.430479 417.334976 209.076699 416.688756 
C 209.722919 416.042536 210.086012 415.165951 210.086012 414.252058 
C 210.086012 413.338164 209.722919 412.461579 209.076699 411.815359 
C 208.430479 411.169139 207.553893 410.806045 206.64 410.806045 
C 205.726107 410.806045 204.849521 411.169139 204.203301 411.815359 
C 203.557081 412.461579 203.193988 413.338164 203.193988 414.252058 
C 203.193988 415.165951 203.557081 416.042536 204.203301 416.688756 
C 204.849521 417.334976 205.726107 417.69807 206.64 417.69807 
z
" clip-path="url(#p2e3991f7db)" style="fill: #ffa500; fill-opacity: 0.7; stroke: #ffa500; stroke-opacity: 0.7"/>
    <path d="M 218.476364 416.74388 
C 219.413998 416.74388 220.313356 416.371353 220.976364 415.708346 
C 221.639371 415.045338 222.011898 414.14598 222.011898 413.208346 
C 222.011898 412.270711 221.639371 411.371353 220.976364 410.708346 
C 220.313356 410.045338 219.413998 409.672812 218.476364 409.672812 
C 217.538729 409.672812 216.639371 410.045338 215.976364 410.708346 
C 215.313356 411.371353 214.94083 412.270711 214.94083 413.208346 
C 214.94083 414.14598 215.313356 415.045338 215.976364 415.708346 
C 216.639371 416.371353 217.538729 416.74388 218.476364 416.74388 
z
" clip-path="url(#p2e3991f7db)" style="fill: #ffa500; fill-opacity: 0.7; stroke: #ffa500; stroke-opacity: 0.7"/>
    <path d="M 230.312727 415.787478 
C 231.273517 415.787478 232.195084 415.405752 232.874465 414.726371 
C 233.553846 414.046991 233.935571 413.125423 233.935571 412.164634 
C 233.935571 411.203844 233.553846 410.282277 232.874465 409.602896 
C 232.195084 408.923515 231.273517 408.541789 230.312727 408.541789 
C 229.351938 408.541789 228.43037 408.923515 227.75099 409.602896 
C 227.071609 410.282277 226.689883 411.203844 226.689883 412.164634 
C 226.689883 413.125423 227.071609 414.046991 227.75099 414.726371 
C 228.43037 415.405752 229.351938 415.787478 230.312727 415.787478 
z
" clip-path="url(#p2e3991f7db)" style="fill: #ffa500; fill-opacity: 0.7; stroke: #ffa500; stroke-opacity: 0.7"/>
    <path d="M 242.149091 414.620278 
C 243.13249 414.620278 244.075745 414.22957 244.771113 413.534201 
C 245.466481 412.838833 245.85719 411.895579 245.85719 410.912179 
C 245.85719 409.92878 245.466481 408.985525 244.771113 408.290157 
C 244.075745 407.594789 243.13249 407.20408 242.149091 407.20408 
C 241.165691 407.20408 240.222437 407.594789 239.527069 408.290157 
C 238.8317 408.985525 238.440992 409.92878 238.440992 410.912179 
C 238.440992 411.895579 238.8317 412.838833 239.527069 413.534201 
C 240.222437 414.22957 241.165691 414.620278 242.149091 414.620278 
z
" clip-path="url(#p2e3991f7db)" style="fill: #ffa500; fill-opacity: 0.7; stroke: #ffa500; stroke-opacity: 0.7"/>
    <path d="M 253.985455 413.764276 
C 254.990956 413.764276 255.955409 413.364786 256.666406 412.65379 
C 257.377402 411.942793 257.776892 410.978339 257.776892 409.972838 
C 257.776892 408.967337 257.377402 408.002884 256.666406 407.291887 
C 255.955409 406.58089 254.990956 406.181401 253.985455 406.181401 
C 252.979954 406.181401 252.0155 406.58089 251.304503 407.291887 
C 250.593507 408.002884 250.194017 408.967337 250.194017 409.972838 
C 250.194017 410.978339 250.593507 411.942793 251.304503 412.65379 
C 252.0155 413.364786 252.979954 413.764276 253.985455 413.764276 
z
" clip-path="url(#p2e3991f7db)" style="fill: #ffa500; fill-opacity: 0.7; stroke: #ffa500; stroke-opacity: 0.7"/>
    <path d="M 265.821818 412.906481 
C 266.848945 412.906481 267.834142 412.498399 268.560431 411.77211 
C 269.28672 411.045822 269.694802 410.060625 269.694802 409.033498 
C 269.694802 408.00637 269.28672 407.021173 268.560431 406.294885 
C 267.834142 405.568596 266.848945 405.160514 265.821818 405.160514 
C 264.794691 405.160514 263.809494 405.568596 263.083205 406.294885 
C 262.356917 407.021173 261.948835 408.00637 261.948835 409.033498 
C 261.948835 410.060625 262.356917 411.045822 263.083205 411.77211 
C 263.809494 412.498399 264.794691 412.906481 265.821818 412.906481 
z
" clip-path="url(#p2e3991f7db)" style="fill: #ffa500; fill-opacity: 0.7; stroke: #ffa500; stroke-opacity: 0.7"/>
    <path d="M 277.658182 412.047004 
C 278.706489 412.047004 279.712002 411.630507 280.453267 410.889242 
C 281.194532 410.147977 281.611029 409.142464 281.611029 408.094157 
C 281.611029 407.04585 281.194532 406.040337 280.453267 405.299072 
C 279.712002 404.557807 278.706489 404.14131 277.658182 404.14131 
C 276.609875 404.14131 275.604362 404.557807 274.863097 405.299072 
C 274.121832 406.040337 273.705335 407.04585 273.705335 408.094157 
C 273.705335 409.142464 274.121832 410.147977 274.863097 410.889242 
C 275.604362 411.630507 276.609875 412.047004 277.658182 412.047004 
z
" clip-path="url(#p2e3991f7db)" style="fill: #ffa500; fill-opacity: 0.7; stroke: #ffa500; stroke-opacity: 0.7"/>
    <path d="M 289.494545 411.081574 
C 290.563613 411.081574 291.589039 410.656829 292.344984 409.900883 
C 293.100929 409.144938 293.525674 408.119513 293.525674 407.050445 
C 293.525674 405.981377 293.100929 404.955951 292.344984 404.200006 
C 291.589039 403.444061 290.563613 403.019316 289.494545 403.019316 
C 288.425478 403.019316 287.400052 403.444061 286.644107 404.200006 
C 285.888162 404.955951 285.463417 405.981377 285.463417 407.050445 
C 285.463417 408.119513 285.888162 409.144938 286.644107 409.900883 
C 287.400052 410.656829 288.425478 411.081574 289.494545 411.081574 
z
" clip-path="url(#p2e3991f7db)" style="fill: #ffa500; fill-opacity: 0.7; stroke: #ffa500; stroke-opacity: 0.7"/>
    <path d="M 301.330909 410.114652 
C 302.420342 410.114652 303.465301 409.681816 304.235647 408.91147 
C 305.005992 408.141125 305.438828 407.096166 305.438828 406.006733 
C 305.438828 404.9173 305.005992 403.872341 304.235647 403.101995 
C 303.465301 402.33165 302.420342 401.898814 301.330909 401.898814 
C 300.241476 401.898814 299.196517 402.33165 298.426172 403.101995 
C 297.655826 403.872341 297.22299 404.9173 297.22299 406.006733 
C 297.22299 407.096166 297.655826 408.141125 298.426172 408.91147 
C 299.196517 409.681816 300.241476 410.114652 301.330909 410.114652 
z
" clip-path="url(#p2e3991f7db)" style="fill: #ffa500; fill-opacity: 0.7; stroke: #ffa500; stroke-opacity: 0.7"/>
    <path d="M 313.167273 409.146321 
C 314.276697 409.146321 315.340831 408.705542 316.125313 407.921061 
C 316.909794 407.136579 317.350573 406.072445 317.350573 404.963021 
C 317.350573 403.853597 316.909794 402.789462 316.125313 402.004981 
C 315.340831 401.2205 314.276697 400.779721 313.167273 400.779721 
C 312.057849 400.779721 310.993714 401.2205 310.209233 402.004981 
C 309.424751 402.789462 308.983973 403.853597 308.983973 404.963021 
C 308.983973 406.072445 309.424751 407.136579 310.209233 407.921061 
C 310.993714 408.705542 312.057849 409.146321 313.167273 409.146321 
z
" clip-path="url(#p2e3991f7db)" style="fill: #ffa500; fill-opacity: 0.7; stroke: #ffa500; stroke-opacity: 0.7"/>
    <path d="M 325.003636 408.176655 
C 326.132698 408.176655 327.215668 407.728074 328.014035 406.929707 
C 328.812402 406.13134 329.260983 405.04837 329.260983 403.919309 
C 329.260983 402.790247 328.812402 401.707277 328.014035 400.90891 
C 327.215668 400.110543 326.132698 399.661962 325.003636 399.661962 
C 323.874575 399.661962 322.791605 400.110543 321.993238 400.90891 
C 321.194871 401.707277 320.74629 402.790247 320.74629 403.919309 
C 320.74629 405.04837 321.194871 406.13134 321.993238 406.929707 
C 322.791605 407.728074 323.874575 408.176655 325.003636 408.176655 
z
" clip-path="url(#p2e3991f7db)" style="fill: #ffa500; fill-opacity: 0.7; stroke: #ffa500; stroke-opacity: 0.7"/>
    <path d="M 336.84 407.205724 
C 337.988363 407.205724 339.089847 406.749474 339.901862 405.937459 
C 340.713878 405.125444 341.170127 404.02396 341.170127 402.875597 
C 341.170127 401.727234 340.713878 400.62575 339.901862 399.813735 
C 339.089847 399.001719 337.988363 398.54547 336.84 398.54547 
C 335.691637 398.54547 334.590153 399.001719 333.778138 399.813735 
C 332.966122 400.62575 332.509873 401.727234 332.509873 402.875597 
C 332.509873 404.02396 332.966122 405.125444 333.778138 405.937459 
C 334.590153 406.749474 335.691637 407.205724 336.84 407.205724 
z
" clip-path="url(#p2e3991f7db)" style="fill: #ffa500; fill-opacity: 0.7; stroke: #ffa500; stroke-opacity: 0.7"/>
   </g>
   <g id="matplotlib.axis_3">
    <g id="ytick_10">
     <g id="line2d_34">
      <defs>
       <path id="me4070ba2cf" d="M 0 0 
L 3.5 0 
" style="stroke: #000000; stroke-width: 0.8"/>
      </defs>
      <g>
       <use xlink:href="#me4070ba2cf" x="362.88" y="427.5072" style="stroke: #000000; stroke-width: 0.8"/>
      </g>
     </g>
     <g id="text_35">
      <!-- 0 -->
      <g transform="translate(369.88 430.9447)scale(0.1 -0.1)">
       <use xlink:href="#SimHei-30"/>
      </g>
     </g>
    </g>
    <g id="ytick_11">
     <g id="line2d_35">
      <g>
       <use xlink:href="#me4070ba2cf" x="362.88" y="375.3216" style="stroke: #000000; stroke-width: 0.8"/>
      </g>
     </g>
     <g id="text_36">
      <!-- 500 -->
      <g transform="translate(369.88 378.7591)scale(0.1 -0.1)">
       <use xlink:href="#SimHei-35"/>
       <use xlink:href="#SimHei-30" x="50"/>
       <use xlink:href="#SimHei-30" x="100"/>
      </g>
     </g>
    </g>
    <g id="ytick_12">
     <g id="line2d_36">
      <g>
       <use xlink:href="#me4070ba2cf" x="362.88" y="323.136" style="stroke: #000000; stroke-width: 0.8"/>
      </g>
     </g>
     <g id="text_37">
      <!-- 1000 -->
      <g transform="translate(369.88 326.5735)scale(0.1 -0.1)">
       <use xlink:href="#SimHei-31"/>
       <use xlink:href="#SimHei-30" x="50"/>
       <use xlink:href="#SimHei-30" x="100"/>
       <use xlink:href="#SimHei-30" x="150"/>
      </g>
     </g>
    </g>
    <g id="ytick_13">
     <g id="line2d_37">
      <g>
       <use xlink:href="#me4070ba2cf" x="362.88" y="270.9504" style="stroke: #000000; stroke-width: 0.8"/>
      </g>
     </g>
     <g id="text_38">
      <!-- 1500 -->
      <g transform="translate(369.88 274.3879)scale(0.1 -0.1)">
       <use xlink:href="#SimHei-31"/>
       <use xlink:href="#SimHei-35" x="50"/>
       <use xlink:href="#SimHei-30" x="100"/>
       <use xlink:href="#SimHei-30" x="150"/>
      </g>
     </g>
    </g>
    <g id="ytick_14">
     <g id="line2d_38">
      <g>
       <use xlink:href="#me4070ba2cf" x="362.88" y="218.7648" style="stroke: #000000; stroke-width: 0.8"/>
      </g>
     </g>
     <g id="text_39">
      <!-- 2000 -->
      <g transform="translate(369.88 222.2023)scale(0.1 -0.1)">
       <use xlink:href="#SimHei-32"/>
       <use xlink:href="#SimHei-30" x="50"/>
       <use xlink:href="#SimHei-30" x="100"/>
       <use xlink:href="#SimHei-30" x="150"/>
      </g>
     </g>
    </g>
    <g id="ytick_15">
     <g id="line2d_39">
      <g>
       <use xlink:href="#me4070ba2cf" x="362.88" y="166.5792" style="stroke: #000000; stroke-width: 0.8"/>
      </g>
     </g>
     <g id="text_40">
      <!-- 2500 -->
      <g transform="translate(369.88 170.0167)scale(0.1 -0.1)">
       <use xlink:href="#SimHei-32"/>
       <use xlink:href="#SimHei-35" x="50"/>
       <use xlink:href="#SimHei-30" x="100"/>
       <use xlink:href="#SimHei-30" x="150"/>
      </g>
     </g>
    </g>
    <g id="ytick_16">
     <g id="line2d_40">
      <g>
       <use xlink:href="#me4070ba2cf" x="362.88" y="114.3936" style="stroke: #000000; stroke-width: 0.8"/>
      </g>
     </g>
     <g id="text_41">
      <!-- 3000 -->
      <g transform="translate(369.88 117.8311)scale(0.1 -0.1)">
       <use xlink:href="#SimHei-33"/>
       <use xlink:href="#SimHei-30" x="50"/>
       <use xlink:href="#SimHei-30" x="100"/>
       <use xlink:href="#SimHei-30" x="150"/>
      </g>
     </g>
    </g>
    <g id="ytick_17">
     <g id="line2d_41">
      <g>
       <use xlink:href="#me4070ba2cf" x="362.88" y="62.208" style="stroke: #000000; stroke-width: 0.8"/>
      </g>
     </g>
     <g id="text_42">
      <!-- 3500 -->
      <g transform="translate(369.88 65.6455)scale(0.1 -0.1)">
       <use xlink:href="#SimHei-33"/>
       <use xlink:href="#SimHei-35" x="50"/>
       <use xlink:href="#SimHei-30" x="100"/>
       <use xlink:href="#SimHei-30" x="150"/>
      </g>
     </g>
    </g>
   </g>
   <g id="patch_8">
    <path d="M 50.4 453.6 
L 50.4 62.208 
" style="fill: none"/>
   </g>
   <g id="patch_9">
    <path d="M 362.88 453.6 
L 362.88 62.208 
" style="fill: none"/>
   </g>
   <g id="patch_10">
    <path d="M 50.4 453.6 
L 362.88 453.6 
" style="fill: none"/>
   </g>
   <g id="patch_11">
    <path d="M 50.4 62.208 
L 362.88 62.208 
" style="fill: none"/>
   </g>
   <g id="legend_2">
    <g id="PathCollection_3">
     <defs>
      <path id="m8885500455" d="M 0 8.329166 
C 2.208921 8.329166 4.327667 7.451552 5.889609 5.889609 
C 7.451552 4.327667 8.329166 2.208921 8.329166 0 
C 8.329166 -2.208921 7.451552 -4.327667 5.889609 -5.889609 
C 4.327667 -7.451552 2.208921 -8.329166 0 -8.329166 
C -2.208921 -8.329166 -4.327667 -7.451552 -5.889609 -5.889609 
C -7.451552 -4.327667 -8.329166 -2.208921 -8.329166 0 
C -8.329166 2.208921 -7.451552 4.327667 -5.889609 5.889609 
C -4.327667 7.451552 -2.208921 8.329166 0 8.329166 
z
" style="stroke: #00ffff; stroke-opacity: 0.7"/>
     </defs>
     <g>
      <use xlink:href="#m8885500455" x="69.4" y="75.887687" style="fill: #00ffff; fill-opacity: 0.7; stroke: #00ffff; stroke-opacity: 0.7"/>
     </g>
    </g>
    <g id="text_43">
     <!-- Students (10K) -->
     <g transform="translate(87.4 78.512687)scale(0.1 -0.1)">
      <defs>
       <path id="SimHei-53" d="M 2900 1325 
Q 2900 750 2537 412 
Q 2175 75 1550 75 
Q 925 75 575 425 
Q 225 775 225 1300 
L 225 1475 
L 800 1475 
L 800 1325 
Q 800 950 1025 750 
Q 1250 550 1550 550 
Q 1950 550 2137 762 
Q 2325 975 2325 1275 
Q 2325 1525 2100 1737 
Q 1875 1950 1450 2125 
Q 850 2350 587 2625 
Q 325 2900 325 3275 
Q 325 3800 687 4125 
Q 1050 4450 1550 4450 
Q 2200 4450 2487 4062 
Q 2775 3675 2775 3225 
L 2200 3225 
Q 2225 3500 2050 3725 
Q 1875 3950 1550 3950 
Q 1250 3950 1075 3787 
Q 900 3625 900 3350 
Q 900 3125 1037 2962 
Q 1175 2800 1750 2575 
Q 2300 2350 2600 2037 
Q 2900 1725 2900 1325 
z
" transform="scale(0.015625)"/>
      </defs>
      <use xlink:href="#SimHei-53"/>
      <use xlink:href="#SimHei-74" x="50"/>
      <use xlink:href="#SimHei-75" x="100"/>
      <use xlink:href="#SimHei-64" x="150"/>
      <use xlink:href="#SimHei-65" x="200"/>
      <use xlink:href="#SimHei-6e" x="250"/>
      <use xlink:href="#SimHei-74" x="300"/>
      <use xlink:href="#SimHei-73" x="350"/>
      <use xlink:href="#SimHei-20" x="400"/>
      <use xlink:href="#SimHei-28" x="450"/>
      <use xlink:href="#SimHei-31" x="500"/>
      <use xlink:href="#SimHei-30" x="550"/>
      <use xlink:href="#SimHei-4b" x="600"/>
      <use xlink:href="#SimHei-29" x="650"/>
     </g>
    </g>
    <g id="PathCollection_4">
     <defs>
      <path id="me19064917c" d="M 0 3.400368 
C 0.901788 3.400368 1.766763 3.042083 2.404423 2.404423 
C 3.042083 1.766763 3.400368 0.901788 3.400368 0 
C 3.400368 -0.901788 3.042083 -1.766763 2.404423 -2.404423 
C 1.766763 -3.042083 0.901788 -3.400368 0 -3.400368 
C -0.901788 -3.400368 -1.766763 -3.042083 -2.404423 -2.404423 
C -3.042083 -1.766763 -3.400368 -0.901788 -3.400368 0 
C -3.400368 0.901788 -3.042083 1.766763 -2.404423 2.404423 
C -1.766763 3.042083 -0.901788 3.400368 0 3.400368 
z
" style="stroke: #ffa500; stroke-opacity: 0.7"/>
     </defs>
     <g>
      <use xlink:href="#me19064917c" x="69.4" y="89.442375" style="fill: #ffa500; fill-opacity: 0.7; stroke: #ffa500; stroke-opacity: 0.7"/>
     </g>
    </g>
    <g id="text_44">
     <!-- Teachers (10K) -->
     <g transform="translate(87.4 92.067375)scale(0.1 -0.1)">
      <defs>
       <path id="SimHei-72" d="M 2500 2425 
Q 2025 2500 1700 2287 
Q 1375 2075 1150 1550 
L 1150 125 
L 650 125 
L 650 2925 
L 1150 2925 
L 1150 2200 
Q 1375 2600 1712 2787 
Q 2050 2975 2500 2975 
L 2500 2425 
z
" transform="scale(0.015625)"/>
      </defs>
      <use xlink:href="#SimHei-54"/>
      <use xlink:href="#SimHei-65" x="50"/>
      <use xlink:href="#SimHei-61" x="100"/>
      <use xlink:href="#SimHei-63" x="150"/>
      <use xlink:href="#SimHei-68" x="200"/>
      <use xlink:href="#SimHei-65" x="250"/>
      <use xlink:href="#SimHei-72" x="300"/>
      <use xlink:href="#SimHei-73" x="350"/>
      <use xlink:href="#SimHei-20" x="400"/>
      <use xlink:href="#SimHei-28" x="450"/>
      <use xlink:href="#SimHei-31" x="500"/>
      <use xlink:href="#SimHei-30" x="550"/>
      <use xlink:href="#SimHei-4b" x="600"/>
      <use xlink:href="#SimHei-29" x="650"/>
     </g>
    </g>
   </g>
  </g>
 </g>
 <defs>
  <clipPath id="p2e3991f7db">
   <rect x="50.4" y="62.208" width="312.48" height="391.392"/>
  </clipPath>
 </defs>
</svg>
