<?xml version="1.0" encoding="utf-8" standalone="no"?>
<!DOCTYPE svg PUBLIC "-//W3C//DTD SVG 1.1//EN"
  "http://www.w3.org/Graphics/SVG/1.1/DTD/svg11.dtd">
<svg xmlns:xlink="http://www.w3.org/1999/xlink" width="403.2pt" height="518.4pt" viewBox="0 0 403.2 518.4" xmlns="http://www.w3.org/2000/svg" version="1.1">
 <metadata>
  <rdf:RDF xmlns:dc="http://purl.org/dc/elements/1.1/" xmlns:cc="http://creativecommons.org/ns#" xmlns:rdf="http://www.w3.org/1999/02/22-rdf-syntax-ns#">
   <cc:Work>
    <dc:type rdf:resource="http://purl.org/dc/dcmitype/StillImage"/>
    <dc:date>2022-10-26T18:25:51.507647</dc:date>
    <dc:format>image/svg+xml</dc:format>
    <dc:creator>
     <cc:Agent>
      <dc:title>Matplotlib v3.5.3, https://matplotlib.org/</dc:title>
     </cc:Agent>
    </dc:creator>
   </cc:Work>
  </rdf:RDF>
 </metadata>
 <defs>
  <style type="text/css">*{stroke-linejoin: round; stroke-linecap: butt}</style>
 </defs>
 <g id="figure_1">
  <g id="patch_1">
   <path d="M 0 518.4 
L 403.2 518.4 
L 403.2 0 
L 0 0 
L 0 518.4 
z
" style="fill: none"/>
  </g>
  <g id="axes_1">
   <g id="patch_2">
    <path d="M 50.4 453.6 
L 362.88 453.6 
L 362.88 62.208 
L 50.4 62.208 
z
" style="fill: #ffffff"/>
   </g>
   <g id="PolyCollection_1">
    <path d="M 64.603636 402.2298 
L 64.603636 404.676 
L 76.44 404.43138 
L 88.276364 403.94214 
L 100.112727 403.69752 
L 111.949091 398.5605 
L 123.785455 388.89801 
L 135.621818 379.11321 
L 147.458182 369.32841 
L 159.294545 364.43601 
L 171.130909 360.15516 
L 182.967273 350.12574 
L 194.803636 346.45644 
L 206.64 344.25486 
L 218.476364 341.80866 
L 230.312727 339.36246 
L 242.149091 336.818412 
L 253.985455 334.47006 
L 265.821818 332.14617 
L 277.658182 329.94459 
L 289.494545 327.74301 
L 301.330909 325.54143 
L 313.167273 323.33985 
L 325.003636 321.01596 
L 336.84 318.81438 
L 336.84 307.80648 
L 336.84 307.80648 
L 325.003636 310.4973 
L 313.167273 313.31043 
L 301.330909 316.00125 
L 289.494545 318.69207 
L 277.658182 321.38289 
L 265.821818 324.07371 
L 253.985455 326.64222 
L 242.149091 329.33304 
L 230.312727 331.77924 
L 218.476364 334.47006 
L 206.64 337.16088 
L 194.803636 339.8517 
L 182.967273 343.27638 
L 171.130909 355.01814 
L 159.294545 359.54361 
L 147.458182 364.92525 
L 135.621818 374.95467 
L 123.785455 385.22871 
L 111.949091 394.64658 
L 100.112727 401.0067 
L 88.276364 399.04974 
L 76.44 401.98518 
L 64.603636 402.2298 
z
" clip-path="url(#p3d8931d360)" style="fill: #0000ff; fill-opacity: 0.6"/>
   </g>
   <g id="matplotlib.axis_1">
    <g id="xtick_1">
     <g id="line2d_1">
      <defs>
       <path id="mde547d0e84" d="M 0 0 
L 0 3.5 
" style="stroke: #000000; stroke-width: 0.8"/>
      </defs>
      <g>
       <use xlink:href="#mde547d0e84" x="64.603636" y="453.6" style="stroke: #000000; stroke-width: 0.8"/>
      </g>
     </g>
     <g id="text_1">
      <!-- 1997 -->
      <g transform="translate(67.363011 486.05)rotate(-90)scale(0.1 -0.1)">
       <defs>
        <path id="DejaVuSans-31" d="M 794 531 
L 1825 531 
L 1825 4091 
L 703 3866 
L 703 4441 
L 1819 4666 
L 2450 4666 
L 2450 531 
L 3481 531 
L 3481 0 
L 794 0 
L 794 531 
z
" transform="scale(0.015625)"/>
        <path id="DejaVuSans-39" d="M 703 97 
L 703 672 
Q 941 559 1184 500 
Q 1428 441 1663 441 
Q 2288 441 2617 861 
Q 2947 1281 2994 2138 
Q 2813 1869 2534 1725 
Q 2256 1581 1919 1581 
Q 1219 1581 811 2004 
Q 403 2428 403 3163 
Q 403 3881 828 4315 
Q 1253 4750 1959 4750 
Q 2769 4750 3195 4129 
Q 3622 3509 3622 2328 
Q 3622 1225 3098 567 
Q 2575 -91 1691 -91 
Q 1453 -91 1209 -44 
Q 966 3 703 97 
z
M 1959 2075 
Q 2384 2075 2632 2365 
Q 2881 2656 2881 3163 
Q 2881 3666 2632 3958 
Q 2384 4250 1959 4250 
Q 1534 4250 1286 3958 
Q 1038 3666 1038 3163 
Q 1038 2656 1286 2365 
Q 1534 2075 1959 2075 
z
" transform="scale(0.015625)"/>
        <path id="DejaVuSans-37" d="M 525 4666 
L 3525 4666 
L 3525 4397 
L 1831 0 
L 1172 0 
L 2766 4134 
L 525 4134 
L 525 4666 
z
" transform="scale(0.015625)"/>
       </defs>
       <use xlink:href="#DejaVuSans-31"/>
       <use xlink:href="#DejaVuSans-39" x="63.623047"/>
       <use xlink:href="#DejaVuSans-39" x="127.246094"/>
       <use xlink:href="#DejaVuSans-37" x="190.869141"/>
      </g>
     </g>
    </g>
    <g id="xtick_2">
     <g id="line2d_2">
      <g>
       <use xlink:href="#mde547d0e84" x="76.44" y="453.6" style="stroke: #000000; stroke-width: 0.8"/>
      </g>
     </g>
     <g id="text_2">
      <!-- 1998 -->
      <g transform="translate(79.199375 486.05)rotate(-90)scale(0.1 -0.1)">
       <defs>
        <path id="DejaVuSans-38" d="M 2034 2216 
Q 1584 2216 1326 1975 
Q 1069 1734 1069 1313 
Q 1069 891 1326 650 
Q 1584 409 2034 409 
Q 2484 409 2743 651 
Q 3003 894 3003 1313 
Q 3003 1734 2745 1975 
Q 2488 2216 2034 2216 
z
M 1403 2484 
Q 997 2584 770 2862 
Q 544 3141 544 3541 
Q 544 4100 942 4425 
Q 1341 4750 2034 4750 
Q 2731 4750 3128 4425 
Q 3525 4100 3525 3541 
Q 3525 3141 3298 2862 
Q 3072 2584 2669 2484 
Q 3125 2378 3379 2068 
Q 3634 1759 3634 1313 
Q 3634 634 3220 271 
Q 2806 -91 2034 -91 
Q 1263 -91 848 271 
Q 434 634 434 1313 
Q 434 1759 690 2068 
Q 947 2378 1403 2484 
z
M 1172 3481 
Q 1172 3119 1398 2916 
Q 1625 2713 2034 2713 
Q 2441 2713 2670 2916 
Q 2900 3119 2900 3481 
Q 2900 3844 2670 4047 
Q 2441 4250 2034 4250 
Q 1625 4250 1398 4047 
Q 1172 3844 1172 3481 
z
" transform="scale(0.015625)"/>
       </defs>
       <use xlink:href="#DejaVuSans-31"/>
       <use xlink:href="#DejaVuSans-39" x="63.623047"/>
       <use xlink:href="#DejaVuSans-39" x="127.246094"/>
       <use xlink:href="#DejaVuSans-38" x="190.869141"/>
      </g>
     </g>
    </g>
    <g id="xtick_3">
     <g id="line2d_3">
      <g>
       <use xlink:href="#mde547d0e84" x="88.276364" y="453.6" style="stroke: #000000; stroke-width: 0.8"/>
      </g>
     </g>
     <g id="text_3">
      <!-- 1999 -->
      <g transform="translate(91.035739 486.05)rotate(-90)scale(0.1 -0.1)">
       <use xlink:href="#DejaVuSans-31"/>
       <use xlink:href="#DejaVuSans-39" x="63.623047"/>
       <use xlink:href="#DejaVuSans-39" x="127.246094"/>
       <use xlink:href="#DejaVuSans-39" x="190.869141"/>
      </g>
     </g>
    </g>
    <g id="xtick_4">
     <g id="line2d_4">
      <g>
       <use xlink:href="#mde547d0e84" x="100.112727" y="453.6" style="stroke: #000000; stroke-width: 0.8"/>
      </g>
     </g>
     <g id="text_4">
      <!-- 2000 -->
      <g transform="translate(102.872102 486.05)rotate(-90)scale(0.1 -0.1)">
       <defs>
        <path id="DejaVuSans-32" d="M 1228 531 
L 3431 531 
L 3431 0 
L 469 0 
L 469 531 
Q 828 903 1448 1529 
Q 2069 2156 2228 2338 
Q 2531 2678 2651 2914 
Q 2772 3150 2772 3378 
Q 2772 3750 2511 3984 
Q 2250 4219 1831 4219 
Q 1534 4219 1204 4116 
Q 875 4013 500 3803 
L 500 4441 
Q 881 4594 1212 4672 
Q 1544 4750 1819 4750 
Q 2544 4750 2975 4387 
Q 3406 4025 3406 3419 
Q 3406 3131 3298 2873 
Q 3191 2616 2906 2266 
Q 2828 2175 2409 1742 
Q 1991 1309 1228 531 
z
" transform="scale(0.015625)"/>
        <path id="DejaVuSans-30" d="M 2034 4250 
Q 1547 4250 1301 3770 
Q 1056 3291 1056 2328 
Q 1056 1369 1301 889 
Q 1547 409 2034 409 
Q 2525 409 2770 889 
Q 3016 1369 3016 2328 
Q 3016 3291 2770 3770 
Q 2525 4250 2034 4250 
z
M 2034 4750 
Q 2819 4750 3233 4129 
Q 3647 3509 3647 2328 
Q 3647 1150 3233 529 
Q 2819 -91 2034 -91 
Q 1250 -91 836 529 
Q 422 1150 422 2328 
Q 422 3509 836 4129 
Q 1250 4750 2034 4750 
z
" transform="scale(0.015625)"/>
       </defs>
       <use xlink:href="#DejaVuSans-32"/>
       <use xlink:href="#DejaVuSans-30" x="63.623047"/>
       <use xlink:href="#DejaVuSans-30" x="127.246094"/>
       <use xlink:href="#DejaVuSans-30" x="190.869141"/>
      </g>
     </g>
    </g>
    <g id="xtick_5">
     <g id="line2d_5">
      <g>
       <use xlink:href="#mde547d0e84" x="111.949091" y="453.6" style="stroke: #000000; stroke-width: 0.8"/>
      </g>
     </g>
     <g id="text_5">
      <!-- 2001 -->
      <g transform="translate(114.708466 486.05)rotate(-90)scale(0.1 -0.1)">
       <use xlink:href="#DejaVuSans-32"/>
       <use xlink:href="#DejaVuSans-30" x="63.623047"/>
       <use xlink:href="#DejaVuSans-30" x="127.246094"/>
       <use xlink:href="#DejaVuSans-31" x="190.869141"/>
      </g>
     </g>
    </g>
    <g id="xtick_6">
     <g id="line2d_6">
      <g>
       <use xlink:href="#mde547d0e84" x="123.785455" y="453.6" style="stroke: #000000; stroke-width: 0.8"/>
      </g>
     </g>
     <g id="text_6">
      <!-- 2002 -->
      <g transform="translate(126.54483 486.05)rotate(-90)scale(0.1 -0.1)">
       <use xlink:href="#DejaVuSans-32"/>
       <use xlink:href="#DejaVuSans-30" x="63.623047"/>
       <use xlink:href="#DejaVuSans-30" x="127.246094"/>
       <use xlink:href="#DejaVuSans-32" x="190.869141"/>
      </g>
     </g>
    </g>
    <g id="xtick_7">
     <g id="line2d_7">
      <g>
       <use xlink:href="#mde547d0e84" x="135.621818" y="453.6" style="stroke: #000000; stroke-width: 0.8"/>
      </g>
     </g>
     <g id="text_7">
      <!-- 2003 -->
      <g transform="translate(138.381193 486.05)rotate(-90)scale(0.1 -0.1)">
       <defs>
        <path id="DejaVuSans-33" d="M 2597 2516 
Q 3050 2419 3304 2112 
Q 3559 1806 3559 1356 
Q 3559 666 3084 287 
Q 2609 -91 1734 -91 
Q 1441 -91 1130 -33 
Q 819 25 488 141 
L 488 750 
Q 750 597 1062 519 
Q 1375 441 1716 441 
Q 2309 441 2620 675 
Q 2931 909 2931 1356 
Q 2931 1769 2642 2001 
Q 2353 2234 1838 2234 
L 1294 2234 
L 1294 2753 
L 1863 2753 
Q 2328 2753 2575 2939 
Q 2822 3125 2822 3475 
Q 2822 3834 2567 4026 
Q 2313 4219 1838 4219 
Q 1578 4219 1281 4162 
Q 984 4106 628 3988 
L 628 4550 
Q 988 4650 1302 4700 
Q 1616 4750 1894 4750 
Q 2613 4750 3031 4423 
Q 3450 4097 3450 3541 
Q 3450 3153 3228 2886 
Q 3006 2619 2597 2516 
z
" transform="scale(0.015625)"/>
       </defs>
       <use xlink:href="#DejaVuSans-32"/>
       <use xlink:href="#DejaVuSans-30" x="63.623047"/>
       <use xlink:href="#DejaVuSans-30" x="127.246094"/>
       <use xlink:href="#DejaVuSans-33" x="190.869141"/>
      </g>
     </g>
    </g>
    <g id="xtick_8">
     <g id="line2d_8">
      <g>
       <use xlink:href="#mde547d0e84" x="147.458182" y="453.6" style="stroke: #000000; stroke-width: 0.8"/>
      </g>
     </g>
     <g id="text_8">
      <!-- 2004 -->
      <g transform="translate(150.217557 486.05)rotate(-90)scale(0.1 -0.1)">
       <defs>
        <path id="DejaVuSans-34" d="M 2419 4116 
L 825 1625 
L 2419 1625 
L 2419 4116 
z
M 2253 4666 
L 3047 4666 
L 3047 1625 
L 3713 1625 
L 3713 1100 
L 3047 1100 
L 3047 0 
L 2419 0 
L 2419 1100 
L 313 1100 
L 313 1709 
L 2253 4666 
z
" transform="scale(0.015625)"/>
       </defs>
       <use xlink:href="#DejaVuSans-32"/>
       <use xlink:href="#DejaVuSans-30" x="63.623047"/>
       <use xlink:href="#DejaVuSans-30" x="127.246094"/>
       <use xlink:href="#DejaVuSans-34" x="190.869141"/>
      </g>
     </g>
    </g>
    <g id="xtick_9">
     <g id="line2d_9">
      <g>
       <use xlink:href="#mde547d0e84" x="159.294545" y="453.6" style="stroke: #000000; stroke-width: 0.8"/>
      </g>
     </g>
     <g id="text_9">
      <!-- 2005 -->
      <g transform="translate(162.05392 486.05)rotate(-90)scale(0.1 -0.1)">
       <defs>
        <path id="DejaVuSans-35" d="M 691 4666 
L 3169 4666 
L 3169 4134 
L 1269 4134 
L 1269 2991 
Q 1406 3038 1543 3061 
Q 1681 3084 1819 3084 
Q 2600 3084 3056 2656 
Q 3513 2228 3513 1497 
Q 3513 744 3044 326 
Q 2575 -91 1722 -91 
Q 1428 -91 1123 -41 
Q 819 9 494 109 
L 494 744 
Q 775 591 1075 516 
Q 1375 441 1709 441 
Q 2250 441 2565 725 
Q 2881 1009 2881 1497 
Q 2881 1984 2565 2268 
Q 2250 2553 1709 2553 
Q 1456 2553 1204 2497 
Q 953 2441 691 2322 
L 691 4666 
z
" transform="scale(0.015625)"/>
       </defs>
       <use xlink:href="#DejaVuSans-32"/>
       <use xlink:href="#DejaVuSans-30" x="63.623047"/>
       <use xlink:href="#DejaVuSans-30" x="127.246094"/>
       <use xlink:href="#DejaVuSans-35" x="190.869141"/>
      </g>
     </g>
    </g>
    <g id="xtick_10">
     <g id="line2d_10">
      <g>
       <use xlink:href="#mde547d0e84" x="171.130909" y="453.6" style="stroke: #000000; stroke-width: 0.8"/>
      </g>
     </g>
     <g id="text_10">
      <!-- 2006 -->
      <g transform="translate(173.890284 486.05)rotate(-90)scale(0.1 -0.1)">
       <defs>
        <path id="DejaVuSans-36" d="M 2113 2584 
Q 1688 2584 1439 2293 
Q 1191 2003 1191 1497 
Q 1191 994 1439 701 
Q 1688 409 2113 409 
Q 2538 409 2786 701 
Q 3034 994 3034 1497 
Q 3034 2003 2786 2293 
Q 2538 2584 2113 2584 
z
M 3366 4563 
L 3366 3988 
Q 3128 4100 2886 4159 
Q 2644 4219 2406 4219 
Q 1781 4219 1451 3797 
Q 1122 3375 1075 2522 
Q 1259 2794 1537 2939 
Q 1816 3084 2150 3084 
Q 2853 3084 3261 2657 
Q 3669 2231 3669 1497 
Q 3669 778 3244 343 
Q 2819 -91 2113 -91 
Q 1303 -91 875 529 
Q 447 1150 447 2328 
Q 447 3434 972 4092 
Q 1497 4750 2381 4750 
Q 2619 4750 2861 4703 
Q 3103 4656 3366 4563 
z
" transform="scale(0.015625)"/>
       </defs>
       <use xlink:href="#DejaVuSans-32"/>
       <use xlink:href="#DejaVuSans-30" x="63.623047"/>
       <use xlink:href="#DejaVuSans-30" x="127.246094"/>
       <use xlink:href="#DejaVuSans-36" x="190.869141"/>
      </g>
     </g>
    </g>
    <g id="xtick_11">
     <g id="line2d_11">
      <g>
       <use xlink:href="#mde547d0e84" x="182.967273" y="453.6" style="stroke: #000000; stroke-width: 0.8"/>
      </g>
     </g>
     <g id="text_11">
      <!-- 2007 -->
      <g transform="translate(185.726648 486.05)rotate(-90)scale(0.1 -0.1)">
       <use xlink:href="#DejaVuSans-32"/>
       <use xlink:href="#DejaVuSans-30" x="63.623047"/>
       <use xlink:href="#DejaVuSans-30" x="127.246094"/>
       <use xlink:href="#DejaVuSans-37" x="190.869141"/>
      </g>
     </g>
    </g>
    <g id="xtick_12">
     <g id="line2d_12">
      <g>
       <use xlink:href="#mde547d0e84" x="194.803636" y="453.6" style="stroke: #000000; stroke-width: 0.8"/>
      </g>
     </g>
     <g id="text_12">
      <!-- 2008 -->
      <g transform="translate(197.563011 486.05)rotate(-90)scale(0.1 -0.1)">
       <use xlink:href="#DejaVuSans-32"/>
       <use xlink:href="#DejaVuSans-30" x="63.623047"/>
       <use xlink:href="#DejaVuSans-30" x="127.246094"/>
       <use xlink:href="#DejaVuSans-38" x="190.869141"/>
      </g>
     </g>
    </g>
    <g id="xtick_13">
     <g id="line2d_13">
      <g>
       <use xlink:href="#mde547d0e84" x="206.64" y="453.6" style="stroke: #000000; stroke-width: 0.8"/>
      </g>
     </g>
     <g id="text_13">
      <!-- 2009 -->
      <g transform="translate(209.399375 486.05)rotate(-90)scale(0.1 -0.1)">
       <use xlink:href="#DejaVuSans-32"/>
       <use xlink:href="#DejaVuSans-30" x="63.623047"/>
       <use xlink:href="#DejaVuSans-30" x="127.246094"/>
       <use xlink:href="#DejaVuSans-39" x="190.869141"/>
      </g>
     </g>
    </g>
    <g id="xtick_14">
     <g id="line2d_14">
      <g>
       <use xlink:href="#mde547d0e84" x="218.476364" y="453.6" style="stroke: #000000; stroke-width: 0.8"/>
      </g>
     </g>
     <g id="text_14">
      <!-- 2010 -->
      <g transform="translate(221.235739 486.05)rotate(-90)scale(0.1 -0.1)">
       <use xlink:href="#DejaVuSans-32"/>
       <use xlink:href="#DejaVuSans-30" x="63.623047"/>
       <use xlink:href="#DejaVuSans-31" x="127.246094"/>
       <use xlink:href="#DejaVuSans-30" x="190.869141"/>
      </g>
     </g>
    </g>
    <g id="xtick_15">
     <g id="line2d_15">
      <g>
       <use xlink:href="#mde547d0e84" x="230.312727" y="453.6" style="stroke: #000000; stroke-width: 0.8"/>
      </g>
     </g>
     <g id="text_15">
      <!-- 2011 -->
      <g transform="translate(233.072102 486.05)rotate(-90)scale(0.1 -0.1)">
       <use xlink:href="#DejaVuSans-32"/>
       <use xlink:href="#DejaVuSans-30" x="63.623047"/>
       <use xlink:href="#DejaVuSans-31" x="127.246094"/>
       <use xlink:href="#DejaVuSans-31" x="190.869141"/>
      </g>
     </g>
    </g>
    <g id="xtick_16">
     <g id="line2d_16">
      <g>
       <use xlink:href="#mde547d0e84" x="242.149091" y="453.6" style="stroke: #000000; stroke-width: 0.8"/>
      </g>
     </g>
     <g id="text_16">
      <!-- 2012 -->
      <g transform="translate(244.908466 486.05)rotate(-90)scale(0.1 -0.1)">
       <use xlink:href="#DejaVuSans-32"/>
       <use xlink:href="#DejaVuSans-30" x="63.623047"/>
       <use xlink:href="#DejaVuSans-31" x="127.246094"/>
       <use xlink:href="#DejaVuSans-32" x="190.869141"/>
      </g>
     </g>
    </g>
    <g id="xtick_17">
     <g id="line2d_17">
      <g>
       <use xlink:href="#mde547d0e84" x="253.985455" y="453.6" style="stroke: #000000; stroke-width: 0.8"/>
      </g>
     </g>
     <g id="text_17">
      <!-- 2013 -->
      <g transform="translate(256.74483 486.05)rotate(-90)scale(0.1 -0.1)">
       <use xlink:href="#DejaVuSans-32"/>
       <use xlink:href="#DejaVuSans-30" x="63.623047"/>
       <use xlink:href="#DejaVuSans-31" x="127.246094"/>
       <use xlink:href="#DejaVuSans-33" x="190.869141"/>
      </g>
     </g>
    </g>
    <g id="xtick_18">
     <g id="line2d_18">
      <g>
       <use xlink:href="#mde547d0e84" x="265.821818" y="453.6" style="stroke: #000000; stroke-width: 0.8"/>
      </g>
     </g>
     <g id="text_18">
      <!-- 2014 -->
      <g transform="translate(268.581193 486.05)rotate(-90)scale(0.1 -0.1)">
       <use xlink:href="#DejaVuSans-32"/>
       <use xlink:href="#DejaVuSans-30" x="63.623047"/>
       <use xlink:href="#DejaVuSans-31" x="127.246094"/>
       <use xlink:href="#DejaVuSans-34" x="190.869141"/>
      </g>
     </g>
    </g>
    <g id="xtick_19">
     <g id="line2d_19">
      <g>
       <use xlink:href="#mde547d0e84" x="277.658182" y="453.6" style="stroke: #000000; stroke-width: 0.8"/>
      </g>
     </g>
     <g id="text_19">
      <!-- 2015 -->
      <g transform="translate(280.417557 486.05)rotate(-90)scale(0.1 -0.1)">
       <use xlink:href="#DejaVuSans-32"/>
       <use xlink:href="#DejaVuSans-30" x="63.623047"/>
       <use xlink:href="#DejaVuSans-31" x="127.246094"/>
       <use xlink:href="#DejaVuSans-35" x="190.869141"/>
      </g>
     </g>
    </g>
    <g id="xtick_20">
     <g id="line2d_20">
      <g>
       <use xlink:href="#mde547d0e84" x="289.494545" y="453.6" style="stroke: #000000; stroke-width: 0.8"/>
      </g>
     </g>
     <g id="text_20">
      <!-- 2016 -->
      <g transform="translate(292.25392 486.05)rotate(-90)scale(0.1 -0.1)">
       <use xlink:href="#DejaVuSans-32"/>
       <use xlink:href="#DejaVuSans-30" x="63.623047"/>
       <use xlink:href="#DejaVuSans-31" x="127.246094"/>
       <use xlink:href="#DejaVuSans-36" x="190.869141"/>
      </g>
     </g>
    </g>
    <g id="xtick_21">
     <g id="line2d_21">
      <g>
       <use xlink:href="#mde547d0e84" x="301.330909" y="453.6" style="stroke: #000000; stroke-width: 0.8"/>
      </g>
     </g>
     <g id="text_21">
      <!-- 2017 -->
      <g transform="translate(304.090284 486.05)rotate(-90)scale(0.1 -0.1)">
       <use xlink:href="#DejaVuSans-32"/>
       <use xlink:href="#DejaVuSans-30" x="63.623047"/>
       <use xlink:href="#DejaVuSans-31" x="127.246094"/>
       <use xlink:href="#DejaVuSans-37" x="190.869141"/>
      </g>
     </g>
    </g>
    <g id="xtick_22">
     <g id="line2d_22">
      <g>
       <use xlink:href="#mde547d0e84" x="313.167273" y="453.6" style="stroke: #000000; stroke-width: 0.8"/>
      </g>
     </g>
     <g id="text_22">
      <!-- 2018 -->
      <g transform="translate(315.926648 486.05)rotate(-90)scale(0.1 -0.1)">
       <use xlink:href="#DejaVuSans-32"/>
       <use xlink:href="#DejaVuSans-30" x="63.623047"/>
       <use xlink:href="#DejaVuSans-31" x="127.246094"/>
       <use xlink:href="#DejaVuSans-38" x="190.869141"/>
      </g>
     </g>
    </g>
    <g id="xtick_23">
     <g id="line2d_23">
      <g>
       <use xlink:href="#mde547d0e84" x="325.003636" y="453.6" style="stroke: #000000; stroke-width: 0.8"/>
      </g>
     </g>
     <g id="text_23">
      <!-- 2019 -->
      <g transform="translate(327.763011 486.05)rotate(-90)scale(0.1 -0.1)">
       <use xlink:href="#DejaVuSans-32"/>
       <use xlink:href="#DejaVuSans-30" x="63.623047"/>
       <use xlink:href="#DejaVuSans-31" x="127.246094"/>
       <use xlink:href="#DejaVuSans-39" x="190.869141"/>
      </g>
     </g>
    </g>
    <g id="xtick_24">
     <g id="line2d_24">
      <g>
       <use xlink:href="#mde547d0e84" x="336.84" y="453.6" style="stroke: #000000; stroke-width: 0.8"/>
      </g>
     </g>
     <g id="text_24">
      <!-- 2020 -->
      <g transform="translate(339.599375 486.05)rotate(-90)scale(0.1 -0.1)">
       <use xlink:href="#DejaVuSans-32"/>
       <use xlink:href="#DejaVuSans-30" x="63.623047"/>
       <use xlink:href="#DejaVuSans-32" x="127.246094"/>
       <use xlink:href="#DejaVuSans-30" x="190.869141"/>
      </g>
     </g>
    </g>
   </g>
   <g id="matplotlib.axis_2">
    <g id="ytick_1">
     <g id="line2d_25">
      <defs>
       <path id="md2a052974d" d="M 0 0 
L -3.5 0 
" style="stroke: #000000; stroke-width: 0.8"/>
      </defs>
      <g>
       <use xlink:href="#md2a052974d" x="50.4" y="453.6" style="stroke: #000000; stroke-width: 0.8"/>
      </g>
     </g>
     <g id="text_25">
      <!-- 0 K -->
      <g transform="translate(27.301562 457.399219)scale(0.1 -0.1)">
       <defs>
        <path id="DejaVuSans-20" transform="scale(0.015625)"/>
        <path id="DejaVuSans-4b" d="M 628 4666 
L 1259 4666 
L 1259 2694 
L 3353 4666 
L 4166 4666 
L 1850 2491 
L 4331 0 
L 3500 0 
L 1259 2247 
L 1259 0 
L 628 0 
L 628 4666 
z
" transform="scale(0.015625)"/>
       </defs>
       <use xlink:href="#DejaVuSans-30"/>
       <use xlink:href="#DejaVuSans-20" x="63.623047"/>
       <use xlink:href="#DejaVuSans-4b" x="95.410156"/>
      </g>
     </g>
    </g>
    <g id="ytick_2">
     <g id="line2d_26">
      <g>
       <use xlink:href="#md2a052974d" x="50.4" y="404.676" style="stroke: #000000; stroke-width: 0.8"/>
      </g>
     </g>
     <g id="text_26">
      <!-- 2 K -->
      <g transform="translate(27.301562 408.475219)scale(0.1 -0.1)">
       <use xlink:href="#DejaVuSans-32"/>
       <use xlink:href="#DejaVuSans-20" x="63.623047"/>
       <use xlink:href="#DejaVuSans-4b" x="95.410156"/>
      </g>
     </g>
    </g>
    <g id="ytick_3">
     <g id="line2d_27">
      <g>
       <use xlink:href="#md2a052974d" x="50.4" y="355.752" style="stroke: #000000; stroke-width: 0.8"/>
      </g>
     </g>
     <g id="text_27">
      <!-- 4 K -->
      <g transform="translate(27.301562 359.551219)scale(0.1 -0.1)">
       <use xlink:href="#DejaVuSans-34"/>
       <use xlink:href="#DejaVuSans-20" x="63.623047"/>
       <use xlink:href="#DejaVuSans-4b" x="95.410156"/>
      </g>
     </g>
    </g>
    <g id="ytick_4">
     <g id="line2d_28">
      <g>
       <use xlink:href="#md2a052974d" x="50.4" y="306.828" style="stroke: #000000; stroke-width: 0.8"/>
      </g>
     </g>
     <g id="text_28">
      <!-- 6 K -->
      <g transform="translate(27.301562 310.627219)scale(0.1 -0.1)">
       <use xlink:href="#DejaVuSans-36"/>
       <use xlink:href="#DejaVuSans-20" x="63.623047"/>
       <use xlink:href="#DejaVuSans-4b" x="95.410156"/>
      </g>
     </g>
    </g>
    <g id="ytick_5">
     <g id="line2d_29">
      <g>
       <use xlink:href="#md2a052974d" x="50.4" y="257.904" style="stroke: #000000; stroke-width: 0.8"/>
      </g>
     </g>
     <g id="text_29">
      <!-- 8 K -->
      <g transform="translate(27.301562 261.703219)scale(0.1 -0.1)">
       <use xlink:href="#DejaVuSans-38"/>
       <use xlink:href="#DejaVuSans-20" x="63.623047"/>
       <use xlink:href="#DejaVuSans-4b" x="95.410156"/>
      </g>
     </g>
    </g>
    <g id="ytick_6">
     <g id="line2d_30">
      <g>
       <use xlink:href="#md2a052974d" x="50.4" y="208.98" style="stroke: #000000; stroke-width: 0.8"/>
      </g>
     </g>
     <g id="text_30">
      <!-- 10 K -->
      <g transform="translate(20.939062 212.779219)scale(0.1 -0.1)">
       <use xlink:href="#DejaVuSans-31"/>
       <use xlink:href="#DejaVuSans-30" x="63.623047"/>
       <use xlink:href="#DejaVuSans-20" x="127.246094"/>
       <use xlink:href="#DejaVuSans-4b" x="159.033203"/>
      </g>
     </g>
    </g>
    <g id="ytick_7">
     <g id="line2d_31">
      <g>
       <use xlink:href="#md2a052974d" x="50.4" y="160.056" style="stroke: #000000; stroke-width: 0.8"/>
      </g>
     </g>
     <g id="text_31">
      <!-- 12 K -->
      <g transform="translate(20.939062 163.855219)scale(0.1 -0.1)">
       <use xlink:href="#DejaVuSans-31"/>
       <use xlink:href="#DejaVuSans-32" x="63.623047"/>
       <use xlink:href="#DejaVuSans-20" x="127.246094"/>
       <use xlink:href="#DejaVuSans-4b" x="159.033203"/>
      </g>
     </g>
    </g>
    <g id="ytick_8">
     <g id="line2d_32">
      <g>
       <use xlink:href="#md2a052974d" x="50.4" y="111.132" style="stroke: #000000; stroke-width: 0.8"/>
      </g>
     </g>
     <g id="text_32">
      <!-- 14 K -->
      <g transform="translate(20.939062 114.931219)scale(0.1 -0.1)">
       <use xlink:href="#DejaVuSans-31"/>
       <use xlink:href="#DejaVuSans-34" x="63.623047"/>
       <use xlink:href="#DejaVuSans-20" x="127.246094"/>
       <use xlink:href="#DejaVuSans-4b" x="159.033203"/>
      </g>
     </g>
    </g>
    <g id="ytick_9">
     <g id="line2d_33">
      <g>
       <use xlink:href="#md2a052974d" x="50.4" y="62.208" style="stroke: #000000; stroke-width: 0.8"/>
      </g>
     </g>
    </g>
   </g>
   <g id="LineCollection_1">
    <path d="M 64.603636 404.676 
L 348.676364 404.676 
" clip-path="url(#p3d8931d360)" style="fill: none; stroke-dasharray: 5.55,2.4; stroke-dashoffset: 0; stroke: #808080; stroke-width: 1.5"/>
   </g>
   <g id="LineCollection_2">
    <path d="M 64.603636 355.752 
L 348.676364 355.752 
" clip-path="url(#p3d8931d360)" style="fill: none; stroke-dasharray: 5.55,2.4; stroke-dashoffset: 0; stroke: #808080; stroke-width: 1.5"/>
   </g>
   <g id="LineCollection_3">
    <path d="M 64.603636 306.828 
L 348.676364 306.828 
" clip-path="url(#p3d8931d360)" style="fill: none; stroke-dasharray: 5.55,2.4; stroke-dashoffset: 0; stroke: #808080; stroke-width: 1.5"/>
   </g>
   <g id="LineCollection_4">
    <path d="M 64.603636 257.904 
L 348.676364 257.904 
" clip-path="url(#p3d8931d360)" style="fill: none; stroke-dasharray: 5.55,2.4; stroke-dashoffset: 0; stroke: #808080; stroke-width: 1.5"/>
   </g>
   <g id="LineCollection_5">
    <path d="M 64.603636 208.98 
L 348.676364 208.98 
" clip-path="url(#p3d8931d360)" style="fill: none; stroke-dasharray: 5.55,2.4; stroke-dashoffset: 0; stroke: #808080; stroke-width: 1.5"/>
   </g>
   <g id="LineCollection_6">
    <path d="M 64.603636 160.056 
L 348.676364 160.056 
" clip-path="url(#p3d8931d360)" style="fill: none; stroke-dasharray: 5.55,2.4; stroke-dashoffset: 0; stroke: #808080; stroke-width: 1.5"/>
   </g>
   <g id="LineCollection_7">
    <path d="M 64.603636 111.132 
L 348.676364 111.132 
" clip-path="url(#p3d8931d360)" style="fill: none; stroke-dasharray: 5.55,2.4; stroke-dashoffset: 0; stroke: #808080; stroke-width: 1.5"/>
   </g>
   <g id="patch_3">
    <path d="M 50.4 453.6 
L 50.4 62.208 
" style="fill: none"/>
   </g>
   <g id="patch_4">
    <path d="M 362.88 453.6 
L 362.88 62.208 
" style="fill: none"/>
   </g>
   <g id="patch_5">
    <path d="M 50.4 453.6 
L 362.88 453.6 
" style="fill: none"/>
   </g>
   <g id="patch_6">
    <path d="M 50.4 62.208 
L 362.88 62.208 
" style="fill: none"/>
   </g>
   <g id="text_33">
    <!-- The development of Chinese education -->
    <g transform="translate(88.744688 42.770625)scale(0.12 -0.12)">
     <defs>
      <path id="DejaVuSans-54" d="M -19 4666 
L 3928 4666 
L 3928 4134 
L 2272 4134 
L 2272 0 
L 1638 0 
L 1638 4134 
L -19 4134 
L -19 4666 
z
" transform="scale(0.015625)"/>
      <path id="DejaVuSans-68" d="M 3513 2113 
L 3513 0 
L 2938 0 
L 2938 2094 
Q 2938 2591 2744 2837 
Q 2550 3084 2163 3084 
Q 1697 3084 1428 2787 
Q 1159 2491 1159 1978 
L 1159 0 
L 581 0 
L 581 4863 
L 1159 4863 
L 1159 2956 
Q 1366 3272 1645 3428 
Q 1925 3584 2291 3584 
Q 2894 3584 3203 3211 
Q 3513 2838 3513 2113 
z
" transform="scale(0.015625)"/>
      <path id="DejaVuSans-65" d="M 3597 1894 
L 3597 1613 
L 953 1613 
Q 991 1019 1311 708 
Q 1631 397 2203 397 
Q 2534 397 2845 478 
Q 3156 559 3463 722 
L 3463 178 
Q 3153 47 2828 -22 
Q 2503 -91 2169 -91 
Q 1331 -91 842 396 
Q 353 884 353 1716 
Q 353 2575 817 3079 
Q 1281 3584 2069 3584 
Q 2775 3584 3186 3129 
Q 3597 2675 3597 1894 
z
M 3022 2063 
Q 3016 2534 2758 2815 
Q 2500 3097 2075 3097 
Q 1594 3097 1305 2825 
Q 1016 2553 972 2059 
L 3022 2063 
z
" transform="scale(0.015625)"/>
      <path id="DejaVuSans-64" d="M 2906 2969 
L 2906 4863 
L 3481 4863 
L 3481 0 
L 2906 0 
L 2906 525 
Q 2725 213 2448 61 
Q 2172 -91 1784 -91 
Q 1150 -91 751 415 
Q 353 922 353 1747 
Q 353 2572 751 3078 
Q 1150 3584 1784 3584 
Q 2172 3584 2448 3432 
Q 2725 3281 2906 2969 
z
M 947 1747 
Q 947 1113 1208 752 
Q 1469 391 1925 391 
Q 2381 391 2643 752 
Q 2906 1113 2906 1747 
Q 2906 2381 2643 2742 
Q 2381 3103 1925 3103 
Q 1469 3103 1208 2742 
Q 947 2381 947 1747 
z
" transform="scale(0.015625)"/>
      <path id="DejaVuSans-76" d="M 191 3500 
L 800 3500 
L 1894 563 
L 2988 3500 
L 3597 3500 
L 2284 0 
L 1503 0 
L 191 3500 
z
" transform="scale(0.015625)"/>
      <path id="DejaVuSans-6c" d="M 603 4863 
L 1178 4863 
L 1178 0 
L 603 0 
L 603 4863 
z
" transform="scale(0.015625)"/>
      <path id="DejaVuSans-6f" d="M 1959 3097 
Q 1497 3097 1228 2736 
Q 959 2375 959 1747 
Q 959 1119 1226 758 
Q 1494 397 1959 397 
Q 2419 397 2687 759 
Q 2956 1122 2956 1747 
Q 2956 2369 2687 2733 
Q 2419 3097 1959 3097 
z
M 1959 3584 
Q 2709 3584 3137 3096 
Q 3566 2609 3566 1747 
Q 3566 888 3137 398 
Q 2709 -91 1959 -91 
Q 1206 -91 779 398 
Q 353 888 353 1747 
Q 353 2609 779 3096 
Q 1206 3584 1959 3584 
z
" transform="scale(0.015625)"/>
      <path id="DejaVuSans-70" d="M 1159 525 
L 1159 -1331 
L 581 -1331 
L 581 3500 
L 1159 3500 
L 1159 2969 
Q 1341 3281 1617 3432 
Q 1894 3584 2278 3584 
Q 2916 3584 3314 3078 
Q 3713 2572 3713 1747 
Q 3713 922 3314 415 
Q 2916 -91 2278 -91 
Q 1894 -91 1617 61 
Q 1341 213 1159 525 
z
M 3116 1747 
Q 3116 2381 2855 2742 
Q 2594 3103 2138 3103 
Q 1681 3103 1420 2742 
Q 1159 2381 1159 1747 
Q 1159 1113 1420 752 
Q 1681 391 2138 391 
Q 2594 391 2855 752 
Q 3116 1113 3116 1747 
z
" transform="scale(0.015625)"/>
      <path id="DejaVuSans-6d" d="M 3328 2828 
Q 3544 3216 3844 3400 
Q 4144 3584 4550 3584 
Q 5097 3584 5394 3201 
Q 5691 2819 5691 2113 
L 5691 0 
L 5113 0 
L 5113 2094 
Q 5113 2597 4934 2840 
Q 4756 3084 4391 3084 
Q 3944 3084 3684 2787 
Q 3425 2491 3425 1978 
L 3425 0 
L 2847 0 
L 2847 2094 
Q 2847 2600 2669 2842 
Q 2491 3084 2119 3084 
Q 1678 3084 1418 2786 
Q 1159 2488 1159 1978 
L 1159 0 
L 581 0 
L 581 3500 
L 1159 3500 
L 1159 2956 
Q 1356 3278 1631 3431 
Q 1906 3584 2284 3584 
Q 2666 3584 2933 3390 
Q 3200 3197 3328 2828 
z
" transform="scale(0.015625)"/>
      <path id="DejaVuSans-6e" d="M 3513 2113 
L 3513 0 
L 2938 0 
L 2938 2094 
Q 2938 2591 2744 2837 
Q 2550 3084 2163 3084 
Q 1697 3084 1428 2787 
Q 1159 2491 1159 1978 
L 1159 0 
L 581 0 
L 581 3500 
L 1159 3500 
L 1159 2956 
Q 1366 3272 1645 3428 
Q 1925 3584 2291 3584 
Q 2894 3584 3203 3211 
Q 3513 2838 3513 2113 
z
" transform="scale(0.015625)"/>
      <path id="DejaVuSans-74" d="M 1172 4494 
L 1172 3500 
L 2356 3500 
L 2356 3053 
L 1172 3053 
L 1172 1153 
Q 1172 725 1289 603 
Q 1406 481 1766 481 
L 2356 481 
L 2356 0 
L 1766 0 
Q 1100 0 847 248 
Q 594 497 594 1153 
L 594 3053 
L 172 3053 
L 172 3500 
L 594 3500 
L 594 4494 
L 1172 4494 
z
" transform="scale(0.015625)"/>
      <path id="DejaVuSans-66" d="M 2375 4863 
L 2375 4384 
L 1825 4384 
Q 1516 4384 1395 4259 
Q 1275 4134 1275 3809 
L 1275 3500 
L 2222 3500 
L 2222 3053 
L 1275 3053 
L 1275 0 
L 697 0 
L 697 3053 
L 147 3053 
L 147 3500 
L 697 3500 
L 697 3744 
Q 697 4328 969 4595 
Q 1241 4863 1831 4863 
L 2375 4863 
z
" transform="scale(0.015625)"/>
      <path id="DejaVuSans-43" d="M 4122 4306 
L 4122 3641 
Q 3803 3938 3442 4084 
Q 3081 4231 2675 4231 
Q 1875 4231 1450 3742 
Q 1025 3253 1025 2328 
Q 1025 1406 1450 917 
Q 1875 428 2675 428 
Q 3081 428 3442 575 
Q 3803 722 4122 1019 
L 4122 359 
Q 3791 134 3420 21 
Q 3050 -91 2638 -91 
Q 1578 -91 968 557 
Q 359 1206 359 2328 
Q 359 3453 968 4101 
Q 1578 4750 2638 4750 
Q 3056 4750 3426 4639 
Q 3797 4528 4122 4306 
z
" transform="scale(0.015625)"/>
      <path id="DejaVuSans-69" d="M 603 3500 
L 1178 3500 
L 1178 0 
L 603 0 
L 603 3500 
z
M 603 4863 
L 1178 4863 
L 1178 4134 
L 603 4134 
L 603 4863 
z
" transform="scale(0.015625)"/>
      <path id="DejaVuSans-73" d="M 2834 3397 
L 2834 2853 
Q 2591 2978 2328 3040 
Q 2066 3103 1784 3103 
Q 1356 3103 1142 2972 
Q 928 2841 928 2578 
Q 928 2378 1081 2264 
Q 1234 2150 1697 2047 
L 1894 2003 
Q 2506 1872 2764 1633 
Q 3022 1394 3022 966 
Q 3022 478 2636 193 
Q 2250 -91 1575 -91 
Q 1294 -91 989 -36 
Q 684 19 347 128 
L 347 722 
Q 666 556 975 473 
Q 1284 391 1588 391 
Q 1994 391 2212 530 
Q 2431 669 2431 922 
Q 2431 1156 2273 1281 
Q 2116 1406 1581 1522 
L 1381 1569 
Q 847 1681 609 1914 
Q 372 2147 372 2553 
Q 372 3047 722 3315 
Q 1072 3584 1716 3584 
Q 2034 3584 2315 3537 
Q 2597 3491 2834 3397 
z
" transform="scale(0.015625)"/>
      <path id="DejaVuSans-75" d="M 544 1381 
L 544 3500 
L 1119 3500 
L 1119 1403 
Q 1119 906 1312 657 
Q 1506 409 1894 409 
Q 2359 409 2629 706 
Q 2900 1003 2900 1516 
L 2900 3500 
L 3475 3500 
L 3475 0 
L 2900 0 
L 2900 538 
Q 2691 219 2414 64 
Q 2138 -91 1772 -91 
Q 1169 -91 856 284 
Q 544 659 544 1381 
z
M 1991 3584 
L 1991 3584 
z
" transform="scale(0.015625)"/>
      <path id="DejaVuSans-63" d="M 3122 3366 
L 3122 2828 
Q 2878 2963 2633 3030 
Q 2388 3097 2138 3097 
Q 1578 3097 1268 2742 
Q 959 2388 959 1747 
Q 959 1106 1268 751 
Q 1578 397 2138 397 
Q 2388 397 2633 464 
Q 2878 531 3122 666 
L 3122 134 
Q 2881 22 2623 -34 
Q 2366 -91 2075 -91 
Q 1284 -91 818 406 
Q 353 903 353 1747 
Q 353 2603 823 3093 
Q 1294 3584 2113 3584 
Q 2378 3584 2631 3529 
Q 2884 3475 3122 3366 
z
" transform="scale(0.015625)"/>
      <path id="DejaVuSans-61" d="M 2194 1759 
Q 1497 1759 1228 1600 
Q 959 1441 959 1056 
Q 959 750 1161 570 
Q 1363 391 1709 391 
Q 2188 391 2477 730 
Q 2766 1069 2766 1631 
L 2766 1759 
L 2194 1759 
z
M 3341 1997 
L 3341 0 
L 2766 0 
L 2766 531 
Q 2569 213 2275 61 
Q 1981 -91 1556 -91 
Q 1019 -91 701 211 
Q 384 513 384 1019 
Q 384 1609 779 1909 
Q 1175 2209 1959 2209 
L 2766 2209 
L 2766 2266 
Q 2766 2663 2505 2880 
Q 2244 3097 1772 3097 
Q 1472 3097 1187 3025 
Q 903 2953 641 2809 
L 641 3341 
Q 956 3463 1253 3523 
Q 1550 3584 1831 3584 
Q 2591 3584 2966 3190 
Q 3341 2797 3341 1997 
z
" transform="scale(0.015625)"/>
     </defs>
     <use xlink:href="#DejaVuSans-54"/>
     <use xlink:href="#DejaVuSans-68" x="61.083984"/>
     <use xlink:href="#DejaVuSans-65" x="124.462891"/>
     <use xlink:href="#DejaVuSans-20" x="185.986328"/>
     <use xlink:href="#DejaVuSans-64" x="217.773438"/>
     <use xlink:href="#DejaVuSans-65" x="281.25"/>
     <use xlink:href="#DejaVuSans-76" x="342.773438"/>
     <use xlink:href="#DejaVuSans-65" x="401.953125"/>
     <use xlink:href="#DejaVuSans-6c" x="463.476562"/>
     <use xlink:href="#DejaVuSans-6f" x="491.259766"/>
     <use xlink:href="#DejaVuSans-70" x="552.441406"/>
     <use xlink:href="#DejaVuSans-6d" x="615.917969"/>
     <use xlink:href="#DejaVuSans-65" x="713.330078"/>
     <use xlink:href="#DejaVuSans-6e" x="774.853516"/>
     <use xlink:href="#DejaVuSans-74" x="838.232422"/>
     <use xlink:href="#DejaVuSans-20" x="877.441406"/>
     <use xlink:href="#DejaVuSans-6f" x="909.228516"/>
     <use xlink:href="#DejaVuSans-66" x="970.410156"/>
     <use xlink:href="#DejaVuSans-20" x="1005.615234"/>
     <use xlink:href="#DejaVuSans-43" x="1037.402344"/>
     <use xlink:href="#DejaVuSans-68" x="1107.226562"/>
     <use xlink:href="#DejaVuSans-69" x="1170.605469"/>
     <use xlink:href="#DejaVuSans-6e" x="1198.388672"/>
     <use xlink:href="#DejaVuSans-65" x="1261.767578"/>
     <use xlink:href="#DejaVuSans-73" x="1323.291016"/>
     <use xlink:href="#DejaVuSans-65" x="1375.390625"/>
     <use xlink:href="#DejaVuSans-20" x="1436.914062"/>
     <use xlink:href="#DejaVuSans-65" x="1468.701172"/>
     <use xlink:href="#DejaVuSans-64" x="1530.224609"/>
     <use xlink:href="#DejaVuSans-75" x="1593.701172"/>
     <use xlink:href="#DejaVuSans-63" x="1657.080078"/>
     <use xlink:href="#DejaVuSans-61" x="1712.060547"/>
     <use xlink:href="#DejaVuSans-74" x="1773.339844"/>
     <use xlink:href="#DejaVuSans-69" x="1812.548828"/>
     <use xlink:href="#DejaVuSans-6f" x="1840.332031"/>
     <use xlink:href="#DejaVuSans-6e" x="1901.513672"/>
    </g>
    <!-- (1997-2020) -->
    <g transform="translate(169.253438 56.208)scale(0.12 -0.12)">
     <defs>
      <path id="DejaVuSans-28" d="M 1984 4856 
Q 1566 4138 1362 3434 
Q 1159 2731 1159 2009 
Q 1159 1288 1364 580 
Q 1569 -128 1984 -844 
L 1484 -844 
Q 1016 -109 783 600 
Q 550 1309 550 2009 
Q 550 2706 781 3412 
Q 1013 4119 1484 4856 
L 1984 4856 
z
" transform="scale(0.015625)"/>
      <path id="DejaVuSans-2d" d="M 313 2009 
L 1997 2009 
L 1997 1497 
L 313 1497 
L 313 2009 
z
" transform="scale(0.015625)"/>
      <path id="DejaVuSans-29" d="M 513 4856 
L 1013 4856 
Q 1481 4119 1714 3412 
Q 1947 2706 1947 2009 
Q 1947 1309 1714 600 
Q 1481 -109 1013 -844 
L 513 -844 
Q 928 -128 1133 580 
Q 1338 1288 1338 2009 
Q 1338 2731 1133 3434 
Q 928 4138 513 4856 
z
" transform="scale(0.015625)"/>
     </defs>
     <use xlink:href="#DejaVuSans-28"/>
     <use xlink:href="#DejaVuSans-31" x="39.013672"/>
     <use xlink:href="#DejaVuSans-39" x="102.636719"/>
     <use xlink:href="#DejaVuSans-39" x="166.259766"/>
     <use xlink:href="#DejaVuSans-37" x="229.882812"/>
     <use xlink:href="#DejaVuSans-2d" x="293.505859"/>
     <use xlink:href="#DejaVuSans-32" x="329.589844"/>
     <use xlink:href="#DejaVuSans-30" x="393.212891"/>
     <use xlink:href="#DejaVuSans-32" x="456.835938"/>
     <use xlink:href="#DejaVuSans-30" x="520.458984"/>
     <use xlink:href="#DejaVuSans-29" x="584.082031"/>
    </g>
   </g>
   <g id="legend_1">
    <g id="patch_7">
     <path d="M 171.379063 78.806438 
L 191.379063 78.806438 
L 191.379063 71.806438 
L 171.379063 71.806438 
z
" style="fill: #0000ff; fill-opacity: 0.6"/>
    </g>
    <g id="text_34">
     <!-- Colleges -->
     <g transform="translate(199.379063 78.806438)scale(0.1 -0.1)">
      <defs>
       <path id="DejaVuSans-67" d="M 2906 1791 
Q 2906 2416 2648 2759 
Q 2391 3103 1925 3103 
Q 1463 3103 1205 2759 
Q 947 2416 947 1791 
Q 947 1169 1205 825 
Q 1463 481 1925 481 
Q 2391 481 2648 825 
Q 2906 1169 2906 1791 
z
M 3481 434 
Q 3481 -459 3084 -895 
Q 2688 -1331 1869 -1331 
Q 1566 -1331 1297 -1286 
Q 1028 -1241 775 -1147 
L 775 -588 
Q 1028 -725 1275 -790 
Q 1522 -856 1778 -856 
Q 2344 -856 2625 -561 
Q 2906 -266 2906 331 
L 2906 616 
Q 2728 306 2450 153 
Q 2172 0 1784 0 
Q 1141 0 747 490 
Q 353 981 353 1791 
Q 353 2603 747 3093 
Q 1141 3584 1784 3584 
Q 2172 3584 2450 3431 
Q 2728 3278 2906 2969 
L 2906 3500 
L 3481 3500 
L 3481 434 
z
" transform="scale(0.015625)"/>
      </defs>
      <use xlink:href="#DejaVuSans-43"/>
      <use xlink:href="#DejaVuSans-6f" x="69.824219"/>
      <use xlink:href="#DejaVuSans-6c" x="131.005859"/>
      <use xlink:href="#DejaVuSans-6c" x="158.789062"/>
      <use xlink:href="#DejaVuSans-65" x="186.572266"/>
      <use xlink:href="#DejaVuSans-67" x="248.095703"/>
      <use xlink:href="#DejaVuSans-65" x="311.572266"/>
      <use xlink:href="#DejaVuSans-73" x="373.095703"/>
     </g>
    </g>
   </g>
  </g>
  <g id="axes_2">
   <g id="PathCollection_1">
    <path d="M 64.603636 406.329133 
C 65.962398 406.329133 67.265691 405.789291 68.226481 404.828502 
C 69.18727 403.867712 69.727112 402.564419 69.727112 401.205658 
C 69.727112 399.846896 69.18727 398.543603 68.226481 397.582813 
C 67.265691 396.622024 65.962398 396.082182 64.603636 396.082182 
C 63.244875 396.082182 61.941582 396.622024 60.980792 397.582813 
C 60.020003 398.543603 59.480161 399.846896 59.480161 401.205658 
C 59.480161 402.564419 60.020003 403.867712 60.980792 404.828502 
C 61.941582 405.789291 63.244875 406.329133 64.603636 406.329133 
z
" clip-path="url(#p3d8931d360)" style="fill: #00ffff; fill-opacity: 0.7; stroke: #00ffff; stroke-opacity: 0.7"/>
    <path d="M 76.44 405.639171 
C 77.892577 405.639171 79.285856 405.062056 80.312983 404.034929 
C 81.340111 403.007802 81.917226 401.614523 81.917226 400.161946 
C 81.917226 398.709368 81.340111 397.316089 80.312983 396.288962 
C 79.285856 395.261835 77.892577 394.68472 76.44 394.68472 
C 74.987423 394.68472 73.594144 395.261835 72.567017 396.288962 
C 71.539889 397.316089 70.962774 398.709368 70.962774 400.161946 
C 70.962774 401.614523 71.539889 403.007802 72.567017 404.034929 
C 73.594144 405.062056 74.987423 405.639171 76.44 405.639171 
z
" clip-path="url(#p3d8931d360)" style="fill: #00ffff; fill-opacity: 0.7; stroke: #00ffff; stroke-opacity: 0.7"/>
    <path d="M 88.276364 399.709149 
C 89.817054 399.709149 91.29485 399.097026 92.384283 398.007593 
C 93.473716 396.91816 94.085839 395.440364 94.085839 393.899674 
C 94.085839 392.358983 93.473716 390.881187 92.384283 389.791754 
C 91.29485 388.702322 89.817054 388.090199 88.276364 388.090199 
C 86.735673 388.090199 85.257877 388.702322 84.168444 389.791754 
C 83.079012 390.881187 82.466889 392.358983 82.466889 393.899674 
C 82.466889 395.440364 83.079012 396.91816 84.168444 398.007593 
C 85.257877 399.097026 86.735673 399.709149 88.276364 399.709149 
z
" clip-path="url(#p3d8931d360)" style="fill: #00ffff; fill-opacity: 0.7; stroke: #00ffff; stroke-opacity: 0.7"/>
    <path d="M 100.112727 381.236582 
C 101.736758 381.236582 103.294491 380.591348 104.442854 379.442985 
C 105.591217 378.294622 106.236452 376.736888 106.236452 375.112858 
C 106.236452 373.488827 105.591217 371.931094 104.442854 370.782731 
C 103.294491 369.634367 101.736758 368.989133 100.112727 368.989133 
C 98.488697 368.989133 96.930963 369.634367 95.7826 370.782731 
C 94.634237 371.931094 93.989003 373.488827 93.989003 375.112858 
C 93.989003 376.736888 94.634237 378.294622 95.7826 379.442985 
C 96.930963 380.591348 98.488697 381.236582 100.112727 381.236582 
z
" clip-path="url(#p3d8931d360)" style="fill: #00ffff; fill-opacity: 0.7; stroke: #00ffff; stroke-opacity: 0.7"/>
    <path d="M 111.949091 358.991295 
C 113.652389 358.991295 115.286153 358.314567 116.490566 357.110154 
C 117.69498 355.905741 118.371707 354.271976 118.371707 352.568678 
C 118.371707 350.865381 117.69498 349.231616 116.490566 348.027203 
C 115.286153 346.822789 113.652389 346.146062 111.949091 346.146062 
C 110.245793 346.146062 108.612029 346.822789 107.407615 348.027203 
C 106.203202 349.231616 105.526475 350.865381 105.526475 352.568678 
C 105.526475 354.271976 106.203202 355.905741 107.407615 357.110154 
C 108.612029 358.314567 110.245793 358.991295 111.949091 358.991295 
z
" clip-path="url(#p3d8931d360)" style="fill: #00ffff; fill-opacity: 0.7; stroke: #00ffff; stroke-opacity: 0.7"/>
    <path d="M 123.785455 342.160006 
C 125.564491 342.160006 127.270902 341.453187 128.528871 340.195218 
C 129.78684 338.937249 130.493658 337.230838 130.493658 335.451802 
C 130.493658 333.672765 129.78684 331.966354 128.528871 330.708385 
C 127.270902 329.450416 125.564491 328.743598 123.785455 328.743598 
C 122.006418 328.743598 120.300007 329.450416 119.042038 330.708385 
C 117.784069 331.966354 117.077251 333.672765 117.077251 335.451802 
C 117.077251 337.230838 117.784069 338.937249 119.042038 340.195218 
C 120.300007 341.453187 122.006418 342.160006 123.785455 342.160006 
z
" clip-path="url(#p3d8931d360)" style="fill: #00ffff; fill-opacity: 0.7; stroke: #00ffff; stroke-opacity: 0.7"/>
    <path d="M 135.621818 313.836213 
C 137.473498 313.836213 139.249587 313.100533 140.558923 311.791197 
C 141.868258 310.481862 142.603938 308.705773 142.603938 306.854093 
C 142.603938 305.002413 141.868258 303.226324 140.558923 301.916988 
C 139.249587 300.607653 137.473498 299.871973 135.621818 299.871973 
C 133.770138 299.871973 131.994049 300.607653 130.684714 301.916988 
C 129.375378 303.226324 128.639698 305.002413 128.639698 306.854093 
C 128.639698 308.705773 129.375378 310.481862 130.684714 311.791197 
C 131.994049 313.100533 133.770138 313.836213 135.621818 313.836213 
z
" clip-path="url(#p3d8931d360)" style="fill: #00ffff; fill-opacity: 0.7; stroke: #00ffff; stroke-opacity: 0.7"/>
    <path d="M 147.458182 291.451231 
C 149.379761 291.451231 151.222896 290.687779 152.581657 289.329018 
C 153.940419 287.970256 154.70387 286.127121 154.70387 284.205542 
C 154.70387 282.283963 153.940419 280.440829 152.581657 279.082067 
C 151.222896 277.723305 149.379761 276.959854 147.458182 276.959854 
C 145.536603 276.959854 143.693468 277.723305 142.334706 279.082067 
C 140.975945 280.440829 140.212493 282.283963 140.212493 284.205542 
C 140.212493 286.127121 140.975945 287.970256 142.334706 289.329018 
C 143.693468 290.687779 145.536603 291.451231 147.458182 291.451231 
z
" clip-path="url(#p3d8931d360)" style="fill: #00ffff; fill-opacity: 0.7; stroke: #00ffff; stroke-opacity: 0.7"/>
    <path d="M 159.294545 269.265734 
C 161.283569 269.265734 163.191394 268.475487 164.597846 267.069035 
C 166.004298 265.662583 166.794545 263.754758 166.794545 261.765734 
C 166.794545 259.776711 166.004298 257.868885 164.597846 256.462434 
C 163.191394 255.055982 161.283569 254.265734 159.294545 254.265734 
C 157.305522 254.265734 155.397696 255.055982 153.991245 256.462434 
C 152.584793 257.868885 151.794545 259.776711 151.794545 261.765734 
C 151.794545 263.754758 152.584793 265.662583 153.991245 267.069035 
C 155.397696 268.475487 157.305522 269.265734 159.294545 269.265734 
z
" clip-path="url(#p3d8931d360)" style="fill: #00ffff; fill-opacity: 0.7; stroke: #00ffff; stroke-opacity: 0.7"/>
    <path d="M 171.130909 248.115605 
C 173.185163 248.115605 175.155557 247.299441 176.608135 245.846864 
C 178.060712 244.394287 178.876876 242.423893 178.876876 240.369638 
C 178.876876 238.315384 178.060712 236.34499 176.608135 234.892413 
C 175.155557 233.439836 173.185163 232.623672 171.130909 232.623672 
C 169.076655 232.623672 167.106261 233.439836 165.653684 234.892413 
C 164.201106 236.34499 163.384942 238.315384 163.384942 240.369638 
C 163.384942 242.423893 164.201106 244.394287 165.653684 245.846864 
C 167.106261 247.299441 169.076655 248.115605 171.130909 248.115605 
z
" clip-path="url(#p3d8931d360)" style="fill: #00ffff; fill-opacity: 0.7; stroke: #00ffff; stroke-opacity: 0.7"/>
    <path d="M 182.967273 238.647477 
C 185.08475 238.647477 187.115785 237.806194 188.613068 236.308912 
C 190.11035 234.811629 190.951632 232.780594 190.951632 230.663117 
C 190.951632 228.54564 190.11035 226.514604 188.613068 225.017322 
C 187.115785 223.52004 185.08475 222.678757 182.967273 222.678757 
C 180.849796 222.678757 178.81876 223.52004 177.321478 225.017322 
C 175.824196 226.514604 174.982913 228.54564 174.982913 230.663117 
C 174.982913 232.780594 175.824196 234.811629 177.321478 236.308912 
C 178.81876 237.806194 180.849796 238.647477 182.967273 238.647477 
z
" clip-path="url(#p3d8931d360)" style="fill: #00ffff; fill-opacity: 0.7; stroke: #00ffff; stroke-opacity: 0.7"/>
    <path d="M 194.803636 226.145669 
C 196.982502 226.145669 199.072421 225.279996 200.613111 223.739305 
C 202.153802 222.198615 203.019475 220.108696 203.019475 217.92983 
C 203.019475 215.750965 202.153802 213.661046 200.613111 212.120355 
C 199.072421 210.579665 196.982502 209.713992 194.803636 209.713992 
C 192.624771 209.713992 190.534852 210.579665 188.994161 212.120355 
C 187.453471 213.661046 186.587798 215.750965 186.587798 217.92983 
C 186.587798 220.108696 187.453471 222.198615 188.994161 223.739305 
C 190.534852 225.279996 192.624771 226.145669 194.803636 226.145669 
z
" clip-path="url(#p3d8931d360)" style="fill: #00ffff; fill-opacity: 0.7; stroke: #00ffff; stroke-opacity: 0.7"/>
    <path d="M 206.64 215.933682 
C 208.878572 215.933682 211.025759 215.044288 212.608668 213.461379 
C 214.191578 211.878469 215.080972 209.731282 215.080972 207.49271 
C 215.080972 205.254139 214.191578 203.106952 212.608668 201.524042 
C 211.025759 199.941133 208.878572 199.051739 206.64 199.051739 
C 204.401428 199.051739 202.254241 199.941133 200.671332 201.524042 
C 199.088422 203.106952 198.199028 205.254139 198.199028 207.49271 
C 198.199028 209.731282 199.088422 211.878469 200.671332 213.461379 
C 202.254241 215.044288 204.401428 215.933682 206.64 215.933682 
z
" clip-path="url(#p3d8931d360)" style="fill: #00ffff; fill-opacity: 0.7; stroke: #00ffff; stroke-opacity: 0.7"/>
    <path d="M 218.476364 208.012011 
C 220.77309 208.012011 222.976057 207.099512 224.600088 205.475481 
C 226.224119 203.85145 227.136618 201.648483 227.136618 199.351757 
C 227.136618 197.055031 226.224119 194.852063 224.600088 193.228032 
C 222.976057 191.604002 220.77309 190.691503 218.476364 190.691503 
C 216.179637 190.691503 213.97667 191.604002 212.352639 193.228032 
C 210.728609 194.852063 209.81611 197.055031 209.81611 199.351757 
C 209.81611 201.648483 210.728609 203.85145 212.352639 205.475481 
C 213.97667 207.099512 216.179637 208.012011 218.476364 208.012011 
z
" clip-path="url(#p3d8931d360)" style="fill: #00ffff; fill-opacity: 0.7; stroke: #00ffff; stroke-opacity: 0.7"/>
    <path d="M 230.312727 199.771809 
C 232.666171 199.771809 234.923541 198.836776 236.587677 197.17264 
C 238.251814 195.508504 239.186847 193.251134 239.186847 190.89769 
C 239.186847 188.544246 238.251814 186.286876 236.587677 184.622739 
C 234.923541 182.958603 232.666171 182.02357 230.312727 182.02357 
C 227.959283 182.02357 225.701913 182.958603 224.037777 184.622739 
C 222.373641 186.286876 221.438608 188.544246 221.438608 190.89769 
C 221.438608 193.251134 222.373641 195.508504 224.037777 197.17264 
C 225.701913 198.836776 227.959283 199.771809 230.312727 199.771809 
z
" clip-path="url(#p3d8931d360)" style="fill: #00ffff; fill-opacity: 0.7; stroke: #00ffff; stroke-opacity: 0.7"/>
    <path d="M 242.149091 189.439149 
C 244.557918 189.439149 246.868409 188.482112 248.571707 186.778815 
C 250.275005 185.075517 251.232042 182.765025 251.232042 180.356198 
C 251.232042 177.947372 250.275005 175.63688 248.571707 173.933582 
C 246.868409 172.230284 244.557918 171.273247 242.149091 171.273247 
C 239.740264 171.273247 237.429772 172.230284 235.726475 173.933582 
C 234.023177 175.63688 233.06614 177.947372 233.06614 180.356198 
C 233.06614 182.765025 234.023177 185.075517 235.726475 186.778815 
C 237.429772 188.482112 239.740264 189.439149 242.149091 189.439149 
z
" clip-path="url(#p3d8931d360)" style="fill: #00ffff; fill-opacity: 0.7; stroke: #00ffff; stroke-opacity: 0.7"/>
    <path d="M 253.985455 180.249878 
C 256.448419 180.249878 258.810838 179.271332 260.552417 177.529753 
C 262.293996 175.788174 263.272542 173.425755 263.272542 170.96279 
C 263.272542 168.499826 262.293996 166.137407 260.552417 164.395828 
C 258.810838 162.654249 256.448419 161.675703 253.985455 161.675703 
C 251.52249 161.675703 249.160071 162.654249 247.418492 164.395828 
C 245.676913 166.137407 244.698367 168.499826 244.698367 170.96279 
C 244.698367 173.425755 245.676913 175.788174 247.418492 177.529753 
C 249.160071 179.271332 251.52249 180.249878 253.985455 180.249878 
z
" clip-path="url(#p3d8931d360)" style="fill: #00ffff; fill-opacity: 0.7; stroke: #00ffff; stroke-opacity: 0.7"/>
    <path d="M 265.821818 171.264958 
C 268.337756 171.264958 270.750986 170.265365 272.530022 168.486329 
C 274.309059 166.707292 275.308651 164.294062 275.308651 161.778125 
C 275.308651 159.262187 274.309059 156.848957 272.530022 155.069921 
C 270.750986 153.290884 268.337756 152.291292 265.821818 152.291292 
C 263.305881 152.291292 260.892651 153.290884 259.113614 155.069921 
C 257.334578 156.848957 256.334985 159.262187 256.334985 161.778125 
C 256.334985 164.294062 257.334578 166.707292 259.113614 168.486329 
C 260.892651 170.265365 263.305881 171.264958 265.821818 171.264958 
z
" clip-path="url(#p3d8931d360)" style="fill: #00ffff; fill-opacity: 0.7; stroke: #00ffff; stroke-opacity: 0.7"/>
    <path d="M 277.658182 163.945857 
C 280.226 163.945857 282.688992 162.925652 284.504714 161.10993 
C 286.320435 159.294209 287.34064 156.831216 287.34064 154.263398 
C 287.34064 151.69558 286.320435 149.232588 284.504714 147.416866 
C 282.688992 145.601145 280.226 144.58094 277.658182 144.58094 
C 275.090364 144.58094 272.627371 145.601145 270.81165 147.416866 
C 268.995928 149.232588 267.975723 151.69558 267.975723 154.263398 
C 267.975723 156.831216 268.995928 159.294209 270.81165 161.10993 
C 272.627371 162.925652 275.090364 163.945857 277.658182 163.945857 
z
" clip-path="url(#p3d8931d360)" style="fill: #00ffff; fill-opacity: 0.7; stroke: #00ffff; stroke-opacity: 0.7"/>
    <path d="M 289.494545 157.666593 
C 292.113216 157.666593 294.624986 156.626184 296.476665 154.774504 
C 298.328345 152.922824 299.368754 150.411055 299.368754 147.792384 
C 299.368754 145.173713 298.328345 142.661944 296.476665 140.810264 
C 294.624986 138.958584 292.113216 137.918175 289.494545 137.918175 
C 286.875875 137.918175 284.364105 138.958584 282.512425 140.810264 
C 280.660746 142.661944 279.620337 145.173713 279.620337 147.792384 
C 279.620337 150.411055 280.660746 152.922824 282.512425 154.774504 
C 284.364105 156.626184 286.875875 157.666593 289.494545 157.666593 
z
" clip-path="url(#p3d8931d360)" style="fill: #00ffff; fill-opacity: 0.7; stroke: #00ffff; stroke-opacity: 0.7"/>
    <path d="M 301.330909 150.548706 
C 303.999464 150.548706 306.559081 149.488478 308.446034 147.601525 
C 310.332987 145.714572 311.393215 143.154955 311.393215 140.4864 
C 311.393215 137.817845 310.332987 135.258228 308.446034 133.371275 
C 306.559081 131.484322 303.999464 130.424094 301.330909 130.424094 
C 298.662354 130.424094 296.102737 131.484322 294.215784 133.371275 
C 292.328831 135.258228 291.268603 137.817845 291.268603 140.4864 
C 291.268603 143.154955 292.328831 145.714572 294.215784 147.601525 
C 296.102737 149.488478 298.662354 150.548706 301.330909 150.548706 
z
" clip-path="url(#p3d8931d360)" style="fill: #00ffff; fill-opacity: 0.7; stroke: #00ffff; stroke-opacity: 0.7"/>
    <path d="M 313.167273 136.851981 
C 315.884796 136.851981 318.491382 135.772298 320.412961 133.850719 
C 322.33454 131.92914 323.414223 129.322554 323.414223 126.60503 
C 323.414223 123.887507 322.33454 121.280921 320.412961 119.359342 
C 318.491382 117.437763 315.884796 116.35808 313.167273 116.35808 
C 310.44975 116.35808 307.843163 117.437763 305.921584 119.359342 
C 304.000005 121.280921 302.920322 123.887507 302.920322 126.60503 
C 302.920322 129.322554 304.000005 131.92914 305.921584 133.850719 
C 307.843163 135.772298 310.44975 136.851981 313.167273 136.851981 
z
" clip-path="url(#p3d8931d360)" style="fill: #00ffff; fill-opacity: 0.7; stroke: #00ffff; stroke-opacity: 0.7"/>
    <path d="M 325.003636 112.297383 
C 327.769261 112.297383 330.421985 111.198589 332.377577 109.242997 
C 334.333169 107.287405 335.431963 104.634681 335.431963 101.869056 
C 335.431963 99.103431 334.333169 96.450707 332.377577 94.495115 
C 330.421985 92.539523 327.769261 91.440729 325.003636 91.440729 
C 322.238012 91.440729 319.585288 92.539523 317.629696 94.495115 
C 315.674104 96.450707 314.57531 99.103431 314.57531 101.869056 
C 314.57531 104.634681 315.674104 107.287405 317.629696 109.242997 
C 319.585288 111.198589 322.238012 112.297383 325.003636 112.297383 
z
" clip-path="url(#p3d8931d360)" style="fill: #00ffff; fill-opacity: 0.7; stroke: #00ffff; stroke-opacity: 0.7"/>
    <path d="M 336.84 84.921661 
C 339.652904 84.921661 342.350977 83.804082 344.34 81.815059 
C 346.329023 79.826036 347.446602 77.127963 347.446602 74.315059 
C 347.446602 71.502156 346.329023 68.804082 344.34 66.815059 
C 342.350977 64.826036 339.652904 63.708457 336.84 63.708457 
C 334.027096 63.708457 331.329023 64.826036 329.34 66.815059 
C 327.350977 68.804082 326.233398 71.502156 326.233398 74.315059 
C 326.233398 77.127963 327.350977 79.826036 329.34 81.815059 
C 331.329023 83.804082 334.027096 84.921661 336.84 84.921661 
z
" clip-path="url(#p3d8931d360)" style="fill: #00ffff; fill-opacity: 0.7; stroke: #00ffff; stroke-opacity: 0.7"/>
   </g>
   <g id="PathCollection_2">
    <path d="M 64.603636 429.076994 
C 65.158348 429.076994 65.690416 428.856605 66.082656 428.464364 
C 66.474897 428.072123 66.695286 427.540056 66.695286 426.985344 
C 66.695286 426.430632 66.474897 425.898565 66.082656 425.506324 
C 65.690416 425.114083 65.158348 424.893694 64.603636 424.893694 
C 64.048924 424.893694 63.516857 425.114083 63.124616 425.506324 
C 62.732376 425.898565 62.511986 426.430632 62.511986 426.985344 
C 62.511986 427.540056 62.732376 428.072123 63.124616 428.464364 
C 63.516857 428.856605 64.048924 429.076994 64.603636 429.076994 
z
" clip-path="url(#p3d8931d360)" style="fill: #ffa500; fill-opacity: 0.7; stroke: #ffa500; stroke-opacity: 0.7"/>
    <path d="M 76.44 428.1777 
C 77.033012 428.1777 77.601816 427.942094 78.021139 427.522771 
C 78.440462 427.103448 78.676068 426.534644 78.676068 425.941632 
C 78.676068 425.34862 78.440462 424.779816 78.021139 424.360493 
C 77.601816 423.94117 77.033012 423.705564 76.44 423.705564 
C 75.846988 423.705564 75.278184 423.94117 74.858861 424.360493 
C 74.439538 424.779816 74.203932 425.34862 74.203932 425.941632 
C 74.203932 426.534644 74.439538 427.103448 74.858861 427.522771 
C 75.278184 427.942094 75.846988 428.1777 76.44 428.1777 
z
" clip-path="url(#p3d8931d360)" style="fill: #ffa500; fill-opacity: 0.7; stroke: #ffa500; stroke-opacity: 0.7"/>
    <path d="M 88.276364 427.269628 
C 88.905348 427.269628 89.508655 427.01973 89.953415 426.574971 
C 90.398174 426.130212 90.648072 425.526904 90.648072 424.89792 
C 90.648072 424.268936 90.398174 423.665628 89.953415 423.220869 
C 89.508655 422.77611 88.905348 422.526212 88.276364 422.526212 
C 87.647379 422.526212 87.044072 422.77611 86.599313 423.220869 
C 86.154554 423.665628 85.904655 424.268936 85.904655 424.89792 
C 85.904655 425.526904 86.154554 426.130212 86.599313 426.574971 
C 87.044072 427.01973 87.647379 427.269628 88.276364 427.269628 
z
" clip-path="url(#p3d8931d360)" style="fill: #ffa500; fill-opacity: 0.7; stroke: #ffa500; stroke-opacity: 0.7"/>
    <path d="M 100.112727 426.354208 
C 100.775735 426.354208 101.411677 426.090792 101.880494 425.621975 
C 102.349312 425.153158 102.612727 424.517216 102.612727 423.854208 
C 102.612727 423.1912 102.349312 422.555258 101.880494 422.086441 
C 101.411677 421.617624 100.775735 421.354208 100.112727 421.354208 
C 99.44972 421.354208 98.813778 421.617624 98.34496 422.086441 
C 97.876143 422.555258 97.612727 423.1912 97.612727 423.854208 
C 97.612727 424.517216 97.876143 425.153158 98.34496 425.621975 
C 98.813778 426.090792 99.44972 426.354208 100.112727 426.354208 
z
" clip-path="url(#p3d8931d360)" style="fill: #ffa500; fill-opacity: 0.7; stroke: #ffa500; stroke-opacity: 0.7"/>
    <path d="M 111.949091 425.432518 
C 112.644459 425.432518 113.311441 425.156245 113.803141 424.664546 
C 114.29484 424.172846 114.571113 423.505864 114.571113 422.810496 
C 114.571113 422.115128 114.29484 421.448146 113.803141 420.956446 
C 113.311441 420.464747 112.644459 420.188474 111.949091 420.188474 
C 111.253723 420.188474 110.586741 420.464747 110.095041 420.956446 
C 109.603342 421.448146 109.327069 422.115128 109.327069 422.810496 
C 109.327069 423.505864 109.603342 424.172846 110.095041 424.664546 
C 110.586741 425.156245 111.253723 425.432518 111.949091 425.432518 
z
" clip-path="url(#p3d8931d360)" style="fill: #ffa500; fill-opacity: 0.7; stroke: #ffa500; stroke-opacity: 0.7"/>
    <path d="M 123.785455 424.401026 
C 124.511743 424.401026 125.208383 424.112468 125.721946 423.598904 
C 126.23551 423.085341 126.524067 422.388701 126.524067 421.662413 
C 126.524067 420.936124 126.23551 420.239485 125.721946 419.725921 
C 125.208383 419.212358 124.511743 418.9238 123.785455 418.9238 
C 123.059166 418.9238 122.362526 419.212358 121.848963 419.725921 
C 121.335399 420.239485 121.046842 420.936124 121.046842 421.662413 
C 121.046842 422.388701 121.335399 423.085341 121.848963 423.598904 
C 122.362526 424.112468 123.059166 424.401026 123.785455 424.401026 
z
" clip-path="url(#p3d8931d360)" style="fill: #ffa500; fill-opacity: 0.7; stroke: #ffa500; stroke-opacity: 0.7"/>
    <path d="M 135.621818 423.469139 
C 136.377763 423.469139 137.102849 423.168799 137.637383 422.634265 
C 138.171917 422.099731 138.472257 421.374646 138.472257 420.618701 
C 138.472257 419.862756 138.171917 419.13767 137.637383 418.603136 
C 137.102849 418.068602 136.377763 417.768262 135.621818 417.768262 
C 134.865873 417.768262 134.140788 418.068602 133.606254 418.603136 
C 133.07172 419.13767 132.77138 419.862756 132.77138 420.618701 
C 132.77138 421.374646 133.07172 422.099731 133.606254 422.634265 
C 134.140788 423.168799 134.865873 423.469139 135.621818 423.469139 
z
" clip-path="url(#p3d8931d360)" style="fill: #ffa500; fill-opacity: 0.7; stroke: #ffa500; stroke-opacity: 0.7"/>
    <path d="M 147.458182 422.428657 
C 148.242663 422.428657 148.99512 422.11698 149.549832 421.562268 
C 150.104544 421.007556 150.416222 420.255099 150.416222 419.470618 
C 150.416222 418.686136 150.104544 417.93368 149.549832 417.378968 
C 148.99512 416.824255 148.242663 416.512578 147.458182 416.512578 
C 146.6737 416.512578 145.921244 416.824255 145.366532 417.378968 
C 144.81182 417.93368 144.500142 418.686136 144.500142 419.470618 
C 144.500142 420.255099 144.81182 421.007556 145.366532 421.562268 
C 145.921244 422.11698 146.6737 422.428657 147.458182 422.428657 
z
" clip-path="url(#p3d8931d360)" style="fill: #ffa500; fill-opacity: 0.7; stroke: #ffa500; stroke-opacity: 0.7"/>
    <path d="M 159.294545 421.488768 
C 160.106561 421.488768 160.885427 421.166151 161.459609 420.591969 
C 162.033791 420.017788 162.356408 419.238921 162.356408 418.426906 
C 162.356408 417.61489 162.033791 416.836024 161.459609 416.261842 
C 160.885427 415.687661 160.106561 415.365043 159.294545 415.365043 
C 158.48253 415.365043 157.703663 415.687661 157.129482 416.261842 
C 156.5553 416.836024 156.232683 417.61489 156.232683 418.426906 
C 156.232683 419.238921 156.5553 420.017788 157.129482 420.591969 
C 157.703663 421.166151 158.48253 421.488768 159.294545 421.488768 
z
" clip-path="url(#p3d8931d360)" style="fill: #ffa500; fill-opacity: 0.7; stroke: #ffa500; stroke-opacity: 0.7"/>
    <path d="M 171.130909 420.545471 
C 171.969555 420.545471 172.773965 420.212274 173.366977 419.619262 
C 173.959989 419.026249 174.293187 418.221839 174.293187 417.383194 
C 174.293187 416.544548 173.959989 415.740138 173.366977 415.147126 
C 172.773965 414.554113 171.969555 414.220916 171.130909 414.220916 
C 170.292263 414.220916 169.487853 414.554113 168.894841 415.147126 
C 168.301829 415.740138 167.968631 416.544548 167.968631 417.383194 
C 167.968631 418.221839 168.301829 419.026249 168.894841 419.619262 
C 169.487853 420.212274 170.292263 420.545471 171.130909 420.545471 
z
" clip-path="url(#p3d8931d360)" style="fill: #ffa500; fill-opacity: 0.7; stroke: #ffa500; stroke-opacity: 0.7"/>
    <path d="M 182.967273 419.599083 
C 183.831729 419.599083 184.660896 419.255631 185.272159 418.644368 
C 185.883422 418.033105 186.226874 417.203938 186.226874 416.339482 
C 186.226874 415.475025 185.883422 414.645858 185.272159 414.034595 
C 184.660896 413.423333 183.831729 413.07988 182.967273 413.07988 
C 182.102816 413.07988 181.27365 413.423333 180.662387 414.034595 
C 180.051124 414.645858 179.707672 415.475025 179.707672 416.339482 
C 179.707672 417.203938 180.051124 418.033105 180.662387 418.644368 
C 181.27365 419.255631 182.102816 419.599083 182.967273 419.599083 
z
" clip-path="url(#p3d8931d360)" style="fill: #ffa500; fill-opacity: 0.7; stroke: #ffa500; stroke-opacity: 0.7"/>
    <path d="M 194.803636 418.649872 
C 195.693155 418.649872 196.54636 418.296462 197.175345 417.667478 
C 197.804329 417.038493 198.157738 416.185288 198.157738 415.29577 
C 198.157738 414.406251 197.804329 413.553046 197.175345 412.924061 
C 196.54636 412.295077 195.693155 411.941668 194.803636 411.941668 
C 193.914118 411.941668 193.060912 412.295077 192.431928 412.924061 
C 191.802944 413.553046 191.449534 414.406251 191.449534 415.29577 
C 191.449534 416.185288 191.802944 417.038493 192.431928 417.667478 
C 193.060912 418.296462 193.914118 418.649872 194.803636 418.649872 
z
" clip-path="url(#p3d8931d360)" style="fill: #ffa500; fill-opacity: 0.7; stroke: #ffa500; stroke-opacity: 0.7"/>
    <path d="M 206.64 417.69807 
C 207.553893 417.69807 208.430479 417.334976 209.076699 416.688756 
C 209.722919 416.042536 210.086012 415.165951 210.086012 414.252058 
C 210.086012 413.338164 209.722919 412.461579 209.076699 411.815359 
C 208.430479 411.169139 207.553893 410.806045 206.64 410.806045 
C 205.726107 410.806045 204.849521 411.169139 204.203301 411.815359 
C 203.557081 412.461579 203.193988 413.338164 203.193988 414.252058 
C 203.193988 415.165951 203.557081 416.042536 204.203301 416.688756 
C 204.849521 417.334976 205.726107 417.69807 206.64 417.69807 
z
" clip-path="url(#p3d8931d360)" style="fill: #ffa500; fill-opacity: 0.7; stroke: #ffa500; stroke-opacity: 0.7"/>
    <path d="M 218.476364 416.74388 
C 219.413998 416.74388 220.313356 416.371353 220.976364 415.708346 
C 221.639371 415.045338 222.011898 414.14598 222.011898 413.208346 
C 222.011898 412.270711 221.639371 411.371353 220.976364 410.708346 
C 220.313356 410.045338 219.413998 409.672812 218.476364 409.672812 
C 217.538729 409.672812 216.639371 410.045338 215.976364 410.708346 
C 215.313356 411.371353 214.94083 412.270711 214.94083 413.208346 
C 214.94083 414.14598 215.313356 415.045338 215.976364 415.708346 
C 216.639371 416.371353 217.538729 416.74388 218.476364 416.74388 
z
" clip-path="url(#p3d8931d360)" style="fill: #ffa500; fill-opacity: 0.7; stroke: #ffa500; stroke-opacity: 0.7"/>
    <path d="M 230.312727 415.787478 
C 231.273517 415.787478 232.195084 415.405752 232.874465 414.726371 
C 233.553846 414.046991 233.935571 413.125423 233.935571 412.164634 
C 233.935571 411.203844 233.553846 410.282277 232.874465 409.602896 
C 232.195084 408.923515 231.273517 408.541789 230.312727 408.541789 
C 229.351938 408.541789 228.43037 408.923515 227.75099 409.602896 
C 227.071609 410.282277 226.689883 411.203844 226.689883 412.164634 
C 226.689883 413.125423 227.071609 414.046991 227.75099 414.726371 
C 228.43037 415.405752 229.351938 415.787478 230.312727 415.787478 
z
" clip-path="url(#p3d8931d360)" style="fill: #ffa500; fill-opacity: 0.7; stroke: #ffa500; stroke-opacity: 0.7"/>
    <path d="M 242.149091 414.620278 
C 243.13249 414.620278 244.075745 414.22957 244.771113 413.534201 
C 245.466481 412.838833 245.85719 411.895579 245.85719 410.912179 
C 245.85719 409.92878 245.466481 408.985525 244.771113 408.290157 
C 244.075745 407.594789 243.13249 407.20408 242.149091 407.20408 
C 241.165691 407.20408 240.222437 407.594789 239.527069 408.290157 
C 238.8317 408.985525 238.440992 409.92878 238.440992 410.912179 
C 238.440992 411.895579 238.8317 412.838833 239.527069 413.534201 
C 240.222437 414.22957 241.165691 414.620278 242.149091 414.620278 
z
" clip-path="url(#p3d8931d360)" style="fill: #ffa500; fill-opacity: 0.7; stroke: #ffa500; stroke-opacity: 0.7"/>
    <path d="M 253.985455 413.764276 
C 254.990956 413.764276 255.955409 413.364786 256.666406 412.65379 
C 257.377402 411.942793 257.776892 410.978339 257.776892 409.972838 
C 257.776892 408.967337 257.377402 408.002884 256.666406 407.291887 
C 255.955409 406.58089 254.990956 406.181401 253.985455 406.181401 
C 252.979954 406.181401 252.0155 406.58089 251.304503 407.291887 
C 250.593507 408.002884 250.194017 408.967337 250.194017 409.972838 
C 250.194017 410.978339 250.593507 411.942793 251.304503 412.65379 
C 252.0155 413.364786 252.979954 413.764276 253.985455 413.764276 
z
" clip-path="url(#p3d8931d360)" style="fill: #ffa500; fill-opacity: 0.7; stroke: #ffa500; stroke-opacity: 0.7"/>
    <path d="M 265.821818 412.906481 
C 266.848945 412.906481 267.834142 412.498399 268.560431 411.77211 
C 269.28672 411.045822 269.694802 410.060625 269.694802 409.033498 
C 269.694802 408.00637 269.28672 407.021173 268.560431 406.294885 
C 267.834142 405.568596 266.848945 405.160514 265.821818 405.160514 
C 264.794691 405.160514 263.809494 405.568596 263.083205 406.294885 
C 262.356917 407.021173 261.948835 408.00637 261.948835 409.033498 
C 261.948835 410.060625 262.356917 411.045822 263.083205 411.77211 
C 263.809494 412.498399 264.794691 412.906481 265.821818 412.906481 
z
" clip-path="url(#p3d8931d360)" style="fill: #ffa500; fill-opacity: 0.7; stroke: #ffa500; stroke-opacity: 0.7"/>
    <path d="M 277.658182 412.047004 
C 278.706489 412.047004 279.712002 411.630507 280.453267 410.889242 
C 281.194532 410.147977 281.611029 409.142464 281.611029 408.094157 
C 281.611029 407.04585 281.194532 406.040337 280.453267 405.299072 
C 279.712002 404.557807 278.706489 404.14131 277.658182 404.14131 
C 276.609875 404.14131 275.604362 404.557807 274.863097 405.299072 
C 274.121832 406.040337 273.705335 407.04585 273.705335 408.094157 
C 273.705335 409.142464 274.121832 410.147977 274.863097 410.889242 
C 275.604362 411.630507 276.609875 412.047004 277.658182 412.047004 
z
" clip-path="url(#p3d8931d360)" style="fill: #ffa500; fill-opacity: 0.7; stroke: #ffa500; stroke-opacity: 0.7"/>
    <path d="M 289.494545 411.081574 
C 290.563613 411.081574 291.589039 410.656829 292.344984 409.900883 
C 293.100929 409.144938 293.525674 408.119513 293.525674 407.050445 
C 293.525674 405.981377 293.100929 404.955951 292.344984 404.200006 
C 291.589039 403.444061 290.563613 403.019316 289.494545 403.019316 
C 288.425478 403.019316 287.400052 403.444061 286.644107 404.200006 
C 285.888162 404.955951 285.463417 405.981377 285.463417 407.050445 
C 285.463417 408.119513 285.888162 409.144938 286.644107 409.900883 
C 287.400052 410.656829 288.425478 411.081574 289.494545 411.081574 
z
" clip-path="url(#p3d8931d360)" style="fill: #ffa500; fill-opacity: 0.7; stroke: #ffa500; stroke-opacity: 0.7"/>
    <path d="M 301.330909 410.114652 
C 302.420342 410.114652 303.465301 409.681816 304.235647 408.91147 
C 305.005992 408.141125 305.438828 407.096166 305.438828 406.006733 
C 305.438828 404.9173 305.005992 403.872341 304.235647 403.101995 
C 303.465301 402.33165 302.420342 401.898814 301.330909 401.898814 
C 300.241476 401.898814 299.196517 402.33165 298.426172 403.101995 
C 297.655826 403.872341 297.22299 404.9173 297.22299 406.006733 
C 297.22299 407.096166 297.655826 408.141125 298.426172 408.91147 
C 299.196517 409.681816 300.241476 410.114652 301.330909 410.114652 
z
" clip-path="url(#p3d8931d360)" style="fill: #ffa500; fill-opacity: 0.7; stroke: #ffa500; stroke-opacity: 0.7"/>
    <path d="M 313.167273 409.146321 
C 314.276697 409.146321 315.340831 408.705542 316.125313 407.921061 
C 316.909794 407.136579 317.350573 406.072445 317.350573 404.963021 
C 317.350573 403.853597 316.909794 402.789462 316.125313 402.004981 
C 315.340831 401.2205 314.276697 400.779721 313.167273 400.779721 
C 312.057849 400.779721 310.993714 401.2205 310.209233 402.004981 
C 309.424751 402.789462 308.983973 403.853597 308.983973 404.963021 
C 308.983973 406.072445 309.424751 407.136579 310.209233 407.921061 
C 310.993714 408.705542 312.057849 409.146321 313.167273 409.146321 
z
" clip-path="url(#p3d8931d360)" style="fill: #ffa500; fill-opacity: 0.7; stroke: #ffa500; stroke-opacity: 0.7"/>
    <path d="M 325.003636 408.176655 
C 326.132698 408.176655 327.215668 407.728074 328.014035 406.929707 
C 328.812402 406.13134 329.260983 405.04837 329.260983 403.919309 
C 329.260983 402.790247 328.812402 401.707277 328.014035 400.90891 
C 327.215668 400.110543 326.132698 399.661962 325.003636 399.661962 
C 323.874575 399.661962 322.791605 400.110543 321.993238 400.90891 
C 321.194871 401.707277 320.74629 402.790247 320.74629 403.919309 
C 320.74629 405.04837 321.194871 406.13134 321.993238 406.929707 
C 322.791605 407.728074 323.874575 408.176655 325.003636 408.176655 
z
" clip-path="url(#p3d8931d360)" style="fill: #ffa500; fill-opacity: 0.7; stroke: #ffa500; stroke-opacity: 0.7"/>
    <path d="M 336.84 407.205724 
C 337.988363 407.205724 339.089847 406.749474 339.901862 405.937459 
C 340.713878 405.125444 341.170127 404.02396 341.170127 402.875597 
C 341.170127 401.727234 340.713878 400.62575 339.901862 399.813735 
C 339.089847 399.001719 337.988363 398.54547 336.84 398.54547 
C 335.691637 398.54547 334.590153 399.001719 333.778138 399.813735 
C 332.966122 400.62575 332.509873 401.727234 332.509873 402.875597 
C 332.509873 404.02396 332.966122 405.125444 333.778138 405.937459 
C 334.590153 406.749474 335.691637 407.205724 336.84 407.205724 
z
" clip-path="url(#p3d8931d360)" style="fill: #ffa500; fill-opacity: 0.7; stroke: #ffa500; stroke-opacity: 0.7"/>
   </g>
   <g id="matplotlib.axis_3">
    <g id="ytick_10">
     <g id="line2d_34">
      <defs>
       <path id="m94ed61466d" d="M 0 0 
L 3.5 0 
" style="stroke: #000000; stroke-width: 0.8"/>
      </defs>
      <g>
       <use xlink:href="#m94ed61466d" x="362.88" y="427.5072" style="stroke: #000000; stroke-width: 0.8"/>
      </g>
     </g>
     <g id="text_35">
      <!-- 0 -->
      <g transform="translate(369.88 431.306419)scale(0.1 -0.1)">
       <use xlink:href="#DejaVuSans-30"/>
      </g>
     </g>
    </g>
    <g id="ytick_11">
     <g id="line2d_35">
      <g>
       <use xlink:href="#m94ed61466d" x="362.88" y="375.3216" style="stroke: #000000; stroke-width: 0.8"/>
      </g>
     </g>
     <g id="text_36">
      <!-- 500 -->
      <g transform="translate(369.88 379.120819)scale(0.1 -0.1)">
       <use xlink:href="#DejaVuSans-35"/>
       <use xlink:href="#DejaVuSans-30" x="63.623047"/>
       <use xlink:href="#DejaVuSans-30" x="127.246094"/>
      </g>
     </g>
    </g>
    <g id="ytick_12">
     <g id="line2d_36">
      <g>
       <use xlink:href="#m94ed61466d" x="362.88" y="323.136" style="stroke: #000000; stroke-width: 0.8"/>
      </g>
     </g>
     <g id="text_37">
      <!-- 1000 -->
      <g transform="translate(369.88 326.935219)scale(0.1 -0.1)">
       <use xlink:href="#DejaVuSans-31"/>
       <use xlink:href="#DejaVuSans-30" x="63.623047"/>
       <use xlink:href="#DejaVuSans-30" x="127.246094"/>
       <use xlink:href="#DejaVuSans-30" x="190.869141"/>
      </g>
     </g>
    </g>
    <g id="ytick_13">
     <g id="line2d_37">
      <g>
       <use xlink:href="#m94ed61466d" x="362.88" y="270.9504" style="stroke: #000000; stroke-width: 0.8"/>
      </g>
     </g>
     <g id="text_38">
      <!-- 1500 -->
      <g transform="translate(369.88 274.749619)scale(0.1 -0.1)">
       <use xlink:href="#DejaVuSans-31"/>
       <use xlink:href="#DejaVuSans-35" x="63.623047"/>
       <use xlink:href="#DejaVuSans-30" x="127.246094"/>
       <use xlink:href="#DejaVuSans-30" x="190.869141"/>
      </g>
     </g>
    </g>
    <g id="ytick_14">
     <g id="line2d_38">
      <g>
       <use xlink:href="#m94ed61466d" x="362.88" y="218.7648" style="stroke: #000000; stroke-width: 0.8"/>
      </g>
     </g>
     <g id="text_39">
      <!-- 2000 -->
      <g transform="translate(369.88 222.564019)scale(0.1 -0.1)">
       <use xlink:href="#DejaVuSans-32"/>
       <use xlink:href="#DejaVuSans-30" x="63.623047"/>
       <use xlink:href="#DejaVuSans-30" x="127.246094"/>
       <use xlink:href="#DejaVuSans-30" x="190.869141"/>
      </g>
     </g>
    </g>
    <g id="ytick_15">
     <g id="line2d_39">
      <g>
       <use xlink:href="#m94ed61466d" x="362.88" y="166.5792" style="stroke: #000000; stroke-width: 0.8"/>
      </g>
     </g>
     <g id="text_40">
      <!-- 2500 -->
      <g transform="translate(369.88 170.378419)scale(0.1 -0.1)">
       <use xlink:href="#DejaVuSans-32"/>
       <use xlink:href="#DejaVuSans-35" x="63.623047"/>
       <use xlink:href="#DejaVuSans-30" x="127.246094"/>
       <use xlink:href="#DejaVuSans-30" x="190.869141"/>
      </g>
     </g>
    </g>
    <g id="ytick_16">
     <g id="line2d_40">
      <g>
       <use xlink:href="#m94ed61466d" x="362.88" y="114.3936" style="stroke: #000000; stroke-width: 0.8"/>
      </g>
     </g>
     <g id="text_41">
      <!-- 3000 -->
      <g transform="translate(369.88 118.192819)scale(0.1 -0.1)">
       <use xlink:href="#DejaVuSans-33"/>
       <use xlink:href="#DejaVuSans-30" x="63.623047"/>
       <use xlink:href="#DejaVuSans-30" x="127.246094"/>
       <use xlink:href="#DejaVuSans-30" x="190.869141"/>
      </g>
     </g>
    </g>
    <g id="ytick_17">
     <g id="line2d_41">
      <g>
       <use xlink:href="#m94ed61466d" x="362.88" y="62.208" style="stroke: #000000; stroke-width: 0.8"/>
      </g>
     </g>
     <g id="text_42">
      <!-- 3500 -->
      <g transform="translate(369.88 66.007219)scale(0.1 -0.1)">
       <use xlink:href="#DejaVuSans-33"/>
       <use xlink:href="#DejaVuSans-35" x="63.623047"/>
       <use xlink:href="#DejaVuSans-30" x="127.246094"/>
       <use xlink:href="#DejaVuSans-30" x="190.869141"/>
      </g>
     </g>
    </g>
   </g>
   <g id="patch_8">
    <path d="M 50.4 453.6 
L 50.4 62.208 
" style="fill: none"/>
   </g>
   <g id="patch_9">
    <path d="M 362.88 453.6 
L 362.88 62.208 
" style="fill: none"/>
   </g>
   <g id="patch_10">
    <path d="M 50.4 453.6 
L 362.88 453.6 
" style="fill: none"/>
   </g>
   <g id="patch_11">
    <path d="M 50.4 62.208 
L 362.88 62.208 
" style="fill: none"/>
   </g>
   <g id="legend_2">
    <g id="PathCollection_3">
     <defs>
      <path id="m41699c6ca6" d="M 0 8.329166 
C 2.208921 8.329166 4.327667 7.451552 5.889609 5.889609 
C 7.451552 4.327667 8.329166 2.208921 8.329166 0 
C 8.329166 -2.208921 7.451552 -4.327667 5.889609 -5.889609 
C 4.327667 -7.451552 2.208921 -8.329166 0 -8.329166 
C -2.208921 -8.329166 -4.327667 -7.451552 -5.889609 -5.889609 
C -7.451552 -4.327667 -8.329166 -2.208921 -8.329166 0 
C -8.329166 2.208921 -7.451552 4.327667 -5.889609 5.889609 
C -4.327667 7.451552 -2.208921 8.329166 0 8.329166 
z
" style="stroke: #00ffff; stroke-opacity: 0.7"/>
     </defs>
     <g>
      <use xlink:href="#m41699c6ca6" x="69.4" y="76.181437" style="fill: #00ffff; fill-opacity: 0.7; stroke: #00ffff; stroke-opacity: 0.7"/>
     </g>
    </g>
    <g id="text_43">
     <!-- Students (10K) -->
     <g transform="translate(87.4 78.806437)scale(0.1 -0.1)">
      <defs>
       <path id="DejaVuSans-53" d="M 3425 4513 
L 3425 3897 
Q 3066 4069 2747 4153 
Q 2428 4238 2131 4238 
Q 1616 4238 1336 4038 
Q 1056 3838 1056 3469 
Q 1056 3159 1242 3001 
Q 1428 2844 1947 2747 
L 2328 2669 
Q 3034 2534 3370 2195 
Q 3706 1856 3706 1288 
Q 3706 609 3251 259 
Q 2797 -91 1919 -91 
Q 1588 -91 1214 -16 
Q 841 59 441 206 
L 441 856 
Q 825 641 1194 531 
Q 1563 422 1919 422 
Q 2459 422 2753 634 
Q 3047 847 3047 1241 
Q 3047 1584 2836 1778 
Q 2625 1972 2144 2069 
L 1759 2144 
Q 1053 2284 737 2584 
Q 422 2884 422 3419 
Q 422 4038 858 4394 
Q 1294 4750 2059 4750 
Q 2388 4750 2728 4690 
Q 3069 4631 3425 4513 
z
" transform="scale(0.015625)"/>
      </defs>
      <use xlink:href="#DejaVuSans-53"/>
      <use xlink:href="#DejaVuSans-74" x="63.476562"/>
      <use xlink:href="#DejaVuSans-75" x="102.685547"/>
      <use xlink:href="#DejaVuSans-64" x="166.064453"/>
      <use xlink:href="#DejaVuSans-65" x="229.541016"/>
      <use xlink:href="#DejaVuSans-6e" x="291.064453"/>
      <use xlink:href="#DejaVuSans-74" x="354.443359"/>
      <use xlink:href="#DejaVuSans-73" x="393.652344"/>
      <use xlink:href="#DejaVuSans-20" x="445.751953"/>
      <use xlink:href="#DejaVuSans-28" x="477.539062"/>
      <use xlink:href="#DejaVuSans-31" x="516.552734"/>
      <use xlink:href="#DejaVuSans-30" x="580.175781"/>
      <use xlink:href="#DejaVuSans-4b" x="643.798828"/>
      <use xlink:href="#DejaVuSans-29" x="709.375"/>
     </g>
    </g>
    <g id="PathCollection_4">
     <defs>
      <path id="m85b54617d9" d="M 0 3.400368 
C 0.901788 3.400368 1.766763 3.042083 2.404423 2.404423 
C 3.042083 1.766763 3.400368 0.901788 3.400368 0 
C 3.400368 -0.901788 3.042083 -1.766763 2.404423 -2.404423 
C 1.766763 -3.042083 0.901788 -3.400368 0 -3.400368 
C -0.901788 -3.400368 -1.766763 -3.042083 -2.404423 -2.404423 
C -3.042083 -1.766763 -3.400368 -0.901788 -3.400368 0 
C -3.400368 0.901788 -3.042083 1.766763 -2.404423 2.404423 
C -1.766763 3.042083 -0.901788 3.400368 0 3.400368 
z
" style="stroke: #ffa500; stroke-opacity: 0.7"/>
     </defs>
     <g>
      <use xlink:href="#m85b54617d9" x="69.4" y="90.859562" style="fill: #ffa500; fill-opacity: 0.7; stroke: #ffa500; stroke-opacity: 0.7"/>
     </g>
    </g>
    <g id="text_44">
     <!-- Teachers (10K) -->
     <g transform="translate(87.4 93.484562)scale(0.1 -0.1)">
      <defs>
       <path id="DejaVuSans-72" d="M 2631 2963 
Q 2534 3019 2420 3045 
Q 2306 3072 2169 3072 
Q 1681 3072 1420 2755 
Q 1159 2438 1159 1844 
L 1159 0 
L 581 0 
L 581 3500 
L 1159 3500 
L 1159 2956 
Q 1341 3275 1631 3429 
Q 1922 3584 2338 3584 
Q 2397 3584 2469 3576 
Q 2541 3569 2628 3553 
L 2631 2963 
z
" transform="scale(0.015625)"/>
      </defs>
      <use xlink:href="#DejaVuSans-54"/>
      <use xlink:href="#DejaVuSans-65" x="44.083984"/>
      <use xlink:href="#DejaVuSans-61" x="105.607422"/>
      <use xlink:href="#DejaVuSans-63" x="166.886719"/>
      <use xlink:href="#DejaVuSans-68" x="221.867188"/>
      <use xlink:href="#DejaVuSans-65" x="285.246094"/>
      <use xlink:href="#DejaVuSans-72" x="346.769531"/>
      <use xlink:href="#DejaVuSans-73" x="387.882812"/>
      <use xlink:href="#DejaVuSans-20" x="439.982422"/>
      <use xlink:href="#DejaVuSans-28" x="471.769531"/>
      <use xlink:href="#DejaVuSans-31" x="510.783203"/>
      <use xlink:href="#DejaVuSans-30" x="574.40625"/>
      <use xlink:href="#DejaVuSans-4b" x="638.029297"/>
      <use xlink:href="#DejaVuSans-29" x="703.605469"/>
     </g>
    </g>
   </g>
  </g>
 </g>
 <defs>
  <clipPath id="p3d8931d360">
   <rect x="50.4" y="62.208" width="312.48" height="391.392"/>
  </clipPath>
 </defs>
</svg>
