<?xml version="1.0" encoding="utf-8" standalone="no"?>
<!DOCTYPE svg PUBLIC "-//W3C//DTD SVG 1.1//EN"
  "http://www.w3.org/Graphics/SVG/1.1/DTD/svg11.dtd">
<!-- Created with matplotlib (https://matplotlib.org/) -->
<svg height="518.4pt" version="1.1" viewBox="0 0 403.2 518.4" width="403.2pt" xmlns="http://www.w3.org/2000/svg" xmlns:xlink="http://www.w3.org/1999/xlink">
 <metadata>
  <rdf:RDF xmlns:cc="http://creativecommons.org/ns#" xmlns:dc="http://purl.org/dc/elements/1.1/" xmlns:rdf="http://www.w3.org/1999/02/22-rdf-syntax-ns#">
   <cc:Work>
    <dc:type rdf:resource="http://purl.org/dc/dcmitype/StillImage"/>
    <dc:date>2022-10-26T11:31:10.461675</dc:date>
    <dc:format>image/svg+xml</dc:format>
    <dc:creator>
     <cc:Agent>
      <dc:title>Matplotlib v3.3.4, https://matplotlib.org/</dc:title>
     </cc:Agent>
    </dc:creator>
   </cc:Work>
  </rdf:RDF>
 </metadata>
 <defs>
  <style type="text/css">*{stroke-linecap:butt;stroke-linejoin:round;}</style>
 </defs>
 <g id="figure_1">
  <g id="patch_1">
   <path d="M 0 518.4 
L 403.2 518.4 
L 403.2 0 
L 0 0 
z
" style="fill:none;"/>
  </g>
  <g id="axes_1">
   <g id="patch_2">
    <path d="M 50.4 453.6 
L 362.88 453.6 
L 362.88 62.208 
L 50.4 62.208 
z
" style="fill:#ffffff;"/>
   </g>
   <g id="PolyCollection_1">
    <path clip-path="url(#p491a2a71a5)" d="M 64.603636 402.2298 
L 64.603636 404.676 
L 76.44 404.43138 
L 88.276364 403.94214 
L 100.112727 403.69752 
L 111.949091 398.5605 
L 123.785455 388.89801 
L 135.621818 379.11321 
L 147.458182 369.32841 
L 159.294545 364.43601 
L 171.130909 360.15516 
L 182.967273 350.12574 
L 194.803636 346.45644 
L 206.64 344.25486 
L 218.476364 341.80866 
L 230.312727 339.36246 
L 242.149091 336.818412 
L 253.985455 334.47006 
L 265.821818 332.14617 
L 277.658182 329.94459 
L 289.494545 327.74301 
L 301.330909 325.54143 
L 313.167273 323.33985 
L 325.003636 321.01596 
L 336.84 318.81438 
L 336.84 307.80648 
L 336.84 307.80648 
L 325.003636 310.4973 
L 313.167273 313.31043 
L 301.330909 316.00125 
L 289.494545 318.69207 
L 277.658182 321.38289 
L 265.821818 324.07371 
L 253.985455 326.64222 
L 242.149091 329.33304 
L 230.312727 331.77924 
L 218.476364 334.47006 
L 206.64 337.16088 
L 194.803636 339.8517 
L 182.967273 343.27638 
L 171.130909 355.01814 
L 159.294545 359.54361 
L 147.458182 364.92525 
L 135.621818 374.95467 
L 123.785455 385.22871 
L 111.949091 394.64658 
L 100.112727 401.0067 
L 88.276364 399.04974 
L 76.44 401.98518 
L 64.603636 402.2298 
z
" style="fill:#0000ff;fill-opacity:0.6;"/>
   </g>
   <g id="matplotlib.axis_1">
    <g id="xtick_1">
     <g id="line2d_1">
      <defs>
       <path d="M 0 0 
L 0 3.5 
" id="m1f63d28a8b" style="stroke:#000000;stroke-width:0.8;"/>
      </defs>
      <g>
       <use style="stroke:#000000;stroke-width:0.8;" x="64.603636" xlink:href="#m1f63d28a8b" y="453.6"/>
      </g>
     </g>
     <g id="text_1">
      <!-- 1997 -->
      <g transform="translate(67.416136 480.6)rotate(-90)scale(0.1 -0.1)">
       <defs>
        <path d="M 21.875 56.25 
Q 16.796875 51.171875 8.984375 46.484375 
L 8.984375 53.90625 
Q 18.75 60.546875 25 69.53125 
L 29.6875 69.53125 
L 29.6875 2.34375 
L 21.875 2.34375 
z
" id="SimHei-49"/>
        <path d="M 12.5 1.171875 
Q 21.09375 15.625 26.5625 27.34375 
Q 16.796875 25.78125 10.34375 29.875 
Q 3.90625 33.984375 2.53125 41.015625 
Q 1.171875 48.046875 2.734375 53.703125 
Q 4.296875 59.375 7.609375 63.078125 
Q 10.9375 66.796875 15.625 68.359375 
Q 20.3125 69.921875 24.015625 69.921875 
Q 27.734375 69.921875 31.640625 68.359375 
Q 35.546875 66.796875 38.671875 63.671875 
Q 41.796875 60.546875 42.96875 57.21875 
Q 44.140625 53.90625 44.140625 48.625 
Q 44.140625 43.359375 40.234375 35.15625 
Q 36.328125 26.953125 21.09375 1.171875 
z
M 9.765625 50 
Q 10.9375 39.84375 14.640625 36.515625 
Q 18.359375 33.203125 22.65625 33.59375 
Q 26.953125 33.984375 29.484375 35.9375 
Q 32.03125 37.890625 34.375 42.578125 
Q 35.9375 48.4375 35.15625 52.53125 
Q 34.375 56.640625 31.046875 59.375 
Q 27.734375 62.109375 23.828125 62.109375 
Q 21.484375 62.5 17.765625 60.9375 
Q 14.0625 59.375 11.90625 54.6875 
Q 9.765625 50 10.9375 39.84375 
z
" id="SimHei-57"/>
        <path d="M 13.28125 2.34375 
Q 20.3125 32.03125 37.890625 61.328125 
L 4.296875 61.328125 
L 4.296875 68.359375 
L 46.09375 68.359375 
L 46.09375 61.71875 
Q 27.734375 32.03125 21.875 2.34375 
L 13.28125 2.34375 
z
" id="SimHei-55"/>
       </defs>
       <use xlink:href="#SimHei-49"/>
       <use x="50" xlink:href="#SimHei-57"/>
       <use x="100" xlink:href="#SimHei-57"/>
       <use x="150" xlink:href="#SimHei-55"/>
      </g>
     </g>
    </g>
    <g id="xtick_2">
     <g id="line2d_2">
      <g>
       <use style="stroke:#000000;stroke-width:0.8;" x="76.44" xlink:href="#m1f63d28a8b" y="453.6"/>
      </g>
     </g>
     <g id="text_2">
      <!-- 1998 -->
      <g transform="translate(79.2525 480.6)rotate(-90)scale(0.1 -0.1)">
       <defs>
        <path d="M 2.734375 16.796875 
Q 2.734375 26.171875 5.078125 30.65625 
Q 7.421875 35.15625 12.890625 37.890625 
Q 8.203125 40.625 6.640625 43.9375 
Q 5.078125 47.265625 4.875 51.5625 
Q 4.6875 55.859375 6.046875 58.984375 
Q 7.421875 62.109375 10.15625 64.84375 
Q 12.890625 67.578125 16.203125 68.546875 
Q 19.53125 69.53125 23.4375 69.53125 
Q 27.34375 69.53125 30.46875 68.75 
Q 33.59375 67.96875 37.109375 65.421875 
Q 40.625 62.890625 42.1875 58.203125 
Q 43.75 53.515625 41.984375 47.265625 
Q 40.234375 41.015625 32.8125 37.5 
Q 39.453125 35.546875 42.1875 31.4375 
Q 44.921875 27.34375 44.921875 21.484375 
Q 44.921875 15.625 43.15625 12.109375 
Q 41.40625 8.59375 39.25 6.25 
Q 37.109375 3.90625 33.390625 2.53125 
Q 29.6875 1.171875 24.015625 1.171875 
Q 18.359375 1.171875 14.25 2.53125 
Q 10.15625 3.90625 7.421875 6.640625 
Q 4.6875 9.375 3.703125 13.078125 
Q 2.734375 16.796875 2.734375 26.171875 
z
M 10.9375 26.5625 
Q 10.546875 17.1875 12.296875 13.671875 
Q 14.0625 10.15625 18.75 9.171875 
Q 23.4375 8.203125 28.515625 9.375 
Q 33.59375 10.546875 35.546875 14.84375 
Q 37.5 19.140625 36.90625 23.4375 
Q 36.328125 27.734375 32.03125 30.65625 
Q 27.734375 33.59375 22.65625 33.203125 
Q 17.578125 32.8125 14.25 29.6875 
Q 10.9375 26.5625 10.546875 17.1875 
z
M 12.109375 56.25 
Q 12.109375 48.4375 14.84375 44.921875 
Q 17.578125 41.40625 23.4375 41.40625 
Q 29.296875 41.40625 32.21875 44.921875 
Q 35.15625 48.4375 34.953125 53.3125 
Q 34.765625 58.203125 31.4375 60.546875 
Q 28.125 62.890625 22.453125 62.5 
Q 16.796875 62.109375 14.453125 59.171875 
Q 12.109375 56.25 12.109375 48.4375 
z
" id="SimHei-56"/>
       </defs>
       <use xlink:href="#SimHei-49"/>
       <use x="50" xlink:href="#SimHei-57"/>
       <use x="100" xlink:href="#SimHei-57"/>
       <use x="150" xlink:href="#SimHei-56"/>
      </g>
     </g>
    </g>
    <g id="xtick_3">
     <g id="line2d_3">
      <g>
       <use style="stroke:#000000;stroke-width:0.8;" x="88.276364" xlink:href="#m1f63d28a8b" y="453.6"/>
      </g>
     </g>
     <g id="text_3">
      <!-- 1999 -->
      <g transform="translate(91.088864 480.6)rotate(-90)scale(0.1 -0.1)">
       <use xlink:href="#SimHei-49"/>
       <use x="50" xlink:href="#SimHei-57"/>
       <use x="100" xlink:href="#SimHei-57"/>
       <use x="150" xlink:href="#SimHei-57"/>
      </g>
     </g>
    </g>
    <g id="xtick_4">
     <g id="line2d_4">
      <g>
       <use style="stroke:#000000;stroke-width:0.8;" x="100.112727" xlink:href="#m1f63d28a8b" y="453.6"/>
      </g>
     </g>
     <g id="text_4">
      <!-- 2000 -->
      <g transform="translate(102.925227 480.6)rotate(-90)scale(0.1 -0.1)">
       <defs>
        <path d="M 4.6875 3.90625 
Q 5.078125 9.765625 10.15625 14.453125 
Q 15.234375 19.140625 23.046875 29.09375 
Q 30.859375 39.0625 33.203125 44.53125 
Q 35.546875 50 34.953125 53.90625 
Q 34.375 57.8125 31.25 60.34375 
Q 28.125 62.890625 24.015625 62.5 
Q 19.921875 62.109375 16.203125 59.375 
Q 12.5 56.640625 10.546875 51.171875 
L 3.125 52.34375 
Q 6.25 61.328125 11.125 65.421875 
Q 16.015625 69.53125 22.65625 69.921875 
Q 26.5625 70.3125 29.6875 69.71875 
Q 32.8125 69.140625 36.125 66.984375 
Q 39.453125 64.84375 41.59375 60.546875 
Q 43.75 56.25 43.15625 50.1875 
Q 42.578125 44.140625 37.109375 35.734375 
Q 31.640625 27.34375 16.015625 9.375 
L 44.140625 9.375 
L 44.140625 2.34375 
L 4.6875 2.34375 
z
" id="SimHei-50"/>
        <path d="M 3.125 29.296875 
Q 3.90625 50 6.4375 56.046875 
Q 8.984375 62.109375 13.671875 66.015625 
Q 18.359375 69.921875 25.1875 69.921875 
Q 32.03125 69.921875 37.109375 64.25 
Q 42.1875 58.59375 43.75 50 
Q 45.3125 41.40625 44.71875 30.265625 
Q 44.140625 19.140625 40.8125 12.109375 
Q 37.5 5.078125 30.859375 2.34375 
Q 24.21875 -0.390625 17.578125 2.921875 
Q 10.9375 6.25 8.203125 11.71875 
Q 5.46875 17.1875 4.296875 23.234375 
Q 3.125 29.296875 3.90625 50 
z
M 12.890625 52.734375 
Q 10.546875 31.25 12.5 22.84375 
Q 14.453125 14.453125 18.9375 10.9375 
Q 23.4375 7.421875 28.125 9.5625 
Q 32.8125 11.71875 34.953125 18.15625 
Q 37.109375 24.609375 37.109375 32.21875 
Q 37.109375 39.84375 36.515625 46.09375 
Q 35.9375 52.34375 33 57.421875 
Q 30.078125 62.5 25.1875 62.6875 
Q 20.3125 62.890625 16.59375 57.8125 
Q 12.890625 52.734375 10.546875 31.25 
z
" id="SimHei-48"/>
       </defs>
       <use xlink:href="#SimHei-50"/>
       <use x="50" xlink:href="#SimHei-48"/>
       <use x="100" xlink:href="#SimHei-48"/>
       <use x="150" xlink:href="#SimHei-48"/>
      </g>
     </g>
    </g>
    <g id="xtick_5">
     <g id="line2d_5">
      <g>
       <use style="stroke:#000000;stroke-width:0.8;" x="111.949091" xlink:href="#m1f63d28a8b" y="453.6"/>
      </g>
     </g>
     <g id="text_5">
      <!-- 2001 -->
      <g transform="translate(114.761591 480.6)rotate(-90)scale(0.1 -0.1)">
       <use xlink:href="#SimHei-50"/>
       <use x="50" xlink:href="#SimHei-48"/>
       <use x="100" xlink:href="#SimHei-48"/>
       <use x="150" xlink:href="#SimHei-49"/>
      </g>
     </g>
    </g>
    <g id="xtick_6">
     <g id="line2d_6">
      <g>
       <use style="stroke:#000000;stroke-width:0.8;" x="123.785455" xlink:href="#m1f63d28a8b" y="453.6"/>
      </g>
     </g>
     <g id="text_6">
      <!-- 2002 -->
      <g transform="translate(126.597955 480.6)rotate(-90)scale(0.1 -0.1)">
       <use xlink:href="#SimHei-50"/>
       <use x="50" xlink:href="#SimHei-48"/>
       <use x="100" xlink:href="#SimHei-48"/>
       <use x="150" xlink:href="#SimHei-50"/>
      </g>
     </g>
    </g>
    <g id="xtick_7">
     <g id="line2d_7">
      <g>
       <use style="stroke:#000000;stroke-width:0.8;" x="135.621818" xlink:href="#m1f63d28a8b" y="453.6"/>
      </g>
     </g>
     <g id="text_7">
      <!-- 2003 -->
      <g transform="translate(138.434318 480.6)rotate(-90)scale(0.1 -0.1)">
       <defs>
        <path d="M 3.90625 19.140625 
L 10.9375 20.3125 
Q 12.5 15.234375 16.015625 11.90625 
Q 19.53125 8.59375 24.796875 8.78125 
Q 30.078125 8.984375 33.203125 13.078125 
Q 36.328125 17.1875 35.9375 22.453125 
Q 35.546875 27.734375 31.828125 30.65625 
Q 28.125 33.59375 19.921875 34.765625 
L 19.921875 39.84375 
Q 28.125 40.625 31.828125 44.140625 
Q 35.546875 47.65625 35.15625 53.3125 
Q 34.765625 58.984375 30.078125 61.515625 
Q 25.390625 64.0625 20.109375 62.109375 
Q 14.84375 60.15625 11.71875 51.171875 
L 4.6875 52.34375 
Q 7.03125 59.375 11.125 64.0625 
Q 15.234375 68.75 22.265625 69.53125 
Q 29.296875 70.3125 34.5625 67.765625 
Q 39.84375 65.234375 41.984375 59.953125 
Q 44.140625 54.6875 42.578125 48.4375 
Q 41.015625 42.1875 33.59375 37.5 
Q 39.0625 35.15625 41.984375 30.46875 
Q 44.921875 25.78125 43.9375 18.15625 
Q 42.96875 10.546875 37.109375 5.859375 
Q 31.25 1.171875 23.828125 1.359375 
Q 16.40625 1.5625 10.9375 6.046875 
Q 5.46875 10.546875 3.90625 19.140625 
z
" id="SimHei-51"/>
       </defs>
       <use xlink:href="#SimHei-50"/>
       <use x="50" xlink:href="#SimHei-48"/>
       <use x="100" xlink:href="#SimHei-48"/>
       <use x="150" xlink:href="#SimHei-51"/>
      </g>
     </g>
    </g>
    <g id="xtick_8">
     <g id="line2d_8">
      <g>
       <use style="stroke:#000000;stroke-width:0.8;" x="147.458182" xlink:href="#m1f63d28a8b" y="453.6"/>
      </g>
     </g>
     <g id="text_8">
      <!-- 2004 -->
      <g transform="translate(150.270682 480.6)rotate(-90)scale(0.1 -0.1)">
       <defs>
        <path d="M 31.25 17.1875 
L 1.171875 17.1875 
L 1.171875 23.828125 
L 32.8125 69.53125 
L 38.671875 69.53125 
L 38.671875 23.828125 
L 48.046875 23.828125 
L 48.046875 17.1875 
L 38.671875 17.1875 
L 38.671875 2.34375 
L 31.25 2.34375 
z
M 31.25 23.828125 
L 31.25 54.6875 
L 9.375 23.828125 
z
" id="SimHei-52"/>
       </defs>
       <use xlink:href="#SimHei-50"/>
       <use x="50" xlink:href="#SimHei-48"/>
       <use x="100" xlink:href="#SimHei-48"/>
       <use x="150" xlink:href="#SimHei-52"/>
      </g>
     </g>
    </g>
    <g id="xtick_9">
     <g id="line2d_9">
      <g>
       <use style="stroke:#000000;stroke-width:0.8;" x="159.294545" xlink:href="#m1f63d28a8b" y="453.6"/>
      </g>
     </g>
     <g id="text_9">
      <!-- 2005 -->
      <g transform="translate(162.107045 480.6)rotate(-90)scale(0.1 -0.1)">
       <defs>
        <path d="M 8.59375 20.703125 
Q 11.328125 10.15625 17.96875 8.984375 
Q 24.609375 7.8125 28.703125 10.34375 
Q 32.8125 12.890625 34.5625 16.984375 
Q 36.328125 21.09375 36.125 26.171875 
Q 35.9375 31.25 33.390625 34.765625 
Q 30.859375 38.28125 26.953125 39.453125 
Q 23.046875 40.625 18.15625 39.453125 
Q 13.28125 38.28125 10.15625 33.984375 
L 3.515625 34.765625 
Q 4.296875 37.109375 10.9375 68.359375 
L 41.796875 68.359375 
L 41.796875 61.328125 
L 16.796875 61.328125 
Q 14.84375 50.78125 12.890625 44.53125 
Q 18.75 47.265625 23.828125 47.0625 
Q 28.90625 46.875 33.59375 44.71875 
Q 38.28125 42.578125 40.421875 38.859375 
Q 42.578125 35.15625 43.546875 31.4375 
Q 44.53125 27.734375 44.328125 23.4375 
Q 44.140625 19.140625 42.578125 14.640625 
Q 41.015625 10.15625 37.890625 7.21875 
Q 34.765625 4.296875 30.265625 2.53125 
Q 25.78125 0.78125 19.921875 1.171875 
Q 14.0625 1.5625 8.78125 5.46875 
Q 3.515625 9.375 1.5625 18.75 
z
" id="SimHei-53"/>
       </defs>
       <use xlink:href="#SimHei-50"/>
       <use x="50" xlink:href="#SimHei-48"/>
       <use x="100" xlink:href="#SimHei-48"/>
       <use x="150" xlink:href="#SimHei-53"/>
      </g>
     </g>
    </g>
    <g id="xtick_10">
     <g id="line2d_10">
      <g>
       <use style="stroke:#000000;stroke-width:0.8;" x="171.130909" xlink:href="#m1f63d28a8b" y="453.6"/>
      </g>
     </g>
     <g id="text_10">
      <!-- 2006 -->
      <g transform="translate(173.943409 480.6)rotate(-90)scale(0.1 -0.1)">
       <defs>
        <path d="M 3.515625 19.53125 
Q 4.296875 30.859375 6.046875 34.765625 
Q 7.8125 38.671875 11.328125 44.53125 
L 27.34375 69.53125 
L 36.328125 69.53125 
L 19.921875 43.75 
Q 30.46875 46.484375 36.71875 42.96875 
Q 42.96875 39.453125 45.109375 34.953125 
Q 47.265625 30.46875 47.453125 25.1875 
Q 47.65625 19.921875 45.890625 14.84375 
Q 44.140625 9.765625 39.640625 5.65625 
Q 35.15625 1.5625 27.140625 1.171875 
Q 19.140625 0.78125 13.46875 4.09375 
Q 7.8125 7.421875 5.65625 13.46875 
Q 3.515625 19.53125 4.296875 30.859375 
z
M 12.5 16.015625 
Q 19.53125 8.59375 25.390625 8.203125 
Q 31.25 7.8125 35.15625 12.109375 
Q 39.0625 16.40625 39.0625 24.609375 
Q 39.0625 32.8125 34.171875 35.9375 
Q 29.296875 39.0625 23.234375 38.28125 
Q 17.1875 37.5 14.453125 32.421875 
Q 11.71875 27.34375 12.109375 21.671875 
Q 12.5 16.015625 19.53125 8.59375 
z
" id="SimHei-54"/>
       </defs>
       <use xlink:href="#SimHei-50"/>
       <use x="50" xlink:href="#SimHei-48"/>
       <use x="100" xlink:href="#SimHei-48"/>
       <use x="150" xlink:href="#SimHei-54"/>
      </g>
     </g>
    </g>
    <g id="xtick_11">
     <g id="line2d_11">
      <g>
       <use style="stroke:#000000;stroke-width:0.8;" x="182.967273" xlink:href="#m1f63d28a8b" y="453.6"/>
      </g>
     </g>
     <g id="text_11">
      <!-- 2007 -->
      <g transform="translate(185.779773 480.6)rotate(-90)scale(0.1 -0.1)">
       <use xlink:href="#SimHei-50"/>
       <use x="50" xlink:href="#SimHei-48"/>
       <use x="100" xlink:href="#SimHei-48"/>
       <use x="150" xlink:href="#SimHei-55"/>
      </g>
     </g>
    </g>
    <g id="xtick_12">
     <g id="line2d_12">
      <g>
       <use style="stroke:#000000;stroke-width:0.8;" x="194.803636" xlink:href="#m1f63d28a8b" y="453.6"/>
      </g>
     </g>
     <g id="text_12">
      <!-- 2008 -->
      <g transform="translate(197.616136 480.6)rotate(-90)scale(0.1 -0.1)">
       <use xlink:href="#SimHei-50"/>
       <use x="50" xlink:href="#SimHei-48"/>
       <use x="100" xlink:href="#SimHei-48"/>
       <use x="150" xlink:href="#SimHei-56"/>
      </g>
     </g>
    </g>
    <g id="xtick_13">
     <g id="line2d_13">
      <g>
       <use style="stroke:#000000;stroke-width:0.8;" x="206.64" xlink:href="#m1f63d28a8b" y="453.6"/>
      </g>
     </g>
     <g id="text_13">
      <!-- 2009 -->
      <g transform="translate(209.4525 480.6)rotate(-90)scale(0.1 -0.1)">
       <use xlink:href="#SimHei-50"/>
       <use x="50" xlink:href="#SimHei-48"/>
       <use x="100" xlink:href="#SimHei-48"/>
       <use x="150" xlink:href="#SimHei-57"/>
      </g>
     </g>
    </g>
    <g id="xtick_14">
     <g id="line2d_14">
      <g>
       <use style="stroke:#000000;stroke-width:0.8;" x="218.476364" xlink:href="#m1f63d28a8b" y="453.6"/>
      </g>
     </g>
     <g id="text_14">
      <!-- 2010 -->
      <g transform="translate(221.288864 480.6)rotate(-90)scale(0.1 -0.1)">
       <use xlink:href="#SimHei-50"/>
       <use x="50" xlink:href="#SimHei-48"/>
       <use x="100" xlink:href="#SimHei-49"/>
       <use x="150" xlink:href="#SimHei-48"/>
      </g>
     </g>
    </g>
    <g id="xtick_15">
     <g id="line2d_15">
      <g>
       <use style="stroke:#000000;stroke-width:0.8;" x="230.312727" xlink:href="#m1f63d28a8b" y="453.6"/>
      </g>
     </g>
     <g id="text_15">
      <!-- 2011 -->
      <g transform="translate(233.125227 480.6)rotate(-90)scale(0.1 -0.1)">
       <use xlink:href="#SimHei-50"/>
       <use x="50" xlink:href="#SimHei-48"/>
       <use x="100" xlink:href="#SimHei-49"/>
       <use x="150" xlink:href="#SimHei-49"/>
      </g>
     </g>
    </g>
    <g id="xtick_16">
     <g id="line2d_16">
      <g>
       <use style="stroke:#000000;stroke-width:0.8;" x="242.149091" xlink:href="#m1f63d28a8b" y="453.6"/>
      </g>
     </g>
     <g id="text_16">
      <!-- 2012 -->
      <g transform="translate(244.961591 480.6)rotate(-90)scale(0.1 -0.1)">
       <use xlink:href="#SimHei-50"/>
       <use x="50" xlink:href="#SimHei-48"/>
       <use x="100" xlink:href="#SimHei-49"/>
       <use x="150" xlink:href="#SimHei-50"/>
      </g>
     </g>
    </g>
    <g id="xtick_17">
     <g id="line2d_17">
      <g>
       <use style="stroke:#000000;stroke-width:0.8;" x="253.985455" xlink:href="#m1f63d28a8b" y="453.6"/>
      </g>
     </g>
     <g id="text_17">
      <!-- 2013 -->
      <g transform="translate(256.797955 480.6)rotate(-90)scale(0.1 -0.1)">
       <use xlink:href="#SimHei-50"/>
       <use x="50" xlink:href="#SimHei-48"/>
       <use x="100" xlink:href="#SimHei-49"/>
       <use x="150" xlink:href="#SimHei-51"/>
      </g>
     </g>
    </g>
    <g id="xtick_18">
     <g id="line2d_18">
      <g>
       <use style="stroke:#000000;stroke-width:0.8;" x="265.821818" xlink:href="#m1f63d28a8b" y="453.6"/>
      </g>
     </g>
     <g id="text_18">
      <!-- 2014 -->
      <g transform="translate(268.634318 480.6)rotate(-90)scale(0.1 -0.1)">
       <use xlink:href="#SimHei-50"/>
       <use x="50" xlink:href="#SimHei-48"/>
       <use x="100" xlink:href="#SimHei-49"/>
       <use x="150" xlink:href="#SimHei-52"/>
      </g>
     </g>
    </g>
    <g id="xtick_19">
     <g id="line2d_19">
      <g>
       <use style="stroke:#000000;stroke-width:0.8;" x="277.658182" xlink:href="#m1f63d28a8b" y="453.6"/>
      </g>
     </g>
     <g id="text_19">
      <!-- 2015 -->
      <g transform="translate(280.470682 480.6)rotate(-90)scale(0.1 -0.1)">
       <use xlink:href="#SimHei-50"/>
       <use x="50" xlink:href="#SimHei-48"/>
       <use x="100" xlink:href="#SimHei-49"/>
       <use x="150" xlink:href="#SimHei-53"/>
      </g>
     </g>
    </g>
    <g id="xtick_20">
     <g id="line2d_20">
      <g>
       <use style="stroke:#000000;stroke-width:0.8;" x="289.494545" xlink:href="#m1f63d28a8b" y="453.6"/>
      </g>
     </g>
     <g id="text_20">
      <!-- 2016 -->
      <g transform="translate(292.307045 480.6)rotate(-90)scale(0.1 -0.1)">
       <use xlink:href="#SimHei-50"/>
       <use x="50" xlink:href="#SimHei-48"/>
       <use x="100" xlink:href="#SimHei-49"/>
       <use x="150" xlink:href="#SimHei-54"/>
      </g>
     </g>
    </g>
    <g id="xtick_21">
     <g id="line2d_21">
      <g>
       <use style="stroke:#000000;stroke-width:0.8;" x="301.330909" xlink:href="#m1f63d28a8b" y="453.6"/>
      </g>
     </g>
     <g id="text_21">
      <!-- 2017 -->
      <g transform="translate(304.143409 480.6)rotate(-90)scale(0.1 -0.1)">
       <use xlink:href="#SimHei-50"/>
       <use x="50" xlink:href="#SimHei-48"/>
       <use x="100" xlink:href="#SimHei-49"/>
       <use x="150" xlink:href="#SimHei-55"/>
      </g>
     </g>
    </g>
    <g id="xtick_22">
     <g id="line2d_22">
      <g>
       <use style="stroke:#000000;stroke-width:0.8;" x="313.167273" xlink:href="#m1f63d28a8b" y="453.6"/>
      </g>
     </g>
     <g id="text_22">
      <!-- 2018 -->
      <g transform="translate(315.979773 480.6)rotate(-90)scale(0.1 -0.1)">
       <use xlink:href="#SimHei-50"/>
       <use x="50" xlink:href="#SimHei-48"/>
       <use x="100" xlink:href="#SimHei-49"/>
       <use x="150" xlink:href="#SimHei-56"/>
      </g>
     </g>
    </g>
    <g id="xtick_23">
     <g id="line2d_23">
      <g>
       <use style="stroke:#000000;stroke-width:0.8;" x="325.003636" xlink:href="#m1f63d28a8b" y="453.6"/>
      </g>
     </g>
     <g id="text_23">
      <!-- 2019 -->
      <g transform="translate(327.816136 480.6)rotate(-90)scale(0.1 -0.1)">
       <use xlink:href="#SimHei-50"/>
       <use x="50" xlink:href="#SimHei-48"/>
       <use x="100" xlink:href="#SimHei-49"/>
       <use x="150" xlink:href="#SimHei-57"/>
      </g>
     </g>
    </g>
    <g id="xtick_24">
     <g id="line2d_24">
      <g>
       <use style="stroke:#000000;stroke-width:0.8;" x="336.84" xlink:href="#m1f63d28a8b" y="453.6"/>
      </g>
     </g>
     <g id="text_24">
      <!-- 2020 -->
      <g transform="translate(339.6525 480.6)rotate(-90)scale(0.1 -0.1)">
       <use xlink:href="#SimHei-50"/>
       <use x="50" xlink:href="#SimHei-48"/>
       <use x="100" xlink:href="#SimHei-50"/>
       <use x="150" xlink:href="#SimHei-48"/>
      </g>
     </g>
    </g>
   </g>
   <g id="matplotlib.axis_2">
    <g id="ytick_1">
     <g id="line2d_25">
      <defs>
       <path d="M 0 0 
L -3.5 0 
" id="m65854f3d6f" style="stroke:#000000;stroke-width:0.8;"/>
      </defs>
      <g>
       <use style="stroke:#000000;stroke-width:0.8;" x="50.4" xlink:href="#m65854f3d6f" y="453.6"/>
      </g>
     </g>
     <g id="text_25">
      <!-- 0 K -->
      <g transform="translate(28.4 457.0375)scale(0.1 -0.1)">
       <defs>
        <path id="SimHei-32"/>
        <path d="M 47.65625 1.953125 
L 37.5 1.953125 
L 19.53125 35.15625 
L 13.28125 26.953125 
L 13.28125 1.953125 
L 4.296875 1.953125 
L 4.296875 68.75 
L 13.28125 68.75 
L 13.28125 39.84375 
L 35.546875 68.75 
L 46.09375 68.75 
L 25.390625 42.578125 
z
" id="SimHei-75"/>
       </defs>
       <use xlink:href="#SimHei-48"/>
       <use x="50" xlink:href="#SimHei-32"/>
       <use x="100" xlink:href="#SimHei-75"/>
      </g>
     </g>
    </g>
    <g id="ytick_2">
     <g id="line2d_26">
      <g>
       <use style="stroke:#000000;stroke-width:0.8;" x="50.4" xlink:href="#m65854f3d6f" y="404.676"/>
      </g>
     </g>
     <g id="text_26">
      <!-- 2 K -->
      <g transform="translate(28.4 408.1135)scale(0.1 -0.1)">
       <use xlink:href="#SimHei-50"/>
       <use x="50" xlink:href="#SimHei-32"/>
       <use x="100" xlink:href="#SimHei-75"/>
      </g>
     </g>
    </g>
    <g id="ytick_3">
     <g id="line2d_27">
      <g>
       <use style="stroke:#000000;stroke-width:0.8;" x="50.4" xlink:href="#m65854f3d6f" y="355.752"/>
      </g>
     </g>
     <g id="text_27">
      <!-- 4 K -->
      <g transform="translate(28.4 359.1895)scale(0.1 -0.1)">
       <use xlink:href="#SimHei-52"/>
       <use x="50" xlink:href="#SimHei-32"/>
       <use x="100" xlink:href="#SimHei-75"/>
      </g>
     </g>
    </g>
    <g id="ytick_4">
     <g id="line2d_28">
      <g>
       <use style="stroke:#000000;stroke-width:0.8;" x="50.4" xlink:href="#m65854f3d6f" y="306.828"/>
      </g>
     </g>
     <g id="text_28">
      <!-- 6 K -->
      <g transform="translate(28.4 310.2655)scale(0.1 -0.1)">
       <use xlink:href="#SimHei-54"/>
       <use x="50" xlink:href="#SimHei-32"/>
       <use x="100" xlink:href="#SimHei-75"/>
      </g>
     </g>
    </g>
    <g id="ytick_5">
     <g id="line2d_29">
      <g>
       <use style="stroke:#000000;stroke-width:0.8;" x="50.4" xlink:href="#m65854f3d6f" y="257.904"/>
      </g>
     </g>
     <g id="text_29">
      <!-- 8 K -->
      <g transform="translate(28.4 261.3415)scale(0.1 -0.1)">
       <use xlink:href="#SimHei-56"/>
       <use x="50" xlink:href="#SimHei-32"/>
       <use x="100" xlink:href="#SimHei-75"/>
      </g>
     </g>
    </g>
    <g id="ytick_6">
     <g id="line2d_30">
      <g>
       <use style="stroke:#000000;stroke-width:0.8;" x="50.4" xlink:href="#m65854f3d6f" y="208.98"/>
      </g>
     </g>
     <g id="text_30">
      <!-- 10 K -->
      <g transform="translate(23.4 212.4175)scale(0.1 -0.1)">
       <use xlink:href="#SimHei-49"/>
       <use x="50" xlink:href="#SimHei-48"/>
       <use x="100" xlink:href="#SimHei-32"/>
       <use x="150" xlink:href="#SimHei-75"/>
      </g>
     </g>
    </g>
    <g id="ytick_7">
     <g id="line2d_31">
      <g>
       <use style="stroke:#000000;stroke-width:0.8;" x="50.4" xlink:href="#m65854f3d6f" y="160.056"/>
      </g>
     </g>
     <g id="text_31">
      <!-- 12 K -->
      <g transform="translate(23.4 163.4935)scale(0.1 -0.1)">
       <use xlink:href="#SimHei-49"/>
       <use x="50" xlink:href="#SimHei-50"/>
       <use x="100" xlink:href="#SimHei-32"/>
       <use x="150" xlink:href="#SimHei-75"/>
      </g>
     </g>
    </g>
    <g id="ytick_8">
     <g id="line2d_32">
      <g>
       <use style="stroke:#000000;stroke-width:0.8;" x="50.4" xlink:href="#m65854f3d6f" y="111.132"/>
      </g>
     </g>
     <g id="text_32">
      <!-- 14 K -->
      <g transform="translate(23.4 114.5695)scale(0.1 -0.1)">
       <use xlink:href="#SimHei-49"/>
       <use x="50" xlink:href="#SimHei-52"/>
       <use x="100" xlink:href="#SimHei-32"/>
       <use x="150" xlink:href="#SimHei-75"/>
      </g>
     </g>
    </g>
    <g id="ytick_9">
     <g id="line2d_33">
      <g>
       <use style="stroke:#000000;stroke-width:0.8;" x="50.4" xlink:href="#m65854f3d6f" y="62.208"/>
      </g>
     </g>
    </g>
   </g>
   <g id="LineCollection_1">
    <path clip-path="url(#p491a2a71a5)" d="M 64.603636 404.676 
L 348.676364 404.676 
" style="fill:none;stroke:#808080;stroke-dasharray:5.55,2.4;stroke-dashoffset:0;stroke-width:1.5;"/>
   </g>
   <g id="LineCollection_2">
    <path clip-path="url(#p491a2a71a5)" d="M 64.603636 355.752 
L 348.676364 355.752 
" style="fill:none;stroke:#808080;stroke-dasharray:5.55,2.4;stroke-dashoffset:0;stroke-width:1.5;"/>
   </g>
   <g id="LineCollection_3">
    <path clip-path="url(#p491a2a71a5)" d="M 64.603636 306.828 
L 348.676364 306.828 
" style="fill:none;stroke:#808080;stroke-dasharray:5.55,2.4;stroke-dashoffset:0;stroke-width:1.5;"/>
   </g>
   <g id="LineCollection_4">
    <path clip-path="url(#p491a2a71a5)" d="M 64.603636 257.904 
L 348.676364 257.904 
" style="fill:none;stroke:#808080;stroke-dasharray:5.55,2.4;stroke-dashoffset:0;stroke-width:1.5;"/>
   </g>
   <g id="LineCollection_5">
    <path clip-path="url(#p491a2a71a5)" d="M 64.603636 208.98 
L 348.676364 208.98 
" style="fill:none;stroke:#808080;stroke-dasharray:5.55,2.4;stroke-dashoffset:0;stroke-width:1.5;"/>
   </g>
   <g id="LineCollection_6">
    <path clip-path="url(#p491a2a71a5)" d="M 64.603636 160.056 
L 348.676364 160.056 
" style="fill:none;stroke:#808080;stroke-dasharray:5.55,2.4;stroke-dashoffset:0;stroke-width:1.5;"/>
   </g>
   <g id="patch_3">
    <path d="M 50.4 453.6 
L 50.4 62.208 
" style="fill:none;"/>
   </g>
   <g id="patch_4">
    <path d="M 362.88 453.6 
L 362.88 62.208 
" style="fill:none;"/>
   </g>
   <g id="patch_5">
    <path d="M 50.4 453.6 
L 362.88 453.6 
" style="fill:none;"/>
   </g>
   <g id="patch_6">
    <path d="M 50.4 62.208 
L 362.88 62.208 
" style="fill:none;"/>
   </g>
   <g id="text_33">
    <!-- The development of Chinese education -->
    <g transform="translate(98.64 44.18925)scale(0.12 -0.12)">
     <defs>
      <path d="M 44.53125 61.328125 
L 28.90625 61.328125 
L 28.90625 1.953125 
L 19.921875 1.953125 
L 19.921875 61.328125 
L 4.296875 61.328125 
L 4.296875 68.75 
L 44.53125 68.75 
z
" id="SimHei-84"/>
      <path d="M 43.75 1.953125 
L 35.9375 1.953125 
L 35.9375 30.078125 
Q 35.9375 34.765625 33.59375 37.5 
Q 31.25 40.234375 27.34375 40.234375 
Q 22.265625 40.234375 17.765625 34.953125 
Q 13.28125 29.6875 13.28125 21.875 
L 13.28125 1.953125 
L 5.46875 1.953125 
L 5.46875 68.75 
L 13.28125 68.75 
L 13.28125 37.5 
Q 16.40625 41.796875 20.109375 44.140625 
Q 23.828125 46.484375 29.6875 46.484375 
Q 36.71875 46.484375 40.234375 42.578125 
Q 43.75 38.671875 43.75 32.8125 
z
" id="SimHei-104"/>
      <path d="M 44.53125 16.796875 
Q 43.75 9.765625 38.28125 5.46875 
Q 32.8125 1.171875 25.390625 1.171875 
Q 16.015625 1.171875 9.953125 7.21875 
Q 3.90625 13.28125 3.90625 23.828125 
Q 3.90625 34.375 9.953125 40.421875 
Q 16.015625 46.484375 25.390625 46.484375 
Q 33.59375 46.484375 38.859375 41.203125 
Q 44.140625 35.9375 44.140625 23.828125 
L 12.5 23.828125 
Q 12.5 15.234375 16.203125 11.71875 
Q 19.921875 8.203125 25.390625 8.203125 
Q 29.6875 8.203125 32.421875 10.34375 
Q 35.15625 12.5 35.9375 16.796875 
z
M 35.15625 30.078125 
Q 34.375 35.546875 31.640625 37.6875 
Q 28.90625 39.84375 24.609375 39.84375 
Q 20.703125 39.84375 17.578125 37.6875 
Q 14.453125 35.546875 12.890625 30.078125 
z
" id="SimHei-101"/>
      <path d="M 42.96875 1.953125 
L 35.15625 1.953125 
L 35.15625 7.8125 
Q 32.8125 4.296875 29.6875 2.734375 
Q 26.5625 1.171875 22.265625 1.171875 
Q 14.453125 1.171875 8.984375 6.828125 
Q 3.515625 12.5 3.515625 23.828125 
Q 3.515625 35.15625 8.984375 41.015625 
Q 14.453125 46.875 22.265625 46.875 
Q 26.5625 46.875 29.6875 45.109375 
Q 32.8125 43.359375 35.15625 39.84375 
L 35.15625 68.75 
L 42.96875 68.75 
z
M 35.15625 23.828125 
Q 35.15625 31.25 31.828125 35.546875 
Q 28.515625 39.84375 23.828125 39.84375 
Q 17.96875 39.84375 15.03125 35.546875 
Q 12.109375 31.25 12.109375 23.828125 
Q 12.109375 16.40625 15.03125 12.296875 
Q 17.96875 8.203125 23.828125 8.203125 
Q 28.515625 8.203125 31.828125 12.296875 
Q 35.15625 16.40625 35.15625 23.828125 
z
" id="SimHei-100"/>
      <path d="M 44.921875 45.703125 
L 28.515625 1.171875 
L 19.921875 1.171875 
L 3.515625 45.703125 
L 11.71875 45.703125 
L 23.828125 11.71875 
L 24.609375 11.71875 
L 36.71875 45.703125 
z
" id="SimHei-118"/>
      <path d="M 28.515625 1.953125 
L 20.703125 1.953125 
L 20.703125 68.75 
L 28.515625 68.75 
z
" id="SimHei-108"/>
      <path d="M 45.703125 23.828125 
Q 45.703125 13.671875 39.453125 7.421875 
Q 33.203125 1.171875 24.609375 1.171875 
Q 16.015625 1.171875 9.765625 7.421875 
Q 3.515625 13.671875 3.515625 23.828125 
Q 3.515625 33.984375 9.765625 40.234375 
Q 16.015625 46.484375 24.609375 46.484375 
Q 33.203125 46.484375 39.453125 40.234375 
Q 45.703125 33.984375 45.703125 23.828125 
z
M 37.109375 23.828125 
Q 37.109375 31.640625 33.203125 35.546875 
Q 29.296875 39.453125 24.609375 39.453125 
Q 19.921875 39.453125 16.015625 35.546875 
Q 12.109375 31.640625 12.109375 23.828125 
Q 12.109375 16.015625 16.015625 12.109375 
Q 19.921875 8.203125 24.609375 8.203125 
Q 29.296875 8.203125 33.203125 12.109375 
Q 37.109375 16.015625 37.109375 23.828125 
z
" id="SimHei-111"/>
      <path d="M 44.140625 23.828125 
Q 44.140625 12.5 38.671875 6.640625 
Q 33.203125 0.78125 25.390625 0.78125 
Q 21.09375 0.78125 17.96875 2.53125 
Q 14.84375 4.296875 12.5 7.8125 
L 12.5 -12.5 
L 4.6875 -12.5 
L 4.6875 45.703125 
L 12.5 45.703125 
L 12.5 39.84375 
Q 14.84375 43.359375 17.96875 44.921875 
Q 21.09375 46.484375 25.390625 46.484375 
Q 33.203125 46.484375 38.671875 40.8125 
Q 44.140625 35.15625 44.140625 23.828125 
z
M 35.546875 23.828125 
Q 35.546875 31.25 32.609375 35.34375 
Q 29.6875 39.453125 23.828125 39.453125 
Q 19.140625 39.453125 15.8125 35.34375 
Q 12.5 31.25 12.5 23.828125 
Q 12.5 16.40625 15.8125 12.109375 
Q 19.140625 7.8125 23.828125 7.8125 
Q 29.6875 7.8125 32.609375 12.109375 
Q 35.546875 16.40625 35.546875 23.828125 
z
" id="SimHei-112"/>
      <path d="M 47.65625 1.953125 
L 39.84375 1.953125 
L 39.84375 33.59375 
Q 39.84375 35.9375 39.0625 37.5 
Q 38.28125 39.0625 35.9375 39.0625 
Q 33.203125 39.0625 30.859375 36.125 
Q 28.515625 33.203125 28.515625 28.515625 
L 28.515625 1.953125 
L 20.703125 1.953125 
L 20.703125 33.59375 
Q 20.703125 35.9375 19.921875 37.5 
Q 19.140625 39.0625 16.796875 39.0625 
Q 14.0625 39.0625 11.71875 36.125 
Q 9.375 33.203125 9.375 28.515625 
L 9.375 1.953125 
L 1.5625 1.953125 
L 1.5625 45.703125 
L 9.375 45.703125 
L 9.375 39.84375 
Q 11.328125 42.96875 14.0625 44.71875 
Q 16.796875 46.484375 19.921875 46.484375 
Q 23.046875 46.484375 25.1875 44.71875 
Q 27.34375 42.96875 28.125 39.84375 
Q 30.078125 42.96875 32.609375 44.71875 
Q 35.15625 46.484375 38.28125 46.484375 
Q 42.96875 46.484375 45.3125 43.9375 
Q 47.65625 41.40625 47.65625 36.71875 
z
" id="SimHei-109"/>
      <path d="M 43.75 1.953125 
L 35.9375 1.953125 
L 35.9375 30.078125 
Q 35.9375 34.765625 33.59375 37.5 
Q 31.25 40.234375 27.34375 40.234375 
Q 22.265625 40.234375 17.765625 34.953125 
Q 13.28125 29.6875 13.28125 21.875 
L 13.28125 1.953125 
L 5.46875 1.953125 
L 5.46875 45.703125 
L 13.28125 45.703125 
L 13.28125 37.5 
Q 16.40625 41.796875 20.109375 44.140625 
Q 23.828125 46.484375 29.6875 46.484375 
Q 36.71875 46.484375 40.234375 42.578125 
Q 43.75 38.671875 43.75 32.8125 
z
" id="SimHei-110"/>
      <path d="M 42.96875 3.125 
Q 41.015625 2.34375 38.46875 1.75 
Q 35.9375 1.171875 31.640625 1.171875 
Q 24.609375 1.171875 20.3125 5.078125 
Q 16.015625 8.984375 16.015625 16.015625 
L 16.015625 39.453125 
L 2.734375 39.453125 
L 2.734375 45.703125 
L 16.015625 45.703125 
L 16.015625 60.9375 
L 23.828125 60.9375 
L 23.828125 45.703125 
L 39.84375 45.703125 
L 39.84375 39.453125 
L 23.828125 39.453125 
L 23.828125 15.625 
Q 23.828125 12.5 25.390625 10.34375 
Q 26.953125 8.203125 31.25 8.203125 
Q 35.546875 8.203125 38.28125 8.984375 
Q 41.015625 9.765625 42.96875 10.9375 
z
" id="SimHei-116"/>
      <path d="M 44.53125 59.765625 
Q 42.578125 60.9375 39.84375 61.71875 
Q 37.109375 62.5 32.8125 62.5 
Q 28.515625 62.5 26.953125 60.34375 
Q 25.390625 58.203125 25.390625 55.078125 
L 25.390625 45.703125 
L 41.40625 45.703125 
L 41.40625 39.453125 
L 25.390625 39.453125 
L 25.390625 1.953125 
L 17.578125 1.953125 
L 17.578125 39.453125 
L 4.296875 39.453125 
L 4.296875 45.703125 
L 17.578125 45.703125 
L 17.578125 54.6875 
Q 17.578125 61.71875 21.875 65.625 
Q 26.171875 69.53125 33.203125 69.53125 
Q 37.5 69.53125 40.03125 68.9375 
Q 42.578125 68.359375 44.53125 67.578125 
z
" id="SimHei-102"/>
      <path d="M 46.484375 28.515625 
Q 46.09375 13.671875 40.234375 7.421875 
Q 34.375 1.171875 26.171875 1.171875 
Q 16.796875 1.171875 10.15625 8.78125 
Q 3.515625 16.40625 3.515625 33.203125 
Q 3.515625 51.5625 9.953125 60.546875 
Q 16.40625 69.53125 26.5625 69.53125 
Q 35.15625 69.53125 40.8125 63.078125 
Q 46.484375 56.640625 46.09375 44.921875 
L 37.5 44.921875 
Q 37.5 53.515625 34.765625 57.8125 
Q 32.03125 62.109375 26.5625 62.109375 
Q 20.3125 62.109375 16.59375 55.65625 
Q 12.890625 49.21875 12.890625 33.984375 
Q 12.890625 19.921875 16.59375 14.25 
Q 20.3125 8.59375 26.171875 8.59375 
Q 30.46875 8.59375 33.984375 12.6875 
Q 37.5 16.796875 37.5 28.515625 
z
" id="SimHei-67"/>
      <path d="M 28.125 58.203125 
L 20.3125 58.203125 
L 20.3125 68.359375 
L 28.125 68.359375 
z
M 28.125 1.953125 
L 20.3125 1.953125 
L 20.3125 45.703125 
L 28.125 45.703125 
z
" id="SimHei-105"/>
      <path d="M 42.96875 14.0625 
Q 42.96875 7.8125 38.078125 4.484375 
Q 33.203125 1.171875 25.78125 1.171875 
Q 16.40625 1.171875 11.328125 4.875 
Q 6.25 8.59375 6.25 15.625 
L 14.0625 15.625 
Q 14.0625 10.9375 17.375 9.375 
Q 20.703125 7.8125 25.390625 7.8125 
Q 30.078125 7.8125 32.421875 9.5625 
Q 34.765625 11.328125 34.765625 14.0625 
Q 34.765625 16.015625 32.8125 17.96875 
Q 30.859375 19.921875 23.046875 21.09375 
Q 14.0625 22.265625 10.734375 25.578125 
Q 7.421875 28.90625 7.421875 34.375 
Q 7.421875 39.0625 11.90625 42.765625 
Q 16.40625 46.484375 25 46.484375 
Q 32.8125 46.484375 37.296875 42.96875 
Q 41.796875 39.453125 41.796875 33.59375 
L 33.984375 33.59375 
Q 33.984375 37.109375 31.4375 38.46875 
Q 28.90625 39.84375 25 39.84375 
Q 19.921875 39.84375 17.765625 38.078125 
Q 15.625 36.328125 15.625 33.984375 
Q 15.625 31.25 17.578125 29.6875 
Q 19.53125 28.125 25.78125 27.34375 
Q 35.9375 25.78125 39.453125 22.453125 
Q 42.96875 19.140625 42.96875 14.0625 
z
" id="SimHei-115"/>
      <path d="M 43.75 1.953125 
L 35.9375 1.953125 
L 35.9375 10.15625 
Q 32.8125 5.859375 29.09375 3.515625 
Q 25.390625 1.171875 19.53125 1.171875 
Q 12.5 1.171875 8.984375 5.078125 
Q 5.46875 8.984375 5.46875 14.84375 
L 5.46875 45.703125 
L 13.28125 45.703125 
L 13.28125 17.578125 
Q 13.28125 12.890625 15.625 10.15625 
Q 17.96875 7.421875 21.875 7.421875 
Q 26.953125 7.421875 31.4375 12.6875 
Q 35.9375 17.96875 35.9375 25.78125 
L 35.9375 45.703125 
L 43.75 45.703125 
z
" id="SimHei-117"/>
      <path d="M 44.53125 19.53125 
Q 44.53125 11.328125 38.859375 6.25 
Q 33.203125 1.171875 24.609375 1.171875 
Q 16.015625 1.171875 9.765625 7.21875 
Q 3.515625 13.28125 3.515625 23.828125 
Q 3.515625 34.375 9.765625 40.421875 
Q 16.015625 46.484375 24.609375 46.484375 
Q 33.203125 46.484375 38.28125 41.984375 
Q 43.359375 37.5 43.359375 31.25 
L 34.765625 31.25 
Q 34.375 35.9375 31.4375 37.6875 
Q 28.515625 39.453125 24.609375 39.453125 
Q 19.921875 39.453125 16.015625 35.734375 
Q 12.109375 32.03125 12.109375 23.828125 
Q 12.109375 15.625 16.015625 11.90625 
Q 19.921875 8.203125 24.609375 8.203125 
Q 29.6875 8.203125 32.8125 10.9375 
Q 35.9375 13.671875 35.9375 19.53125 
z
" id="SimHei-99"/>
      <path d="M 44.921875 1.953125 
L 35.546875 1.953125 
Q 34.765625 2.734375 34.375 4.09375 
Q 33.984375 5.46875 33.984375 7.421875 
Q 31.25 4.296875 27.34375 2.734375 
Q 23.4375 1.171875 19.140625 1.171875 
Q 12.890625 1.171875 8.59375 4.296875 
Q 4.296875 7.421875 4.296875 13.28125 
Q 4.296875 19.140625 8.203125 22.65625 
Q 12.109375 26.171875 20.3125 27.34375 
Q 25.78125 28.125 29.875 29.296875 
Q 33.984375 30.46875 33.984375 32.421875 
Q 33.984375 34.765625 32.21875 37.109375 
Q 30.46875 39.453125 24.609375 39.453125 
Q 19.921875 39.453125 17.765625 37.6875 
Q 15.625 35.9375 14.84375 32.8125 
L 6.25 32.8125 
Q 7.03125 39.0625 11.90625 42.765625 
Q 16.796875 46.484375 24.609375 46.484375 
Q 33.203125 46.484375 37.5 42.578125 
Q 41.796875 38.671875 41.796875 31.640625 
L 41.796875 10.15625 
Q 41.796875 7.8125 42.578125 5.859375 
Q 43.359375 3.90625 44.921875 1.953125 
z
M 33.984375 16.40625 
L 33.984375 24.21875 
Q 31.640625 23.4375 29.484375 22.84375 
Q 27.34375 22.265625 22.265625 21.484375 
Q 16.40625 20.703125 14.640625 18.75 
Q 12.890625 16.796875 12.890625 14.0625 
Q 12.890625 11.71875 14.640625 9.953125 
Q 16.40625 8.203125 19.921875 8.203125 
Q 23.4375 8.203125 27.53125 10.15625 
Q 31.640625 12.109375 33.984375 16.40625 
z
" id="SimHei-97"/>
     </defs>
     <use xlink:href="#SimHei-84"/>
     <use x="50" xlink:href="#SimHei-104"/>
     <use x="100" xlink:href="#SimHei-101"/>
     <use x="150" xlink:href="#SimHei-32"/>
     <use x="200" xlink:href="#SimHei-100"/>
     <use x="250" xlink:href="#SimHei-101"/>
     <use x="300" xlink:href="#SimHei-118"/>
     <use x="350" xlink:href="#SimHei-101"/>
     <use x="400" xlink:href="#SimHei-108"/>
     <use x="450" xlink:href="#SimHei-111"/>
     <use x="500" xlink:href="#SimHei-112"/>
     <use x="550" xlink:href="#SimHei-109"/>
     <use x="600" xlink:href="#SimHei-101"/>
     <use x="650" xlink:href="#SimHei-110"/>
     <use x="700" xlink:href="#SimHei-116"/>
     <use x="750" xlink:href="#SimHei-32"/>
     <use x="800" xlink:href="#SimHei-111"/>
     <use x="850" xlink:href="#SimHei-102"/>
     <use x="900" xlink:href="#SimHei-32"/>
     <use x="950" xlink:href="#SimHei-67"/>
     <use x="1000" xlink:href="#SimHei-104"/>
     <use x="1050" xlink:href="#SimHei-105"/>
     <use x="1100" xlink:href="#SimHei-110"/>
     <use x="1150" xlink:href="#SimHei-101"/>
     <use x="1200" xlink:href="#SimHei-115"/>
     <use x="1250" xlink:href="#SimHei-101"/>
     <use x="1300" xlink:href="#SimHei-32"/>
     <use x="1350" xlink:href="#SimHei-101"/>
     <use x="1400" xlink:href="#SimHei-100"/>
     <use x="1450" xlink:href="#SimHei-117"/>
     <use x="1500" xlink:href="#SimHei-99"/>
     <use x="1550" xlink:href="#SimHei-97"/>
     <use x="1600" xlink:href="#SimHei-116"/>
     <use x="1650" xlink:href="#SimHei-105"/>
     <use x="1700" xlink:href="#SimHei-111"/>
     <use x="1750" xlink:href="#SimHei-110"/>
    </g>
    <!-- (1997-2020) -->
    <g transform="translate(173.64 56.208)scale(0.12 -0.12)">
     <defs>
      <path d="M 46.484375 -3.125 
L 42.1875 -7.421875 
Q 32.421875 1.953125 27.53125 12.109375 
Q 22.65625 22.265625 22.65625 35.15625 
Q 22.65625 48.046875 27.53125 58.203125 
Q 32.421875 68.359375 42.1875 78.125 
L 46.484375 73.828125 
Q 37.5 65.234375 33 56.046875 
Q 28.515625 46.875 28.515625 35.15625 
Q 28.515625 23.4375 33 14.25 
Q 37.5 5.078125 46.484375 -3.125 
z
" id="SimHei-40"/>
      <path d="M 46.484375 33.203125 
L 1.953125 33.203125 
L 1.953125 39.453125 
L 46.484375 39.453125 
z
" id="SimHei-45"/>
      <path d="M 26.171875 35.15625 
Q 26.171875 22.265625 21.28125 12.109375 
Q 16.40625 1.953125 6.640625 -7.421875 
L 2.34375 -3.125 
Q 11.328125 5.078125 15.8125 14.25 
Q 20.3125 23.4375 20.3125 35.15625 
Q 20.3125 46.875 15.8125 56.046875 
Q 11.328125 65.234375 2.34375 73.828125 
L 6.640625 78.125 
Q 16.40625 68.359375 21.28125 58.203125 
Q 26.171875 48.046875 26.171875 35.15625 
z
" id="SimHei-41"/>
     </defs>
     <use xlink:href="#SimHei-40"/>
     <use x="50" xlink:href="#SimHei-49"/>
     <use x="100" xlink:href="#SimHei-57"/>
     <use x="150" xlink:href="#SimHei-57"/>
     <use x="200" xlink:href="#SimHei-55"/>
     <use x="250" xlink:href="#SimHei-45"/>
     <use x="300" xlink:href="#SimHei-50"/>
     <use x="350" xlink:href="#SimHei-48"/>
     <use x="400" xlink:href="#SimHei-50"/>
     <use x="450" xlink:href="#SimHei-48"/>
     <use x="500" xlink:href="#SimHei-41"/>
    </g>
   </g>
   <g id="legend_1">
    <g id="patch_7">
     <path d="M 172.64 78.208 
L 192.64 78.208 
L 192.64 71.208 
L 172.64 71.208 
z
" style="fill:#0000ff;opacity:0.6;"/>
    </g>
    <g id="text_34">
     <!-- Colleges -->
     <g transform="translate(200.64 78.208)scale(0.1 -0.1)">
      <defs>
       <path d="M 46.484375 39.0625 
Q 43.75 39.84375 41.203125 40.03125 
Q 38.671875 40.234375 35.9375 39.453125 
Q 37.109375 38.28125 37.890625 36.515625 
Q 38.671875 34.765625 38.671875 31.25 
Q 38.671875 24.609375 34.171875 20.3125 
Q 29.6875 16.015625 23.046875 16.015625 
Q 21.484375 16.015625 18.9375 16.59375 
Q 16.40625 17.1875 14.84375 17.96875 
Q 13.671875 17.1875 13.28125 16.40625 
Q 12.890625 15.625 12.890625 14.453125 
Q 12.890625 12.5 15.625 11.515625 
Q 18.359375 10.546875 25.390625 10.546875 
Q 36.71875 10.546875 40.8125 7.421875 
Q 44.921875 4.296875 44.921875 -0.390625 
Q 44.921875 -6.640625 38.859375 -9.5625 
Q 32.8125 -12.5 24.609375 -12.5 
Q 14.0625 -12.5 8.984375 -9.765625 
Q 3.90625 -7.03125 3.90625 -2.34375 
Q 3.90625 0 5.859375 2.34375 
Q 7.8125 4.6875 10.9375 6.25 
Q 8.59375 7.421875 7.21875 9.171875 
Q 5.859375 10.9375 5.859375 13.671875 
Q 5.859375 16.015625 7.609375 17.765625 
Q 9.375 19.53125 11.71875 20.703125 
Q 9.765625 22.65625 8.59375 25.390625 
Q 7.421875 28.125 7.421875 31.25 
Q 7.421875 37.890625 11.90625 42.1875 
Q 16.40625 46.484375 23.046875 46.484375 
Q 26.5625 46.484375 29.09375 45.5 
Q 31.640625 44.53125 33.59375 42.578125 
Q 36.71875 44.921875 39.84375 45.890625 
Q 42.96875 46.875 46.484375 46.484375 
z
M 30.859375 31.25 
Q 30.859375 35.15625 28.90625 37.5 
Q 26.953125 39.84375 23.046875 39.84375 
Q 19.140625 39.84375 17.1875 37.5 
Q 15.234375 35.15625 15.234375 31.25 
Q 15.234375 27.34375 17.1875 25 
Q 19.140625 22.65625 23.046875 22.65625 
Q 26.953125 22.65625 28.90625 25 
Q 30.859375 27.34375 30.859375 31.25 
z
M 37.5 -1.171875 
Q 37.5 0.390625 35.734375 1.953125 
Q 33.984375 3.515625 26.953125 3.515625 
Q 25.390625 3.515625 22.65625 3.703125 
Q 19.921875 3.90625 16.40625 4.296875 
Q 13.28125 3.125 12.109375 1.5625 
Q 10.9375 0 10.9375 -1.5625 
Q 10.9375 -3.90625 14.0625 -5.46875 
Q 17.1875 -7.03125 25 -7.03125 
Q 31.640625 -7.03125 34.5625 -5.265625 
Q 37.5 -3.515625 37.5 -1.171875 
z
" id="SimHei-103"/>
      </defs>
      <use xlink:href="#SimHei-67"/>
      <use x="50" xlink:href="#SimHei-111"/>
      <use x="100" xlink:href="#SimHei-108"/>
      <use x="150" xlink:href="#SimHei-108"/>
      <use x="200" xlink:href="#SimHei-101"/>
      <use x="250" xlink:href="#SimHei-103"/>
      <use x="300" xlink:href="#SimHei-101"/>
      <use x="350" xlink:href="#SimHei-115"/>
     </g>
    </g>
   </g>
  </g>
  <g id="axes_2">
   <g id="PathCollection_1">
    <path clip-path="url(#p491a2a71a5)" d="M 64.603636 406.329133 
C 65.962398 406.329133 67.265691 405.789291 68.226481 404.828502 
C 69.18727 403.867712 69.727112 402.564419 69.727112 401.205658 
C 69.727112 399.846896 69.18727 398.543603 68.226481 397.582813 
C 67.265691 396.622024 65.962398 396.082182 64.603636 396.082182 
C 63.244875 396.082182 61.941582 396.622024 60.980792 397.582813 
C 60.020003 398.543603 59.480161 399.846896 59.480161 401.205658 
C 59.480161 402.564419 60.020003 403.867712 60.980792 404.828502 
C 61.941582 405.789291 63.244875 406.329133 64.603636 406.329133 
z
" style="fill:#00ffff;fill-opacity:0.7;stroke:#00ffff;stroke-opacity:0.7;"/>
    <path clip-path="url(#p491a2a71a5)" d="M 76.44 405.639171 
C 77.892577 405.639171 79.285856 405.062056 80.312983 404.034929 
C 81.340111 403.007802 81.917226 401.614523 81.917226 400.161946 
C 81.917226 398.709368 81.340111 397.316089 80.312983 396.288962 
C 79.285856 395.261835 77.892577 394.68472 76.44 394.68472 
C 74.987423 394.68472 73.594144 395.261835 72.567017 396.288962 
C 71.539889 397.316089 70.962774 398.709368 70.962774 400.161946 
C 70.962774 401.614523 71.539889 403.007802 72.567017 404.034929 
C 73.594144 405.062056 74.987423 405.639171 76.44 405.639171 
z
" style="fill:#00ffff;fill-opacity:0.7;stroke:#00ffff;stroke-opacity:0.7;"/>
    <path clip-path="url(#p491a2a71a5)" d="M 88.276364 399.709149 
C 89.817054 399.709149 91.29485 399.097026 92.384283 398.007593 
C 93.473716 396.91816 94.085839 395.440364 94.085839 393.899674 
C 94.085839 392.358983 93.473716 390.881187 92.384283 389.791754 
C 91.29485 388.702322 89.817054 388.090199 88.276364 388.090199 
C 86.735673 388.090199 85.257877 388.702322 84.168444 389.791754 
C 83.079012 390.881187 82.466889 392.358983 82.466889 393.899674 
C 82.466889 395.440364 83.079012 396.91816 84.168444 398.007593 
C 85.257877 399.097026 86.735673 399.709149 88.276364 399.709149 
z
" style="fill:#00ffff;fill-opacity:0.7;stroke:#00ffff;stroke-opacity:0.7;"/>
    <path clip-path="url(#p491a2a71a5)" d="M 100.112727 381.236582 
C 101.736758 381.236582 103.294491 380.591348 104.442854 379.442985 
C 105.591217 378.294622 106.236452 376.736888 106.236452 375.112858 
C 106.236452 373.488827 105.591217 371.931094 104.442854 370.782731 
C 103.294491 369.634367 101.736758 368.989133 100.112727 368.989133 
C 98.488697 368.989133 96.930963 369.634367 95.7826 370.782731 
C 94.634237 371.931094 93.989003 373.488827 93.989003 375.112858 
C 93.989003 376.736888 94.634237 378.294622 95.7826 379.442985 
C 96.930963 380.591348 98.488697 381.236582 100.112727 381.236582 
z
" style="fill:#00ffff;fill-opacity:0.7;stroke:#00ffff;stroke-opacity:0.7;"/>
    <path clip-path="url(#p491a2a71a5)" d="M 111.949091 358.991295 
C 113.652389 358.991295 115.286153 358.314567 116.490566 357.110154 
C 117.69498 355.905741 118.371707 354.271976 118.371707 352.568678 
C 118.371707 350.865381 117.69498 349.231616 116.490566 348.027203 
C 115.286153 346.822789 113.652389 346.146062 111.949091 346.146062 
C 110.245793 346.146062 108.612029 346.822789 107.407615 348.027203 
C 106.203202 349.231616 105.526475 350.865381 105.526475 352.568678 
C 105.526475 354.271976 106.203202 355.905741 107.407615 357.110154 
C 108.612029 358.314567 110.245793 358.991295 111.949091 358.991295 
z
" style="fill:#00ffff;fill-opacity:0.7;stroke:#00ffff;stroke-opacity:0.7;"/>
    <path clip-path="url(#p491a2a71a5)" d="M 123.785455 342.160006 
C 125.564491 342.160006 127.270902 341.453187 128.528871 340.195218 
C 129.78684 338.937249 130.493658 337.230838 130.493658 335.451802 
C 130.493658 333.672765 129.78684 331.966354 128.528871 330.708385 
C 127.270902 329.450416 125.564491 328.743598 123.785455 328.743598 
C 122.006418 328.743598 120.300007 329.450416 119.042038 330.708385 
C 117.784069 331.966354 117.077251 333.672765 117.077251 335.451802 
C 117.077251 337.230838 117.784069 338.937249 119.042038 340.195218 
C 120.300007 341.453187 122.006418 342.160006 123.785455 342.160006 
z
" style="fill:#00ffff;fill-opacity:0.7;stroke:#00ffff;stroke-opacity:0.7;"/>
    <path clip-path="url(#p491a2a71a5)" d="M 135.621818 313.836213 
C 137.473498 313.836213 139.249587 313.100533 140.558923 311.791197 
C 141.868258 310.481862 142.603938 308.705773 142.603938 306.854093 
C 142.603938 305.002413 141.868258 303.226324 140.558923 301.916988 
C 139.249587 300.607653 137.473498 299.871973 135.621818 299.871973 
C 133.770138 299.871973 131.994049 300.607653 130.684714 301.916988 
C 129.375378 303.226324 128.639698 305.002413 128.639698 306.854093 
C 128.639698 308.705773 129.375378 310.481862 130.684714 311.791197 
C 131.994049 313.100533 133.770138 313.836213 135.621818 313.836213 
z
" style="fill:#00ffff;fill-opacity:0.7;stroke:#00ffff;stroke-opacity:0.7;"/>
    <path clip-path="url(#p491a2a71a5)" d="M 147.458182 291.451231 
C 149.379761 291.451231 151.222896 290.687779 152.581657 289.329018 
C 153.940419 287.970256 154.70387 286.127121 154.70387 284.205542 
C 154.70387 282.283963 153.940419 280.440829 152.581657 279.082067 
C 151.222896 277.723305 149.379761 276.959854 147.458182 276.959854 
C 145.536603 276.959854 143.693468 277.723305 142.334706 279.082067 
C 140.975945 280.440829 140.212493 282.283963 140.212493 284.205542 
C 140.212493 286.127121 140.975945 287.970256 142.334706 289.329018 
C 143.693468 290.687779 145.536603 291.451231 147.458182 291.451231 
z
" style="fill:#00ffff;fill-opacity:0.7;stroke:#00ffff;stroke-opacity:0.7;"/>
    <path clip-path="url(#p491a2a71a5)" d="M 159.294545 269.265734 
C 161.283569 269.265734 163.191394 268.475487 164.597846 267.069035 
C 166.004298 265.662583 166.794545 263.754758 166.794545 261.765734 
C 166.794545 259.776711 166.004298 257.868885 164.597846 256.462434 
C 163.191394 255.055982 161.283569 254.265734 159.294545 254.265734 
C 157.305522 254.265734 155.397696 255.055982 153.991245 256.462434 
C 152.584793 257.868885 151.794545 259.776711 151.794545 261.765734 
C 151.794545 263.754758 152.584793 265.662583 153.991245 267.069035 
C 155.397696 268.475487 157.305522 269.265734 159.294545 269.265734 
z
" style="fill:#00ffff;fill-opacity:0.7;stroke:#00ffff;stroke-opacity:0.7;"/>
    <path clip-path="url(#p491a2a71a5)" d="M 171.130909 248.115605 
C 173.185163 248.115605 175.155557 247.299441 176.608135 245.846864 
C 178.060712 244.394287 178.876876 242.423893 178.876876 240.369638 
C 178.876876 238.315384 178.060712 236.34499 176.608135 234.892413 
C 175.155557 233.439836 173.185163 232.623672 171.130909 232.623672 
C 169.076655 232.623672 167.106261 233.439836 165.653684 234.892413 
C 164.201106 236.34499 163.384942 238.315384 163.384942 240.369638 
C 163.384942 242.423893 164.201106 244.394287 165.653684 245.846864 
C 167.106261 247.299441 169.076655 248.115605 171.130909 248.115605 
z
" style="fill:#00ffff;fill-opacity:0.7;stroke:#00ffff;stroke-opacity:0.7;"/>
    <path clip-path="url(#p491a2a71a5)" d="M 182.967273 238.647477 
C 185.08475 238.647477 187.115785 237.806194 188.613068 236.308912 
C 190.11035 234.811629 190.951632 232.780594 190.951632 230.663117 
C 190.951632 228.54564 190.11035 226.514604 188.613068 225.017322 
C 187.115785 223.52004 185.08475 222.678757 182.967273 222.678757 
C 180.849796 222.678757 178.81876 223.52004 177.321478 225.017322 
C 175.824196 226.514604 174.982913 228.54564 174.982913 230.663117 
C 174.982913 232.780594 175.824196 234.811629 177.321478 236.308912 
C 178.81876 237.806194 180.849796 238.647477 182.967273 238.647477 
z
" style="fill:#00ffff;fill-opacity:0.7;stroke:#00ffff;stroke-opacity:0.7;"/>
    <path clip-path="url(#p491a2a71a5)" d="M 194.803636 226.145669 
C 196.982502 226.145669 199.072421 225.279996 200.613111 223.739305 
C 202.153802 222.198615 203.019475 220.108696 203.019475 217.92983 
C 203.019475 215.750965 202.153802 213.661046 200.613111 212.120355 
C 199.072421 210.579665 196.982502 209.713992 194.803636 209.713992 
C 192.624771 209.713992 190.534852 210.579665 188.994161 212.120355 
C 187.453471 213.661046 186.587798 215.750965 186.587798 217.92983 
C 186.587798 220.108696 187.453471 222.198615 188.994161 223.739305 
C 190.534852 225.279996 192.624771 226.145669 194.803636 226.145669 
z
" style="fill:#00ffff;fill-opacity:0.7;stroke:#00ffff;stroke-opacity:0.7;"/>
    <path clip-path="url(#p491a2a71a5)" d="M 206.64 215.933682 
C 208.878572 215.933682 211.025759 215.044288 212.608668 213.461379 
C 214.191578 211.878469 215.080972 209.731282 215.080972 207.49271 
C 215.080972 205.254139 214.191578 203.106952 212.608668 201.524042 
C 211.025759 199.941133 208.878572 199.051739 206.64 199.051739 
C 204.401428 199.051739 202.254241 199.941133 200.671332 201.524042 
C 199.088422 203.106952 198.199028 205.254139 198.199028 207.49271 
C 198.199028 209.731282 199.088422 211.878469 200.671332 213.461379 
C 202.254241 215.044288 204.401428 215.933682 206.64 215.933682 
z
" style="fill:#00ffff;fill-opacity:0.7;stroke:#00ffff;stroke-opacity:0.7;"/>
    <path clip-path="url(#p491a2a71a5)" d="M 218.476364 208.012011 
C 220.77309 208.012011 222.976057 207.099512 224.600088 205.475481 
C 226.224119 203.85145 227.136618 201.648483 227.136618 199.351757 
C 227.136618 197.055031 226.224119 194.852063 224.600088 193.228032 
C 222.976057 191.604002 220.77309 190.691503 218.476364 190.691503 
C 216.179637 190.691503 213.97667 191.604002 212.352639 193.228032 
C 210.728609 194.852063 209.81611 197.055031 209.81611 199.351757 
C 209.81611 201.648483 210.728609 203.85145 212.352639 205.475481 
C 213.97667 207.099512 216.179637 208.012011 218.476364 208.012011 
z
" style="fill:#00ffff;fill-opacity:0.7;stroke:#00ffff;stroke-opacity:0.7;"/>
    <path clip-path="url(#p491a2a71a5)" d="M 230.312727 199.771809 
C 232.666171 199.771809 234.923541 198.836776 236.587677 197.17264 
C 238.251814 195.508504 239.186847 193.251134 239.186847 190.89769 
C 239.186847 188.544246 238.251814 186.286876 236.587677 184.622739 
C 234.923541 182.958603 232.666171 182.02357 230.312727 182.02357 
C 227.959283 182.02357 225.701913 182.958603 224.037777 184.622739 
C 222.373641 186.286876 221.438608 188.544246 221.438608 190.89769 
C 221.438608 193.251134 222.373641 195.508504 224.037777 197.17264 
C 225.701913 198.836776 227.959283 199.771809 230.312727 199.771809 
z
" style="fill:#00ffff;fill-opacity:0.7;stroke:#00ffff;stroke-opacity:0.7;"/>
    <path clip-path="url(#p491a2a71a5)" d="M 242.149091 189.439149 
C 244.557918 189.439149 246.868409 188.482112 248.571707 186.778815 
C 250.275005 185.075517 251.232042 182.765025 251.232042 180.356198 
C 251.232042 177.947372 250.275005 175.63688 248.571707 173.933582 
C 246.868409 172.230284 244.557918 171.273247 242.149091 171.273247 
C 239.740264 171.273247 237.429772 172.230284 235.726475 173.933582 
C 234.023177 175.63688 233.06614 177.947372 233.06614 180.356198 
C 233.06614 182.765025 234.023177 185.075517 235.726475 186.778815 
C 237.429772 188.482112 239.740264 189.439149 242.149091 189.439149 
z
" style="fill:#00ffff;fill-opacity:0.7;stroke:#00ffff;stroke-opacity:0.7;"/>
    <path clip-path="url(#p491a2a71a5)" d="M 253.985455 180.249878 
C 256.448419 180.249878 258.810838 179.271332 260.552417 177.529753 
C 262.293996 175.788174 263.272542 173.425755 263.272542 170.96279 
C 263.272542 168.499826 262.293996 166.137407 260.552417 164.395828 
C 258.810838 162.654249 256.448419 161.675703 253.985455 161.675703 
C 251.52249 161.675703 249.160071 162.654249 247.418492 164.395828 
C 245.676913 166.137407 244.698367 168.499826 244.698367 170.96279 
C 244.698367 173.425755 245.676913 175.788174 247.418492 177.529753 
C 249.160071 179.271332 251.52249 180.249878 253.985455 180.249878 
z
" style="fill:#00ffff;fill-opacity:0.7;stroke:#00ffff;stroke-opacity:0.7;"/>
    <path clip-path="url(#p491a2a71a5)" d="M 265.821818 171.264958 
C 268.337756 171.264958 270.750986 170.265365 272.530022 168.486329 
C 274.309059 166.707292 275.308651 164.294062 275.308651 161.778125 
C 275.308651 159.262187 274.309059 156.848957 272.530022 155.069921 
C 270.750986 153.290884 268.337756 152.291292 265.821818 152.291292 
C 263.305881 152.291292 260.892651 153.290884 259.113614 155.069921 
C 257.334578 156.848957 256.334985 159.262187 256.334985 161.778125 
C 256.334985 164.294062 257.334578 166.707292 259.113614 168.486329 
C 260.892651 170.265365 263.305881 171.264958 265.821818 171.264958 
z
" style="fill:#00ffff;fill-opacity:0.7;stroke:#00ffff;stroke-opacity:0.7;"/>
    <path clip-path="url(#p491a2a71a5)" d="M 277.658182 163.945857 
C 280.226 163.945857 282.688992 162.925652 284.504714 161.10993 
C 286.320435 159.294209 287.34064 156.831216 287.34064 154.263398 
C 287.34064 151.69558 286.320435 149.232588 284.504714 147.416866 
C 282.688992 145.601145 280.226 144.58094 277.658182 144.58094 
C 275.090364 144.58094 272.627371 145.601145 270.81165 147.416866 
C 268.995928 149.232588 267.975723 151.69558 267.975723 154.263398 
C 267.975723 156.831216 268.995928 159.294209 270.81165 161.10993 
C 272.627371 162.925652 275.090364 163.945857 277.658182 163.945857 
z
" style="fill:#00ffff;fill-opacity:0.7;stroke:#00ffff;stroke-opacity:0.7;"/>
    <path clip-path="url(#p491a2a71a5)" d="M 289.494545 157.666593 
C 292.113216 157.666593 294.624986 156.626184 296.476665 154.774504 
C 298.328345 152.922824 299.368754 150.411055 299.368754 147.792384 
C 299.368754 145.173713 298.328345 142.661944 296.476665 140.810264 
C 294.624986 138.958584 292.113216 137.918175 289.494545 137.918175 
C 286.875875 137.918175 284.364105 138.958584 282.512425 140.810264 
C 280.660746 142.661944 279.620337 145.173713 279.620337 147.792384 
C 279.620337 150.411055 280.660746 152.922824 282.512425 154.774504 
C 284.364105 156.626184 286.875875 157.666593 289.494545 157.666593 
z
" style="fill:#00ffff;fill-opacity:0.7;stroke:#00ffff;stroke-opacity:0.7;"/>
    <path clip-path="url(#p491a2a71a5)" d="M 301.330909 150.548706 
C 303.999464 150.548706 306.559081 149.488478 308.446034 147.601525 
C 310.332987 145.714572 311.393215 143.154955 311.393215 140.4864 
C 311.393215 137.817845 310.332987 135.258228 308.446034 133.371275 
C 306.559081 131.484322 303.999464 130.424094 301.330909 130.424094 
C 298.662354 130.424094 296.102737 131.484322 294.215784 133.371275 
C 292.328831 135.258228 291.268603 137.817845 291.268603 140.4864 
C 291.268603 143.154955 292.328831 145.714572 294.215784 147.601525 
C 296.102737 149.488478 298.662354 150.548706 301.330909 150.548706 
z
" style="fill:#00ffff;fill-opacity:0.7;stroke:#00ffff;stroke-opacity:0.7;"/>
    <path clip-path="url(#p491a2a71a5)" d="M 313.167273 136.851981 
C 315.884796 136.851981 318.491382 135.772298 320.412961 133.850719 
C 322.33454 131.92914 323.414223 129.322554 323.414223 126.60503 
C 323.414223 123.887507 322.33454 121.280921 320.412961 119.359342 
C 318.491382 117.437763 315.884796 116.35808 313.167273 116.35808 
C 310.44975 116.35808 307.843163 117.437763 305.921584 119.359342 
C 304.000005 121.280921 302.920322 123.887507 302.920322 126.60503 
C 302.920322 129.322554 304.000005 131.92914 305.921584 133.850719 
C 307.843163 135.772298 310.44975 136.851981 313.167273 136.851981 
z
" style="fill:#00ffff;fill-opacity:0.7;stroke:#00ffff;stroke-opacity:0.7;"/>
    <path clip-path="url(#p491a2a71a5)" d="M 325.003636 112.297383 
C 327.769261 112.297383 330.421985 111.198589 332.377577 109.242997 
C 334.333169 107.287405 335.431963 104.634681 335.431963 101.869056 
C 335.431963 99.103431 334.333169 96.450707 332.377577 94.495115 
C 330.421985 92.539523 327.769261 91.440729 325.003636 91.440729 
C 322.238012 91.440729 319.585288 92.539523 317.629696 94.495115 
C 315.674104 96.450707 314.57531 99.103431 314.57531 101.869056 
C 314.57531 104.634681 315.674104 107.287405 317.629696 109.242997 
C 319.585288 111.198589 322.238012 112.297383 325.003636 112.297383 
z
" style="fill:#00ffff;fill-opacity:0.7;stroke:#00ffff;stroke-opacity:0.7;"/>
    <path clip-path="url(#p491a2a71a5)" d="M 336.84 84.921661 
C 339.652904 84.921661 342.350977 83.804082 344.34 81.815059 
C 346.329023 79.826036 347.446602 77.127963 347.446602 74.315059 
C 347.446602 71.502156 346.329023 68.804082 344.34 66.815059 
C 342.350977 64.826036 339.652904 63.708457 336.84 63.708457 
C 334.027096 63.708457 331.329023 64.826036 329.34 66.815059 
C 327.350977 68.804082 326.233398 71.502156 326.233398 74.315059 
C 326.233398 77.127963 327.350977 79.826036 329.34 81.815059 
C 331.329023 83.804082 334.027096 84.921661 336.84 84.921661 
z
" style="fill:#00ffff;fill-opacity:0.7;stroke:#00ffff;stroke-opacity:0.7;"/>
   </g>
   <g id="PathCollection_2">
    <path clip-path="url(#p491a2a71a5)" d="M 64.603636 429.076994 
C 65.158348 429.076994 65.690416 428.856605 66.082656 428.464364 
C 66.474897 428.072123 66.695286 427.540056 66.695286 426.985344 
C 66.695286 426.430632 66.474897 425.898565 66.082656 425.506324 
C 65.690416 425.114083 65.158348 424.893694 64.603636 424.893694 
C 64.048924 424.893694 63.516857 425.114083 63.124616 425.506324 
C 62.732376 425.898565 62.511986 426.430632 62.511986 426.985344 
C 62.511986 427.540056 62.732376 428.072123 63.124616 428.464364 
C 63.516857 428.856605 64.048924 429.076994 64.603636 429.076994 
z
" style="fill:#ffa500;fill-opacity:0.7;stroke:#ffa500;stroke-opacity:0.7;"/>
    <path clip-path="url(#p491a2a71a5)" d="M 76.44 428.1777 
C 77.033012 428.1777 77.601816 427.942094 78.021139 427.522771 
C 78.440462 427.103448 78.676068 426.534644 78.676068 425.941632 
C 78.676068 425.34862 78.440462 424.779816 78.021139 424.360493 
C 77.601816 423.94117 77.033012 423.705564 76.44 423.705564 
C 75.846988 423.705564 75.278184 423.94117 74.858861 424.360493 
C 74.439538 424.779816 74.203932 425.34862 74.203932 425.941632 
C 74.203932 426.534644 74.439538 427.103448 74.858861 427.522771 
C 75.278184 427.942094 75.846988 428.1777 76.44 428.1777 
z
" style="fill:#ffa500;fill-opacity:0.7;stroke:#ffa500;stroke-opacity:0.7;"/>
    <path clip-path="url(#p491a2a71a5)" d="M 88.276364 427.269628 
C 88.905348 427.269628 89.508655 427.01973 89.953415 426.574971 
C 90.398174 426.130212 90.648072 425.526904 90.648072 424.89792 
C 90.648072 424.268936 90.398174 423.665628 89.953415 423.220869 
C 89.508655 422.77611 88.905348 422.526212 88.276364 422.526212 
C 87.647379 422.526212 87.044072 422.77611 86.599313 423.220869 
C 86.154554 423.665628 85.904655 424.268936 85.904655 424.89792 
C 85.904655 425.526904 86.154554 426.130212 86.599313 426.574971 
C 87.044072 427.01973 87.647379 427.269628 88.276364 427.269628 
z
" style="fill:#ffa500;fill-opacity:0.7;stroke:#ffa500;stroke-opacity:0.7;"/>
    <path clip-path="url(#p491a2a71a5)" d="M 100.112727 426.354208 
C 100.775735 426.354208 101.411677 426.090792 101.880494 425.621975 
C 102.349312 425.153158 102.612727 424.517216 102.612727 423.854208 
C 102.612727 423.1912 102.349312 422.555258 101.880494 422.086441 
C 101.411677 421.617624 100.775735 421.354208 100.112727 421.354208 
C 99.44972 421.354208 98.813778 421.617624 98.34496 422.086441 
C 97.876143 422.555258 97.612727 423.1912 97.612727 423.854208 
C 97.612727 424.517216 97.876143 425.153158 98.34496 425.621975 
C 98.813778 426.090792 99.44972 426.354208 100.112727 426.354208 
z
" style="fill:#ffa500;fill-opacity:0.7;stroke:#ffa500;stroke-opacity:0.7;"/>
    <path clip-path="url(#p491a2a71a5)" d="M 111.949091 425.432518 
C 112.644459 425.432518 113.311441 425.156245 113.803141 424.664546 
C 114.29484 424.172846 114.571113 423.505864 114.571113 422.810496 
C 114.571113 422.115128 114.29484 421.448146 113.803141 420.956446 
C 113.311441 420.464747 112.644459 420.188474 111.949091 420.188474 
C 111.253723 420.188474 110.586741 420.464747 110.095041 420.956446 
C 109.603342 421.448146 109.327069 422.115128 109.327069 422.810496 
C 109.327069 423.505864 109.603342 424.172846 110.095041 424.664546 
C 110.586741 425.156245 111.253723 425.432518 111.949091 425.432518 
z
" style="fill:#ffa500;fill-opacity:0.7;stroke:#ffa500;stroke-opacity:0.7;"/>
    <path clip-path="url(#p491a2a71a5)" d="M 123.785455 424.401026 
C 124.511743 424.401026 125.208383 424.112468 125.721946 423.598904 
C 126.23551 423.085341 126.524067 422.388701 126.524067 421.662413 
C 126.524067 420.936124 126.23551 420.239485 125.721946 419.725921 
C 125.208383 419.212358 124.511743 418.9238 123.785455 418.9238 
C 123.059166 418.9238 122.362526 419.212358 121.848963 419.725921 
C 121.335399 420.239485 121.046842 420.936124 121.046842 421.662413 
C 121.046842 422.388701 121.335399 423.085341 121.848963 423.598904 
C 122.362526 424.112468 123.059166 424.401026 123.785455 424.401026 
z
" style="fill:#ffa500;fill-opacity:0.7;stroke:#ffa500;stroke-opacity:0.7;"/>
    <path clip-path="url(#p491a2a71a5)" d="M 135.621818 423.469139 
C 136.377763 423.469139 137.102849 423.168799 137.637383 422.634265 
C 138.171917 422.099731 138.472257 421.374646 138.472257 420.618701 
C 138.472257 419.862756 138.171917 419.13767 137.637383 418.603136 
C 137.102849 418.068602 136.377763 417.768262 135.621818 417.768262 
C 134.865873 417.768262 134.140788 418.068602 133.606254 418.603136 
C 133.07172 419.13767 132.77138 419.862756 132.77138 420.618701 
C 132.77138 421.374646 133.07172 422.099731 133.606254 422.634265 
C 134.140788 423.168799 134.865873 423.469139 135.621818 423.469139 
z
" style="fill:#ffa500;fill-opacity:0.7;stroke:#ffa500;stroke-opacity:0.7;"/>
    <path clip-path="url(#p491a2a71a5)" d="M 147.458182 422.428657 
C 148.242663 422.428657 148.99512 422.11698 149.549832 421.562268 
C 150.104544 421.007556 150.416222 420.255099 150.416222 419.470618 
C 150.416222 418.686136 150.104544 417.93368 149.549832 417.378968 
C 148.99512 416.824255 148.242663 416.512578 147.458182 416.512578 
C 146.6737 416.512578 145.921244 416.824255 145.366532 417.378968 
C 144.81182 417.93368 144.500142 418.686136 144.500142 419.470618 
C 144.500142 420.255099 144.81182 421.007556 145.366532 421.562268 
C 145.921244 422.11698 146.6737 422.428657 147.458182 422.428657 
z
" style="fill:#ffa500;fill-opacity:0.7;stroke:#ffa500;stroke-opacity:0.7;"/>
    <path clip-path="url(#p491a2a71a5)" d="M 159.294545 421.488768 
C 160.106561 421.488768 160.885427 421.166151 161.459609 420.591969 
C 162.033791 420.017788 162.356408 419.238921 162.356408 418.426906 
C 162.356408 417.61489 162.033791 416.836024 161.459609 416.261842 
C 160.885427 415.687661 160.106561 415.365043 159.294545 415.365043 
C 158.48253 415.365043 157.703663 415.687661 157.129482 416.261842 
C 156.5553 416.836024 156.232683 417.61489 156.232683 418.426906 
C 156.232683 419.238921 156.5553 420.017788 157.129482 420.591969 
C 157.703663 421.166151 158.48253 421.488768 159.294545 421.488768 
z
" style="fill:#ffa500;fill-opacity:0.7;stroke:#ffa500;stroke-opacity:0.7;"/>
    <path clip-path="url(#p491a2a71a5)" d="M 171.130909 420.545471 
C 171.969555 420.545471 172.773965 420.212274 173.366977 419.619262 
C 173.959989 419.026249 174.293187 418.221839 174.293187 417.383194 
C 174.293187 416.544548 173.959989 415.740138 173.366977 415.147126 
C 172.773965 414.554113 171.969555 414.220916 171.130909 414.220916 
C 170.292263 414.220916 169.487853 414.554113 168.894841 415.147126 
C 168.301829 415.740138 167.968631 416.544548 167.968631 417.383194 
C 167.968631 418.221839 168.301829 419.026249 168.894841 419.619262 
C 169.487853 420.212274 170.292263 420.545471 171.130909 420.545471 
z
" style="fill:#ffa500;fill-opacity:0.7;stroke:#ffa500;stroke-opacity:0.7;"/>
    <path clip-path="url(#p491a2a71a5)" d="M 182.967273 419.599083 
C 183.831729 419.599083 184.660896 419.255631 185.272159 418.644368 
C 185.883422 418.033105 186.226874 417.203938 186.226874 416.339482 
C 186.226874 415.475025 185.883422 414.645858 185.272159 414.034595 
C 184.660896 413.423333 183.831729 413.07988 182.967273 413.07988 
C 182.102816 413.07988 181.27365 413.423333 180.662387 414.034595 
C 180.051124 414.645858 179.707672 415.475025 179.707672 416.339482 
C 179.707672 417.203938 180.051124 418.033105 180.662387 418.644368 
C 181.27365 419.255631 182.102816 419.599083 182.967273 419.599083 
z
" style="fill:#ffa500;fill-opacity:0.7;stroke:#ffa500;stroke-opacity:0.7;"/>
    <path clip-path="url(#p491a2a71a5)" d="M 194.803636 418.649872 
C 195.693155 418.649872 196.54636 418.296462 197.175345 417.667478 
C 197.804329 417.038493 198.157738 416.185288 198.157738 415.29577 
C 198.157738 414.406251 197.804329 413.553046 197.175345 412.924061 
C 196.54636 412.295077 195.693155 411.941668 194.803636 411.941668 
C 193.914118 411.941668 193.060912 412.295077 192.431928 412.924061 
C 191.802944 413.553046 191.449534 414.406251 191.449534 415.29577 
C 191.449534 416.185288 191.802944 417.038493 192.431928 417.667478 
C 193.060912 418.296462 193.914118 418.649872 194.803636 418.649872 
z
" style="fill:#ffa500;fill-opacity:0.7;stroke:#ffa500;stroke-opacity:0.7;"/>
    <path clip-path="url(#p491a2a71a5)" d="M 206.64 417.69807 
C 207.553893 417.69807 208.430479 417.334976 209.076699 416.688756 
C 209.722919 416.042536 210.086012 415.165951 210.086012 414.252058 
C 210.086012 413.338164 209.722919 412.461579 209.076699 411.815359 
C 208.430479 411.169139 207.553893 410.806045 206.64 410.806045 
C 205.726107 410.806045 204.849521 411.169139 204.203301 411.815359 
C 203.557081 412.461579 203.193988 413.338164 203.193988 414.252058 
C 203.193988 415.165951 203.557081 416.042536 204.203301 416.688756 
C 204.849521 417.334976 205.726107 417.69807 206.64 417.69807 
z
" style="fill:#ffa500;fill-opacity:0.7;stroke:#ffa500;stroke-opacity:0.7;"/>
    <path clip-path="url(#p491a2a71a5)" d="M 218.476364 416.74388 
C 219.413998 416.74388 220.313356 416.371353 220.976364 415.708346 
C 221.639371 415.045338 222.011898 414.14598 222.011898 413.208346 
C 222.011898 412.270711 221.639371 411.371353 220.976364 410.708346 
C 220.313356 410.045338 219.413998 409.672812 218.476364 409.672812 
C 217.538729 409.672812 216.639371 410.045338 215.976364 410.708346 
C 215.313356 411.371353 214.94083 412.270711 214.94083 413.208346 
C 214.94083 414.14598 215.313356 415.045338 215.976364 415.708346 
C 216.639371 416.371353 217.538729 416.74388 218.476364 416.74388 
z
" style="fill:#ffa500;fill-opacity:0.7;stroke:#ffa500;stroke-opacity:0.7;"/>
    <path clip-path="url(#p491a2a71a5)" d="M 230.312727 415.787478 
C 231.273517 415.787478 232.195084 415.405752 232.874465 414.726371 
C 233.553846 414.046991 233.935571 413.125423 233.935571 412.164634 
C 233.935571 411.203844 233.553846 410.282277 232.874465 409.602896 
C 232.195084 408.923515 231.273517 408.541789 230.312727 408.541789 
C 229.351938 408.541789 228.43037 408.923515 227.75099 409.602896 
C 227.071609 410.282277 226.689883 411.203844 226.689883 412.164634 
C 226.689883 413.125423 227.071609 414.046991 227.75099 414.726371 
C 228.43037 415.405752 229.351938 415.787478 230.312727 415.787478 
z
" style="fill:#ffa500;fill-opacity:0.7;stroke:#ffa500;stroke-opacity:0.7;"/>
    <path clip-path="url(#p491a2a71a5)" d="M 242.149091 414.620278 
C 243.13249 414.620278 244.075745 414.22957 244.771113 413.534201 
C 245.466481 412.838833 245.85719 411.895579 245.85719 410.912179 
C 245.85719 409.92878 245.466481 408.985525 244.771113 408.290157 
C 244.075745 407.594789 243.13249 407.20408 242.149091 407.20408 
C 241.165691 407.20408 240.222437 407.594789 239.527069 408.290157 
C 238.8317 408.985525 238.440992 409.92878 238.440992 410.912179 
C 238.440992 411.895579 238.8317 412.838833 239.527069 413.534201 
C 240.222437 414.22957 241.165691 414.620278 242.149091 414.620278 
z
" style="fill:#ffa500;fill-opacity:0.7;stroke:#ffa500;stroke-opacity:0.7;"/>
    <path clip-path="url(#p491a2a71a5)" d="M 253.985455 413.764276 
C 254.990956 413.764276 255.955409 413.364786 256.666406 412.65379 
C 257.377402 411.942793 257.776892 410.978339 257.776892 409.972838 
C 257.776892 408.967337 257.377402 408.002884 256.666406 407.291887 
C 255.955409 406.58089 254.990956 406.181401 253.985455 406.181401 
C 252.979954 406.181401 252.0155 406.58089 251.304503 407.291887 
C 250.593507 408.002884 250.194017 408.967337 250.194017 409.972838 
C 250.194017 410.978339 250.593507 411.942793 251.304503 412.65379 
C 252.0155 413.364786 252.979954 413.764276 253.985455 413.764276 
z
" style="fill:#ffa500;fill-opacity:0.7;stroke:#ffa500;stroke-opacity:0.7;"/>
    <path clip-path="url(#p491a2a71a5)" d="M 265.821818 412.906481 
C 266.848945 412.906481 267.834142 412.498399 268.560431 411.77211 
C 269.28672 411.045822 269.694802 410.060625 269.694802 409.033498 
C 269.694802 408.00637 269.28672 407.021173 268.560431 406.294885 
C 267.834142 405.568596 266.848945 405.160514 265.821818 405.160514 
C 264.794691 405.160514 263.809494 405.568596 263.083205 406.294885 
C 262.356917 407.021173 261.948835 408.00637 261.948835 409.033498 
C 261.948835 410.060625 262.356917 411.045822 263.083205 411.77211 
C 263.809494 412.498399 264.794691 412.906481 265.821818 412.906481 
z
" style="fill:#ffa500;fill-opacity:0.7;stroke:#ffa500;stroke-opacity:0.7;"/>
    <path clip-path="url(#p491a2a71a5)" d="M 277.658182 412.047004 
C 278.706489 412.047004 279.712002 411.630507 280.453267 410.889242 
C 281.194532 410.147977 281.611029 409.142464 281.611029 408.094157 
C 281.611029 407.04585 281.194532 406.040337 280.453267 405.299072 
C 279.712002 404.557807 278.706489 404.14131 277.658182 404.14131 
C 276.609875 404.14131 275.604362 404.557807 274.863097 405.299072 
C 274.121832 406.040337 273.705335 407.04585 273.705335 408.094157 
C 273.705335 409.142464 274.121832 410.147977 274.863097 410.889242 
C 275.604362 411.630507 276.609875 412.047004 277.658182 412.047004 
z
" style="fill:#ffa500;fill-opacity:0.7;stroke:#ffa500;stroke-opacity:0.7;"/>
    <path clip-path="url(#p491a2a71a5)" d="M 289.494545 411.081574 
C 290.563613 411.081574 291.589039 410.656829 292.344984 409.900883 
C 293.100929 409.144938 293.525674 408.119513 293.525674 407.050445 
C 293.525674 405.981377 293.100929 404.955951 292.344984 404.200006 
C 291.589039 403.444061 290.563613 403.019316 289.494545 403.019316 
C 288.425478 403.019316 287.400052 403.444061 286.644107 404.200006 
C 285.888162 404.955951 285.463417 405.981377 285.463417 407.050445 
C 285.463417 408.119513 285.888162 409.144938 286.644107 409.900883 
C 287.400052 410.656829 288.425478 411.081574 289.494545 411.081574 
z
" style="fill:#ffa500;fill-opacity:0.7;stroke:#ffa500;stroke-opacity:0.7;"/>
    <path clip-path="url(#p491a2a71a5)" d="M 301.330909 410.114652 
C 302.420342 410.114652 303.465301 409.681816 304.235647 408.91147 
C 305.005992 408.141125 305.438828 407.096166 305.438828 406.006733 
C 305.438828 404.9173 305.005992 403.872341 304.235647 403.101995 
C 303.465301 402.33165 302.420342 401.898814 301.330909 401.898814 
C 300.241476 401.898814 299.196517 402.33165 298.426172 403.101995 
C 297.655826 403.872341 297.22299 404.9173 297.22299 406.006733 
C 297.22299 407.096166 297.655826 408.141125 298.426172 408.91147 
C 299.196517 409.681816 300.241476 410.114652 301.330909 410.114652 
z
" style="fill:#ffa500;fill-opacity:0.7;stroke:#ffa500;stroke-opacity:0.7;"/>
    <path clip-path="url(#p491a2a71a5)" d="M 313.167273 409.146321 
C 314.276697 409.146321 315.340831 408.705542 316.125313 407.921061 
C 316.909794 407.136579 317.350573 406.072445 317.350573 404.963021 
C 317.350573 403.853597 316.909794 402.789462 316.125313 402.004981 
C 315.340831 401.2205 314.276697 400.779721 313.167273 400.779721 
C 312.057849 400.779721 310.993714 401.2205 310.209233 402.004981 
C 309.424751 402.789462 308.983973 403.853597 308.983973 404.963021 
C 308.983973 406.072445 309.424751 407.136579 310.209233 407.921061 
C 310.993714 408.705542 312.057849 409.146321 313.167273 409.146321 
z
" style="fill:#ffa500;fill-opacity:0.7;stroke:#ffa500;stroke-opacity:0.7;"/>
    <path clip-path="url(#p491a2a71a5)" d="M 325.003636 408.176655 
C 326.132698 408.176655 327.215668 407.728074 328.014035 406.929707 
C 328.812402 406.13134 329.260983 405.04837 329.260983 403.919309 
C 329.260983 402.790247 328.812402 401.707277 328.014035 400.90891 
C 327.215668 400.110543 326.132698 399.661962 325.003636 399.661962 
C 323.874575 399.661962 322.791605 400.110543 321.993238 400.90891 
C 321.194871 401.707277 320.74629 402.790247 320.74629 403.919309 
C 320.74629 405.04837 321.194871 406.13134 321.993238 406.929707 
C 322.791605 407.728074 323.874575 408.176655 325.003636 408.176655 
z
" style="fill:#ffa500;fill-opacity:0.7;stroke:#ffa500;stroke-opacity:0.7;"/>
    <path clip-path="url(#p491a2a71a5)" d="M 336.84 407.205724 
C 337.988363 407.205724 339.089847 406.749474 339.901862 405.937459 
C 340.713878 405.125444 341.170127 404.02396 341.170127 402.875597 
C 341.170127 401.727234 340.713878 400.62575 339.901862 399.813735 
C 339.089847 399.001719 337.988363 398.54547 336.84 398.54547 
C 335.691637 398.54547 334.590153 399.001719 333.778138 399.813735 
C 332.966122 400.62575 332.509873 401.727234 332.509873 402.875597 
C 332.509873 404.02396 332.966122 405.125444 333.778138 405.937459 
C 334.590153 406.749474 335.691637 407.205724 336.84 407.205724 
z
" style="fill:#ffa500;fill-opacity:0.7;stroke:#ffa500;stroke-opacity:0.7;"/>
   </g>
   <g id="matplotlib.axis_3">
    <g id="ytick_10">
     <g id="line2d_34">
      <defs>
       <path d="M 0 0 
L 3.5 0 
" id="m717857034d" style="stroke:#000000;stroke-width:0.8;"/>
      </defs>
      <g>
       <use style="stroke:#000000;stroke-width:0.8;" x="362.88" xlink:href="#m717857034d" y="427.5072"/>
      </g>
     </g>
     <g id="text_35">
      <!-- 0 -->
      <g transform="translate(369.88 430.9447)scale(0.1 -0.1)">
       <use xlink:href="#SimHei-48"/>
      </g>
     </g>
    </g>
    <g id="ytick_11">
     <g id="line2d_35">
      <g>
       <use style="stroke:#000000;stroke-width:0.8;" x="362.88" xlink:href="#m717857034d" y="375.3216"/>
      </g>
     </g>
     <g id="text_36">
      <!-- 500 -->
      <g transform="translate(369.88 378.7591)scale(0.1 -0.1)">
       <use xlink:href="#SimHei-53"/>
       <use x="50" xlink:href="#SimHei-48"/>
       <use x="100" xlink:href="#SimHei-48"/>
      </g>
     </g>
    </g>
    <g id="ytick_12">
     <g id="line2d_36">
      <g>
       <use style="stroke:#000000;stroke-width:0.8;" x="362.88" xlink:href="#m717857034d" y="323.136"/>
      </g>
     </g>
     <g id="text_37">
      <!-- 1000 -->
      <g transform="translate(369.88 326.5735)scale(0.1 -0.1)">
       <use xlink:href="#SimHei-49"/>
       <use x="50" xlink:href="#SimHei-48"/>
       <use x="100" xlink:href="#SimHei-48"/>
       <use x="150" xlink:href="#SimHei-48"/>
      </g>
     </g>
    </g>
    <g id="ytick_13">
     <g id="line2d_37">
      <g>
       <use style="stroke:#000000;stroke-width:0.8;" x="362.88" xlink:href="#m717857034d" y="270.9504"/>
      </g>
     </g>
     <g id="text_38">
      <!-- 1500 -->
      <g transform="translate(369.88 274.3879)scale(0.1 -0.1)">
       <use xlink:href="#SimHei-49"/>
       <use x="50" xlink:href="#SimHei-53"/>
       <use x="100" xlink:href="#SimHei-48"/>
       <use x="150" xlink:href="#SimHei-48"/>
      </g>
     </g>
    </g>
    <g id="ytick_14">
     <g id="line2d_38">
      <g>
       <use style="stroke:#000000;stroke-width:0.8;" x="362.88" xlink:href="#m717857034d" y="218.7648"/>
      </g>
     </g>
     <g id="text_39">
      <!-- 2000 -->
      <g transform="translate(369.88 222.2023)scale(0.1 -0.1)">
       <use xlink:href="#SimHei-50"/>
       <use x="50" xlink:href="#SimHei-48"/>
       <use x="100" xlink:href="#SimHei-48"/>
       <use x="150" xlink:href="#SimHei-48"/>
      </g>
     </g>
    </g>
    <g id="ytick_15">
     <g id="line2d_39">
      <g>
       <use style="stroke:#000000;stroke-width:0.8;" x="362.88" xlink:href="#m717857034d" y="166.5792"/>
      </g>
     </g>
     <g id="text_40">
      <!-- 2500 -->
      <g transform="translate(369.88 170.0167)scale(0.1 -0.1)">
       <use xlink:href="#SimHei-50"/>
       <use x="50" xlink:href="#SimHei-53"/>
       <use x="100" xlink:href="#SimHei-48"/>
       <use x="150" xlink:href="#SimHei-48"/>
      </g>
     </g>
    </g>
    <g id="ytick_16">
     <g id="line2d_40">
      <g>
       <use style="stroke:#000000;stroke-width:0.8;" x="362.88" xlink:href="#m717857034d" y="114.3936"/>
      </g>
     </g>
     <g id="text_41">
      <!-- 3000 -->
      <g transform="translate(369.88 117.8311)scale(0.1 -0.1)">
       <use xlink:href="#SimHei-51"/>
       <use x="50" xlink:href="#SimHei-48"/>
       <use x="100" xlink:href="#SimHei-48"/>
       <use x="150" xlink:href="#SimHei-48"/>
      </g>
     </g>
    </g>
    <g id="ytick_17">
     <g id="line2d_41">
      <g>
       <use style="stroke:#000000;stroke-width:0.8;" x="362.88" xlink:href="#m717857034d" y="62.208"/>
      </g>
     </g>
     <g id="text_42">
      <!-- 3500 -->
      <g transform="translate(369.88 65.6455)scale(0.1 -0.1)">
       <use xlink:href="#SimHei-51"/>
       <use x="50" xlink:href="#SimHei-53"/>
       <use x="100" xlink:href="#SimHei-48"/>
       <use x="150" xlink:href="#SimHei-48"/>
      </g>
     </g>
    </g>
   </g>
   <g id="patch_8">
    <path d="M 50.4 453.6 
L 50.4 62.208 
" style="fill:none;"/>
   </g>
   <g id="patch_9">
    <path d="M 362.88 453.6 
L 362.88 62.208 
" style="fill:none;"/>
   </g>
   <g id="patch_10">
    <path d="M 50.4 453.6 
L 362.88 453.6 
" style="fill:none;"/>
   </g>
   <g id="patch_11">
    <path d="M 50.4 62.208 
L 362.88 62.208 
" style="fill:none;"/>
   </g>
   <g id="legend_2">
    <g id="PathCollection_3">
     <defs>
      <path d="M 0 8.329166 
C 2.208921 8.329166 4.327667 7.451552 5.889609 5.889609 
C 7.451552 4.327667 8.329166 2.208921 8.329166 0 
C 8.329166 -2.208921 7.451552 -4.327667 5.889609 -5.889609 
C 4.327667 -7.451552 2.208921 -8.329166 0 -8.329166 
C -2.208921 -8.329166 -4.327667 -7.451552 -5.889609 -5.889609 
C -7.451552 -4.327667 -8.329166 -2.208921 -8.329166 0 
C -8.329166 2.208921 -7.451552 4.327667 -5.889609 5.889609 
C -4.327667 7.451552 -2.208921 8.329166 0 8.329166 
z
" id="m217e872bff" style="stroke:#00ffff;stroke-opacity:0.7;"/>
     </defs>
     <g>
      <use style="fill:#00ffff;fill-opacity:0.7;stroke:#00ffff;stroke-opacity:0.7;" x="69.4" xlink:href="#m217e872bff" y="75.887687"/>
     </g>
    </g>
    <g id="text_43">
     <!-- Students (10K) -->
     <g transform="translate(87.4 78.512687)scale(0.1 -0.1)">
      <defs>
       <path d="M 45.3125 20.703125 
Q 45.3125 11.71875 39.640625 6.4375 
Q 33.984375 1.171875 24.21875 1.171875 
Q 14.453125 1.171875 8.984375 6.640625 
Q 3.515625 12.109375 3.515625 20.3125 
L 3.515625 23.046875 
L 12.5 23.046875 
L 12.5 20.703125 
Q 12.5 14.84375 16.015625 11.71875 
Q 19.53125 8.59375 24.21875 8.59375 
Q 30.46875 8.59375 33.390625 11.90625 
Q 36.328125 15.234375 36.328125 19.921875 
Q 36.328125 23.828125 32.8125 27.140625 
Q 29.296875 30.46875 22.65625 33.203125 
Q 13.28125 36.71875 9.171875 41.015625 
Q 5.078125 45.3125 5.078125 51.171875 
Q 5.078125 59.375 10.734375 64.453125 
Q 16.40625 69.53125 24.21875 69.53125 
Q 34.375 69.53125 38.859375 63.46875 
Q 43.359375 57.421875 43.359375 50.390625 
L 34.375 50.390625 
Q 34.765625 54.6875 32.03125 58.203125 
Q 29.296875 61.71875 24.21875 61.71875 
Q 19.53125 61.71875 16.796875 59.171875 
Q 14.0625 56.640625 14.0625 52.34375 
Q 14.0625 48.828125 16.203125 46.28125 
Q 18.359375 43.75 27.34375 40.234375 
Q 35.9375 36.71875 40.625 31.828125 
Q 45.3125 26.953125 45.3125 20.703125 
z
" id="SimHei-83"/>
      </defs>
      <use xlink:href="#SimHei-83"/>
      <use x="50" xlink:href="#SimHei-116"/>
      <use x="100" xlink:href="#SimHei-117"/>
      <use x="150" xlink:href="#SimHei-100"/>
      <use x="200" xlink:href="#SimHei-101"/>
      <use x="250" xlink:href="#SimHei-110"/>
      <use x="300" xlink:href="#SimHei-116"/>
      <use x="350" xlink:href="#SimHei-115"/>
      <use x="400" xlink:href="#SimHei-32"/>
      <use x="450" xlink:href="#SimHei-40"/>
      <use x="500" xlink:href="#SimHei-49"/>
      <use x="550" xlink:href="#SimHei-48"/>
      <use x="600" xlink:href="#SimHei-75"/>
      <use x="650" xlink:href="#SimHei-41"/>
     </g>
    </g>
    <g id="PathCollection_4">
     <defs>
      <path d="M 0 3.400368 
C 0.901788 3.400368 1.766763 3.042083 2.404423 2.404423 
C 3.042083 1.766763 3.400368 0.901788 3.400368 0 
C 3.400368 -0.901788 3.042083 -1.766763 2.404423 -2.404423 
C 1.766763 -3.042083 0.901788 -3.400368 0 -3.400368 
C -0.901788 -3.400368 -1.766763 -3.042083 -2.404423 -2.404423 
C -3.042083 -1.766763 -3.400368 -0.901788 -3.400368 0 
C -3.400368 0.901788 -3.042083 1.766763 -2.404423 2.404423 
C -1.766763 3.042083 -0.901788 3.400368 0 3.400368 
z
" id="me5cc5b6630" style="stroke:#ffa500;stroke-opacity:0.7;"/>
     </defs>
     <g>
      <use style="fill:#ffa500;fill-opacity:0.7;stroke:#ffa500;stroke-opacity:0.7;" x="69.4" xlink:href="#me5cc5b6630" y="89.442375"/>
     </g>
    </g>
    <g id="text_44">
     <!-- Teachers (10K) -->
     <g transform="translate(87.4 92.067375)scale(0.1 -0.1)">
      <defs>
       <path d="M 39.0625 37.890625 
Q 31.640625 39.0625 26.5625 35.734375 
Q 21.484375 32.421875 17.96875 24.21875 
L 17.96875 1.953125 
L 10.15625 1.953125 
L 10.15625 45.703125 
L 17.96875 45.703125 
L 17.96875 34.375 
Q 21.484375 40.625 26.75 43.546875 
Q 32.03125 46.484375 39.0625 46.484375 
z
" id="SimHei-114"/>
      </defs>
      <use xlink:href="#SimHei-84"/>
      <use x="50" xlink:href="#SimHei-101"/>
      <use x="100" xlink:href="#SimHei-97"/>
      <use x="150" xlink:href="#SimHei-99"/>
      <use x="200" xlink:href="#SimHei-104"/>
      <use x="250" xlink:href="#SimHei-101"/>
      <use x="300" xlink:href="#SimHei-114"/>
      <use x="350" xlink:href="#SimHei-115"/>
      <use x="400" xlink:href="#SimHei-32"/>
      <use x="450" xlink:href="#SimHei-40"/>
      <use x="500" xlink:href="#SimHei-49"/>
      <use x="550" xlink:href="#SimHei-48"/>
      <use x="600" xlink:href="#SimHei-75"/>
      <use x="650" xlink:href="#SimHei-41"/>
     </g>
    </g>
   </g>
  </g>
 </g>
 <defs>
  <clipPath id="p491a2a71a5">
   <rect height="391.392" width="312.48" x="50.4" y="62.208"/>
  </clipPath>
 </defs>
</svg>
